<svg preserveAspectRatio="xMidYMid meet" xmlns="http://www.w3.org/2000/svg" version="1.2" viewBox="0 0 375 375">
  <defs>
    <clipPath id="a">
      <path d="M69 28.313h304v291H69Z"></path>
    </clipPath>
  </defs>
  <path d="M11.016 121.254h47.058c3.332 0 6.078 3.137 6.078 7.058 0 3.922-2.746 7.06-6.078 7.06H11.016c-3.336 0-6.082-3.138-6.082-7.06s2.746-7.058 6.082-7.058M7.484 262.629h69.61a7.03 7.03 0 0 1 7.058 7.058 7.03 7.03 0 0 1-7.058 7.06H7.484a7.03 7.03 0 0 1-7.058-7.06 7.03 7.03 0 0 1 7.058-7.058M69.84 36.941h10.586A7.03 7.03 0 0 1 87.484 44a7.03 7.03 0 0 1-7.058 7.059H69.84A7.03 7.03 0 0 1 62.78 44a7.03 7.03 0 0 1 7.059-7.059M53.563 205.96H82.78a7.03 7.03 0 0 1 7.059 7.06 7.03 7.03 0 0 1-7.059 7.058H53.562a7.03 7.03 0 0 1-7.058-7.058c-.195-3.723 3.137-7.06 7.059-7.06M23.758 205.96h8.238a7.03 7.03 0 0 1 7.059 7.06 7.03 7.03 0 0 1-7.059 7.058h-8.238a7.03 7.03 0 0 1-7.059-7.058c0-3.723 3.336-7.06 7.059-7.06M68.27 290.867h8.039a7.03 7.03 0 0 1 7.058 7.059 7.03 7.03 0 0 1-7.058 7.058h-8.04a7.03 7.03 0 0 1-7.058-7.058 7.03 7.03 0 0 1 7.059-7.059" style="stroke:none;fill-rule:evenodd;fill:var(--d-logo-color);fill-opacity:1"></path>

  <g clip-path="url(#a)">
    <path d="M76.898 65.176h100.786a7.03 7.03 0 0 0 7.058-7.059 7.03 7.03 0 0 0-7.058-7.058H159.84c-.39 0-.785.195-1.176.195H97.88a7.03 7.03 0 0 1-7.059-7.059 7.03 7.03 0 0 1 7.059-7.058h33.332a7.03 7.03 0 0 0 7.059-7.059c0-.59 0-1.18-.196-1.765h80.395c22.746 0 43.531 3.726 62.55 10.98 19.02 7.254 35.293 17.45 49.02 30.59 13.727 12.941 24.313 28.43 31.766 45.883 7.449 17.644 11.175 36.668 11.175 57.058v.785c0 20.586-3.726 39.61-11.175 57.45-7.453 17.648-18.04 33.14-31.766 46.082s-30 23.332-49.02 30.785c-19.019 7.449-39.804 11.176-62.55 11.176h-60.785a7.03 7.03 0 0 0 7.058-7.059 7.03 7.03 0 0 0-7.058-7.059H95.133a7.03 7.03 0 0 1-7.059-7.058 7.03 7.03 0 0 1 7.059-7.059h22.55a7.03 7.03 0 0 0 7.06-7.062 7.03 7.03 0 0 0-7.06-7.059h-22.55a7.03 7.03 0 0 1-7.059-7.058 7.03 7.03 0 0 1 7.059-7.06h38.824a7.03 7.03 0 0 0 7.059-7.058 7.03 7.03 0 0 0-7.059-7.058H82.191a7.03 7.03 0 0 1-7.058-7.059 7.03 7.03 0 0 1 7.058-7.058h32.746a7.03 7.03 0 0 0 7.06-7.06 7.03 7.03 0 0 0-7.06-7.058H100.23a7.03 7.03 0 0 1-7.058-7.058 7.03 7.03 0 0 1 7.058-7.063h18.235a7.03 7.03 0 0 0 7.062-7.058 7.03 7.03 0 0 0-7.062-7.059H90.82a7.03 7.03 0 0 1-7.058-7.059 7.03 7.03 0 0 1 7.058-7.058h23.727a7.03 7.03 0 0 0 7.058-7.059 7.03 7.03 0 0 0-7.058-7.058h-10.98a7.03 7.03 0 0 1-7.063-7.059 7.03 7.03 0 0 1 7.062-7.059h44.903a7.03 7.03 0 0 0 7.058-7.058 7.03 7.03 0 0 0-7.058-7.059H82.977a7.03 7.03 0 0 1-7.059-7.062 7.03 7.03 0 0 1 7.059-7.059h25.687a7.03 7.03 0 0 0 7.059-7.058c0-3.528-2.551-6.47-5.883-7.059H93.562a7.03 7.03 0 0 1-7.058-7.059 7.03 7.03 0 0 1 7.058-7.058h22.551c3.137-.785 5.293-3.528 5.293-6.863 0-3.528-2.547-6.47-5.879-7.059H76.898a7.03 7.03 0 0 1-7.058-7.059 7.03 7.03 0 0 1 7.058-7.058m141.375 196.082c12.942 0 24.903-2.156 35.688-6.274 10.781-4.12 20-10.199 27.644-17.843 7.649-7.844 13.532-16.864 17.844-27.453q6.474-15.883 6.473-35.293v-.786q.001-19.119-6.473-35.297c-4.312-10.78-10.195-20-17.844-27.843-7.644-7.84-16.863-13.723-27.644-18.04-10.785-4.312-22.746-6.468-35.688-6.468h-36.668c-6.863 0-12.55 5.684-12.55 12.547v150.199c0 6.863 5.687 12.55 12.55 12.55Z" style="fill:var(--d-logo-color)"></path>
  </g>
  <path d="M48.86 65.176h10.39a7.03 7.03 0 0 1 7.059 7.058 7.03 7.03 0 0 1-7.059 7.059H48.66a7.03 7.03 0 0 1-7.058-7.059c.195-3.921 3.336-7.058 7.257-7.058" style="fill:var(--d-logo-color)"></path>
</svg>
