<svg xmlns="http://www.w3.org/2000/svg" width="160.949" height="115.674" viewBox="0 0 160.949 115.674">
  <g id="Group_8" data-name="Group 8" transform="translate(-81.614 -106.043)">
    <g id="Group_6" data-name="Group 6" transform="translate(81.614 203.686)">
      <path id="Path_39" data-name="Path 39" d="M89.488,264.974l7.94,17.464H95.021l-1.952-4.3H85.933l-1.93,4.3H81.614Zm-.007,5.249-2.69,6H92.2Z" transform="translate(-81.614 -264.974)" fill="#262626"/>
      <path id="Path_40" data-name="Path 40" d="M115.728,266.028h2.666a7.427,7.427,0,0,1,4.29,1.141,3.391,3.391,0,0,1,1.663,2.881q0,2.124-2.455,3.548,3.8,1.269,3.8,4.4a4.074,4.074,0,0,1-1.96,3.514,9.181,9.181,0,0,1-5.247,1.334h-2.759ZM118,268.06v4.976a5.218,5.218,0,0,0,2.911-.726,2.218,2.218,0,0,0,1.01-1.927,1.992,1.992,0,0,0-.911-1.709,4.173,4.173,0,0,0-2.442-.64A5.19,5.19,0,0,0,118,268.06Zm0,6.969v5.755h.185q2.97,0,4.053-.95a2.653,2.653,0,0,0,1.082-1.941,2.377,2.377,0,0,0-1.214-2.085,6.122,6.122,0,0,0-3.327-.779Z" transform="translate(-94.769 -265.38)" fill="#262626"/>
      <path id="Path_41" data-name="Path 41" d="M154.682,266.277v2.6a11.48,11.48,0,0,0-5-1.334,6.926,6.926,0,0,0-4.937,1.892,6.385,6.385,0,0,0,.046,9.337,7.324,7.324,0,0,0,5.141,1.879,9.727,9.727,0,0,0,4.752-1.412v2.627a10.377,10.377,0,0,1-4.949,1.214,9.328,9.328,0,0,1-6.679-2.644,8.5,8.5,0,0,1-2.772-6.378,8.385,8.385,0,0,1,2.726-6.278,9.151,9.151,0,0,1,6.567-2.612A13.152,13.152,0,0,1,154.682,266.277Z" transform="translate(-104.238 -265.049)" fill="#262626"/>
      <path id="Path_42" data-name="Path 42" d="M189.236,266.028h2.3V272.5h8.038v-6.467h2.271v16.816h-2.271v-8.078h-8.038v8.078h-2.3Z" transform="translate(-123.116 -265.38)" fill="#262626"/>
      <path id="Path_43" data-name="Path 43" d="M218.947,274.005a8.286,8.286,0,0,1,2.746-6.238,9.258,9.258,0,0,1,6.6-2.6,9.024,9.024,0,0,1,6.482,2.618,8.347,8.347,0,0,1,2.719,6.219,8.675,8.675,0,0,1-2.687,6.444,9.51,9.51,0,0,1-13.154-.02A8.66,8.66,0,0,1,218.947,274.005Zm16.1.106a6.211,6.211,0,0,0-2.007-4.688,6.9,6.9,0,0,0-4.936-1.906,6.59,6.59,0,0,0-4.772,1.939,6.272,6.272,0,0,0-1.986,4.654,6.137,6.137,0,0,0,2.038,4.662,7.047,7.047,0,0,0,5,1.905,6.454,6.454,0,0,0,4.692-1.945A6.268,6.268,0,0,0,235.051,274.111Z" transform="translate(-134.573 -265.049)" fill="#262626"/>
      <path id="Path_44" data-name="Path 44" d="M255.854,266.028h10.283v2.3h-4.012v14.52h-2.271v-14.52h-4Z" transform="translate(-148.806 -265.38)" fill="#262626"/>
      <path id="Path_45" data-name="Path 45" d="M280.9,266.028h9.319v2.3h-7.05v4.2h7.05v2.271h-7.05v5.781h7.05v2.27H280.9Z" transform="translate(-158.465 -265.38)" fill="#262626"/>
      <path id="Path_46" data-name="Path 46" d="M305.412,266.028h2.27v14.546h5.478v2.27h-7.748Z" transform="translate(-167.916 -265.38)" fill="#262626"/>
      <path id="Path_47" data-name="Path 47" d="M336,267.57l-1.862,1.492a7.444,7.444,0,0,0-1.337-1.141,3.28,3.28,0,0,0-1.732-.377,3.334,3.334,0,0,0-2.008.56,1.708,1.708,0,0,0-.771,1.441,1.749,1.749,0,0,0,.673,1.349,9.179,9.179,0,0,0,2.293,1.282,16.367,16.367,0,0,1,2.523,1.3,6.468,6.468,0,0,1,1.482,1.326,5.238,5.238,0,0,1,.863,1.53,5.073,5.073,0,0,1,.283,1.7,4.8,4.8,0,0,1-1.524,3.574,5.11,5.11,0,0,1-3.689,1.477,6.252,6.252,0,0,1-3.729-1.154,7.253,7.253,0,0,1-2.488-3.465l2.3-.648q1.253,2.839,3.841,2.838a3,3,0,0,0,2.085-.75,2.443,2.443,0,0,0,.832-1.9,2.564,2.564,0,0,0-.436-1.376,3.9,3.9,0,0,0-1.083-1.138,11.639,11.639,0,0,0-2.059-1.027,14.612,14.612,0,0,1-2.175-1.06,5.606,5.606,0,0,1-1.318-1.148,4.857,4.857,0,0,1-.815-1.326,3.824,3.824,0,0,1-.258-1.411,3.951,3.951,0,0,1,1.452-3.08,5.162,5.162,0,0,1,3.525-1.273,7.143,7.143,0,0,1,2.785.594A5.735,5.735,0,0,1,336,267.57Z" transform="translate(-175.462 -265.049)" fill="#262626"/>
    </g>
    <g id="Group_7" data-name="Group 7" transform="translate(97.692 106.043)">
      <path id="Path_48" data-name="Path 48" d="M228.5,135.505a27.645,27.645,0,0,0-29.021-6.4h0a27.72,27.72,0,0,0-15.38,13.979l-14.551-14.55-2.172,2.172L185.21,148.54l.842-2.223a24.589,24.589,0,0,1,15.608-14.71h0q.8-.25,1.621-.443l.011,0q.818-.193,1.652-.33h0a24.839,24.839,0,0,1,4.042-.336,24.517,24.517,0,1,1,0,49.034,24.754,24.754,0,0,1-3.978-.329h0a24.576,24.576,0,0,1-3.283-.768h0a24.37,24.37,0,0,1-10.081-6.075l-3.1-3.095-33.674-33.67a27.421,27.421,0,0,0-10.079-6.411h0a27.563,27.563,0,0,0-3.276-.96h0a27.783,27.783,0,0,0-6.156-.7,27.581,27.581,0,1,0,0,55.162,27.817,27.817,0,0,0,6.221-.711h0a27.512,27.512,0,0,0,3.274-.969h0a27.606,27.606,0,0,0,15.394-13.965L174.8,181.59l2.172-2.172L159.14,161.582l-.842,2.223a24.512,24.512,0,0,1-15.62,14.7,24.6,24.6,0,0,1-3.282.776h0a24.733,24.733,0,0,1-4.032.338,24.509,24.509,0,1,1,17.34-41.851l4.279,4.278h0l32.491,32.487a27.426,27.426,0,0,0,10.079,6.412h0A27.589,27.589,0,0,0,228.5,135.505Z" transform="translate(-107.783 -114.288)" fill="#262626"/>
      <path id="Path_49" data-name="Path 49" d="M151.9,138.705a40.652,40.652,0,0,0,.049,41.5,20.881,20.881,0,0,0,3.284-.532,37.568,37.568,0,0,1-.049-40.441A20.935,20.935,0,0,0,151.9,138.705Z" transform="translate(-122.608 -118.638)" fill="#262626"/>
      <path id="Path_50" data-name="Path 50" d="M195.251,228.114a37.527,37.527,0,0,1-24.361-8.959,30.733,30.733,0,0,1-3.269,1.209,40.678,40.678,0,0,0,55.327-.065,30.857,30.857,0,0,1-3.271-1.2A37.527,37.527,0,0,1,195.251,228.114Z" transform="translate(-130.858 -149.64)" fill="#262626"/>
      <path id="Path_51" data-name="Path 51" d="M195.207,109.115a37.525,37.525,0,0,1,24.354,8.955,30.893,30.893,0,0,1,3.267-1.212,40.677,40.677,0,0,0-55.319.072,30.72,30.72,0,0,1,3.271,1.2A37.527,37.527,0,0,1,195.207,109.115Z" transform="translate(-130.815 -106.043)" fill="#262626"/>
    </g>
  </g>
</svg>
