<svg xmlns="http://www.w3.org/2000/svg" width="160.949" height="115.674"><g fill="#262626" data-name="Group 8"><g data-name="Group 6"><path d="m7.874 97.643 7.94 17.464h-2.407l-1.952-4.3H4.319l-1.93 4.3H0Zm-.007 5.249-2.69 6h5.409Z" data-name="Path 39"/><path d="M20.959 98.291h2.666a7.43 7.43 0 0 1 4.29 1.141 3.39 3.39 0 0 1 1.663 2.881q0 2.124-2.455 3.548 3.8 1.269 3.8 4.4a4.07 4.07 0 0 1-1.96 3.514 9.2 9.2 0 0 1-5.247 1.334h-2.759Zm2.272 2.032v4.976a5.2 5.2 0 0 0 2.911-.726 2.22 2.22 0 0 0 1.01-1.927 1.99 1.99 0 0 0-.911-1.709 4.17 4.17 0 0 0-2.442-.64 5 5 0 0 0-.568.026m0 6.969v5.755h.185q2.97 0 4.053-.95a2.65 2.65 0 0 0 1.082-1.941 2.38 2.38 0 0 0-1.214-2.085 6.1 6.1 0 0 0-3.327-.779Z" data-name="Path 40"/><path d="M50.444 98.871v2.6a11.5 11.5 0 0 0-5-1.334 6.93 6.93 0 0 0-4.937 1.892 6.385 6.385 0 0 0 .046 9.337 7.32 7.32 0 0 0 5.141 1.879 9.7 9.7 0 0 0 4.752-1.412v2.627a10.4 10.4 0 0 1-4.949 1.214 9.33 9.33 0 0 1-6.679-2.644 8.5 8.5 0 0 1-2.772-6.378 8.39 8.39 0 0 1 2.726-6.278 9.15 9.15 0 0 1 6.567-2.612 13.2 13.2 0 0 1 5.105 1.109" data-name="Path 41"/><path d="M66.12 98.291h2.3v6.472h8.038v-6.467h2.271v16.816h-2.271v-8.078H68.42v8.078h-2.3Z" data-name="Path 42"/><path d="M84.374 106.599a8.29 8.29 0 0 1 2.746-6.238 9.26 9.26 0 0 1 6.6-2.6 9.02 9.02 0 0 1 6.482 2.618 8.35 8.35 0 0 1 2.719 6.219 8.68 8.68 0 0 1-2.687 6.444 9.51 9.51 0 0 1-13.154-.02 8.66 8.66 0 0 1-2.706-6.423m16.1.106a6.21 6.21 0 0 0-2.007-4.688 6.9 6.9 0 0 0-4.936-1.906 6.6 6.6 0 0 0-4.772 1.939 6.27 6.27 0 0 0-1.986 4.654 6.14 6.14 0 0 0 2.038 4.662 7.05 7.05 0 0 0 5 1.905 6.45 6.45 0 0 0 4.692-1.945 6.27 6.27 0 0 0 1.975-4.621Z" data-name="Path 43"/><path d="M107.048 98.291h10.283v2.3h-4.012v14.52h-2.271v-14.52h-4Z" data-name="Path 44"/><path d="M122.435 98.291h9.319v2.3h-7.05v4.2h7.05v2.271h-7.05v5.781h7.05v2.27h-9.319Z" data-name="Path 45"/><path d="M137.496 98.291h2.27v14.546h5.478v2.27h-7.748Z" data-name="Path 46"/><path d="m160.538 100.164-1.862 1.492a7.4 7.4 0 0 0-1.337-1.141 3.3 3.3 0 0 0-1.732-.377 3.33 3.33 0 0 0-2.008.56 1.71 1.71 0 0 0-.771 1.441 1.75 1.75 0 0 0 .673 1.349 9.2 9.2 0 0 0 2.293 1.282 16.4 16.4 0 0 1 2.523 1.3 6.5 6.5 0 0 1 1.482 1.326 5.2 5.2 0 0 1 .863 1.53 5.1 5.1 0 0 1 .283 1.7 4.8 4.8 0 0 1-1.524 3.574 5.1 5.1 0 0 1-3.689 1.477 6.25 6.25 0 0 1-3.729-1.154 7.25 7.25 0 0 1-2.488-3.465l2.3-.648q1.253 2.839 3.841 2.838a3 3 0 0 0 2.085-.75 2.44 2.44 0 0 0 .832-1.9 2.56 2.56 0 0 0-.436-1.376 3.9 3.9 0 0 0-1.083-1.138 11.6 11.6 0 0 0-2.059-1.027 14.6 14.6 0 0 1-2.175-1.06 5.6 5.6 0 0 1-1.318-1.148 4.9 4.9 0 0 1-.815-1.326 3.8 3.8 0 0 1-.258-1.411 3.95 3.95 0 0 1 1.452-3.08 5.16 5.16 0 0 1 3.525-1.273 7.1 7.1 0 0 1 2.785.594 5.74 5.74 0 0 1 2.347 1.811" data-name="Path 47"/></g><g data-name="Group 7"><path d="M136.795 21.217a27.65 27.65 0 0 0-29.021-6.4 27.72 27.72 0 0 0-15.38 13.979l-14.551-14.55-2.172 2.172 17.834 17.834.842-2.223a24.59 24.59 0 0 1 15.608-14.71q.8-.25 1.621-.443h.011q.818-.193 1.652-.33a25 25 0 0 1 4.042-.336 24.517 24.517 0 1 1 0 49.034 25 25 0 0 1-3.978-.329 25 25 0 0 1-3.283-.768 24.4 24.4 0 0 1-10.081-6.075l-3.1-3.095-33.674-33.67a27.4 27.4 0 0 0-10.079-6.411 28 28 0 0 0-3.276-.96 27.8 27.8 0 0 0-6.156-.7 27.581 27.581 0 1 0 0 55.162 27.8 27.8 0 0 0 6.221-.711 28 28 0 0 0 3.274-.969 27.6 27.6 0 0 0 15.394-13.965l14.552 14.549 2.172-2.172-17.832-17.836-.842 2.223a24.51 24.51 0 0 1-15.62 14.7 25 25 0 0 1-3.282.776 25 25 0 0 1-4.032.338 24.509 24.509 0 1 1 17.34-41.851l4.279 4.278 32.491 32.487a27.4 27.4 0 0 0 10.079 6.412 27.589 27.589 0 0 0 28.947-45.44" data-name="Path 48"/><path d="M45.37 20.067a40.65 40.65 0 0 0 .049 41.5 21 21 0 0 0 3.284-.532 37.57 37.57 0 0 1-.049-40.441 21 21 0 0 0-3.284-.527" data-name="Path 49"/><path d="M80.471 78.474a37.53 37.53 0 0 1-24.361-8.959 31 31 0 0 1-3.269 1.209 40.68 40.68 0 0 0 55.327-.065 31 31 0 0 1-3.271-1.2 37.53 37.53 0 0 1-24.426 9.015" data-name="Path 50"/><path d="M80.47 3.072a37.53 37.53 0 0 1 24.354 8.955 31 31 0 0 1 3.267-1.212 40.677 40.677 0 0 0-55.319.072 31 31 0 0 1 3.271 1.2A37.53 37.53 0 0 1 80.47 3.072" data-name="Path 51"/></g></g></svg>