<svg height="1.5rem" viewBox="0 0 60 57" width="1.5rem" xmlns="http://www.w3.org/2000/svg"><g id="039---User-report"><path id="Shape" d="m55 0h-46c-2.76005315.00330612-4.99669388 2.23994685-5 5v39c-.00195379 1.4028548.59071884 2.7408196 1.631 3.682-1.476.867-1.327.784-1.488.868-2.50271435 1.2461178-4.10099136 3.7845351-4.143 6.58v.87c0 .5522847.44771525 1 1 1h39c.5522847 0 1-.4477153 1-1v-.87c-.0139723-2.4894004-1.2955805-4.8000646-3.4-6.13h17.4c2.7600532-.0033061 4.9966939-2.2399468 5-5v-39c-.0033061-2.76005315-2.2399468-4.99669388-5-5zm-16 55h-37c.08692629-2.0046889 1.26546225-3.8005166 3.07-4.678l6.992-4.1c-.1554858 2.6160122 1.061761 5.1243817 3.213 6.621.2625686.1682143.5885779.2043152.8815884.0976233s.5194789-.3439627.6124116-.6416233c.637-2.039 3-3 3.75-3.255.752.261 3.119 1.228 3.753 3.255.0929327.2976606.3194011.5349314.6124116.6416233s.6190198.070591.8815884-.0976233c2.1426184-1.4895708 3.3598414-3.9834397 3.216-6.589 5.384 3.162 6.832 4.017 7.024 4.118 1.7750643.8725298 2.9257802 2.6512584 2.994 4.628zm-28-38.113c.1-1.162 1.034-6.957 9.5-6.957 8.417 0 9.4 5.753 9.5 6.81v3.75c-2.62-1.63-4.036-5.759-4.052-5.807-.1281678-.3835278-.4747049-.6521172-.8780794-.6805701s-.7841838.1888316-.9649206.5505701c-3 6-10.5 6.5-13.107 6.482zm-1 7.483c.2373108-.4691199.5189252-.914479.841-1.33 5.246.107 10.886-1.553 14-5.853.908 1.847 2.623 4.511 5.189 5.525.0235053.1310649.0735272.2559494.147.367.674.975.655.863.822 1.292v3.4c0 .438-.293.584-.913 1.078-.307.244-.326.46-.54 1.222-.709848 2.1752558-1.934173 4.1470743-3.569 5.748-.619.61-.978.849-.978 1.382 0 3.836-.2 4.7.751 6.3-2.632 4.677-7.838 4.675-10.462 0l-.018-.024c.942-1.59.729-2.617.729-6.27 0-.5-.246-.661-.979-1.383-1.6342593-1.6015907-2.8581896-3.5736689-3.568-5.749-.217-.771-.234-.977-.54-1.22-.72-.573-.913-.659-.913-1.078zm16.877 21.085c.3845697 1.755231-.1047452 3.5880188-1.313 4.918-.5248362-.8060961-1.2084049-1.4968101-2.009-2.03 1.3383805-.6592919 2.4829548-1.6543342 3.322-2.888zm-12.714 0c.8391618 1.2340642 1.9836611 2.2297303 3.322 2.89-.8025881.5357313-1.4878134 1.2291221-2.014 2.038-1.2189407-1.3289325-1.7078232-3.1715861-1.308-4.93zm43.837-1.455c0 1.6568542-1.3431458 3-3 3h-20.8c-5.863-3.443-5.421-3.154-5.849-3.506-.1438658-.2552811-.3603676-.4620368-.622-.594-.91-1.373-.729-1.462-.729-5.281 2.191046-1.9919582 3.7795283-4.5584745 4.585-7.408l.318-.253c.6913171-.5146343 1.0981932-1.326161 1.097-2.188v-3.57c-.1069795-.6239373-.3778971-1.2082221-.785-1.693l-.215-.307v-5.555c-.085-.892-1.137-8.715-11.5-8.715-10.429 0-11.418 7.884-11.5 8.87v5.4l-.215.31c-.40517392.4848528-.67587399 1.0676338-.785 1.69v3.57c-.00322938.8532418.39586654 1.6581038 1.077 2.172l.338.269c.802042 2.8510347 2.3910734 5.4184382 4.585 7.408 0 4.382.15 3.738-.734 5.306-.2292446.1242486-.4217048.3067064-.558.529-.372.311-.069.109-5.218 3.135-.91902405-.5393154-1.48539206-1.5234273-1.49-2.589v-39c0-1.65685425 1.34314575-3 3-3h46c1.6568542 0 3 1.34314575 3 3z"/><path id="Shape" d="m56 42h-1v-32c0-1.1045695-.8954305-2-2-2h-2c-1.1045695 0-2 .8954305-2 2v32h-2v-23c0-1.1045695-.8954305-2-2-2h-2c-1.1045695 0-2 .8954305-2 2v23h-2v-8c0-1.1045695-.8954305-2-2-2h-2c-1.1045695 0-2 .8954305-2 2v8h-1c-.5522847 0-1 .4477153-1 1s.4477153 1 1 1h24c.5522847 0 1-.4477153 1-1s-.4477153-1-1-1zm-21 0v-8h2v8zm8 0v-23h2v23zm8 0v-32h2v32z"/></g></svg>