<svg xmlns="http://www.w3.org/2000/svg" width="1.5rem" height="1.5rem" viewBox="0 0 60 57"><path d="M55 0H9a5.006 5.006 0 0 0-5 5v39a4.96 4.96 0 0 0 1.631 3.682c-1.476.867-1.327.784-1.488.868A7.48 7.48 0 0 0 0 55.13V56a1 1 0 0 0 1 1h39a1 1 0 0 0 1-1v-.87A7.3 7.3 0 0 0 37.6 49H55a5.006 5.006 0 0 0 5-5V5a5.006 5.006 0 0 0-5-5M39 55H2a5.47 5.47 0 0 1 3.07-4.678l6.992-4.1a7.52 7.52 0 0 0 3.213 6.621 1 1 0 0 0 1.494-.544c.637-2.039 3-3 3.75-3.255.752.261 3.119 1.228 3.753 3.255a1 1 0 0 0 1.494.544 7.52 7.52 0 0 0 3.216-6.589c5.384 3.162 6.832 4.017 7.024 4.118A5.36 5.36 0 0 1 39 55M11 16.887c.1-1.162 1.034-6.957 9.5-6.957 8.417 0 9.4 5.753 9.5 6.81v3.75c-2.62-1.63-4.036-5.759-4.052-5.807a1 1 0 0 0-1.843-.13c-3 6-10.5 6.5-13.107 6.482zm-1 7.483q.357-.706.841-1.33c5.246.107 10.886-1.553 14-5.853.908 1.847 2.623 4.511 5.189 5.525a1 1 0 0 0 .147.367c.674.975.655.863.822 1.292v3.4c0 .438-.293.584-.913 1.078-.307.244-.326.46-.54 1.222a14.2 14.2 0 0 1-3.569 5.748c-.619.61-.978.849-.978 1.382 0 3.836-.2 4.7.751 6.3-2.632 4.677-7.838 4.675-10.462 0l-.018-.024c.942-1.59.729-2.617.729-6.27 0-.5-.246-.661-.979-1.383a14.2 14.2 0 0 1-3.568-5.749c-.217-.771-.234-.977-.54-1.22-.72-.573-.913-.659-.913-1.078zm16.877 21.085a5.55 5.55 0 0 1-1.313 4.918 7.1 7.1 0 0 0-2.009-2.03 8.6 8.6 0 0 0 3.322-2.888m-12.714 0a8.64 8.64 0 0 0 3.322 2.89 7.1 7.1 0 0 0-2.014 2.038 5.49 5.49 0 0 1-1.308-4.93zM58 44a3 3 0 0 1-3 3H34.2c-5.863-3.443-5.421-3.154-5.849-3.506a1.5 1.5 0 0 0-.622-.594c-.91-1.373-.729-1.462-.729-5.281a15.83 15.83 0 0 0 4.585-7.408l.318-.253A2.72 2.72 0 0 0 33 27.77V24.2a3.57 3.57 0 0 0-.785-1.693L32 22.2v-5.555c-.085-.892-1.137-8.715-11.5-8.715-10.429 0-11.418 7.884-11.5 8.87v5.4l-.215.31A3.6 3.6 0 0 0 8 24.2v3.57a2.7 2.7 0 0 0 1.077 2.172l.338.269A15.76 15.76 0 0 0 14 37.619c0 4.382.15 3.738-.734 5.306-.23.124-.422.307-.558.529-.372.311-.069.109-5.218 3.135A3.02 3.02 0 0 1 6 44V5a3 3 0 0 1 3-3h46a3 3 0 0 1 3 3z"/><path d="M56 42h-1V10a2 2 0 0 0-2-2h-2a2 2 0 0 0-2 2v32h-2V19a2 2 0 0 0-2-2h-2a2 2 0 0 0-2 2v23h-2v-8a2 2 0 0 0-2-2h-2a2 2 0 0 0-2 2v8h-1a1 1 0 0 0 0 2h24a1 1 0 0 0 0-2m-21 0v-8h2v8zm8 0V19h2v23zm8 0V10h2v32z"/></svg>