<svg xmlns="http://www.w3.org/2000/svg" width="1.5rem" height="1.5rem" fill="none" viewBox="0 0 45 45"><path fill="#3C3C3C" d="M23.026 7.548v4.03l4.026-2.325 1 1.733-5.026 2.901v6.928l6-3.464v-5.803h2v4.648l3.491-2.014 1 1.732-3.49 2.015 4.025 2.324-1 1.733-5.026-2.903-6 3.464 6.001 3.465 5.025-2.902 1 1.732-4.026 2.324 3.491 2.016-1 1.732-3.49-2.015v4.649h-2v-5.804l-6-3.465v6.929l5.025 2.902-1 1.732-4.026-2.325v4.031h-2v-4.031L17 35.842l-1-1.732 5.026-2.902v-6.929l-6 3.464v5.805h-2v-4.65l-3.49 2.016-1-1.732 3.49-2.016L8 24.842l1-1.732 5.025 2.901 6-3.464-5.999-3.464L9 21.986l-1-1.733 4.026-2.324-3.49-2.015 1-1.732 3.49 2.014v-4.648h2v5.803l6 3.464v-6.928L16 10.986l1-1.733 4.026 2.325v-4.03z"/></svg>