<svg id="Layer_1" enable-background="new 0 0 512 512" height="1.5rem" viewBox="0 0 512 512" width="1.5rem" xmlns="http://www.w3.org/2000/svg"><g><path d="m456.834 32.133h-401.666c-30.419 0-55.168 24.748-55.168 55.167v176.733c0 30.419 24.749 55.167 55.168 55.167h24.1 289.199 88.367c30.418 0 55.166-24.748 55.166-55.166v-176.734c0-30.419-24.748-55.167-55.166-55.167zm-362.566 257.067v-34.267h259.199v34.267zm387.732-25.166c0 13.876-11.29 25.166-25.166 25.166h-73.367v-49.267c0-8.284-6.716-15-15-15h-289.199c-8.284 0-15 6.716-15 15v49.267h-9.1c-13.877 0-25.168-11.29-25.168-25.166v-176.734c0-13.877 11.291-25.167 25.168-25.167h401.666c13.876 0 25.166 11.29 25.166 25.167z"/><path d="m223.867 353.466c-8.284 0-15 6.716-15 15v96.4c0 8.284 6.716 15 15 15s15-6.716 15-15v-96.4c0-8.284-6.716-15-15-15z"/><path d="m368.467 160.667h-289.199c-8.284 0-15 6.716-15 15s6.716 15 15 15h289.199c8.284 0 15-6.716 15-15s-6.716-15-15-15z"/><path d="m368.467 96.4h-289.199c-8.284 0-15 6.716-15 15s6.716 15 15 15h289.199c8.284 0 15-6.716 15-15s-6.716-15-15-15z"/><path d="m432.73 160.67c-3.94 0-7.81 1.6-10.6 4.39s-4.4 6.66-4.4 10.61 1.61 7.81 4.4 10.6 6.66 4.4 10.6 4.4c3.95 0 7.82-1.61 10.61-4.4s4.39-6.66 4.39-10.6c0-3.95-1.6-7.82-4.39-10.61s-6.66-4.39-10.61-4.39z"/><path d="m432.73 96.4c-3.94 0-7.81 1.6-10.6 4.39-2.8 2.8-4.4 6.66-4.4 10.61s1.6 7.81 4.4 10.61c2.79 2.79 6.65 4.39 10.6 4.39s7.82-1.6 10.61-4.39c2.79-2.8 4.39-6.66 4.39-10.61s-1.6-7.81-4.39-10.61c-2.79-2.79-6.66-4.39-10.61-4.39z"/><path d="m159.602 353.466c-8.284 0-15 6.716-15 15v64.267c0 9.448-7.687 17.134-17.135 17.134-9.447 0-17.133-7.686-17.133-17.134 0-8.284-6.716-15-15-15s-15 6.716-15 15c0 25.99 21.144 47.134 47.133 47.134 25.99 0 47.135-21.144 47.135-47.134v-64.267c0-8.284-6.716-15-15-15z"/><path d="m352.4 417.733c-8.284 0-15 6.716-15 15 0 9.448-7.686 17.134-17.133 17.134s-17.133-7.686-17.133-17.134v-64.267c0-8.284-6.716-15-15-15s-15 6.716-15 15v64.267c0 25.99 21.144 47.134 47.133 47.134s47.133-21.144 47.133-47.134c0-8.284-6.715-15-15-15z"/></g></svg>