<svg xmlns="http://www.w3.org/2000/svg" width="1.5rem" height="1.5rem" fill="var(--p-text-color)" viewBox="0 0 50 50"><path d="M17 2a.999.999 0 0 0-.812 1.58L19.346 8h-5.729l-1.722-3.447A1 1 0 0 0 11 4H9a1 1 0 0 0-1 1v6c0 3.303 5.598 4.488 10.95 4.87l-3.778 5.57A1 1 0 0 0 16 23h4.375a1 1 0 0 0 .684-.271L28.239 16H39a1 1 0 0 0 .447-.105c.124-.061 1.214-.64 1.412-1.862.148-.907-.24-1.828-1.152-2.74C37.674 9.26 35.509 8 31 8h-1.877l-7.117-5.775A1 1 0 0 0 21.375 2zm1.943 2h2.078l4.928 4h-4.146zM10 6h.383l1.722 3.447A1 1 0 0 0 13 10h18c3.855 0 5.537.951 7.293 2.707.598.599.607.918.594 1.002-.015.111-.108.217-.192.291H27.844a1 1 0 0 0-.684.271L19.98 21h-2.093l3.71-5.469a1.003 1.003 0 0 0-.786-1.56C13.713 13.678 10 12.254 10 11zm-.918 19A3.085 3.085 0 0 0 6 28.082v14.836C6 44.618 7.382 46 9.082 46h2.193c.622 1.742 2.272 3 4.225 3s3.603-1.258 4.225-3h10.55c.622 1.742 2.272 3 4.225 3s3.603-1.258 4.225-3h3.193c1.7 0 3.082-1.382 3.082-3.082v-5.49c0-.703-.213-1.38-.617-1.957l-5.59-7.996C37.726 26.087 35.583 25 33.916 25zm0 2h24.836c1.041 0 2.609.807 3.264 1.656l.261.375H33.75a1 1 0 0 0-1 1v6a1 1 0 0 0 1 1h9c.065 0 .12-.025.182-.037q.067.21.068.434v5.49c0 .597-.485 1.082-1.082 1.082h-2.969c-.252-2.244-2.14-4-4.449-4-2.31 0-4.197 1.756-4.45 4h-10.1c-.253-2.244-2.14-4-4.45-4s-4.197 1.756-4.45 4H9.083A1.083 1.083 0 0 1 8 42.918V28.082C8 27.485 8.485 27 9.082 27m25.668 4.031h4.092l2.795 4H34.75zM15.5 42c1.378 0 2.5 1.121 2.5 2.5 0 .063-.015.122-.02.184a1 1 0 0 0-.062.316c0 .022.012.04.014.063A2.5 2.5 0 0 1 15.5 47a2.503 2.503 0 0 1-2.5-2.5c0-1.379 1.122-2.5 2.5-2.5m19 0c1.379 0 2.5 1.121 2.5 2.5 0 .063-.015.122-.02.184a1 1 0 0 0-.062.316c0 .022.012.04.014.063A2.5 2.5 0 0 1 34.5 47a2.5 2.5 0 0 1-2.5-2.5c0-1.379 1.121-2.5 2.5-2.5"/></svg>