<svg xmlns="http://www.w3.org/2000/svg" width="1.5rem" height="1.5rem" viewBox="0 0 64 64"><path d="m16.13 17.454 8.646-4.989a5.26 5.26 0 0 0 1.922-7.182 5.3 5.3 0 0 0-4.563-2.62c-.915 0-1.818.241-2.611.699l-8.646 4.989c-2.495 1.44-3.36 4.657-1.92 7.186a5.34 5.34 0 0 0 4.578 2.61c.911 0 1.808-.24 2.594-.693m-5.442-2.921c-.889-1.561-.355-3.557 1.19-4.449l8.646-4.989a3.23 3.23 0 0 1 1.611-.432c1.163 0 2.249.624 2.833 1.624.429.742.539 1.617.312 2.466a3.23 3.23 0 0 1-1.504 1.979l-8.646 4.989a3.2 3.2 0 0 1-1.594.426 3.33 3.33 0 0 1-2.848-1.614M53.123 8.353 44.499 3.36a5.3 5.3 0 0 0-2.627-.696 5.31 5.31 0 0 0-4.573 2.624 5.26 5.26 0 0 0 1.925 7.178l8.646 4.989a5.2 5.2 0 0 0 2.599.693 5.29 5.29 0 0 0 4.581-2.624c1.43-2.514.566-5.731-1.927-7.171m.191 6.175c-.576.999-1.667 1.619-2.846 1.619a3.2 3.2 0 0 1-1.599-.426l-8.646-4.989a3.23 3.23 0 0 1-1.504-1.979 3.22 3.22 0 0 1 .309-2.462 3.303 3.303 0 0 1 4.475-1.197l8.619 4.99c1.545.893 2.078 2.889 1.192 4.444M53.225 34.956c0-11.711-9.516-21.239-21.211-21.239-11.711 0-21.239 9.528-21.239 21.239 0 6.002 2.514 11.42 6.531 15.286l-2.003 3.459c-1.403 2.422-.566 5.541 1.866 6.952a5.04 5.04 0 0 0 3.863.508 5.09 5.09 0 0 0 3.09-2.378l1.977-3.443c1.88.547 3.861.855 5.915.855 2.045 0 4.017-.307 5.89-.851l1.976 3.442a5.09 5.09 0 0 0 3.131 2.382q.651.17 1.304.17a4.95 4.95 0 0 0 2.518-.686c2.432-1.412 3.269-4.53 1.867-6.948l-1.99-3.468c4.007-3.865 6.515-9.28 6.515-15.28M22.39 57.783a3.1 3.1 0 0 1-1.88 1.446 3.04 3.04 0 0 1-2.337-.307c-1.479-.857-1.99-2.75-1.14-4.219l1.806-3.12a21.2 21.2 0 0 0 5.334 3.093zm-9.616-22.827c0-10.608 8.631-19.239 19.239-19.239 10.593 0 19.211 8.631 19.211 19.239s-8.618 19.239-19.211 19.239c-10.608 0-19.239-8.631-19.239-19.239m34.192 19.749c.851 1.468.34 3.359-1.144 4.221a3.01 3.01 0 0 1-2.305.309 3.1 3.1 0 0 1-1.906-1.447l-1.782-3.104a21.2 21.2 0 0 0 5.345-3.101z"/><path d="M33.014 34.544v-8.573a1 1 0 1 0-2 0v8.985c0 .264.104.518.29.704l3.771 3.799a.997.997 0 0 0 1.414.006 1 1 0 0 0 .006-1.414z"/></svg>