<svg id="Line" height="1.5rem" viewBox="0 0 64 64" width="1.5rem" xmlns="http://www.w3.org/2000/svg"><g><path d="m16.13 17.454 8.646-4.989c2.51-1.449 3.373-4.669 1.922-7.182-.942-1.616-2.691-2.62-4.563-2.62-.915 0-1.818.241-2.611.699l-8.646 4.989c-2.495 1.44-3.36 4.657-1.92 7.186.952 1.61 2.706 2.61 4.578 2.61.911 0 1.808-.24 2.594-.693zm-5.442-2.921c-.889-1.561-.355-3.557 1.19-4.449l8.646-4.989c.489-.282 1.047-.432 1.611-.432 1.163 0 2.249.624 2.833 1.624.429.742.539 1.617.312 2.466-.228.848-.762 1.551-1.504 1.979l-8.646 4.989c-.482.278-1.033.426-1.594.426-1.168 0-2.263-.624-2.848-1.614z"/><path d="m53.123 8.353-8.624-4.993c-.801-.456-1.709-.696-2.627-.696-1.876 0-3.628 1.004-4.573 2.624-1.448 2.509-.585 5.729 1.925 7.178l8.646 4.989c.785.453 1.685.693 2.599.693 1.891 0 3.646-1.004 4.581-2.624 1.43-2.514.566-5.731-1.927-7.171zm.191 6.175c-.576.999-1.667 1.619-2.846 1.619-.563 0-1.116-.147-1.599-.426l-8.646-4.989c-.742-.429-1.276-1.132-1.504-1.979-.228-.849-.117-1.724.309-2.462.587-1.004 1.676-1.628 2.844-1.628.571 0 1.138.15 1.631.431l8.619 4.99c1.545.893 2.078 2.889 1.192 4.444z"/><path d="m53.225 34.956c0-11.711-9.516-21.239-21.211-21.239-11.711 0-21.239 9.528-21.239 21.239 0 6.002 2.514 11.42 6.531 15.286l-2.003 3.459c-1.403 2.422-.566 5.541 1.866 6.952.782.453 1.651.686 2.531.686.444 0 .892-.06 1.332-.178 1.309-.354 2.405-1.197 3.09-2.378l1.977-3.443c1.88.547 3.861.855 5.915.855 2.045 0 4.017-.307 5.89-.851l1.976 3.442c.688 1.187 1.8 2.032 3.131 2.382.433.113.87.17 1.304.17.882 0 1.746-.232 2.518-.686 2.432-1.412 3.269-4.53 1.867-6.948l-1.99-3.468c4.007-3.865 6.515-9.28 6.515-15.28zm-30.835 22.827c-.416.718-1.083 1.231-1.88 1.446-.796.216-1.626.106-2.337-.307-1.479-.857-1.99-2.75-1.14-4.219l1.806-3.12c1.607 1.276 3.4 2.321 5.334 3.093zm-9.616-22.827c0-10.608 8.631-19.239 19.239-19.239 10.593 0 19.211 8.631 19.211 19.239s-8.618 19.239-19.211 19.239c-10.608 0-19.239-8.631-19.239-19.239zm34.192 19.749c.851 1.468.34 3.359-1.144 4.221-.694.407-1.513.517-2.305.309-.812-.213-1.489-.729-1.906-1.447l-1.782-3.104c1.938-.773 3.735-1.82 5.345-3.101z"/><path d="m33.014 34.544v-8.573c0-.553-.447-1-1-1s-1 .447-1 1v8.985c0 .264.104.518.29.704l3.771 3.799c.195.197.453.296.71.296.255 0 .51-.097.704-.29.393-.39.395-1.022.006-1.414z"/></g></svg>