<svg id="Layer_1" height="512" viewBox="0 0 128 128" width="512" xmlns="http://www.w3.org/2000/svg" data-name="Layer 1"><path d="m57.81 107.978a2.5 2.5 0 0 0 -1.919.9l-5.891 7.059-22.79-27.319h10.79a2 2 0 0 0 2-1.995c0-6.076 0-24.246 0-29.27a2.606 2.606 0 0 0 -2.652-2.653 2.492 2.492 0 0 0 -2.348 2.5v26.42h-13.01a2.612 2.612 0 0 0 -2.026.885 2.507 2.507 0 0 0 -.014 3.215l28.13 33.72a2.5 2.5 0 0 0 3.84 0l7.809-9.36a2.5 2.5 0 0 0 -1.919-4.102z"/><path d="m78.01 83.618h-11.51v-42.28a2.006 2.006 0 0 0 -2-2h-9.29l8.585-10.3a2.5 2.5 0 0 0 -3.834-3.2l-12.011 14.4a2.517 2.517 0 0 0 -.034 3.164 2.6 2.6 0 0 0 2.074.935h11.51v42.28a2.006 2.006 0 0 0 2 2h9.29l-8.56 10.26a2.474 2.474 0 0 0 -.59 1.59 2.506 2.506 0 0 0 4.43 1.61l11.98-14.36a2.507 2.507 0 0 0 -.014-3.215 2.612 2.612 0 0 0 -2.026-.884z"/><path d="m108.05 40.238-28.13-33.72a2.583 2.583 0 0 0 -3.84 0l-7.78 9.335a2.5 2.5 0 0 0 1.917 4.095 2.5 2.5 0 0 0 1.916-.9l5.867-7.03 22.79 27.32h-10.79a1.994 1.994 0 0 0 -2 1.993v27.709a2.6 2.6 0 0 0 2.318 2.66 2.5 2.5 0 0 0 2.682-2.5v-24.863h13.01a2.6 2.6 0 0 0 2.074-.935 2.517 2.517 0 0 0 -.034-3.164z"/></svg>