<svg xmlns="http://www.w3.org/2000/svg" width="1.5rem" height="1.5rem" data-name="Layer 1" viewBox="0 0 128 128"><path d="M57.81 107.978a2.5 2.5 0 0 0-1.919.9L50 115.937 27.21 88.618H38a2 2 0 0 0 2-1.995v-29.27a2.606 2.606 0 0 0-2.652-2.653A2.49 2.49 0 0 0 35 57.2v26.42H21.99a2.61 2.61 0 0 0-2.026.885 2.51 2.51 0 0 0-.014 3.215l28.13 33.72a2.5 2.5 0 0 0 3.84 0l7.809-9.36a2.5 2.5 0 0 0-1.919-4.102M78.01 83.618H66.5v-42.28a2.006 2.006 0 0 0-2-2h-9.29l8.585-10.3a2.5 2.5 0 0 0-3.834-3.2l-12.011 14.4a2.52 2.52 0 0 0-.034 3.164 2.6 2.6 0 0 0 2.074.935H61.5v42.28a2.006 2.006 0 0 0 2 2h9.29l-8.56 10.26a2.47 2.47 0 0 0-.59 1.59 2.506 2.506 0 0 0 4.43 1.61l11.98-14.36a2.51 2.51 0 0 0-.014-3.215 2.61 2.61 0 0 0-2.026-.884M108.05 40.238 79.92 6.518a2.583 2.583 0 0 0-3.84 0l-7.78 9.335a2.5 2.5 0 0 0 1.917 4.095 2.5 2.5 0 0 0 1.916-.9L78 12.018l22.79 27.32H90a1.994 1.994 0 0 0-2 1.993V69.04a2.6 2.6 0 0 0 2.318 2.66A2.5 2.5 0 0 0 93 69.2V44.337h13.01a2.6 2.6 0 0 0 2.074-.935 2.52 2.52 0 0 0-.034-3.164"/></svg>