<svg id="Layer_1" enable-background="new 0 0 512 512" height="512" viewBox="0 0 512 512" width="512" xmlns="http://www.w3.org/2000/svg"><g><path d="m456.832 0h-401.665c-30.419 0-55.167 24.747-55.167 55.166v401.667c0 30.419 24.748 55.167 55.167 55.167h401.666c30.42 0 55.168-24.748 55.168-55.167v-401.667c-.001-30.419-24.749-55.166-55.169-55.166zm25.168 456.833c0 13.877-11.29 25.167-25.168 25.167h-401.665c-13.877 0-25.167-11.29-25.167-25.167v-401.667c0-13.877 11.29-25.166 25.167-25.166h401.666c13.877 0 25.167 11.289 25.167 25.166z"/><path d="m432.732 289.2h-64.266-224.932-64.268c-8.284 0-15 6.716-15 15v80.333c0 8.284 6.716 15 15 15h49.268v33.2c0 8.284 6.716 15 15 15h224.933c8.284 0 15-6.716 15-15v-33.2h49.266c8.284 0 15-6.716 15-15v-80.333c-.001-8.284-6.716-15-15.001-15zm-209.933 30h66.4v9.1c0 13.877-11.289 25.167-25.166 25.167h-16.066c-13.877 0-25.168-11.29-25.168-25.167zm-128.533 50.333v-50.333h34.268v50.333zm64.268 48.2v-98.533h34.266v9.1c0 30.419 24.748 55.167 55.168 55.167h16.066c30.419 0 55.166-24.748 55.166-55.167v-9.1h34.268v65.179c0 .052-.008.102-.008.154s.008.103.008.154v33.046zm259.198-48.2h-34.266v-50.333h34.266z"/><path d="m79.266 254.933h289.201c8.284 0 15-6.716 15-15v-160.666c0-8.284-6.716-15-15-15h-289.201c-8.284 0-15 6.716-15 15v160.666c0 8.284 6.716 15 15 15zm15-160.666h259.201v130.666h-259.201z"/><path d="m432.729 238.87c3.95 0 7.82-1.601 10.61-4.4 2.79-2.79 4.39-6.66 4.39-10.6 0-3.95-1.6-7.82-4.39-10.61s-6.66-4.39-10.61-4.39c-3.949 0-7.81 1.6-10.6 4.39-2.8 2.79-4.4 6.66-4.4 10.61 0 3.939 1.601 7.81 4.4 10.6 2.791 2.8 6.651 4.4 10.6 4.4z"/><path d="m432.729 174.6c3.95 0 7.811-1.6 10.61-4.39 2.79-2.8 4.39-6.66 4.39-10.61s-1.6-7.81-4.39-10.609c-2.79-2.79-6.66-4.391-10.61-4.391-3.949 0-7.81 1.601-10.6 4.391-2.8 2.8-4.4 6.659-4.4 10.609s1.601 7.811 4.4 10.61c2.791 2.79 6.651 4.39 10.6 4.39z"/><path d="m432.729 110.33c3.95 0 7.82-1.601 10.61-4.391s4.39-6.66 4.39-10.609c0-3.94-1.6-7.811-4.39-10.601-2.79-2.8-6.66-4.399-10.61-4.399-3.949 0-7.81 1.6-10.6 4.399-2.8 2.79-4.4 6.65-4.4 10.601 0 3.949 1.601 7.819 4.4 10.609 2.791 2.79 6.651 4.391 10.6 4.391z"/></g></svg>