<svg xmlns="http://www.w3.org/2000/svg" width="1.5rem" height="1.5rem" viewBox="0 0 512 512"><path d="M456.832 0H55.167C24.748 0 0 24.747 0 55.166v401.667C0 487.252 24.748 512 55.167 512h401.666c30.42 0 55.168-24.748 55.168-55.167V55.166C512 24.747 487.252 0 456.832 0M482 456.833C482 470.71 470.71 482 456.832 482H55.167C41.29 482 30 470.71 30 456.833V55.166C30 41.289 41.29 30 55.167 30h401.666C470.71 30 482 41.289 482 55.166z"/><path d="M432.732 289.2H79.266c-8.284 0-15 6.716-15 15v80.333c0 8.284 6.716 15 15 15h49.268v33.2c0 8.284 6.716 15 15 15h224.933c8.284 0 15-6.716 15-15v-33.2h49.266c8.284 0 15-6.716 15-15V304.2c-.001-8.284-6.716-15-15.001-15m-209.933 30h66.4v9.1c0 13.877-11.289 25.167-25.166 25.167h-16.066c-13.877 0-25.168-11.29-25.168-25.167zM94.266 369.533V319.2h34.268v50.333zm64.268 48.2V319.2H192.8v9.1c0 30.419 24.748 55.167 55.168 55.167h16.066c30.419 0 55.166-24.748 55.166-55.167v-9.1h34.268v65.179c0 .052-.008.102-.008.154s.008.103.008.154v33.046zm259.198-48.2h-34.266V319.2h34.266zM79.266 254.933h289.201c8.284 0 15-6.716 15-15V79.267c0-8.284-6.716-15-15-15H79.266c-8.284 0-15 6.716-15 15v160.666c0 8.284 6.716 15 15 15m15-160.666h259.201v130.666H94.266zM432.729 238.87c3.95 0 7.82-1.601 10.61-4.4 2.79-2.79 4.39-6.66 4.39-10.6 0-3.95-1.6-7.82-4.39-10.61s-6.66-4.39-10.61-4.39-7.81 1.6-10.6 4.39c-2.8 2.79-4.4 6.66-4.4 10.61 0 3.939 1.601 7.81 4.4 10.6 2.791 2.8 6.651 4.4 10.6 4.4M432.729 174.6c3.95 0 7.811-1.6 10.61-4.39 2.79-2.8 4.39-6.66 4.39-10.61s-1.6-7.81-4.39-10.609a15.1 15.1 0 0 0-10.61-4.391 15.1 15.1 0 0 0-10.6 4.391c-2.8 2.8-4.4 6.659-4.4 10.609s1.601 7.811 4.4 10.61a15.1 15.1 0 0 0 10.6 4.39M432.729 110.33c3.95 0 7.82-1.601 10.61-4.391s4.39-6.66 4.39-10.609c0-3.94-1.6-7.811-4.39-10.601a15.08 15.08 0 0 0-10.61-4.399c-3.949 0-7.81 1.6-10.6 4.399-2.8 2.79-4.4 6.65-4.4 10.601 0 3.949 1.601 7.819 4.4 10.609a15.1 15.1 0 0 0 10.6 4.391"/></svg>