<svg xmlns="http://www.w3.org/2000/svg" xml:space="preserve" width="1.5rem" height="1.5rem" viewBox="0 0 328.571 328.571"><path d="M232.673 202.503c17.996 0 32.637-14.64 32.637-32.635s-14.641-32.635-32.637-32.635c-17.994 0-32.634 14.64-32.634 32.635s14.64 32.635 32.634 32.635m0-47.27c8.07 0 14.637 6.565 14.637 14.635s-6.566 14.635-14.637 14.635c-8.069 0-14.634-6.565-14.634-14.635s6.565-14.635 14.634-14.635M108.566 75.058c20.693 0 37.529-16.835 37.529-37.528 0-20.695-16.836-37.53-37.529-37.53s-37.53 16.835-37.53 37.529 16.836 37.529 37.53 37.529m0-57.058c10.769 0 19.529 8.761 19.529 19.529s-8.761 19.528-19.529 19.528-19.529-8.76-19.529-19.528C89.036 26.761 97.797 18 108.566 18m23.95 301.568a9 9 0 0 1-9 9H99.249l-.048.002a8.98 8.98 0 0 1-6.946-3.277 8.97 8.97 0 0 1-2.056-5.726l.002-.039V189.407l-49.135-22.78a9 9 0 0 1-5.214-8.028l-.389-25.57a9 9 0 0 1 .003-.409c.88-29.092 18.047-47.89 43.736-47.89 40.699 0 56.209 22.673 67.551 43.924l33.854 63.427a9 9 0 1 1-15.878 8.476l-33.854-63.427c-10.046-18.821-20.867-34.4-51.672-34.4-22.247 0-25.424 20.983-25.738 30.238l.3 19.706L90.2 169.567v-26.628c0-4.971 4.029-9 9-9s9 4.029 9 9v34.973l15.844 7.345a9 9 0 0 1 4.38 11.951 9 9 0 0 1-8.171 5.216 8.96 8.96 0 0 1-3.779-.837l-8.273-3.836v112.816h15.315c4.971.001 9 4.031 9 9.001M292.68 216.229h-38.869l-.048-.002-.048.002h-42.082l-.048-.002-.048.002h-38.868c-4.971 0-9 4.029-9 9s4.029 9 9 9h29.916v76.339h-14.4c-4.971 0-9 4.029-9 9s4.029 9 9 9h23.352l.048.002a8.98 8.98 0 0 0 6.946-3.277 8.97 8.97 0 0 0 2.056-5.726l-.002-.039v-32.89h24.179v32.931a9 9 0 0 0 9 9l.048-.002h23.35c4.971 0 9-4.029 9-9s-4.029-9-9-9h-14.398v-76.339h29.917a9 9 0 1 0-.001-17.999m-47.917 52.411h-24.179v-34.411h24.179zM69.208 319.568a8.96 8.96 0 0 1-2.056 5.726 8.98 8.98 0 0 1-6.946 3.277l-.048-.002H35.891c-4.971 0-9-4.029-9-9s4.029-9 9-9h15.315v-82.207c0-4.971 4.029-9 9-9s9 4.029 9 9v91.168z"/></svg>