<?xml version="1.0" encoding="iso-8859-1"?>
<!-- Uploaded to: SVG Repo, www.svgrepo.com, Generator: SVG Repo Mixer Tools -->
<!DOCTYPE svg PUBLIC "-//W3C//DTD SVG 1.1//EN" "http://www.w3.org/Graphics/SVG/1.1/DTD/svg11.dtd">
<svg fill="#000000" height="800px" width="800px" version="1.1" id="Capa_1" xmlns="http://www.w3.org/2000/svg" xmlns:xlink="http://www.w3.org/1999/xlink" 
	 viewBox="0 0 328.571 328.571" xml:space="preserve">
<path d="M232.673,202.503c17.996,0,32.637-14.64,32.637-32.635s-14.641-32.635-32.637-32.635c-17.994,0-32.634,14.64-32.634,32.635
	S214.679,202.503,232.673,202.503z M232.673,155.233c8.07,0,14.637,6.565,14.637,14.635s-6.566,14.635-14.637,14.635
	c-8.069,0-14.634-6.565-14.634-14.635S224.604,155.233,232.673,155.233z M108.566,75.058c20.693,0,37.529-16.835,37.529-37.528
	C146.095,16.835,129.259,0,108.566,0S71.036,16.835,71.036,37.529C71.036,58.223,87.872,75.058,108.566,75.058z M108.566,18
	c10.769,0,19.529,8.761,19.529,19.529c0,10.768-8.761,19.528-19.529,19.528s-19.529-8.76-19.529-19.528
	C89.036,26.761,97.797,18,108.566,18z M132.516,319.568c0,4.971-4.029,9-9,9H99.249c-0.016,0-0.032,0.002-0.048,0.002
	c-2.797,0-5.295-1.276-6.946-3.277c-1.284-1.556-2.056-3.551-2.056-5.726c0-0.013,0.002-0.026,0.002-0.039V189.407l-49.135-22.78
	c-3.136-1.453-5.161-4.573-5.214-8.028l-0.389-25.57c-0.002-0.136-0.001-0.272,0.003-0.409c0.88-29.092,18.047-47.89,43.736-47.89
	c40.699,0,56.209,22.673,67.551,43.924l33.854,63.427c2.341,4.385,0.684,9.837-3.701,12.178c-1.35,0.72-2.801,1.062-4.23,1.062
	c-3.217,0-6.327-1.729-7.947-4.764l-33.854-63.427c-10.046-18.821-20.867-34.4-51.672-34.4c-22.247,0-25.424,20.983-25.738,30.238
	l0.3,19.706L90.2,169.567v-26.628c0-4.971,4.029-9,9-9s9,4.029,9,9v34.973l15.844,7.345c4.51,2.09,6.471,7.441,4.38,11.951
	c-1.522,3.284-4.774,5.216-8.171,5.216c-1.268,0-2.555-0.269-3.779-0.837l-8.273-3.836v112.816h15.315
	C128.487,310.568,132.516,314.598,132.516,319.568z M292.68,216.229h-38.869c-0.016,0-0.032-0.002-0.048-0.002
	s-0.032,0.002-0.048,0.002h-42.082c-0.016,0-0.032-0.002-0.048-0.002s-0.032,0.002-0.048,0.002h-38.868c-4.971,0-9,4.029-9,9
	s4.029,9,9,9h29.916v76.339h-14.4c-4.971,0-9,4.029-9,9s4.029,9,9,9h23.352c0.016,0,0.032,0.002,0.048,0.002
	c2.797,0,5.295-1.276,6.946-3.277c1.284-1.556,2.056-3.551,2.056-5.726c0-0.013-0.002-0.026-0.002-0.039v-32.89h24.179v32.931
	c0,4.971,4.029,9,9,9c0.016,0,0.032-0.002,0.048-0.002h23.35c4.971,0,9-4.029,9-9s-4.029-9-9-9h-14.398v-76.339h29.917
	c4.971,0,9-4.029,9-9S297.651,216.229,292.68,216.229z M244.763,268.64h-24.179v-34.411h24.179V268.64z M69.208,319.568
	c0,2.175-0.771,4.17-2.056,5.726c-1.651,2.001-4.149,3.277-6.946,3.277c-0.016,0-0.032-0.002-0.048-0.002H35.891
	c-4.971,0-9-4.029-9-9s4.029-9,9-9h15.315v-82.207c0-4.971,4.029-9,9-9s9,4.029,9,9v91.168
	C69.206,319.543,69.208,319.555,69.208,319.568z"/>
</svg>