<svg xmlns="http://www.w3.org/2000/svg" xml:space="preserve" width="1.5rem" height="1.5rem" viewBox="0 0 371.435 371.435"><path d="M369.717 279.514c0-9.021-7.312-16.334-16.332-16.334h-8.375c-.114-5.848-2.9-11.033-7.186-14.406a5.787 5.787 0 0 0 5.581-5.782 5.8 5.8 0 0 0-3.524-5.332c13.278-6.59 13.656-24.128 7.45-43.182l-12.175-39.709h2.457a5.793 5.793 0 0 0 5.792-5.791 5.79 5.79 0 0 0-4.5-5.643c4.438-3.66 7.268-9.201 7.268-15.402 0-7.259-3.888-13.594-9.683-17.086h16.895c9.021 0 16.332-7.313 16.332-16.334 0-9.02-7.312-16.332-16.332-16.332H18.051c-9.02 0-16.333 7.313-16.333 16.332 0 9.021 7.313 16.334 16.333 16.334h16.895c-5.795 3.492-9.683 9.827-9.683 17.086 0 6.201 2.829 11.742 7.268 15.402a5.79 5.79 0 0 0 1.293 11.434h2.455l-12.174 39.709c-6.207 19.057-5.828 36.593 7.451 43.183a5.79 5.79 0 0 0-3.523 5.331c0 3.13 2.479 5.67 5.579 5.782-4.285 3.373-7.071 8.559-7.186 14.406h-8.375c-9.02 0-16.333 7.313-16.333 16.334L0 293.255h371.435zM101.556 237.66a5.79 5.79 0 0 0-3.523 5.331c0 3.13 2.478 5.67 5.579 5.782-4.285 3.373-7.071 8.559-7.186 14.406H64.01c-.114-5.848-2.9-11.033-7.185-14.406a5.787 5.787 0 0 0 5.581-5.782 5.8 5.8 0 0 0-3.524-5.332c13.278-6.59 13.657-24.128 7.45-43.182l-12.175-39.709h2.457a5.793 5.793 0 0 0 5.792-5.791 5.79 5.79 0 0 0-4.5-5.643c4.438-3.66 7.268-9.201 7.268-15.402 0-7.259-3.888-13.594-9.683-17.086h49.455c-5.795 3.492-9.683 9.827-9.683 17.086 0 6.201 2.829 11.742 7.267 15.402a5.79 5.79 0 0 0 1.293 11.434h2.455l-12.174 39.709c-6.207 19.057-5.828 36.593 7.452 43.183m70 0a5.79 5.79 0 0 0-3.523 5.331c0 3.13 2.479 5.67 5.579 5.782-4.285 3.373-7.071 8.559-7.186 14.406H134.01c-.114-5.848-2.9-11.033-7.186-14.406a5.787 5.787 0 0 0 5.581-5.782 5.8 5.8 0 0 0-3.524-5.332c13.278-6.59 13.657-24.128 7.45-43.182l-12.175-39.709h2.457a5.793 5.793 0 0 0 5.792-5.791 5.79 5.79 0 0 0-4.5-5.643c4.439-3.66 7.268-9.201 7.268-15.402 0-7.259-3.888-13.594-9.683-17.086h49.455c-5.795 3.492-9.683 9.827-9.683 17.086 0 6.201 2.829 11.742 7.268 15.402a5.79 5.79 0 0 0 1.293 11.434h2.455l-12.174 39.709c-6.207 19.057-5.828 36.593 7.452 43.183m70 0a5.79 5.79 0 0 0-3.523 5.331c0 3.13 2.479 5.67 5.579 5.782-4.285 3.373-7.071 8.559-7.186 14.406H204.01c-.114-5.848-2.9-11.033-7.186-14.406a5.787 5.787 0 0 0 5.581-5.782 5.8 5.8 0 0 0-3.524-5.332c13.278-6.59 13.657-24.128 7.45-43.182l-12.175-39.709h2.457a5.793 5.793 0 0 0 5.792-5.791 5.79 5.79 0 0 0-4.5-5.643c4.439-3.66 7.268-9.201 7.268-15.402 0-7.259-3.888-13.594-9.683-17.086h49.455c-5.795 3.492-9.683 9.827-9.683 17.086 0 6.201 2.829 11.742 7.268 15.402a5.79 5.79 0 0 0 1.293 11.434h2.455l-12.174 39.709c-6.207 19.057-5.828 36.593 7.452 43.183m71 0a5.79 5.79 0 0 0-3.523 5.331c0 3.13 2.479 5.67 5.579 5.782-4.285 3.373-7.071 8.559-7.186 14.406H274.01c-.114-5.848-2.9-11.033-7.186-14.406a5.787 5.787 0 0 0 5.581-5.782 5.8 5.8 0 0 0-3.524-5.332c13.278-6.59 13.656-24.128 7.45-43.182l-12.175-39.709h2.457a5.793 5.793 0 0 0 5.792-5.791 5.79 5.79 0 0 0-4.5-5.643c4.438-3.66 7.268-9.201 7.268-15.402 0-7.259-3.888-13.594-9.683-17.086h50.455c-5.795 3.492-9.683 9.827-9.683 17.086 0 6.201 2.829 11.742 7.268 15.402a5.79 5.79 0 0 0 1.293 11.434h2.455l-12.175 39.709c-6.206 19.057-5.827 36.593 7.453 43.183"/></svg>