<svg id="Layer_1" enable-background="new 0 0 512 512" height="512" viewBox="0 0 512 512" width="512" xmlns="http://www.w3.org/2000/svg"><path d="m476.575 369.751c12.142-15.999 19.358-35.93 19.359-57.517v-93.134c9.838-8.645 16.065-21.305 16.065-35.4 0-25.989-21.144-47.133-47.133-47.133h-370.6v-66.4l34.265-.001v17.134c0 8.284 6.715 15 15 15 8.284 0 15-6.716 15-15v-32.134c0-3.978-1.58-7.793-4.394-10.606-2.813-2.813-6.628-4.394-10.606-4.394l-64.266.001c-8.284 0-15 6.716-15 15v81.4h-17.131c-25.989 0-47.134 21.143-47.134 47.132 0 14.096 6.228 26.756 16.066 35.401v93.133c0 20.997 6.812 40.99 19.386 57.492l-21.646 21.646c-8.903 8.902-13.806 20.739-13.806 33.329s4.903 24.427 13.805 33.329c9.189 9.189 21.256 13.783 33.328 13.782 12.069-.001 24.142-4.595 33.331-13.782l50.462-50.462h250.15l50.463 50.462c8.902 8.902 20.738 13.805 33.329 13.805s24.427-4.903 33.326-13.805c8.902-8.902 13.806-20.739 13.806-33.329.001-12.591-4.902-24.427-13.804-33.327zm-429.441-203.184h417.733c9.447 0 17.133 7.686 17.133 17.133s-7.686 17.133-17.133 17.133l-417.733.001c-9.448 0-17.134-7.687-17.134-17.135 0-9.447 7.687-17.132 17.134-17.132zm0 64.267 417.733-.001c.357 0 .711-.019 1.067-.027v81.428c-.001 36.025-29.31 65.333-65.334 65.333h-289.2c-17.363 0-33.745-6.82-46.129-19.205s-19.205-28.766-19.204-46.128v-81.428c.355.009.709.028 1.067.028zm12.117 205.981c-6.681 6.68-17.552 6.681-24.233.001-3.236-3.236-5.018-7.539-5.018-12.115 0-4.577 1.782-8.879 5.019-12.115l22.076-22.076c10.192 7.124 21.591 12.135 33.656 14.806zm417.728.002c-3.235 3.235-7.536 5.017-12.112 5.017-4.577 0-8.88-1.782-12.116-5.019l-31.507-31.506c12.28-2.722 23.676-7.817 33.682-14.781l22.057 22.059c3.235 3.235 5.017 7.537 5.017 12.113-.001 4.577-1.783 8.88-5.021 12.117z"/></svg>