<svg xmlns="http://www.w3.org/2000/svg" width="1.5rem" height="1.5rem" viewBox="0 0 512 512"><path d="M476.575 369.751c12.142-15.999 19.358-35.93 19.359-57.517V219.1c9.838-8.645 16.065-21.305 16.065-35.4 0-25.989-21.144-47.133-47.133-47.133h-370.6v-66.4l34.265-.001V87.3c0 8.284 6.715 15 15 15s15-6.716 15-15V55.166a15 15 0 0 0-15-15l-64.266.001c-8.284 0-15 6.716-15 15v81.4H47.134C21.145 136.567 0 157.71 0 183.699c0 14.096 6.228 26.756 16.066 35.401v93.133c0 20.997 6.812 40.99 19.386 57.492l-21.646 21.646C4.903 400.273 0 412.11 0 424.7s4.903 24.427 13.805 33.329c9.189 9.189 21.256 13.783 33.328 13.782 12.069-.001 24.142-4.595 33.331-13.782l50.462-50.462h250.15l50.463 50.462c8.902 8.902 20.738 13.805 33.329 13.805s24.427-4.903 33.326-13.805C507.096 449.127 512 437.29 512 424.7c.001-12.591-4.902-24.427-13.804-33.327zM47.134 166.567h417.733c9.447 0 17.133 7.686 17.133 17.133s-7.686 17.133-17.133 17.133l-417.733.001c-9.448 0-17.134-7.687-17.134-17.135 0-9.447 7.687-17.132 17.134-17.132m0 64.267 417.733-.001c.357 0 .711-.019 1.067-.027v81.428c-.001 36.025-29.31 65.333-65.334 65.333H111.4c-17.363 0-33.745-6.82-46.129-19.205s-19.205-28.766-19.204-46.128v-81.428c.355.009.709.028 1.067.028m12.117 205.981c-6.681 6.68-17.552 6.681-24.233.001A17.02 17.02 0 0 1 30 424.701c0-4.577 1.782-8.879 5.019-12.115l22.076-22.076a94.2 94.2 0 0 0 33.656 14.806zm417.728.002a17.02 17.02 0 0 1-12.112 5.017 17.02 17.02 0 0 1-12.116-5.019l-31.507-31.506a94.9 94.9 0 0 0 33.682-14.781l22.057 22.059A17.02 17.02 0 0 1 482 424.7a17.02 17.02 0 0 1-5.021 12.117"/></svg>