<svg xmlns="http://www.w3.org/2000/svg" xml:space="preserve" width="1.5rem" height="1.5rem" viewBox="0 0 512 512"><path d="M480 234.679H53.333V54.839c0-12.16 11.307-22.827 24.213-22.827h44.587c12.587 0 22.72 10.24 22.827 22.72-20.8 5.227-38.293 24.427-38.293 44.693v28.587c0 5.867 4.8 10.667 10.667 10.667H192c5.867 0 10.667-4.8 10.667-10.667V99.426c0-20.587-16.32-39.467-36.373-44.587 0-24.32-19.733-44.16-44.16-44.16H77.547C52.907 10.679 32 30.946 32 54.839v179.84c-17.6-.107-31.893 14.187-32 31.787 0 9.173 3.84 17.813 10.667 23.893v55.893c0 43.413 19.307 80.64 50.56 104.853l-17.493 34.773c-2.667 5.227-.533 11.627 4.8 14.293 5.227 2.667 11.627.533 14.293-4.8l16.427-32.747c21.547 11.52 45.653 17.493 70.08 17.28h213.333c24.427.213 48.533-5.76 70.08-17.28l16.427 32.747c2.667 5.227 9.067 7.36 14.293 4.8 5.227-2.56 7.36-9.067 4.8-14.293l-17.493-34.88c31.253-24.107 50.56-61.44 50.56-104.853v-55.893c6.72-5.867 10.667-14.507 10.667-23.573-.001-17.706-14.294-32-32.001-32m-324.373-160c12.693 0 25.707 12.48 25.707 24.747v17.92H128v-17.92c0-11.84 14.4-24.747 27.627-24.747M480 346.253c0 64.107-50.453 112.427-117.333 112.427H149.333C82.453 458.679 32 410.359 32 346.253V298.68h448zm0-68.907H32.32c-5.333 0-10.133-3.84-10.88-9.067-.96-6.613 4.16-12.267 10.56-12.267h447.68c5.333 0 10.133 3.84 10.88 9.067.96 6.614-4.16 12.267-10.56 12.267"/></svg>