<svg xmlns="http://www.w3.org/2000/svg" width="1.5rem" height="1.5rem" viewBox="0 0 512 512"><path d="M456.834 224.933h-9.1v-105.5c0-30.418-24.748-55.166-55.168-55.166H119.434c-30.419 0-55.166 24.748-55.166 55.166v105.5h-9.102C24.747 224.933 0 249.68 0 280.1v152.634c0 8.284 6.716 15 15 15s15-6.716 15-15V415.6h452v17.134c0 8.284 6.716 15 15 15s15-6.716 15-15V280.1c0-30.42-24.747-55.167-55.166-55.167m-362.566-105.5c0-13.876 11.289-25.166 25.166-25.166h273.133c13.878 0 25.168 11.29 25.168 25.166v105.5h-56.434a54.8 54.8 0 0 0 6.1-25.166V183.7c0-30.418-24.747-55.166-55.166-55.166H199.768c-30.42 0-55.168 24.748-55.168 55.166v16.067a54.8 54.8 0 0 0 6.1 25.166H94.268zm80.332 80.334V183.7c0-13.876 11.29-25.166 25.168-25.166h112.467c13.877 0 25.166 11.29 25.166 25.166v16.067c0 13.876-11.289 25.166-25.166 25.166H199.768c-13.878 0-25.168-11.29-25.168-25.166M55.166 254.933h401.669c13.877 0 25.166 11.29 25.166 25.167v41.233H30V280.1c0-13.877 11.289-25.167 25.166-25.167M30 351.333h452V385.6H30z"/></svg>