<svg id="Layer_1" enable-background="new 0 0 512 512" height="512" viewBox="0 0 512 512" width="512" xmlns="http://www.w3.org/2000/svg"><path d="m456.834 224.933h-9.1v-105.5c0-30.418-24.748-55.166-55.168-55.166h-273.132c-30.419 0-55.166 24.748-55.166 55.166v105.5h-9.102c-30.419 0-55.166 24.747-55.166 55.167v120.5 32.134c0 8.284 6.716 15 15 15s15-6.716 15-15v-17.134h452v17.134c0 8.284 6.716 15 15 15s15-6.716 15-15v-32.134-120.5c0-30.42-24.747-55.167-55.166-55.167zm-362.566-105.5c0-13.876 11.289-25.166 25.166-25.166h273.133c13.878 0 25.168 11.29 25.168 25.166v105.5h-56.434c3.889-7.552 6.1-16.103 6.1-25.166v-16.067c0-30.418-24.747-55.166-55.166-55.166h-112.467c-30.42 0-55.168 24.748-55.168 55.166v16.067c0 9.063 2.211 17.614 6.1 25.166h-56.432zm80.332 80.334v-16.067c0-13.876 11.29-25.166 25.168-25.166h112.467c13.877 0 25.166 11.29 25.166 25.166v16.067c0 13.876-11.289 25.166-25.166 25.166h-112.467c-13.878 0-25.168-11.29-25.168-25.166zm-119.434 55.166h24.102 120.5 112.467 120.5 24.1c13.877 0 25.166 11.29 25.166 25.167v41.233h-452.001v-41.233c0-13.877 11.289-25.167 25.166-25.167zm-25.166 96.4h452v34.267h-452z"/></svg>