<svg xmlns="http://www.w3.org/2000/svg" width="1.5rem" height="1.5rem" viewBox="0 0 512 512"><path d="M479.867 420.195v-36.728H497c8.284 0 15-6.716 15-15s-6.716-15-15-15h-1.543c-3.582-58.445-28.035-112.896-69.798-154.658S329.445 132.592 271 129.011V94.267h49.268c8.284 0 15-6.716 15-15C335.268 35.559 299.708 0 256 0s-79.266 35.559-79.266 79.267c0 8.284 6.716 15 15 15H241v34.744c-58.445 3.582-112.896 28.035-154.659 69.798s-66.216 96.213-69.798 154.658H15c-8.284 0-15 6.716-15 15s6.716 15 15 15h17.132v36.728C13.479 426.476 0 444.122 0 464.867 0 490.856 21.144 512 47.133 512h417.734C490.856 512 512 490.856 512 464.867c0-20.745-13.479-38.391-32.133-44.672M256 30c21.938 0 40.573 14.413 46.934 34.267h-93.865C215.429 44.413 234.063 30 256 30m0 128.534c110.713 0 201.685 86.151 209.403 194.933H46.597C54.315 244.685 145.287 158.534 256 158.534m193.867 224.933v34.267H62.133v-34.267zm15 98.533H47.133C37.686 482 30 474.314 30 464.867c0-9.448 7.686-17.134 17.133-17.134h417.734c9.447 0 17.133 7.686 17.133 17.134 0 9.447-7.686 17.133-17.133 17.133"/></svg>