<svg id="Line" height="1.5rem" viewBox="0 0 64 64" width="1.5rem" xmlns="http://www.w3.org/2000/svg"><g><path d="m50.277 41.313v-13.196c0-8.216-5.438-15.182-12.898-17.483v-2.247c0-2.974-2.407-5.394-5.365-5.394-2.974 0-5.394 2.419-5.394 5.394v2.251c-7.461 2.307-12.898 9.269-12.898 17.478v13.196c-2.982.371-5.301 2.928-5.301 6.023 0 3.333 2.712 6.045 6.046 6.045h8.984c.498 4.286 4.145 7.625 8.562 7.625s8.064-3.339 8.562-7.625h8.956c3.333 0 6.046-2.712 6.046-6.045.001-3.095-2.317-5.652-5.3-6.022zm-21.656-32.926c0-1.871 1.522-3.394 3.394-3.394 1.824 0 3.365 1.554 3.365 3.394v1.763c-1.092-.205-2.214-.325-3.365-.325-1.161 0-2.292.121-3.394.328zm3.393 3.438c8.968 0 16.263 7.308 16.263 16.292v13.145h-32.554v-13.145c0-8.984 7.308-16.292 16.291-16.292zm0 47.181c-3.312 0-6.057-2.446-6.542-5.625h13.083c-.484 3.179-3.229 5.625-6.541 5.625zm17.518-7.625h-35.064c-2.231 0-4.046-1.815-4.046-4.045 0-2.247 1.815-4.074 4.046-4.074h35.064c2.231 0 4.046 1.828 4.046 4.074 0 2.23-1.815 4.045-4.046 4.045z"/><path d="m9.005 29.08v-.963c0-7.553 3.727-14.631 9.97-18.935.455-.313.569-.936.256-1.391-.313-.456-.937-.57-1.391-.256-6.785 4.676-10.835 12.37-10.835 20.581v.963c0 .552.448 1 1 1s1-.447 1-.999z"/><path d="m46.19 7.537c-.454-.313-1.077-.2-1.392.253-.314.454-.201 1.077.253 1.392 6.227 4.311 9.944 11.39 9.944 18.936v.963c0 .552.448 1 1 1s1-.448 1-1v-.963c0-8.203-4.039-15.896-10.805-20.581z"/></g></svg>