<svg xmlns="http://www.w3.org/2000/svg" width="1.5rem" height="1.5rem" viewBox="0 0 64 64"><path d="M50.277 41.313V28.117c0-8.216-5.438-15.182-12.898-17.483V8.387c0-2.974-2.407-5.394-5.365-5.394a5.4 5.4 0 0 0-5.394 5.394v2.251c-7.461 2.307-12.898 9.269-12.898 17.478v13.196a6.07 6.07 0 0 0-5.301 6.023 6.05 6.05 0 0 0 6.046 6.045h8.984c.498 4.286 4.145 7.625 8.562 7.625s8.064-3.339 8.562-7.625h8.956a6.053 6.053 0 0 0 6.046-6.045 6.07 6.07 0 0 0-5.3-6.022M28.621 8.387a3.4 3.4 0 0 1 3.394-3.394c1.824 0 3.365 1.554 3.365 3.394v1.763a18 18 0 0 0-3.365-.325c-1.161 0-2.292.121-3.394.328zm3.393 3.438c8.968 0 16.263 7.308 16.263 16.292v13.145H15.723V28.117c0-8.984 7.308-16.292 16.291-16.292m0 47.181c-3.312 0-6.057-2.446-6.542-5.625h13.083c-.484 3.179-3.229 5.625-6.541 5.625m17.518-7.625H14.468a4.05 4.05 0 0 1-4.046-4.045c0-2.247 1.815-4.074 4.046-4.074h35.064c2.231 0 4.046 1.828 4.046 4.074a4.05 4.05 0 0 1-4.046 4.045M9.005 29.08v-.963c0-7.553 3.727-14.631 9.97-18.935a1 1 0 0 0-1.135-1.647A25 25 0 0 0 7.005 28.116v.963a1 1 0 0 0 2 .001M46.19 7.537a1.001 1.001 0 0 0-1.139 1.645 23.05 23.05 0 0 1 9.944 18.936v.963a1 1 0 0 0 2 0v-.963A25.05 25.05 0 0 0 46.19 7.537"/></svg>