<svg xmlns="http://www.w3.org/2000/svg" width="1.5rem" height="1.5rem" fill="none" viewBox="0 0 24 24"><path fill="#0F0F0F" fill-rule="evenodd" d="M12 3a1 1 0 1 0 0 2h1.559a1 1 0 0 1 .948.684L15.28 8H8.75L8 7a1 1 0 0 0 0-2H5a1 1 0 0 0 0 2h.5l1.46 1.946a2 2 0 0 0-.139.266l-.81 1.89a5 5 0 1 0 3.974 4.513l1.983-.566a2 2 0 0 0 1.012-.673l3.123-3.904.399 1.196a5 5 0 1 0 1.897-.632L16.404 5.05A3 3 0 0 0 13.56 3zm5.146 10.6.905 2.716a1 1 0 0 0 1.898-.632l-.906-2.717a3.033 3.033 0 1 1-1.897.633m-9.297-1.71.48-1.119 2 2.667-.892.254a5 5 0 0 0-1.588-1.801M10.25 10l1.775 2.367L13.92 10zm-2.792 4.258a3 3 0 0 0-.42-.476l-.29.679zm-2.17 2.7a1 1 0 0 1-1.206-1.352l1.118-2.612a3.013 3.013 0 1 0 2.807 3.187z" clip-rule="evenodd"/></svg>