<svg xmlns="http://www.w3.org/2000/svg" width="1.5rem" height="1.5rem" viewBox="0 0 64 64"><path d="M48.483 2.994h-26.05c-5.157 0-9.361 4.12-9.518 9.24h-1.311c-3.099 0-5.62 2.534-5.62 5.648 0 3.1 2.521 5.621 5.62 5.621H12.9v2.875h-1.296c-3.099 0-5.62 2.521-5.62 5.621s2.521 5.621 5.62 5.621H12.9v2.875h-1.296a5.626 5.626 0 0 0-5.62 5.621 5.625 5.625 0 0 0 5.62 5.619h1.31c.14 5.134 4.351 9.27 9.519 9.27h26.051c5.256 0 9.532-4.275 9.532-9.531V12.525c0-5.255-4.277-9.531-9.533-9.531M7.984 17.883c0-2.012 1.624-3.648 3.62-3.648h4.62c1.997 0 3.621 1.637 3.621 3.648a3.625 3.625 0 0 1-3.621 3.621h-4.62a3.624 3.624 0 0 1-3.62-3.621m0 14.117a3.624 3.624 0 0 1 3.62-3.621h4.62c1.997 0 3.621 1.624 3.621 3.621s-1.624 3.621-3.621 3.621h-4.62A3.624 3.624 0 0 1 7.984 32m0 14.117a3.624 3.624 0 0 1 3.62-3.621h4.62a3.625 3.625 0 0 1 3.621 3.621 3.624 3.624 0 0 1-3.621 3.619h-4.62a3.624 3.624 0 0 1-3.62-3.619m6.93 5.619h1.311c3.1 0 5.621-2.521 5.621-5.619 0-3.1-2.521-5.621-5.621-5.621H14.9v-2.875h1.324c3.1 0 5.621-2.521 5.621-5.621s-2.521-5.621-5.621-5.621H14.9v-2.875h1.324c3.1 0 5.621-2.521 5.621-5.621 0-3.114-2.521-5.648-5.621-5.648h-1.31c.155-4.017 3.463-7.24 7.518-7.24h3.876v54.012h-3.876c-4.065-.001-7.379-3.24-7.518-7.271m41.102-.261c0 4.152-3.379 7.531-7.532 7.531H28.309V4.994h20.175c4.153 0 7.532 3.379 7.532 7.531z"/></svg>