<svg xmlns="http://www.w3.org/2000/svg" width="1.5rem" height="1.5rem" viewBox="0 0 512 512"><path d="M456.832 32.133H415.6V15c0-8.284-6.716-15-15-15s-15 6.716-15 15v17.133h-66.4V15c0-8.284-6.716-15-15-15s-15 6.716-15 15v17.133h-66.4V15c0-8.284-6.716-15-15-15s-15 6.716-15 15v17.133h-66.4V15c0-8.284-6.716-15-15-15s-15 6.716-15 15v17.133H55.166C24.748 32.133 0 56.88 0 87.3v369.533C0 487.252 24.748 512 55.166 512h401.666C487.251 512 512 487.252 512 456.833V87.3c0-30.42-24.749-55.167-55.168-55.167m-401.666 30H96.4v17.134c0 8.284 6.716 15 15 15s15-6.716 15-15V62.133h66.398v17.134c0 8.284 6.716 15 15 15s15-6.716 15-15V62.133h66.4v17.134c0 8.284 6.716 15 15 15s15-6.716 15-15V62.133h66.4v17.134c0 8.284 6.716 15 15 15s15-6.716 15-15V62.133h41.232c13.879 0 25.17 11.29 25.17 25.167v41.233H30V87.3c0-13.877 11.29-25.167 25.166-25.167M456.832 482H55.166C41.29 482 30 470.71 30 456.833v-298.3h452v298.3C482 470.71 470.709 482 456.832 482"/><path d="M151.566 208.867H87.299c-8.284 0-15 6.716-15 15v64.266c0 8.284 6.716 15 15 15h64.268c8.284 0 15-6.716 15-15v-64.266c-.001-8.284-6.716-15-15.001-15m-15 64.266h-34.268v-34.266h34.268zM424.699 208.867h-64.266c-8.284 0-15 6.716-15 15v64.266c0 8.284 6.716 15 15 15h64.266c8.284 0 15-6.716 15-15v-64.266c0-8.284-6.716-15-15-15m-15 64.266h-34.266v-34.266h34.266zM151.566 337.4H87.299c-8.284 0-15 6.716-15 15v64.266c0 8.284 6.716 15 15 15h64.268c8.284 0 15-6.716 15-15V352.4c-.001-8.284-6.716-15-15.001-15m-15 64.266h-34.268V367.4h34.268zM424.699 337.4h-64.266c-8.284 0-15 6.716-15 15v64.266c0 8.284 6.716 15 15 15h64.266c8.284 0 15-6.716 15-15V352.4c0-8.284-6.716-15-15-15m-15 64.266h-34.266V367.4h34.266zM288.133 337.4h-64.268c-8.284 0-15 6.716-15 15v64.266c0 8.284 6.716 15 15 15h64.268c8.284 0 15-6.716 15-15V352.4c0-8.284-6.716-15-15-15m-15 64.266h-34.268V367.4h34.268zM279.475 222.673l-34.834 34.836-12.116-12.116c-5.857-5.858-15.355-5.858-21.213 0s-5.858 15.355 0 21.213l22.723 22.723a15 15 0 0 0 21.213 0l45.441-45.443c5.857-5.858 5.857-15.355 0-21.213-5.859-5.858-15.356-5.858-21.214 0"/></svg>