<svg xmlns="http://www.w3.org/2000/svg" width="1.5rem" height="1.5rem" viewBox="0 0 60 60"><path d="M6 17h30a2 2 0 0 0 2-2V7a2 2 0 0 0-2-2H6a2 2 0 0 0-2 2v8a2 2 0 0 0 2 2M6 7h30v8H6zM9 19H6a2 2 0 0 0-2 2v3a2 2 0 0 0 2 2h3a2 2 0 0 0 2-2v-3a2 2 0 0 0-2-2m-3 5v-3h3v3zM18 19h-3a2 2 0 0 0-2 2v3a2 2 0 0 0 2 2h3a2 2 0 0 0 2-2v-3a2 2 0 0 0-2-2m-3 5v-3h3v3zM27 19h-3a2 2 0 0 0-2 2v3a2 2 0 0 0 2 2h3a2 2 0 0 0 2-2v-3a2 2 0 0 0-2-2m-3 5v-3h3v3zM36 19h-3a2 2 0 0 0-2 2v3a2 2 0 0 0 2 2h3a2 2 0 0 0 2-2v-3a2 2 0 0 0-2-2m-3 5v-3h3v3zM9 29H6a2 2 0 0 0-2 2v3a2 2 0 0 0 2 2h3a2 2 0 0 0 2-2v-3a2 2 0 0 0-2-2m-3 5v-3h3v3zM18 29h-3a2 2 0 0 0-2 2v3a2 2 0 0 0 2 2h3a2 2 0 0 0 2-2v-3a2 2 0 0 0-2-2m-3 5v-3h3v3zM9 39H6a2 2 0 0 0-2 2v3a2 2 0 0 0 2 2h3a2 2 0 0 0 2-2v-3a2 2 0 0 0-2-2m-3 5v-3h3v3zM18 39h-3a2 2 0 0 0-2 2v3a2 2 0 0 0 2 2h3a2 2 0 0 0 2-2v-3a2 2 0 0 0-2-2m-3 5v-3h3v3zM9 49H6a2 2 0 0 0-2 2v3a2 2 0 0 0 2 2h3a2 2 0 0 0 2-2v-3a2 2 0 0 0-2-2m-3 5v-3h3v3zM18 49h-3a2 2 0 0 0-2 2v3a2 2 0 0 0 2 2h3a2 2 0 0 0 2-2v-3a2 2 0 0 0-2-2m-3 5v-3h3v3z"/><path d="M25 8a1 1 0 0 0-1 1v1a1 1 0 0 0 2 0V9a1 1 0 0 0-1-1"/><path d="M24 12v1a1 1 0 0 0 2 0v-1a1 1 0 0 0-2 0M29 8a1 1 0 0 0-1 1v1a1 1 0 0 0 2 0V9a1 1 0 0 0-1-1"/><path d="M28 12v1a1 1 0 0 0 2 0v-1a1 1 0 0 0-2 0M33 8a1 1 0 0 0-1 1v1a1 1 0 0 0 2 0V9a1 1 0 0 0-1-1"/><path d="M32 12v1a1 1 0 0 0 2 0v-1a1 1 0 0 0-2 0"/><path d="M54.061 30.091A16.89 16.89 0 0 0 42 26.051V5a5.006 5.006 0 0 0-5-5H5a5.006 5.006 0 0 0-5 5v50a5.006 5.006 0 0 0 5 5h32a4.95 4.95 0 0 0 2.091-.472 16.5 16.5 0 0 0 5.79.366 17 17 0 0 0 9.18-29.8zm-21.393 2.062 9.023 10.838-9.18 10.709a14.945 14.945 0 0 1 .157-21.547M26.051 44H24v-3h2.128c-.136.994-.162 2-.077 3m31.9-2H45.174l8.315-9.7a14.94 14.94 0 0 1 4.46 9.7zm-5.987-11-8.953 10.45-8.8-10.576A14.88 14.88 0 0 1 51.964 31M5 58a3 3 0 0 1-3-3V5a3 3 0 0 1 3-3h32a3 3 0 0 1 3 3v21.281a17.13 17.13 0 0 0-7.88 3.651 1 1 0 0 0-.063.078A17.1 17.1 0 0 0 29 33.378V31a2 2 0 0 0-2-2h-3a2 2 0 0 0-2 2v3a2 2 0 0 0 2 2c3.333 0 3.163.029 3.571-.093-.457.994-.815 2.03-1.071 3.093H24a2 2 0 0 0-2 2v3a2 2 0 0 0 2 2h2.281a17 17 0 0 0 .837 3.012C26.881 49 27.548 49 24 49a2 2 0 0 0-2 2v3a2 2 0 0 0 2 2h3a2 2 0 0 0 2-2v-1.378a17.1 17.1 0 0 0 2.868 3.2 1 1 0 0 0 .071.091c.025.021.055.029.082.048.924.786 1.93 1.47 3 2.043zm22-24h-3v-3h3zm0 20h-3v-3h3zm7.035 1 8.225-9.6 1.4 12.568c-3.457.17-6.864-.88-9.624-2.968zm11.612 2.752L44.118 44h13.831a15.006 15.006 0 0 1-12.301 13.751z"/></svg>