<svg xmlns="http://www.w3.org/2000/svg" width="1.5rem" height="1.5rem" viewBox="0 0 52 60"><path d="M5 60h42a5.006 5.006 0 0 0 5-5V5a5.006 5.006 0 0 0-5-5H5a5.006 5.006 0 0 0-5 5v50a5.006 5.006 0 0 0 5 5m41-13.909V54H34.387c5.23-1.691 9.161-4.374 11.613-7.909m-20.716 7.693c3.564-1.955 7.85-5.288 8.6-10.245 2.224.975 6.743 2.524 10.663 1.153-4.324 6.554-13.447 8.518-19.263 9.092M46 33a1 1 0 0 0 0 2v6.537c-4.465 3.949-12.433-.366-12.515-.412A1 1 0 0 0 32 42c0 7.693-10.838 11.558-12.159 12H6V35a1 1 0 0 0 0-2V6h6v1a3 3 0 0 0 3 3h22a3 3 0 0 0 3-3V6h6zM38 2v5a1 1 0 0 1-1 1h-2V6a1 1 0 0 0-2 0v2H19V6a1 1 0 0 0-2 0v2h-2a1 1 0 0 1-1-1V2zM2 5a3 3 0 0 1 3-3h7v2H6a2 2 0 0 0-2 2v48a2 2 0 0 0 2 2c17.146 0 15.328.02 16.083 0H46a2 2 0 0 0 2-2V6a2 2 0 0 0-2-2h-6V2h7a3 3 0 0 1 3 3v50a3 3 0 0 1-3 3H5a3 3 0 0 1-3-3z"/><path d="M12.949 25.749a.976.976 0 0 0-1.9 0A1.99 1.99 0 0 1 10 24a1 1 0 0 0-2 0 4 4 0 0 0 3 3.858V29a1 1 0 0 0 2 0v-1.142A3.992 3.992 0 0 0 12 20a2 2 0 0 1-.949-3.749.976.976 0 0 0 1.9 0A1.99 1.99 0 0 1 14 18a1 1 0 0 0 2 0 4 4 0 0 0-3-3.858V13a1 1 0 0 0-2 0v1.142A3.992 3.992 0 0 0 12 22a2 2 0 0 1 .949 3.749M20 17h2a1 1 0 0 0 0-2h-2a1 1 0 0 0 0 2M20 22h2a1 1 0 0 0 0-2h-2a1 1 0 0 0 0 2M20 27h2a1 1 0 0 0 0-2h-2a1 1 0 0 0 0 2M29 17h2a1 1 0 0 0 0-2h-2a1 1 0 0 0 0 2M35 17h3a1 1 0 0 0 0-2h-3a1 1 0 0 0 0 2M42 17h1a1 1 0 0 0 0-2h-1a1 1 0 0 0 0 2M29 22h7a1 1 0 0 0 0-2h-7a1 1 0 0 0 0 2M43 20h-3a1 1 0 0 0 0 2h3a1 1 0 0 0 0-2M34 26a1 1 0 0 0-1-1h-4a1 1 0 0 0 0 2h4a1 1 0 0 0 1-1M43 25h-6a1 1 0 0 0 0 2h6a1 1 0 0 0 0-2M12 33h-2a1 1 0 0 0 0 2h2a1 1 0 0 0 0-2M15 34a1 1 0 0 0 1 1h2a1 1 0 0 0 0-2h-2a1 1 0 0 0-1 1M21 34a1 1 0 0 0 1 1h2a1 1 0 0 0 0-2h-2a1 1 0 0 0-1 1M30 33h-2a1 1 0 0 0 0 2h2a1 1 0 0 0 0-2M36 33h-2a1 1 0 0 0 0 2h2a1 1 0 0 0 0-2M42 33h-2a1 1 0 0 0 0 2h2a1 1 0 0 0 0-2M28 42H11a3 3 0 0 0-3 3v2a3 3 0 0 0 3 3h12a1 1 0 0 0 0-2H11a1 1 0 0 1-1-1v-2a1 1 0 0 1 1-1h17a1 1 0 0 0 0-2"/></svg>