<svg height="1.5rem" viewBox="0 0 60 60" width="1.5rem" xmlns="http://www.w3.org/2000/svg"><g id="011---Budget-Report"><path id="Shape" d="m6 17h30c1.1045695 0 2-.8954305 2-2v-8c0-1.1045695-.8954305-2-2-2h-30c-1.1045695 0-2 .8954305-2 2v8c0 1.1045695.8954305 2 2 2zm0-10h30v8h-30z"/><path id="Shape" d="m9 19h-3c-1.1045695 0-2 .8954305-2 2v3c0 1.1045695.8954305 2 2 2h3c1.1045695 0 2-.8954305 2-2v-3c0-1.1045695-.8954305-2-2-2zm-3 5v-3h3v3z"/><path id="Shape" d="m18 19h-3c-1.1045695 0-2 .8954305-2 2v3c0 1.1045695.8954305 2 2 2h3c1.1045695 0 2-.8954305 2-2v-3c0-1.1045695-.8954305-2-2-2zm-3 5v-3h3v3z"/><path id="Shape" d="m27 19h-3c-1.1045695 0-2 .8954305-2 2v3c0 1.1045695.8954305 2 2 2h3c1.1045695 0 2-.8954305 2-2v-3c0-1.1045695-.8954305-2-2-2zm-3 5v-3h3v3z"/><path id="Shape" d="m36 19h-3c-1.1045695 0-2 .8954305-2 2v3c0 1.1045695.8954305 2 2 2h3c1.1045695 0 2-.8954305 2-2v-3c0-1.1045695-.8954305-2-2-2zm-3 5v-3h3v3z"/><path id="Shape" d="m9 29h-3c-1.1045695 0-2 .8954305-2 2v3c0 1.1045695.8954305 2 2 2h3c1.1045695 0 2-.8954305 2-2v-3c0-1.1045695-.8954305-2-2-2zm-3 5v-3h3v3z"/><path id="Shape" d="m18 29h-3c-1.1045695 0-2 .8954305-2 2v3c0 1.1045695.8954305 2 2 2h3c1.1045695 0 2-.8954305 2-2v-3c0-1.1045695-.8954305-2-2-2zm-3 5v-3h3v3z"/><path id="Shape" d="m9 39h-3c-1.1045695 0-2 .8954305-2 2v3c0 1.1045695.8954305 2 2 2h3c1.1045695 0 2-.8954305 2-2v-3c0-1.1045695-.8954305-2-2-2zm-3 5v-3h3v3z"/><path id="Shape" d="m18 39h-3c-1.1045695 0-2 .8954305-2 2v3c0 1.1045695.8954305 2 2 2h3c1.1045695 0 2-.8954305 2-2v-3c0-1.1045695-.8954305-2-2-2zm-3 5v-3h3v3z"/><path id="Shape" d="m9 49h-3c-1.1045695 0-2 .8954305-2 2v3c0 1.1045695.8954305 2 2 2h3c1.1045695 0 2-.8954305 2-2v-3c0-1.1045695-.8954305-2-2-2zm-3 5v-3h3v3z"/><path id="Shape" d="m18 49h-3c-1.1045695 0-2 .8954305-2 2v3c0 1.1045695.8954305 2 2 2h3c1.1045695 0 2-.8954305 2-2v-3c0-1.1045695-.8954305-2-2-2zm-3 5v-3h3v3z"/><path id="Shape" d="m25 8c-.5522847 0-1 .44771525-1 1v1c0 .5522847.4477153 1 1 1s1-.4477153 1-1v-1c0-.55228475-.4477153-1-1-1z"/><path id="Shape" d="m24 12v1c0 .5522847.4477153 1 1 1s1-.4477153 1-1v-1c0-.5522847-.4477153-1-1-1s-1 .4477153-1 1z"/><path id="Shape" d="m29 8c-.5522847 0-1 .44771525-1 1v1c0 .5522847.4477153 1 1 1s1-.4477153 1-1v-1c0-.55228475-.4477153-1-1-1z"/><path id="Shape" d="m28 12v1c0 .5522847.4477153 1 1 1s1-.4477153 1-1v-1c0-.5522847-.4477153-1-1-1s-1 .4477153-1 1z"/><path id="Shape" d="m33 8c-.5522847 0-1 .44771525-1 1v1c0 .5522847.4477153 1 1 1s1-.4477153 1-1v-1c0-.55228475-.4477153-1-1-1z"/><path id="Shape" d="m32 12v1c0 .5522847.4477153 1 1 1s1-.4477153 1-1v-1c0-.5522847-.4477153-1-1-1s-1 .4477153-1 1z"/><path id="Shape" d="m54.061 30.091c-3.3401178-2.8671659-7.6677753-4.3167751-12.061-4.04v-21.051c-.0033061-2.76005315-2.2399468-4.99669388-5-5h-32c-2.76005315.00330612-4.99669388 2.23994685-5 5v50c.00330612 2.7600532 2.23994685 4.9966939 5 5h32c.7230943-.0028437 1.4368002-.163948 2.091-.472 1.8933314.4623818 3.8535153.5862898 5.79.366 6.7270589-.7510422 12.3675872-5.4213373 14.3603469-11.8902086 1.9927596-6.4688712-.0420027-13.5035679-5.1803469-17.9097914zm-21.393 2.062 9.023 10.838-9.18 10.709c-2.9103808-2.8390304-4.5384658-6.7412724-4.5088418-10.8069252.0296239-4.0656528 1.7143996-7.943756 4.6658418-10.7400748zm-6.617 11.847h-2.051v-3h2.128c-.1361665.9941049-.1619901 2.0002187-.077 3zm31.9-2h-12.777l8.315-9.7c2.6303224 2.5738715 4.2184177 6.0278006 4.46 9.7zm-5.987-11-8.953 10.45-8.8-10.576c5.2977575-3.8781398 12.5108228-3.8269458 17.753.126zm-46.964 27c-1.65685425 0-3-1.3431458-3-3v-50c0-1.65685425 1.34314575-3 3-3h32c1.6568542 0 3 1.34314575 3 3v21.281c-2.8966267.5200681-5.6104707 1.7774595-7.88 3.651-.0226102.0246572-.0436516.0507083-.063.078-1.164074.9818996-2.1921207 2.1145333-3.057 3.368v-2.378c0-1.1045695-.8954305-2-2-2h-3c-1.1045695 0-2 .8954305-2 2v3c0 1.1045695.8954305 2 2 2 3.333 0 3.163.029 3.571-.093-.4565999.9937721-.8152942 2.0296652-1.071 3.093h-2.5c-1.1045695 0-2 .8954305-2 2v3c0 1.1045695.8954305 2 2 2h2.281c.1851739 1.027742.4653766 2.0360701.837 3.012-.237-.012.43-.012-3.118-.012-1.1045695 0-2 .8954305-2 2v3c0 1.1045695.8954305 2 2 2h3c1.1045695 0 2-.8954305 2-2v-1.378c.8178823 1.1828286 1.7814628 2.2579534 2.868 3.2.0213506.0320713.0450842.0624905.071.091.025.021.055.029.082.048.9243905.7858937 1.9300975 1.4707803 3 2.043zm22-24h-3v-3h3zm0 20h-3v-3h3zm7.035 1 8.225-9.6 1.4 12.568c-3.4568518.1703489-6.8635339-.8802571-9.624-2.968zm11.612 2.752-1.529-13.752h13.831c-.465325 6.8606948-5.5343182 12.5272036-12.301 13.751z"/></g></svg>