<svg xmlns="http://www.w3.org/2000/svg" width="800" height="800" fill="var(--p-text-color)" viewBox="0 0 32 32"><path d="M30 25.11h-1v-.89a2 2 0 0 0-2-2h-1v-8.11h1a2 2 0 0 0 2-2v-.89h2a1 1 0 0 0 .43-1.9l-15-7.22a1 1 0 0 0-.86 0l-15 7.22a1 1 0 0 0 .43 1.9h2v.89a2 2 0 0 0 2 2h1v8.11H5a2 2 0 0 0-2 2v.89H2a2 2 0 0 0-2 2V29a1 1 0 0 0 1 1h30a1 1 0 0 0 1-1v-1.89a2 2 0 0 0-2-2m-14-21 10.62 5.11H5.38Zm-11 8v-.89h22v.89zm19 2v8.11h-2.5v-8.11Zm-4.5 0v8.11H17v-8.11Zm-4.5 0v8.11h-2.5v-8.11Zm-4.5 0v8.11H8v-8.11ZM5 24.22h22v.89H5ZM30 28H2v-.89h28Z"/></svg>