<svg height="1.5rem" viewBox="0 0 60 60" width="1.5rem" xmlns="http://www.w3.org/2000/svg"><g id="009---Calendar-Prefs"><path id="Shape" d="m55 6h-2c-.5522847 0-1 .44771525-1 1v4c0 2.7614237-2.2385763 5-5 5s-5-2.2385763-5-5v-4c0-.55228475-.4477153-1-1-1h-5c-.5522847 0-1 .44771525-1 1v4c0 2.7614237-2.2385763 5-5 5s-5-2.2385763-5-5v-4c0-.55228475-.4477153-1-1-1h-5c-.5522847 0-1 .44771525-1 1v4c0 2.7614237-2.2385763 5-5 5s-5-2.2385763-5-5v-4c0-.55228475-.44771525-1-1-1h-2c-2.76005315.00330612-4.99669388 2.23994685-5 5v44c.00330612 2.7600532 2.23994685 4.9966939 5 5h50c2.7600532-.0033061 4.9966939-2.2399468 5-5v-44c-.0033061-2.76005315-2.2399468-4.99669388-5-5zm-50 2h1v3c.00000008 3.8659932 3.13400681 6.9999999 7 6.9999999 3.8659932 0 6.9999999-3.1340067 7-6.9999999v-3h3v3c0 3.8659932 3.1340068 7 7 7s7-3.1340068 7-7v-3h3v3c0 3.8659932 3.1340068 7 7 7s7-3.1340068 7-7v-3h1c1.6568542 0 3 1.34314575 3 3v11h-56v-11c0-1.65685425 1.34314575-3 3-3zm50 50h-10v-5c0-.5522847-.4477153-1-1-1s-1 .4477153-1 1v5h-26v-5c0-.5522847-.4477153-1-1-1s-1 .4477153-1 1v5h-10c-1.65685425 0-3-1.3431458-3-3v-4h13c.5522847 0 1-.4477153 1-1s-.4477153-1-1-1h-13v-7h13v1c0 .5522847.4477153 1 1 1s1-.4477153 1-1v-1c.5522847 0 1-.4477153 1-1s-.4477153-1-1-1v-1c0-.5522847-.4477153-1-1-1s-1 .4477153-1 1v1h-13v-7h13c.5522847 0 1-.4477153 1-1s-.4477153-1-1-1h-13v-7h13v5c0 .5522847.4477153 1 1 1s1-.4477153 1-1v-5h12c0 .5522847.4477153 1 1 1s1-.4477153 1-1h12v5c0 .5522847.4477153 1 1 1s1-.4477153 1-1v-5h13v7h-13c-.5522847 0-1 .4477153-1 1s.4477153 1 1 1h13v7h-13v-1c0-.5522847-.4477153-1-1-1s-1 .4477153-1 1v1c-.5522847 0-1 .4477153-1 1s.4477153 1 1 1v1c0 .5522847.4477153 1 1 1s1-.4477153 1-1v-1h13v7h-13c-.5522847 0-1 .4477153-1 1s.4477153 1 1 1h13v4c0 1.6568542-1.3431458 3-3 3z"/><path id="Shape" d="m13 14c1.6568542 0 3-1.3431458 3-3v-8c0-1.65685425-1.3431458-3-3-3s-3 1.34314575-3 3v8c0 1.6568542 1.3431458 3 3 3zm-1-11c0-.55228475.4477153-1 1-1s1 .44771525 1 1v8c0 .5522847-.4477153 1-1 1s-1-.4477153-1-1z"/><path id="Shape" d="m30 14c1.6568542 0 3-1.3431458 3-3v-8c0-1.65685425-1.3431458-3-3-3s-3 1.34314575-3 3v8c0 1.6568542 1.3431458 3 3 3zm-1-11c0-.55228475.4477153-1 1-1s1 .44771525 1 1v8c0 .5522847-.4477153 1-1 1s-1-.4477153-1-1z"/><path id="Shape" d="m47 14c1.6568542 0 3-1.3431458 3-3v-8c0-1.65685425-1.3431458-3-3-3s-3 1.34314575-3 3v8c0 .7956495.3160705 1.5587112.8786797 2.1213203.5626091.5626092 1.3256708.8786797 2.1213203.8786797zm-1-11c0-.55228475.4477153-1 1-1s1 .44771525 1 1v8c0 .5522847-.4477153 1-1 1s-1-.4477153-1-1z"/><path id="Shape" d="m39.864 42.609.026-.135c.1677755-1.0215862.1589811-2.0643887-.026-3.083l2.262-2.874c.5078977-.6419626.571363-1.5292878.16-2.237l-.323-.559c-.4053432-.7119558-1.2067787-1.1013493-2.017-.98l-3.636.513c-.8290312-.6802875-1.7645859-1.219186-2.769-1.595l-1.361-3.4c-.301349-.7614927-1.0380503-1.260958-1.857-1.259h-.646c-.8187325-.0024136-1.5556504.4961363-1.858 1.257l-1.371 3.4c-1.0018024.3820385-1.9339191.9263082-2.759 1.611l-3.635-.524c-.8092581-.1184814-1.6087046.2697419-2.016.979l-.324.56c-.411363.7077122-.3478977 1.5950374.16 2.237l2.255 2.888c-.1737556 1.0597858-.1713904 2.1409845.007 3.2l-2.262 2.874c-.5080263.6423826-.5711051 1.5302461-.159 2.238l.322.557c.4058061.7120708 1.2073524 1.1017224 2.018.981l3.635-.513c.8290312.6802875 1.7645859 1.219186 2.769 1.595l1.361 3.4c.3010294.7618858 1.037802 1.2617961 1.857 1.26h.646c.8187325.0024136 1.5556504-.4961363 1.858-1.257l1.371-3.4c1.0018024-.3820385 1.9339191-.9263082 2.759-1.611l3.635.524c.8098187.120369 1.6105645-.2682925 2.017-.979l.323-.56c.411363-.7077122.3478977-1.5950374-.16-2.237zm.366 4.671-3.63-.524c-.5559778-.0771596-1.1187902.0828664-1.551.441-1.841 1.506-2.835 1.087-3.36 2.4l-1.366 3.403h-.646l-1.361-3.4c-.2118226-.5186123-.630467-.9252954-1.155-1.122-2.1-.8-2.224-1.741-3.483-1.741-.192 0 .063-.029-3.909.543l-.323-.558 2.263-2.876c.3436857-.4451418.4867768-1.0131594.395-1.568-.375-2.338.487-3-.4-4.124l-2.259-2.874.325-.56 3.635.524c.5558457.0752856 1.1179166-.0845295 1.551-.441 1.841-1.506 2.835-1.087 3.36-2.4l1.361-3.403h.646l1.361 3.4c.2118226.5186123.630467.9252954 1.155 1.122 2.139.815 2.369 1.924 3.757 1.721l3.634-.524.324.559-2.263 2.876c-.343523.4448345-.4866115 1.0124794-.395 1.567.382 2.387-.483 3 .4 4.124l2.262 2.874z"/><path id="Shape" d="m30 35c-3.3137085 0-6 2.6862915-6 6s2.6862915 6 6 6 6-2.6862915 6-6c-.0033074-3.3123376-2.6876624-5.9966926-6-6zm0 10c-2.209139 0-4-1.790861-4-4s1.790861-4 4-4 4 1.790861 4 4-1.790861 4-4 4z"/></g></svg>