<svg xmlns="http://www.w3.org/2000/svg" width="1.5rem" height="1.5rem" viewBox="0 0 60 60"><path d="M55 6h-2a1 1 0 0 0-1 1v4a5 5 0 0 1-10 0V7a1 1 0 0 0-1-1h-5a1 1 0 0 0-1 1v4a5 5 0 0 1-10 0V7a1 1 0 0 0-1-1h-5a1 1 0 0 0-1 1v4a5 5 0 0 1-10 0V7a1 1 0 0 0-1-1H5a5.006 5.006 0 0 0-5 5v44a5.006 5.006 0 0 0 5 5h50a5.006 5.006 0 0 0 5-5V11a5.006 5.006 0 0 0-5-5M5 8h1v3a7 7 0 0 0 14 0V8h3v3a7 7 0 0 0 14 0V8h3v3a7 7 0 0 0 14 0V8h1a3 3 0 0 1 3 3v11H2V11a3 3 0 0 1 3-3m50 50H45v-5a1 1 0 0 0-2 0v5H17v-5a1 1 0 0 0-2 0v5H5a3 3 0 0 1-3-3v-4h13a1 1 0 0 0 0-2H2v-7h13v1a1 1 0 0 0 2 0v-1a1 1 0 0 0 0-2v-1a1 1 0 0 0-2 0v1H2v-7h13a1 1 0 0 0 0-2H2v-7h13v5a1 1 0 0 0 2 0v-5h12a1 1 0 0 0 2 0h12v5a1 1 0 0 0 2 0v-5h13v7H45a1 1 0 0 0 0 2h13v7H45v-1a1 1 0 0 0-2 0v1a1 1 0 0 0 0 2v1a1 1 0 0 0 2 0v-1h13v7H45a1 1 0 0 0 0 2h13v4a3 3 0 0 1-3 3"/><path d="M13 14a3 3 0 0 0 3-3V3a3 3 0 0 0-6 0v8a3 3 0 0 0 3 3M12 3a1 1 0 0 1 2 0v8a1 1 0 0 1-2 0zM30 14a3 3 0 0 0 3-3V3a3 3 0 0 0-6 0v8a3 3 0 0 0 3 3M29 3a1 1 0 0 1 2 0v8a1 1 0 0 1-2 0zM47 14a3 3 0 0 0 3-3V3a3 3 0 0 0-6 0v8a3 3 0 0 0 3 3M46 3a1 1 0 0 1 2 0v8a1 1 0 0 1-2 0zM39.864 42.609l.026-.135a9 9 0 0 0-.026-3.083l2.262-2.874c.508-.642.571-1.53.16-2.237l-.323-.559a1.98 1.98 0 0 0-2.017-.98l-3.636.513a9.8 9.8 0 0 0-2.769-1.595l-1.361-3.4A1.99 1.99 0 0 0 30.323 27h-.646a1.99 1.99 0 0 0-1.858 1.257l-1.371 3.4a9.8 9.8 0 0 0-2.759 1.611l-3.635-.524a1.99 1.99 0 0 0-2.016.979l-.324.56a1.99 1.99 0 0 0 .16 2.237l2.255 2.888a9.8 9.8 0 0 0 .007 3.2l-2.262 2.874a1.99 1.99 0 0 0-.159 2.238l.322.557a1.99 1.99 0 0 0 2.018.981l3.635-.513a9.8 9.8 0 0 0 2.769 1.595l1.361 3.4A1.99 1.99 0 0 0 29.677 55h.646a1.99 1.99 0 0 0 1.858-1.257l1.371-3.4a9.8 9.8 0 0 0 2.759-1.611l3.635.524c.81.12 1.61-.268 2.017-.979l.323-.56a1.99 1.99 0 0 0-.16-2.237zm.366 4.671-3.63-.524a2 2 0 0 0-1.551.441c-1.841 1.506-2.835 1.087-3.36 2.4L30.323 53h-.646l-1.361-3.4a2 2 0 0 0-1.155-1.122c-2.1-.8-2.224-1.741-3.483-1.741-.192 0 .063-.029-3.909.543l-.323-.558 2.263-2.876a2.03 2.03 0 0 0 .395-1.568c-.375-2.338.487-3-.4-4.124l-2.259-2.874.325-.56 3.635.524a2.02 2.02 0 0 0 1.551-.441c1.841-1.506 2.835-1.087 3.36-2.4L29.677 29h.646l1.361 3.4c.212.519.63.925 1.155 1.122 2.139.815 2.369 1.924 3.757 1.721l3.634-.524.324.559-2.263 2.876a2.02 2.02 0 0 0-.395 1.567c.382 2.387-.483 3 .4 4.124l2.262 2.874z"/><path d="M30 35a6 6 0 1 0 0 12 6 6 0 0 0 0-12m0 10a4 4 0 1 1 0-8 4 4 0 0 1 0 8"/></svg>