<svg xmlns="http://www.w3.org/2000/svg" width="1.5rem" height="1.5rem" viewBox="0 0 512 512"><path d="M456.832 32.133H415.6V15c0-8.284-6.716-15-15-15s-15 6.716-15 15v17.133h-66.4V15c0-8.284-6.716-15-15-15s-15 6.716-15 15v17.133h-66.4V15c0-8.284-6.716-15-15-15s-15 6.716-15 15v17.133h-66.398V15c0-8.284-6.716-15-15-15s-15 6.716-15 15v17.133H55.167C24.748 32.133 0 56.88 0 87.3v369.533C0 487.252 24.748 512 55.167 512h401.666c30.42 0 55.168-24.748 55.168-55.167V87.3c-.001-30.42-24.749-55.167-55.169-55.167m-401.665 30h41.234v17.134c0 8.284 6.716 15 15 15s15-6.716 15-15V62.133h66.398v17.134c0 8.284 6.716 15 15 15s15-6.716 15-15V62.133h66.4v17.134c0 8.284 6.716 15 15 15s15-6.716 15-15V62.133h66.4v17.134c0 8.284 6.716 15 15 15s15-6.716 15-15V62.133h41.232C470.71 62.133 482 73.423 482 87.3v41.233H30V87.3c0-13.877 11.29-25.167 25.167-25.167M456.832 482H55.167C41.29 482 30 470.71 30 456.833v-298.3h452v298.3C482 470.71 470.71 482 456.832 482"/><path d="M151.567 208.867H87.299c-8.284 0-15 6.716-15 15v64.266c0 8.284 6.716 15 15 15h64.268c8.284 0 15-6.716 15-15v-64.266c0-8.284-6.716-15-15-15m-15 64.266h-34.268v-34.266h34.268zM424.699 208.867h-64.266c-8.284 0-15 6.716-15 15v64.266c0 8.284 6.716 15 15 15h64.266c8.284 0 15-6.716 15-15v-64.266c0-8.284-6.716-15-15-15m-15 64.266h-34.266v-34.266h34.266zM151.567 337.4H87.299c-8.284 0-15 6.716-15 15v64.266c0 8.284 6.716 15 15 15h64.268c8.284 0 15-6.716 15-15V352.4c0-8.284-6.716-15-15-15m-15 64.266h-34.268V367.4h34.268zM424.699 337.4h-64.266c-8.284 0-15 6.716-15 15v64.266c0 8.284 6.716 15 15 15h64.266c8.284 0 15-6.716 15-15V352.4c0-8.284-6.716-15-15-15m-15 64.266h-34.266V367.4h34.266zM288.133 337.4h-64.267c-8.284 0-15 6.716-15 15v64.266c0 8.284 6.716 15 15 15h64.267c8.284 0 15-6.716 15-15V352.4c0-8.284-6.716-15-15-15m-15 64.266h-34.267V367.4h34.267zM298.739 213.261c-5.857-5.857-15.355-5.858-21.213 0l-21.527 21.526-21.527-21.526c-5.857-5.858-15.355-5.858-21.213 0-5.857 5.858-5.857 15.355 0 21.213L234.786 256l-21.526 21.526c-5.858 5.858-5.858 15.355 0 21.213a14.96 14.96 0 0 0 10.607 4.394c3.838 0 7.678-1.465 10.606-4.393L256 277.213l21.527 21.527c2.929 2.929 6.768 4.393 10.606 4.393s7.678-1.464 10.606-4.394c5.858-5.858 5.858-15.355 0-21.213L277.213 256l21.526-21.526c5.859-5.858 5.859-15.355 0-21.213"/></svg>