<svg id="Layer_1" enable-background="new 0 0 512 512" height="512" viewBox="0 0 512 512" width="512" xmlns="http://www.w3.org/2000/svg"><g><path d="m456.832 32.133h-41.232v-17.133c0-8.284-6.716-15-15-15s-15 6.716-15 15v17.133h-66.4v-17.133c0-8.284-6.716-15-15-15s-15 6.716-15 15v17.133h-66.4v-17.133c0-8.284-6.716-15-15-15s-15 6.716-15 15v17.133h-66.398v-17.133c0-8.284-6.716-15-15-15s-15 6.716-15 15v17.133h-41.235c-30.419 0-55.167 24.747-55.167 55.167v369.533c0 30.419 24.748 55.167 55.167 55.167h401.666c30.42 0 55.168-24.748 55.168-55.167v-369.533c-.001-30.42-24.749-55.167-55.169-55.167zm-401.665 30h41.234v17.134c0 8.284 6.716 15 15 15s15-6.716 15-15v-17.134h66.398v17.134c0 8.284 6.716 15 15 15s15-6.716 15-15v-17.134h66.4v17.134c0 8.284 6.716 15 15 15s15-6.716 15-15v-17.134h66.4v17.134c0 8.284 6.716 15 15 15s15-6.716 15-15v-17.134h41.232c13.879 0 25.169 11.29 25.169 25.167v41.233h-452v-41.233c0-13.877 11.29-25.167 25.167-25.167zm401.665 419.867h-401.665c-13.877 0-25.167-11.29-25.167-25.167v-298.3h452v298.3c0 13.877-11.29 25.167-25.168 25.167z"/><path d="m151.567 208.867h-64.268c-8.284 0-15 6.716-15 15v64.266c0 8.284 6.716 15 15 15h64.268c8.284 0 15-6.716 15-15v-64.266c0-8.284-6.716-15-15-15zm-15 64.266h-34.268v-34.266h34.268z"/><path d="m424.699 208.867h-64.266c-8.284 0-15 6.716-15 15v64.266c0 8.284 6.716 15 15 15h64.266c8.284 0 15-6.716 15-15v-64.266c0-8.284-6.716-15-15-15zm-15 64.266h-34.266v-34.266h34.266z"/><path d="m151.567 337.4h-64.268c-8.284 0-15 6.716-15 15v64.266c0 8.284 6.716 15 15 15h64.268c8.284 0 15-6.716 15-15v-64.266c0-8.284-6.716-15-15-15zm-15 64.266h-34.268v-34.266h34.268z"/><path d="m424.699 337.4h-64.266c-8.284 0-15 6.716-15 15v64.266c0 8.284 6.716 15 15 15h64.266c8.284 0 15-6.716 15-15v-64.266c0-8.284-6.716-15-15-15zm-15 64.266h-34.266v-34.266h34.266z"/><path d="m288.133 337.4h-64.267c-8.284 0-15 6.716-15 15v64.266c0 8.284 6.716 15 15 15h64.267c8.284 0 15-6.716 15-15v-64.266c0-8.284-6.716-15-15-15zm-15 64.266h-34.267v-34.266h34.267z"/><path d="m298.739 213.261c-5.857-5.857-15.355-5.858-21.213 0l-21.527 21.526-21.527-21.526c-5.857-5.858-15.355-5.858-21.213 0-5.857 5.858-5.857 15.355 0 21.213l21.527 21.526-21.526 21.526c-5.858 5.858-5.858 15.355 0 21.213 2.93 2.929 6.768 4.394 10.607 4.394 3.838 0 7.678-1.465 10.606-4.393l21.527-21.527 21.527 21.527c2.929 2.929 6.768 4.393 10.606 4.393s7.678-1.464 10.606-4.394c5.858-5.858 5.858-15.355 0-21.213l-21.526-21.526 21.526-21.526c5.859-5.858 5.859-15.355 0-21.213z"/></g></svg>