<svg height="1.5rem" viewBox="0 0 60 60" width="1.5rem" xmlns="http://www.w3.org/2000/svg"><g id="006---Succesfull-Candidate"><path id="Shape" d="m3 38h22c1.6568542 0 3-1.3431458 3-3v-32c0-1.65685425-1.3431458-3-3-3h-22c-1.65685425 0-3 1.34314575-3 3v32c0 1.6568542 1.34314575 3 3 3zm22-2h-22c-.55228475 0-1-.4477153-1-1v-5h24v5c0 .5522847-.4477153 1-1 1zm-22-34h22c.5522847 0 1 .44771525 1 1v25h-24v-25c0-.55228475.44771525-1 1-1z"/><path id="Shape" d="m12 32h-7c-.55228475 0-1 .4477153-1 1s.44771525 1 1 1h7c.5522847 0 1-.4477153 1-1s-.4477153-1-1-1z"/><path id="Shape" d="m23 32h-7c-.5522847 0-1 .4477153-1 1s.4477153 1 1 1h7c.5522847 0 1-.4477153 1-1s-.4477153-1-1-1z"/><path id="Shape" d="m5.04 22.472c.01931628.1228395.06879281.238972.144.338.0545595.0756172.1129699.1483799.175.218 2.40737188 2.0363151 5.4903696 3.0966865 8.641 2.972 3.1506304.1246865 6.2336281-.9356849 8.641-2.972.0620301-.0696201.1204405-.1423828.175-.218.0752072-.099028.1246837-.2151605.144-.338.018079-.0899051.0314306-.1806964.04-.272-.1580399-3.1352208-1.6102276-6.0642217-4.01-8.088 2.639-4.277-.18-10.112-4.99-10.112-4.79 0-7.641 5.815-4.988 10.107-2.40175542 2.024584-3.8548173 4.9556981-4.012 8.093 0 0 .018.172.04.272zm8.96-16.472c2.342115.14854937 4.1270679 2.15662139 4 4.5.1270679 2.3433786-1.657885 4.3514506-4 4.5-2.342115-.1485494-4.1270679-2.1566214-4-4.5-.1270679-2.34337861 1.657885-4.35145063 4-4.5zm-3.68 9.623c.7712315.6579058 1.7027126 1.1001869 2.7 1.282 0 .033-.019.061-.019.095v1c0 .5522847.4477153 1 1 1s1-.4477153 1-1v-1c0-.034-.016-.062-.019-.095.9972874-.1818131 1.9287685-.6240942 2.7-1.282 1.8592487 1.553783 3.0309628 3.7779199 3.261 6.19-1.984464 1.5240865-4.4433037 2.2986051-6.943 2.187-2.4990189.1111288-4.95706968-.6633644-6.941-2.187.23003718-2.4120801 1.40175128-4.636217 3.261-6.19z"/><path id="Shape" d="m14 23c.5522847 0 1-.4477153 1-1v-1c0-.5522847-.4477153-1-1-1s-1 .4477153-1 1v1c0 .5522847.4477153 1 1 1z"/><path id="Shape" d="m57 0h-22c-1.6568542 0-3 1.34314575-3 3v32c0 1.6568542 1.3431458 3 3 3h22c1.6568542 0 3-1.3431458 3-3v-32c0-1.65685425-1.3431458-3-3-3zm-22 2h22c.5522847 0 1 .44771525 1 1v25h-24v-25c0-.55228475.4477153-1 1-1zm22 34h-22c-.5522847 0-1-.4477153-1-1v-5h24v5c0 .5522847-.4477153 1-1 1z"/><path id="Shape" d="m44 32h-7c-.5522847 0-1 .4477153-1 1s.4477153 1 1 1h7c.5522847 0 1-.4477153 1-1s-.4477153-1-1-1z"/><path id="Shape" d="m55 32h-7c-.5522847 0-1 .4477153-1 1s.4477153 1 1 1h7c.5522847 0 1-.4477153 1-1s-.4477153-1-1-1z"/><path id="Shape" d="m37.04 22.472c.0193163.1228395.0687928.238972.144.338.0545595.0756172.1129699.1483799.175.218 2.4073719 2.0363151 5.4903696 3.0966865 8.641 2.972 3.1506304.1246865 6.2336281-.9356849 8.641-2.972.0620301-.0696201.1204405-.1423828.175-.218.0752072-.099028.1246837-.2151605.144-.338.018079-.0899051.0314306-.1806964.04-.272-.1580399-3.1352208-1.6102276-6.0642217-4.01-8.088 2.639-4.277-.18-10.112-4.99-10.112-4.79 0-7.641 5.815-4.988 10.107-2.4017554 2.024584-3.8548173 4.9556981-4.012 8.093 0 0 .018.172.04.272zm8.96-16.472c2.342115.14854937 4.1270679 2.15662139 4 4.5.1270679 2.3433786-1.657885 4.3514506-4 4.5-2.342115-.1485494-4.1270679-2.1566214-4-4.5-.1270679-2.34337861 1.657885-4.35145063 4-4.5zm-3.68 9.623c.7712315.6579058 1.7027126 1.1001869 2.7 1.282 0 .033-.019.061-.019.095v1c0 .5522847.4477153 1 1 1s1-.4477153 1-1v-1c0-.034-.016-.062-.019-.095.9972874-.1818131 1.9287685-.6240942 2.7-1.282 1.8592487 1.553783 3.0309628 3.7779199 3.261 6.19-1.984464 1.5240865-4.4433037 2.2986051-6.943 2.187-2.4990189.1111288-4.9570697-.6633644-6.941-2.187.2300372-2.4120801 1.4017513-4.636217 3.261-6.19z"/><path id="Shape" d="m46 23c.5522847 0 1-.4477153 1-1v-1c0-.5522847-.4477153-1-1-1s-1 .4477153-1 1v1c0 .5522847.4477153 1 1 1z"/><path id="Shape" d="m4 50c0 5.5228475 4.4771525 10 10 10s10-4.4771525 10-10-4.4771525-10-10-10c-5.52033443.0060624-9.99393763 4.4796656-10 10zm18 0c0 4.418278-3.581722 8-8 8s-8-3.581722-8-8 3.581722-8 8-8c4.4162219.0049599 7.9950401 3.5837781 8 8z"/><path id="Shape" d="m11.707 46.293c-.3923789-.3789722-1.0160848-.3735524-1.4018186.0121814-.38573377.3857338-.39115361 1.0094397-.0121814 1.4018186l2.293 2.293-2.293 2.293c-.2859079.2859943-.37142191.7160366-.216678 1.0896546.1547439.3736179.5192821.6172591.923678.6173454.553 0 .542-.128 3-2.586 2.463 2.463 2.448 2.586 3 2.586.4043959-.0000863.7689341-.2437275.923678-.6173454.1547439-.373618.0692299-.8036603-.216678-1.0896546l-2.293-2.293 2.293-2.293c.3789722-.3923789.3735524-1.0160848-.0121814-1.4018186s-1.0094397-.3911536-1.4018186-.0121814l-2.293 2.293z"/><path id="Shape" d="m46 60c5.5228475 0 10-4.4771525 10-10s-4.4771525-10-10-10-10 4.4771525-10 10c.0060624 5.5203344 4.4796656 9.9939376 10 10zm0-18c4.418278 0 8 3.581722 8 8s-3.581722 8-8 8-8-3.581722-8-8c.0049599-4.4162219 3.5837781-7.9950401 8-8z"/><path id="Shape" d="m43.293 54.707c.2049671.2049582.4887821.3108958.7779152.2903668s.5551328-.1655046.7290848-.3973668l6-8c.3313708-.4418278.2418278-1.0686291-.2-1.4-.4418278-.3313708-1.0686291-.2418278-1.4.2l-5.308 7.078-1.185-1.185c-.3923789-.3789722-1.0160848-.3735524-1.4018186.0121814s-.3911536 1.0094397-.0121814 1.4018186z"/></g></svg>