<svg xmlns="http://www.w3.org/2000/svg" width="1.5rem" height="1.5rem" viewBox="0 0 60 60"><path d="M3 38h22a3 3 0 0 0 3-3V3a3 3 0 0 0-3-3H3a3 3 0 0 0-3 3v32a3 3 0 0 0 3 3m22-2H3a1 1 0 0 1-1-1v-5h24v5a1 1 0 0 1-1 1M3 2h22a1 1 0 0 1 1 1v25H2V3a1 1 0 0 1 1-1"/><path d="M12 32H5a1 1 0 0 0 0 2h7a1 1 0 0 0 0-2M23 32h-7a1 1 0 0 0 0 2h7a1 1 0 0 0 0-2M5.04 22.472c.02.123.069.239.144.338q.082.114.175.218A12.6 12.6 0 0 0 14 26c3.15.125 6.234-.936 8.641-2.972q.093-.104.175-.218a.75.75 0 0 0 .144-.338q.027-.135.04-.272a11.33 11.33 0 0 0-4.01-8.088C21.629 9.835 18.81 4 14 4 9.21 4 6.359 9.815 9.012 14.107A11.33 11.33 0 0 0 5 22.2s.018.172.04.272M14 6a4.277 4.277 0 0 1 4 4.5 4.277 4.277 0 0 1-4 4.5 4.277 4.277 0 0 1-4-4.5A4.277 4.277 0 0 1 14 6m-3.68 9.623a5.75 5.75 0 0 0 2.7 1.282c0 .033-.019.061-.019.095v1a1 1 0 0 0 2 0v-1c0-.034-.016-.062-.019-.095a5.75 5.75 0 0 0 2.7-1.282 9.2 9.2 0 0 1 3.261 6.19A10.62 10.62 0 0 1 14 24a10.62 10.62 0 0 1-6.941-2.187 9.2 9.2 0 0 1 3.261-6.19"/><path d="M14 23a1 1 0 0 0 1-1v-1a1 1 0 0 0-2 0v1a1 1 0 0 0 1 1M57 0H35a3 3 0 0 0-3 3v32a3 3 0 0 0 3 3h22a3 3 0 0 0 3-3V3a3 3 0 0 0-3-3M35 2h22a1 1 0 0 1 1 1v25H34V3a1 1 0 0 1 1-1m22 34H35a1 1 0 0 1-1-1v-5h24v5a1 1 0 0 1-1 1"/><path d="M44 32h-7a1 1 0 0 0 0 2h7a1 1 0 0 0 0-2M55 32h-7a1 1 0 0 0 0 2h7a1 1 0 0 0 0-2M37.04 22.472c.02.123.069.239.144.338q.082.114.175.218A12.6 12.6 0 0 0 46 26c3.15.125 6.234-.936 8.641-2.972q.093-.104.175-.218a.75.75 0 0 0 .144-.338q.027-.135.04-.272a11.33 11.33 0 0 0-4.01-8.088C53.629 9.835 50.81 4 46 4c-4.79 0-7.641 5.815-4.988 10.107A11.33 11.33 0 0 0 37 22.2s.018.172.04.272M46 6a4.277 4.277 0 0 1 4 4.5 4.277 4.277 0 0 1-4 4.5 4.277 4.277 0 0 1-4-4.5A4.277 4.277 0 0 1 46 6m-3.68 9.623a5.75 5.75 0 0 0 2.7 1.282c0 .033-.019.061-.019.095v1a1 1 0 0 0 2 0v-1c0-.034-.016-.062-.019-.095a5.75 5.75 0 0 0 2.7-1.282 9.2 9.2 0 0 1 3.261 6.19A10.62 10.62 0 0 1 46 24a10.62 10.62 0 0 1-6.941-2.187 9.2 9.2 0 0 1 3.261-6.19"/><path d="M46 23a1 1 0 0 0 1-1v-1a1 1 0 0 0-2 0v1a1 1 0 0 0 1 1M4 50c0 5.523 4.477 10 10 10s10-4.477 10-10-4.477-10-10-10c-5.52.006-9.994 4.48-10 10m18 0a8 8 0 1 1-8-8 8.01 8.01 0 0 1 8 8"/><path d="M11.707 46.293a1 1 0 0 0-1.414 1.414L12.586 50l-2.293 2.293A1 1 0 0 0 11 54c.553 0 .542-.128 3-2.586C16.463 53.877 16.448 54 17 54a1 1 0 0 0 .707-1.707L15.414 50l2.293-2.293a1 1 0 0 0-1.414-1.414L14 48.586zM46 60c5.523 0 10-4.477 10-10s-4.477-10-10-10-10 4.477-10 10c.006 5.52 4.48 9.994 10 10m0-18a8 8 0 1 1-8 8 8.01 8.01 0 0 1 8-8"/><path d="M43.293 54.707A1 1 0 0 0 44.8 54.6l6-8a1 1 0 0 0-1.6-1.2l-5.308 7.078-1.185-1.185a1 1 0 0 0-1.414 1.414z"/></svg>