<svg xmlns="http://www.w3.org/2000/svg" xml:space="preserve" id="_x32_" version="1.1" viewBox="0 0 512 512"><style>.st0{fill:var(--p-text-color)}</style><path d="m463.428 243.633-36.594-3.25v-.006l-56.189-5v.013l-37.824-3.379v-59.42h-72.614v-44.298H305.2V86.447l-44.993-12.562h-10.463v98.706h-70.552v59.42l-39.796 3.529-48.157 4.291v-.013l-51.924 4.618v.013L0 247.945v148.358l185.033 28.283v1.457l27.214 6.738A182.6 182.6 0 0 0 256 438.115c14.741 0 29.455-1.798 43.757-5.334l27.22-6.738v-1.424L512 396.309V247.945zM187.05 410.717 14.032 384.259v-79.475H187.05zm0-114.326H14.032v-35.612l20.518-1.819v15.566l18.798-1.117V257.27l23.866-2.126v16.832l21.985-1.321V253.21l28.134-2.514v18.298l26.09-1.56v-19.06l33.628-2.983zM312.944 415.07l-16.556 4.094a168.2 168.2 0 0 1-80.769 0l-16.556-4.094V245.404h113.882V415.07zm5.849-208.406v26.717H193.214v-46.757h26.719v20.04h22.712v-20.04h26.72v20.04h22.707v-20.04h26.72zm179.181 177.602-173 26.464V304.784h173zm0-87.854h-173v-51.015l33.627 3.004v19.033l26.066 1.567v-18.297l28.137 2.507v17.473l21.982 1.294v-16.804l23.889 2.125v16.11l18.774 1.124V258.96l20.524 1.826v35.626z" class="st0"/><path d="M245.986 275.833h20.034v49.1h-20.034zM313.564 94.349v28.665l39.762-8.325z" class="st0"/></svg>
