<svg xmlns="http://www.w3.org/2000/svg" width="1.5rem" height="1.5rem" viewBox="0 0 64 64"><path d="M52.962 17.733h-8.213v-6.2c0-4.428-3.614-8.029-8.058-8.029H11.037c-4.428 0-8.029 3.602-8.029 8.029v19.871c0 4.443 3.602 8.059 8.029 8.059h8.213v6.2c0 4.428 3.615 8.029 8.059 8.029h.352l2.24 4.861c.599 1.198 1.777 1.942 3.077 1.942 1.34 0 2.523-.754 3.089-1.967l2.254-4.837h14.642c4.428 0 8.03-3.602 8.03-8.029v-19.87c-.001-4.443-3.603-8.059-8.031-8.059M5.008 31.404V11.533a6.036 6.036 0 0 1 6.029-6.029h25.654c3.34 0 6.058 2.705 6.058 6.029v19.871a6.066 6.066 0 0 1-6.058 6.059h-.992a1 1 0 0 0-.905.576l-2.529 5.398c-.238.526-.701.828-1.271.828-.569 0-1.033-.302-1.275-.837l-2.494-5.386a1 1 0 0 0-.907-.58H11.037c-3.324.001-6.029-2.717-6.029-6.058m53.984 14.259a6.037 6.037 0 0 1-6.03 6.029H37.684a1 1 0 0 0-.906.577l-2.523 5.414a1.38 1.38 0 0 1-1.276.813 1.42 1.42 0 0 1-1.274-.808l-2.494-5.414a1 1 0 0 0-.908-.582h-.992c-3.341 0-6.059-2.705-6.059-6.029v-6.2h4.428l2.222 4.798a3.37 3.37 0 0 0 3.094 2.005 3.35 3.35 0 0 0 3.088-1.993l2.254-4.81h.356c4.443 0 8.058-3.615 8.058-8.059V19.733h8.213c3.325 0 6.03 2.718 6.03 6.059v19.871z"/></svg>