<svg id="Line" height="512" viewBox="0 0 64 64" width="512" xmlns="http://www.w3.org/2000/svg"><path d="m52.962 17.733h-8.213v-6.2c0-4.428-3.614-8.029-8.058-8.029h-25.654c-4.428 0-8.029 3.602-8.029 8.029v19.871c0 4.443 3.602 8.059 8.029 8.059h8.213v6.2c0 4.428 3.615 8.029 8.059 8.029h.352l2.24 4.861c.599 1.198 1.777 1.942 3.077 1.942 1.34 0 2.523-.754 3.089-1.967l2.254-4.837h14.642c4.428 0 8.03-3.602 8.03-8.029v-19.87c-.001-4.443-3.603-8.059-8.031-8.059zm-47.954 13.671v-19.871c0-3.324 2.705-6.029 6.029-6.029h25.654c3.34 0 6.058 2.705 6.058 6.029v19.871c0 3.341-2.718 6.059-6.058 6.059h-.992c-.388 0-.741.225-.905.576l-2.529 5.398c-.238.526-.701.828-1.271.828-.569 0-1.033-.302-1.275-.837l-2.494-5.386c-.163-.354-.518-.58-.907-.58h-15.281c-3.324.001-6.029-2.717-6.029-6.058zm53.984 14.259c0 3.324-2.705 6.029-6.03 6.029h-15.278c-.389 0-.742.226-.906.577l-2.523 5.414c-.237.509-.714.813-1.276.813-.545 0-1.026-.313-1.274-.808l-2.494-5.414c-.163-.354-.518-.582-.908-.582h-.992c-3.341 0-6.059-2.705-6.059-6.029v-6.2h4.428l2.222 4.798c.56 1.236 1.745 2.005 3.094 2.005 1.351 0 2.536-.769 3.088-1.993l2.254-4.81h.356c4.443 0 8.058-3.615 8.058-8.059v-11.671h8.213c3.325 0 6.03 2.718 6.03 6.059v19.871z"/></svg>