<svg xmlns="http://www.w3.org/2000/svg" width="1.5rem" height="1.5rem" viewBox="0 0 512 512"><path d="M512 51.875c0-13.855-5.396-26.882-15.192-36.679C487.009 5.396 473.983 0 460.126 0c-13.855 0-26.883 5.396-36.68 15.195L306.129 132.511q-.01.007-.017.015l-.015.017-30.955 30.954L72.56 109.214a52 52 0 0 0-13.448-1.776c-23.421 0-44.017 15.814-50.085 38.46-5.238 19.553 1.477 39.546 15.644 52.187C8.521 208.07-1.563 226.597.2 246.771a51.74 51.74 0 0 0 16.727 33.805 51.9 51.9 0 0 0 15.814 9.897c-11.749 14.908-14.884 35.756-6.332 54.102 8.271 17.727 26.009 29.343 45.489 29.933a52 52 0 0 0-2.609 16.326c0 13.855 5.396 26.882 15.194 36.68s22.825 15.194 36.681 15.194c5.638 0 11.139-.894 16.341-2.614.585 18.97 11.584 36.948 29.924 45.499 6.929 3.231 14.296 4.87 21.899 4.87 11.866 0 23.167-4.104 32.178-11.216a52 52 0 0 0 8.511 14.223c8.906 10.614 21.413 17.125 35.215 18.331 1.516.133 3.053.2 4.569.2 12.932 0 25.331-4.812 34.914-13.549a52 52 0 0 0 9.214-11.11c9.617 10.798 23.581 17.411 38.728 17.411h.001a52 52 0 0 0 13.448-1.776c27.627-7.402 44.083-35.901 36.682-63.53l-54.282-202.59L496.805 88.555C506.604 78.758 512 65.731 512 51.875M275.743 194.716a14.99 14.99 0 0 0 14.489-3.883l26.488-26.487 30.935 30.935-26.485 26.485a15 15 0 0 0-3.883 14.488l8.6 32.096c-22.996 17.266-55.871 15.455-76.782-5.453-11.096-11.097-17.207-25.85-17.207-41.542 0-12.882 4.126-25.128 11.741-35.241zm82.599 279.282c-1.869.5-3.781.754-5.685.754-9.866 0-18.545-6.67-21.104-16.22l-7.908-29.518a15.001 15.001 0 0 0-29.432 2.573l-2.666 30.442c-.98 11.198-10.532 19.97-21.746 19.97-.646 0-1.303-.028-1.954-.086-5.82-.509-11.093-3.253-14.848-7.729s-5.543-10.146-5.033-15.971l2.658-30.443a15 15 0 0 0-28.539-7.642l-12.909 27.693c-3.581 7.678-11.372 12.639-19.849 12.639a21.65 21.65 0 0 1-9.22-2.059c-10.932-5.097-15.678-18.138-10.582-29.07l12.914-27.694a15 15 0 0 0-24.201-16.945L136.632 406.3c-4.132 4.132-9.625 6.407-15.468 6.407s-11.336-2.275-15.468-6.407-6.407-9.625-6.407-15.467 2.275-11.334 6.406-15.465l21.6-21.596a15 15 0 0 0-16.943-24.202l-27.679 12.903a21.7 21.7 0 0 1-9.219 2.057c-8.48 0-16.275-4.962-19.856-12.637-5.096-10.932-.348-23.974 10.579-29.072l27.684-12.906a15 15 0 0 0-7.645-28.539l-30.428 2.661c-.647.057-1.301.085-1.945.085-11.218 0-20.774-8.773-21.756-19.969-1.05-12.018 7.87-22.65 19.884-23.701l30.436-2.663a15.001 15.001 0 0 0 2.574-29.433l-29.507-7.905c-11.65-3.123-18.588-15.143-15.468-26.791 2.56-9.552 11.239-16.224 21.107-16.224 1.903 0 3.816.254 5.684.755l148.45 39.777c-18.927 33.797-14.062 77.432 14.647 106.141 17.301 17.3 40.027 25.949 62.754 25.949a88.8 88.8 0 0 0 43.387-11.306l39.777 148.455c3.119 11.651-3.819 23.669-15.47 26.791M475.593 67.341 368.868 174.067l-30.935-30.935L444.661 36.407c4.132-4.132 9.624-6.407 15.466-6.407s11.334 2.275 15.467 6.408C479.725 40.54 482 46.033 482 51.875s-2.275 11.335-6.407 15.466"/></svg>