<svg id="Layer_1" enable-background="new 0 0 512 512" height="1.5rem" viewBox="0 0 512 512" width="1.5rem" xmlns="http://www.w3.org/2000/svg"><path d="m512 51.875c0-13.855-5.396-26.882-15.192-36.679-9.799-9.8-22.825-15.196-36.682-15.196-13.855 0-26.883 5.396-36.68 15.195l-117.317 117.316c-.006.005-.012.009-.017.015s-.01.012-.015.017l-30.955 30.954-202.582-54.283c-4.399-1.179-8.924-1.776-13.448-1.776-23.421 0-44.017 15.814-50.085 38.46-5.238 19.553 1.477 39.546 15.644 52.187-16.15 9.985-26.234 28.512-24.471 48.686 1.141 13.007 7.081 25.013 16.727 33.805 4.687 4.272 10.047 7.606 15.814 9.897-11.749 14.908-14.884 35.756-6.332 54.102 8.271 17.727 26.009 29.343 45.489 29.933-1.717 5.197-2.609 10.692-2.609 16.326 0 13.855 5.396 26.882 15.194 36.68s22.825 15.194 36.681 15.194c5.638 0 11.139-.894 16.341-2.614.585 18.97 11.584 36.948 29.924 45.499 6.929 3.231 14.296 4.87 21.899 4.87 11.866 0 23.167-4.104 32.178-11.216 2.026 5.1 4.881 9.896 8.511 14.223 8.906 10.614 21.413 17.125 35.215 18.331 1.516.133 3.053.2 4.569.2 12.932 0 25.331-4.812 34.914-13.549 3.609-3.292 6.7-7.034 9.214-11.11 9.617 10.798 23.581 17.411 38.728 17.411h.001c4.523 0 9.049-.598 13.448-1.776 27.627-7.402 44.083-35.901 36.682-63.53l-54.282-202.59 148.299-148.302c9.799-9.797 15.195-22.824 15.195-36.68zm-236.257 142.841c5.181 1.388 10.7-.092 14.489-3.883l26.488-26.487 30.935 30.935-26.485 26.485c-3.79 3.789-5.27 9.313-3.883 14.488l8.6 32.096c-22.996 17.266-55.871 15.455-76.782-5.453-11.096-11.097-17.207-25.85-17.207-41.542 0-12.882 4.126-25.128 11.741-35.241zm82.599 279.282c-1.869.5-3.781.754-5.685.754-9.866 0-18.545-6.67-21.104-16.22l-7.908-29.518c-1.884-7.031-8.537-11.688-15.796-11.062-7.251.635-13.001 6.383-13.636 13.635l-2.666 30.442c-.98 11.198-10.532 19.97-21.746 19.97-.646 0-1.303-.028-1.954-.086-5.82-.509-11.093-3.253-14.848-7.729s-5.543-10.146-5.033-15.971l2.658-30.443c.633-7.252-4.032-13.911-11.063-15.794-1.292-.347-2.596-.513-3.883-.513-5.712 0-11.083 3.279-13.593 8.665l-12.909 27.693c-3.581 7.678-11.372 12.639-19.849 12.639-3.189 0-6.291-.692-9.22-2.059-10.932-5.097-15.678-18.138-10.582-29.07l12.914-27.694c3.076-6.597.972-14.451-4.991-18.626-5.965-4.176-14.064-3.467-19.21 1.681l-21.606 21.608c-4.132 4.132-9.625 6.407-15.468 6.407s-11.336-2.275-15.468-6.407c-4.131-4.132-6.407-9.625-6.407-15.467s2.275-11.334 6.406-15.465l21.6-21.596c5.148-5.146 5.857-13.247 1.683-19.21-4.175-5.962-12.029-8.071-18.626-4.992l-27.679 12.903c-2.929 1.364-6.03 2.057-9.219 2.057-8.48 0-16.275-4.962-19.856-12.637-5.096-10.932-.348-23.974 10.579-29.072l27.684-12.906c6.598-3.075 10.034-10.444 8.151-17.477-1.883-7.031-8.546-11.693-15.796-11.062l-30.428 2.661c-.647.057-1.301.085-1.945.085-11.218 0-20.774-8.773-21.756-19.969-1.05-12.018 7.87-22.65 19.884-23.701l30.436-2.663c7.251-.635 13.001-6.385 13.635-13.637.634-7.251-4.03-13.912-11.061-15.796l-29.507-7.905c-11.65-3.123-18.588-15.143-15.468-26.791 2.56-9.552 11.239-16.224 21.107-16.224 1.903 0 3.816.254 5.684.755l148.45 39.777c-18.927 33.797-14.062 77.432 14.647 106.141 17.301 17.3 40.027 25.949 62.754 25.949 14.984 0 29.958-3.785 43.387-11.306l39.777 148.455c3.119 11.651-3.819 23.669-15.47 26.791zm117.251-406.657-106.725 106.726-30.935-30.935 106.728-106.725c4.132-4.132 9.624-6.407 15.466-6.407s11.334 2.275 15.467 6.408c4.131 4.132 6.406 9.625 6.406 15.467s-2.275 11.335-6.407 15.466z"/></svg>