<svg xmlns="http://www.w3.org/2000/svg" width="1.5rem" height="1.5rem" viewBox="0 0 511.999 511.999"><path d="M480.658 118.908c15.628-16.826 13.139-30.398 10.265-36.99s-11.125-17.652-34.089-17.652H385.72l38.66-38.66c5.858-5.857 5.858-15.355 0-21.213-5.857-5.857-15.355-5.857-21.213 0l-59.872 59.873H55.167c-22.964 0-31.215 11.06-34.09 17.651s-5.363 20.164 10.262 36.99L208.866 310.09v107.643h-33.199c-25.99 0-47.135 21.144-47.135 47.133S149.677 512 175.667 512h160.666c25.989 0 47.133-21.145 47.133-47.134s-21.144-47.133-47.133-47.133h-33.199V310.09zm-430.4-24.267c1.221-.213 2.844-.375 4.909-.375h401.666c2.065 0 3.687.162 4.908.375-.675 1.04-1.66 2.339-3.066 3.853l-27.893 30.039H81.216l-27.893-30.04c-1.406-1.514-2.39-2.812-3.065-3.852m286.075 353.091c9.447 0 17.133 7.686 17.133 17.133s-7.686 17.134-17.133 17.134H175.667c-9.448 0-17.135-7.687-17.135-17.134s7.687-17.133 17.135-17.133h48.199c8.284 0 15-6.716 15-15V319.199h34.268v113.533c0 8.284 6.716 15 15 15zm-54.74-158.533h-51.186L109.073 158.532h293.852z"/></svg>