<svg xmlns="http://www.w3.org/2000/svg" width="1.5rem" height="1.5rem" viewBox="0 0 60 60"><path d="M47 33a2 2 0 0 0 2-2V6a2 2 0 0 0-2-2H13a2 2 0 0 0-2 2v25a2 2 0 0 0 2 2zM13 6h34v25H13z"/><path d="M3 60h54a3 3 0 0 0 2.753-4.188l-4.816-9.668A4.98 4.98 0 0 0 50.292 43H49v-3.1a5.01 5.01 0 0 0 4-4.9V5a5.006 5.006 0 0 0-5-5H12a5.006 5.006 0 0 0-5 5v30a5.01 5.01 0 0 0 4 4.9V43H9.708A4.94 4.94 0 0 0 5.1 46.069L.216 55.886A3 3 0 0 0 3 60m6-25V5a3 3 0 0 1 3-3h36a3 3 0 0 1 3 3v30a3 3 0 0 1-3 3H12a3 3 0 0 1-3-3m4 5h2a1 1 0 0 0 2 0h2a1 1 0 0 0 2 0h2a1 1 0 0 0 2 0h2a1 1 0 0 0 2 0h2a1 1 0 0 0 2 0h2a1 1 0 0 0 2 0h2a1 1 0 0 0 2 0h2a1 1 0 0 0 2 0h2v3H13zM2.04 56.7l4.883-9.817A2.98 2.98 0 0 1 9.708 45h40.584a3.02 3.02 0 0 1 2.818 1.96l4.817 9.669A1 1 0 0 1 57 58H3a1.01 1.01 0 0 1-.96-1.3"/><path d="M8.724 56H36a2 2 0 0 0 2-2v-5a2 2 0 0 0-2-2H11a2.03 2.03 0 0 0-1.778 1.089l-2.236 4.919A2 2 0 0 0 8.724 56M11 49h25v4.959H8.765zM42 56h9.276a2 2 0 0 0 1.78-2.911l-2.32-5.081A2 2 0 0 0 49 47h-7a2 2 0 0 0-2 2v5a2 2 0 0 0 2 2m0-7 6.958-.082L51.282 54H42zM16.6 8.2a1 1 0 1 0-1.2 1.6l2.933 2.2-2.933 2.2A1 1 0 0 0 16 16c.449 0 .2.1 4.6-3.2a1 1 0 0 0 0-1.6zM26 14h-3a1 1 0 0 0 0 2h3a1 1 0 0 0 0-2"/></svg>