<svg id="_x33_0" enable-background="new 0 0 64 64" height="1.5rem" viewBox="0 0 64 64" width="1.5rem" xmlns="http://www.w3.org/2000/svg"><g><path d="m19 35h2v-16h-3.68l14.68-15.543 14.68 15.543h-3.68v16h2v-14h6.32l-19.32-20.457-19.32 20.457h6.32z"/><path d="m59 39h4.868l-9.868-14.803-9.868 14.803h4.868v10h-8v-6c0-1.103-.897-2-2-2h-6v-8h1c4.596 0 7-3.521 7-7v-1h-1c-3.562 0-5.699 1.114-7 2.451v-2.804c1.067-.552 3-1.925 3-4.647 0-4.483-3.305-6.738-3.445-6.832l-.555-.37-.555.37c-.14.094-3.445 2.349-3.445 6.832 0 2.722 1.933 4.096 3 4.647v2.804c-1.301-1.337-3.438-2.451-7-2.451h-1v1c0 3.479 2.404 7 7 7h1v8h-6c-1.103 0-2 .897-2 2v10h-8v-14h4.868l-9.868-14.803-9.868 14.803h4.868v22h-4v2h62v-2h-4zm-29-8c-2.941 0-4.511-1.899-4.902-3.957 4.158.337 5.388 2.589 5.751 3.957zm8.901-3.957c-.39 2.058-1.961 3.957-4.901 3.957h-.846c.367-1.35 1.6-3.616 5.747-3.957zm-8.901-7.043c0-2.413 1.246-3.977 1.999-4.701.751.725 2.001 2.293 2.001 4.701 0 1.738-1.36 2.604-2 2.916-.64-.312-2-1.178-2-2.916zm17.868 17 6.132-9.197 6.132 9.197h-3.132v24h-4v-10c0-1.103-.897-2-2-2v-12zm-12.868 10v2h-2v-2zm-4 2h-2v-2h2zm-4 0h-2v-2h2zm8 2v2h-4v-2zm16 6h-4v-2h4zm-22 0v-2h2v2zm4-2h2v2h-2zm4 0h4v2h-4zm6 0h2v2h-2zm8-2h-2v-2h2zm-4 0h-2v-2h2zm-10 0v-2h2v2zm-10 4h-14v-2h14zm-14 2h2v2h-2zm4 0h2v2h-2zm4 0h2v2h-2zm4 0h2v2h-2zm4 0h6v2h-6zm8 0h2v2h-2zm4 0h2v2h-2zm4 0h2v2h-2zm4 0h2v2h-2zm-6-8v2h-2v-2zm-6-2v-2h2v2zm2-6v2h-14v-2zm-14 8h4v2h-4zm-21.132-14 6.132-9.197 6.132 9.197h-3.132v16c-1.103 0-2 .897-2 2v6h-4v-24z"/></g></svg>