<svg xmlns="http://www.w3.org/2000/svg" width="1.5rem" height="1.5rem" viewBox="0 0 64 64"><path d="M19 35h2V19h-3.68L32 3.457 46.68 19H43v16h2V21h6.32L32 .543 12.68 21H19z"/><path d="M59 39h4.868L54 24.197 44.132 39H49v10h-8v-6c0-1.103-.897-2-2-2h-6v-8h1c4.596 0 7-3.521 7-7v-1h-1c-3.562 0-5.699 1.114-7 2.451v-2.804c1.067-.552 3-1.925 3-4.647 0-4.483-3.305-6.738-3.445-6.832l-.555-.37-.555.37C31.305 13.262 28 15.517 28 20c0 2.722 1.933 4.096 3 4.647v2.804C29.699 26.114 27.562 25 24 25h-1v1c0 3.479 2.404 7 7 7h1v8h-6c-1.103 0-2 .897-2 2v10h-8V39h4.868L10 24.197.132 39H5v22H1v2h62v-2h-4zm-29-8c-2.941 0-4.511-1.899-4.902-3.957 4.158.337 5.388 2.589 5.751 3.957zm8.901-3.957C38.511 29.101 36.94 31 34 31h-.846c.367-1.35 1.6-3.616 5.747-3.957M30 20a6.48 6.48 0 0 1 1.999-4.701C32.75 16.024 34 17.592 34 20c0 1.738-1.36 2.604-2 2.916-.64-.312-2-1.178-2-2.916m17.868 17L54 27.803 60.132 37H57v24h-4V51c0-1.103-.897-2-2-2V37zM35 47v2h-2v-2zm-4 2h-2v-2h2zm-4 0h-2v-2h2zm8 2v2h-4v-2zm16 6h-4v-2h4zm-22 0v-2h2v2zm4-2h2v2h-2zm4 0h4v2h-4zm6 0h2v2h-2zm8-2h-2v-2h2zm-4 0h-2v-2h2zm-10 0v-2h2v2zm-10 4H13v-2h14zm-14 2h2v2h-2zm4 0h2v2h-2zm4 0h2v2h-2zm4 0h2v2h-2zm4 0h6v2h-6zm8 0h2v2h-2zm4 0h2v2h-2zm4 0h2v2h-2zm4 0h2v2h-2zm-6-8v2h-2v-2zm-6-2v-2h2v2zm2-6v2H25v-2zm-14 8h4v2h-4zM3.868 37 10 27.803 16.132 37H13v16c-1.103 0-2 .897-2 2v6H7V37z"/></svg>