<svg xmlns="http://www.w3.org/2000/svg" width="1.5rem" height="1.5rem" viewBox="0 0 24 24"><path d="M9.5 8h-8C.673 8 0 7.327 0 6.5v-5C0 .673.673 0 1.5 0h8c.827 0 1.5.673 1.5 1.5v5c0 .827-.673 1.5-1.5 1.5m-8-7a.5.5 0 0 0-.5.5v5a.5.5 0 0 0 .5.5h8a.5.5 0 0 0 .5-.5v-5a.5.5 0 0 0-.5-.5zM9.5 24h-8C.673 24 0 23.327 0 22.5v-11c0-.827.673-1.5 1.5-1.5h8c.827 0 1.5.673 1.5 1.5v11c0 .827-.673 1.5-1.5 1.5m-8-13a.5.5 0 0 0-.5.5v11a.5.5 0 0 0 .5.5h8a.5.5 0 0 0 .5-.5v-11a.5.5 0 0 0-.5-.5zM22.5 24h-8c-.827 0-1.5-.673-1.5-1.5v-5c0-.827.673-1.5 1.5-1.5h8c.827 0 1.5.673 1.5 1.5v5c0 .827-.673 1.5-1.5 1.5m-8-7a.5.5 0 0 0-.5.5v5a.5.5 0 0 0 .5.5h8a.5.5 0 0 0 .5-.5v-5a.5.5 0 0 0-.5-.5zM22.5 14h-8c-.827 0-1.5-.673-1.5-1.5v-11c0-.827.673-1.5 1.5-1.5h8c.827 0 1.5.673 1.5 1.5v11c0 .827-.673 1.5-1.5 1.5m-8-13a.5.5 0 0 0-.5.5v11a.5.5 0 0 0 .5.5h8a.5.5 0 0 0 .5-.5v-11a.5.5 0 0 0-.5-.5z"/></svg>