<svg xmlns="http://www.w3.org/2000/svg" width="1.5rem" height="1.5rem" viewBox="0 0 512 512"><path d="M464.865 40.166c-25.989 0-47.133 21.145-47.133 47.135v161.732H304.199c-8.284 0-15 6.716-15 15v192.801c0 8.284 6.716 15 15 15h64.268c8.284 0 15-6.716 15-15v-41.24h34.266v41.24c0 8.284 6.716 15 15 15H497c8.284 0 15-6.716 15-15V87.301c0-25.99-21.145-47.135-47.135-47.135m-17.133 47.135c0-9.448 7.686-17.135 17.133-17.135 9.448 0 17.135 7.687 17.135 17.135v161.732h-34.268zM432.5 279.033c.078.001.154.012.232.012H482v34.242h-49.268c-.092 0-.18.012-.271.014h-63.725c-.091-.002-.179-.014-.271-.014h-49.268v-34.254zm-79.033 162.801h-34.268v-98.533h34.268zm30-56.24v-42.293h34.266v42.293zm64.265 56.24v-98.533H482v98.533zM223.865 104.434H47.133C21.144 104.434 0 125.577 0 151.566c0 14.096 6.228 26.756 16.066 35.401v269.866c0 8.284 6.716 15 15 15h64.266c8.284 0 15-6.716 15-15v-41.24H144.6v41.24c0 8.284 6.716 15 15 15h64.266c8.284 0 15-6.716 15-15V196.238C257.521 189.957 271 172.313 271 151.566c0-25.989-21.145-47.132-47.135-47.132M47.133 198.699h161.732v114.588H46.066V198.672c.356.008.709.027 1.067.027m33.199 243.135H46.066v-98.547h34.266zm30-56.24v-42.307H144.6v42.307zm98.533 56.24H174.6v-98.547h34.266v98.547zm15-273.135H47.133c-9.447 0-17.133-7.686-17.133-17.133s7.686-17.133 17.133-17.133h176.732c9.448 0 17.135 7.686 17.135 17.133s-7.687 17.133-17.135 17.133"/></svg>