<svg id="Layer_1" enable-background="new 0 0 512 512" height="1.5rem" viewBox="0 0 512 512" width="1.5rem" xmlns="http://www.w3.org/2000/svg"><g><path d="m464.865 40.166c-25.989 0-47.133 21.145-47.133 47.135v161.732h-113.533c-8.284 0-15 6.716-15 15v64.254.014 128.533c0 8.284 6.716 15 15 15h64.268c8.284 0 15-6.716 15-15v-41.24h34.266v41.24c0 8.284 6.716 15 15 15h64.267c8.284 0 15-6.716 15-15v-128.533-.014-64.242-.012-176.732c0-25.99-21.145-47.135-47.135-47.135zm-17.133 47.135c0-9.448 7.686-17.135 17.133-17.135 9.448 0 17.135 7.687 17.135 17.135v161.732h-34.268zm-15.232 191.732c.078.001.154.012.232.012h49.268v34.242h-49.268c-.092 0-.18.012-.271.014h-63.725c-.091-.002-.179-.014-.271-.014h-49.268v-34.254zm-79.033 162.801h-34.268v-98.533h34.268zm30-56.24v-42.293h34.266v42.293zm64.265 56.24v-98.533h34.268v98.533z"/><path d="m223.865 104.434h-176.732c-25.989 0-47.133 21.143-47.133 47.132 0 14.096 6.228 26.756 16.066 35.401v141.319 128.547c0 8.284 6.716 15 15 15h64.266c8.284 0 15-6.716 15-15v-41.24h34.268v41.24c0 8.284 6.716 15 15 15h64.266c8.284 0 15-6.716 15-15v-128.546-132.049c18.655-6.281 32.134-23.925 32.134-44.672 0-25.989-21.145-47.132-47.135-47.132zm-176.732 94.265h161.732v114.588h-49.265-64.268-49.266v-114.615c.356.008.709.027 1.067.027zm33.199 243.135h-34.266v-98.547h34.266zm30-56.24v-42.307h34.268v42.307zm98.533 56.24h-34.265v-98.547h34.266v98.547zm15-273.135h-176.732c-9.447 0-17.133-7.686-17.133-17.133s7.686-17.133 17.133-17.133h176.732c9.448 0 17.135 7.686 17.135 17.133s-7.687 17.133-17.135 17.133z"/></g></svg>