<svg xmlns="http://www.w3.org/2000/svg" xml:space="preserve" width="800" height="800" viewBox="0 0 512 512"><path d="M262.203 224.297H158.031L78.672 333.438 260.719 512l7.5-7.359L442.75 333.438l-79.344-109.141zm83.61 21.453-14.656 65.109-51.859-65.109zm-85.829 6.203 56.422 70.797h-111.64zm-19.234-6.203-50.563 64.844v.016l-14.563-64.859h65.126zm-81.562 13.406 14.297 63.594h-60.547zm20.062 82.594 50.063 109.422L117.75 341.75zm81.469 132.422L200.125 341.75h121.172zm31.39-23 50.063-109.422h61.484zm55.829-128.422 14.313-63.594 46.234 63.594zm153.281-140.844c-25.906 0-34.859-6.5-39.906-11.531-5.016-5.047-11.531-14-11.531-39.906 0-.984-.094-3.781-3.188-3.781-3.078 0-3.188 2.797-3.188 3.781 0 25.906-6.516 34.859-11.547 39.906-5.047 5.031-14.016 11.531-39.891 11.531-1 0-3.781.109-3.781 3.203 0 3.078 2.781 3.188 3.781 3.188 25.875 0 34.844 6.516 39.891 11.547 5.031 5.031 11.547 14 11.547 39.906 0 1 .109 3.766 3.188 3.766 3.094 0 3.188-2.766 3.188-3.766 0-25.906 6.516-34.875 11.531-39.906 5.047-5.047 14-11.547 39.906-11.547 1 0 3.781-.094 3.781-3.203 0-3.063-2.781-3.188-3.781-3.188m-385.328-97.25c35.609 0 47.922 8.969 54.844 15.875 6.922 6.922 15.859 19.25 15.859 54.859 0 1.359.188 5.172 4.406 5.172 4.25 0 4.375-3.813 4.375-5.172 0-35.609 8.953-47.938 15.875-54.859 6.906-6.922 19.219-15.875 54.844-15.875 1.359 0 5.188-.125 5.188-4.375 0-4.219-3.828-4.406-5.188-4.406-35.625 0-47.938-8.938-54.844-15.844-6.922-6.938-15.875-19.234-15.875-54.844C195.375 3.828 195.25 0 191 0c-4.219 0-4.406 3.828-4.406 5.188 0 35.609-8.938 47.906-15.859 54.844-6.922 6.906-19.234 15.844-54.844 15.844-1.359 0-5.188.172-5.188 4.406 0 4.218 3.828 4.374 5.188 4.374M114.453 196c0-2.828-2.563-2.938-3.469-2.938-23.828 0-32.078-5.984-36.703-10.609-4.625-4.641-10.625-12.875-10.625-36.703 0-.906-.094-3.469-2.938-3.469-2.813 0-2.938 2.563-2.938 3.469 0 23.828-5.984 32.063-10.609 36.703-4.641 4.625-12.891 10.609-36.703 10.609-.921.001-3.468.11-3.468 2.938s2.547 2.938 3.469 2.938c23.813 0 32.063 6 36.703 10.625 4.625 4.625 10.609 12.875 10.609 36.719 0 .906.125 3.453 2.938 3.453 2.844 0 2.938-2.547 2.938-3.453 0-23.844 6-32.094 10.625-36.719 4.625-4.641 12.875-10.625 36.703-10.625.906 0 3.468-.094 3.468-2.938" style="fill:var(--p-text-color)"/></svg>