<svg xmlns="http://www.w3.org/2000/svg" width="1.5rem" height="1.5rem" viewBox="0 0 512 512"><path d="M229.32 218.64c0 4.42 3.58 8 8 8s8-3.58 8-8c0-22.56-18.33-41.32-42.24-44.79v-15.57c0-4.42-3.58-8-8-8s-8 3.58-8 8v15.57c-23.91 3.47-42.24 22.23-42.24 44.79 0 15.45 5.65 27.01 16.79 34.36 7.44 4.91 16.4 7.43 25.44 9.46v59.45c-15.03-3.1-26.24-14.72-26.24-28.56 0-4.42-3.58-8-8-8s-8 3.58-8 8c0 22.56 18.33 41.32 42.24 44.79v15.57c0 4.42 3.58 8 8 8s8-3.58 8-8v-15.57c23.91-3.47 42.24-22.23 42.24-44.79 0-15.45-5.65-27.01-16.79-34.36-7.44-4.91-16.4-7.43-25.44-9.46v-59.45c15.03 3.1 26.24 14.73 26.24 28.56m-68.47 0c0-13.83 11.21-25.46 26.24-28.56V246c-16.88-4.17-26.24-9.56-26.24-27.36m68.47 74.72c0 13.83-11.21 25.46-26.24 28.56V266c16.88 4.17 26.24 9.56 26.24 27.36M511.25 305a8 8 0 0 0-7.25-4.63h-48.75V129.82c0-4.42-3.58-8-8-8H336.83c-36.77-38.89-88.21-61.13-141.74-61.13C87.51 60.69 0 148.31 0 256.01c0 107.69 87.51 195.3 195.08 195.3 53.28 0 104.07-21.82 140.79-60.15l48.31 57.31c1.52 1.8 3.76 2.84 6.12 2.84s4.6-1.04 6.12-2.85l113.7-134.94c2-2.37 2.45-5.7 1.13-8.52m-240.76 8.53 29.48 35c-26.58 30.23-64.43 47.45-104.88 47.45-77.08 0-139.8-62.79-139.8-139.96S118 116.05 195.08 116.05c57.3 0 109.46 35.75 130.27 89.09v95.23H276.6c-3.11 0-5.94 1.8-7.25 4.63s-.87 6.15 1.14 8.53m-75.41 121.78C96.34 435.31 16 354.88 16 256.01c0-98.88 80.34-179.33 179.08-179.33 49.21 0 96.51 20.48 130.27 56.29v37.42c-10.73-16.35-24.48-30.6-40.76-42.05-26.3-18.51-57.25-28.29-89.51-28.29-85.91 0-155.8 69.97-155.8 155.96s69.89 155.96 155.8 155.96c44.28 0 85.77-18.51 115.3-51.09l15.12 17.95c-33.8 35.98-80.94 56.48-130.42 56.48m195.22-4.41-50.74-60.19-45.76-54.33h39.55c4.42 0 8-3.58 8-8V137.82h97.89v170.56c0 4.42 3.58 8 8 8h39.55z"/></svg>