<svg xmlns="http://www.w3.org/2000/svg" width="1.5rem" height="1.5rem" viewBox="0 0 512 512"><path d="M256 0c-79.145 0-143.533 64.389-143.533 143.533 0 8.284 6.716 15 15 15h64.268c8.284 0 15-6.716 15-15 0-27.165 22.101-49.266 49.265-49.266 27.167.001 49.268 22.102 49.268 49.267 0 27.164-22.102 49.265-49.268 49.266l-88.365-.001c-30.419 0-55.168 24.748-55.168 55.168v208.865c0 30.42 24.749 55.168 55.168 55.168h176.732c30.418 0 55.166-24.748 55.166-55.168V143.533C399.533 64.389 335.145 0 256 0m113.533 456.832c0 13.878-11.29 25.168-25.166 25.168H167.635c-13.877 0-25.168-11.29-25.168-25.168V247.967c0-13.878 11.291-25.168 25.168-25.168L256 222.8c43.708-.001 79.267-35.56 79.267-79.266S299.708 64.269 256 64.268c-38.58 0-70.811 27.706-77.842 64.266h-34.705C150.818 72.997 198.483 30 256 30c62.603 0 113.533 50.931 113.533 113.533z"/><path d="M255.998 273.134c-43.706 0-79.263 35.559-79.264 79.267s35.559 79.266 79.265 79.267H256c43.708-.001 79.267-35.56 79.267-79.266 0-21.174-8.246-41.08-23.218-56.052s-34.877-23.217-56.051-23.216m.002 30c13.159 0 25.531 5.124 34.836 14.43s14.431 21.678 14.431 34.838a48.94 48.94 0 0 1-5.493 22.562l-66.336-66.337A48.94 48.94 0 0 1 256 303.134M206.734 352.4a48.94 48.94 0 0 1 5.492-22.561l66.335 66.335A48.95 48.95 0 0 1 256 401.666c-27.165 0-49.265-22.101-49.266-49.266"/></svg>