<svg xmlns="http://www.w3.org/2000/svg" width="1.5rem" height="1.5rem" viewBox="0 0 60 60"><path d="M52 53h7a1 1 0 0 0 0-2h-7a1 1 0 0 0 0 2M45 52a1 1 0 0 0 1 1h2a1 1 0 0 0 0-2h-2a1 1 0 0 0-1 1M59 56H43a1 1 0 0 0 0 2h16a1 1 0 0 0 0-2M1 53h7a1 1 0 0 0 0-2H1a1 1 0 0 0 0 2M12 53h2a1 1 0 0 0 0-2h-2a1 1 0 0 0 0 2M17 56H1a1 1 0 0 0 0 2h16a1 1 0 0 0 0-2M46.44 41c0-6.751-5.087-12.611-11.44-14.225V24h4a1 1 0 0 0 .751-1.66L34 15.79v-2.948a7.13 7.13 0 0 1 4.4 5.42c.125.993.97 1.737 1.97 1.738h4.03a2.02 2.02 0 0 0 2-2.2C45.84 11.39 40.792 6 34 4.451V2a2 2 0 0 0-2-2h-4a2 2 0 0 0-2 2v2.443C18.743 6.1 13.56 12.1 13.56 19a14.67 14.67 0 0 0 6 11.6A15.8 15.8 0 0 0 25 33.15V40a1.99 1.99 0 0 0 1 1.722V44a1 1 0 0 0 0 2v1.158a7.13 7.13 0 0 1-4.4-5.42A1.99 1.99 0 0 0 19.63 40H15.6a2.02 2.02 0 0 0-2 2.2c.56 6.41 5.608 11.8 12.4 13.349V58a2 2 0 0 0 2 2h4a2 2 0 0 0 2-2v-2.443C41.257 53.9 46.44 47.9 46.44 41M34 46a1 1 0 0 0 0-2v-2.278A1.99 1.99 0 0 0 35 40v-4.624c5.018 3.1 4.412 9.368-1 11.782zm0-24a1 1 0 0 0-1 1v17h-6V23a1 1 0 0 0-1-1h-2.348l6.568-7.483L36.791 22zm-8-9.154v3.446l-4.079 4.647c-1.216-3.365.806-6.632 4.079-8.093M25 24.59a3.1 3.1 0 0 1-.855-.59H25zM15.56 19c0-6.186 4.885-11.55 11.616-12.756A1 1 0 0 0 28 5.26V2h4v3.27a1 1 0 0 0 .823.984C39.137 7.387 43.9 12.215 44.4 18.007h-4.018c-.444-3.494-3.234-6.453-7.11-7.549A1 1 0 0 0 32 11.42v2.092l-1.028-1.171a1 1 0 0 0-1.5 0L28 14.013V11.42a1.028 1.028 0 0 0-1.272-.962c-5.651 1.6-8.888 7.144-6.22 12.205a.98.98 0 0 0 .861 1.327A8.37 8.37 0 0 0 25 26.816v4.263A12.87 12.87 0 0 1 15.56 19M28 42h4v2h-4zm4.824 11.756a1 1 0 0 0-.824.984V58h-4v-3.27a1 1 0 0 0-.823-.984C20.863 52.613 16.1 47.785 15.6 41.993h4.018c.444 3.494 3.234 6.453 7.11 7.549A1 1 0 0 0 28 48.58V46h4v2.58a1 1 0 0 0 1.272.962C37.56 48.327 40.44 44.9 40.44 41A9 9 0 0 0 35 33.1v-4.277c5.145 1.526 9.44 6.462 9.44 12.177 0 6.185-4.885 11.55-11.616 12.756"/></svg>