<svg id="Layer_1" enable-background="new 0 0 512 512" height="1.5rem" viewBox="0 0 512 512" width="1.5rem" xmlns="http://www.w3.org/2000/svg"><g><path d="m392.567 0h-273.132c-30.42 0-55.168 24.747-55.168 55.166v401.667c0 30.419 24.749 55.167 55.168 55.167h273.133c30.418 0 55.166-24.748 55.166-55.167v-104.434-144.599-152.634c-.001-30.419-24.748-55.166-55.167-55.166zm0 482h-273.132c-13.877 0-25.168-11.29-25.168-25.167v-401.667c0-13.877 11.29-25.166 25.168-25.166h273.133c13.876 0 25.166 11.289 25.166 25.166v137.634h-65.332c-8.284 0-15 6.716-15 15v144.6c0 8.284 6.716 15 15 15h65.332v89.434c-.001 13.876-11.29 25.166-25.167 25.166zm25.166-144.601h-50.332v-114.599h50.332z"/><path d="m256 192.8c-3.95 0-7.81 1.6-10.61 4.39-2.79 2.79-4.39 6.66-4.39 10.61s1.6 7.81 4.39 10.61c2.8 2.79 6.66 4.39 10.61 4.39s7.82-1.6 10.61-4.39c2.79-2.801 4.39-6.66 4.39-10.61s-1.6-7.82-4.39-10.61-6.66-4.39-10.61-4.39z"/><path d="m320.267 64.267h-128.534c-8.284 0-15 6.716-15 15v64.267c0 8.284 6.716 15 15 15h128.533c8.284 0 15-6.716 15-15v-64.267c.001-8.285-6.715-15-14.999-15zm-15 64.266h-98.533v-34.266h98.533z"/></g></svg>