<svg id="Line" height="512" viewBox="0 0 64 64" width="512" xmlns="http://www.w3.org/2000/svg"><path d="m59.69043 16.00822a3.15246 3.15246 0 0 0 -2.87217-1.81647h-49.63652a3.198 3.198 0 0 0 -2.46091 5.19067l23.93237 29.26075a3.16736 3.16736 0 0 0 2.46005 1.16508c1.44549.02416 3.27407.165 4.23448-1.16617l23.93155-29.25971a3.15251 3.15251 0 0 0 .41115-3.37415zm-1.96 2.10848-23.93056 29.25884c-.486.69408-1.90837.359-2.68663.43269a1.17371 1.17371 0 0 1 -.91213-.43171l-23.93151-29.25982a1.18452 1.18452 0 0 1 .91218-1.92485h49.63648a1.18454 1.18454 0 0 1 .91214 1.92485z"/></svg>