<svg xmlns="http://www.w3.org/2000/svg" width="1.5rem" height="1.5rem" viewBox="0 0 64 64"><path d="m59.771 9.729-5.499-5.5a4.073 4.073 0 0 0-5.751 0L44.07 8.68 15.78 36.998a1 1 0 0 0-.264.465l-2.439 9.788a3.04 3.04 0 0 0 .823 2.888c.604.57 1.342.872 2.136.872q.36.001.748-.089l9.751-2.41c.177-.044.338-.135.467-.264L55.32 19.93l4.45-4.451a4.03 4.03 0 0 0 1.186-2.874 4.04 4.04 0 0 0-1.185-2.876M16.319 48.977c-.4.093-.745-.008-1.024-.271a1.01 1.01 0 0 1-.274-.979l.484-1.943 2.734 2.719zm9.466-2.34-5.274 1.304-4.442-4.418 1.322-5.307 27.387-27.414 8.422 8.421zm32.571-32.573-3.743 3.744-8.422-8.422 3.743-3.744a2.07 2.07 0 0 1 2.923 0l5.499 5.5c.387.387.6.906.6 1.462s-.213 1.074-.6 1.46"/><path d="M52.374 27.462a1 1 0 0 0-1 1v21.743c0 4.826-3.938 8.752-8.779 8.752H13.823c-4.842 0-8.78-3.926-8.78-8.752V21.406c0-4.841 3.938-8.779 8.78-8.779h21.716a1 1 0 1 0 0-2H13.823c-5.944 0-10.78 4.836-10.78 10.779v28.799c0 5.929 4.836 10.752 10.78 10.752h28.771c5.943 0 10.779-4.823 10.779-10.752V28.462a1 1 0 0 0-.999-1"/></svg>