<svg id="Line" height="1.5rem" viewBox="0 0 64 64" width="1.5rem" xmlns="http://www.w3.org/2000/svg"><g><path d="m59.771 9.729-5.499-5.5c-1.587-1.585-4.166-1.584-5.751 0l-4.451 4.451-28.29 28.318c-.129.129-.22.289-.264.465l-2.439 9.788c-.25 1.043.051 2.115.823 2.888.604.57 1.342.872 2.136.872.241 0 .488-.028.748-.089l9.751-2.41c.177-.044.338-.135.467-.264l28.318-28.318 4.45-4.451c.765-.764 1.186-1.785 1.186-2.874 0-1.09-.421-2.111-1.185-2.876zm-43.452 39.248c-.4.093-.745-.008-1.024-.271-.265-.265-.361-.616-.274-.979l.484-1.943 2.734 2.719zm9.466-2.34-5.274 1.304-4.442-4.418 1.322-5.307 27.387-27.414 8.422 8.421zm32.571-32.573-3.743 3.744-8.422-8.422 3.743-3.744c.805-.805 2.116-.805 2.923 0l5.499 5.5c.387.387.6.906.6 1.462 0 .555-.213 1.074-.6 1.46z"/><path d="m52.374 27.462c-.553 0-1 .447-1 1v21.743c0 4.826-3.938 8.752-8.779 8.752h-28.772c-4.842 0-8.78-3.926-8.78-8.752v-28.799c0-4.841 3.938-8.779 8.78-8.779h21.716c.553 0 1-.447 1-1s-.447-1-1-1h-21.716c-5.944 0-10.78 4.836-10.78 10.779v28.799c0 5.929 4.836 10.752 10.78 10.752h28.771c5.943 0 10.779-4.823 10.779-10.752v-21.743c.001-.553-.446-1-.999-1z"/></g></svg>