<svg xmlns="http://www.w3.org/2000/svg" width="1.5rem" height="1.5rem" viewBox="0 0 511.984 511.984"><path d="M415 221.984c-8.284 0-15 6.716-15 15v220c0 13.785-11.215 25-25 25H55c-13.785 0-25-11.215-25-25v-320c0-13.785 11.215-25 25-25h220c8.284 0 15-6.716 15-15s-6.716-15-15-15H55c-30.327 0-55 24.673-55 55v320c0 30.327 24.673 55 55 55h320c30.327 0 55-24.673 55-55v-220c0-8.284-6.716-15-15-15"/><path d="m501.749 38.52-28.285-28.285c-13.645-13.646-35.849-13.646-49.497 0L197.694 236.509a15 15 0 0 0-4.103 7.665l-14.143 70.711a15 15 0 0 0 17.65 17.651l70.711-14.143a15 15 0 0 0 7.665-4.103L501.749 88.017l.001-.001c13.645-13.645 13.645-35.849-.001-49.496M257.473 289.866l-44.194 8.84 8.84-44.194 184.17-184.173 35.356 35.356zM480.536 66.804l-17.678 17.678-35.356-35.356 17.677-17.677a5.006 5.006 0 0 1 7.072-.001l28.284 28.285a5.004 5.004 0 0 1 .001 7.071"/></svg>