<svg id="Line" height="1.5rem" viewBox="0 0 64 64" width="1.5rem" xmlns="http://www.w3.org/2000/svg"><path d="m53.26 14.474h-42.549c-4.255 0-7.717 3.462-7.717 7.719v19.615c0 4.256 3.462 7.719 7.717 7.719h42.549c4.271 0 7.746-3.462 7.746-7.719v-19.616c0-4.256-3.475-7.718-7.746-7.718zm0 2c1.119 0 2.161.325 3.045.878l-19.119 16.415c-3.005 2.601-7.367 2.601-10.374-.003l-19.123-16.417c.878-.55 1.911-.873 3.021-.873zm5.746 25.334c0 3.153-2.578 5.719-5.746 5.719h-42.549c-3.152 0-5.717-2.565-5.717-5.719v-19.616c0-1.316.451-2.526 1.2-3.493l19.312 16.579c1.882 1.629 4.188 2.444 6.495 2.444 2.306 0 4.61-.814 6.49-2.441l19.311-16.579c.752.967 1.204 2.175 1.204 3.49z"/></svg>