<svg xmlns="http://www.w3.org/2000/svg" width="1.5rem" height="1.5rem" viewBox="0 0 64 64"><path d="M53.26 14.474H10.711c-4.255 0-7.717 3.462-7.717 7.719v19.615c0 4.256 3.462 7.719 7.717 7.719H53.26c4.271 0 7.746-3.462 7.746-7.719V22.192c0-4.256-3.475-7.718-7.746-7.718m0 2c1.119 0 2.161.325 3.045.878L37.186 33.767c-3.005 2.601-7.367 2.601-10.374-.003L7.689 17.347a5.67 5.67 0 0 1 3.021-.873zm5.746 25.334c0 3.153-2.578 5.719-5.746 5.719H10.711a5.724 5.724 0 0 1-5.717-5.719V22.192c0-1.316.451-2.526 1.2-3.493l19.312 16.579a9.9 9.9 0 0 0 6.495 2.444 9.9 9.9 0 0 0 6.49-2.441l19.311-16.579a5.66 5.66 0 0 1 1.204 3.49z"/></svg>