<svg xmlns="http://www.w3.org/2000/svg" width="1.5rem" height="1.5rem" viewBox="0 0 50 60"><path d="M4.983 24.647c.021.011.034.029.056.039s.058.019.085.031l.019.007c4.413 1.7 9.3 1.7 13.714 0l.019-.007c.027-.012.058-.019.085-.031s.035-.028.056-.039a.98.98 0 0 0 .433-.447c.014-.03.034-.055.045-.086a9.65 9.65 0 0 0-2.8-10.391 6 6 0 1 0-9.394 0A9.65 9.65 0 0 0 4.492 24.09c0 .009.058.11.058.11a1 1 0 0 0 .433.447m1.3-1.634a7.69 7.69 0 0 1 1.238-6.662c.365-.487.8-.918 1.291-1.278a5.95 5.95 0 0 0 6.379 0 7.51 7.51 0 0 1 2.53 7.939 17.06 17.06 0 0 1-11.44.001zM12 6a4 4 0 1 1 0 8 4 4 0 0 1 0-8M23 8h4a1 1 0 0 0 0-2h-4a1 1 0 0 0 0 2M31 8h7a1 1 0 0 0 0-2h-7a1 1 0 0 0 0 2M38 16h-4a1 1 0 0 0 0 2h4a1 1 0 0 0 0-2M23 18h7a1 1 0 0 0 0-2h-7a1 1 0 0 0 0 2M23 13h15a1 1 0 0 0 0-2H23a1 1 0 0 0 0 2M23 23h15a1 1 0 0 0 0-2H23a1 1 0 0 0 0 2M29.5 29C23.701 29 19 33.701 19 39.5S23.701 50 29.5 50 40 45.299 40 39.5c-.007-5.796-4.704-10.493-10.5-10.5m0 19a8.5 8.5 0 1 1 8.5-8.5 8.51 8.51 0 0 1-8.5 8.5"/><path d="M41.643 47.4A14.4 14.4 0 0 0 44 39.5V4a4 4 0 0 0-4-4H4a4 4 0 0 0-4 4v46a4 4 0 0 0 4 4h25.5c2.807 0 5.552-.819 7.9-2.357l7.478 7.47a2.995 2.995 0 1 0 4.24-4.23zM29.5 52C22.596 52 17 46.404 17 39.5S22.596 27 29.5 27 42 32.596 42 39.5c-.008 6.9-5.6 12.492-12.5 12.5M4 52a2 2 0 0 1-2-2V4a2 2 0 0 1 2-2h36a2 2 0 0 1 2 2v28.188A14.487 14.487 0 1 0 22.187 52zm43.7 5.708a1 1 0 0 1-1.4 0l-7.289-7.281q.756-.659 1.415-1.415l7.282 7.288a.977.977 0 0 1-.008 1.408"/><path d="M14 30H6a1 1 0 0 0 0 2h8a1 1 0 0 0 0-2M13 45H6a1 1 0 0 0 0 2h7a1 1 0 0 0 0-2M12 35H6a1 1 0 0 0 0 2h6a1 1 0 0 0 0-2M12 40H6a1 1 0 0 0 0 2h6a1 1 0 0 0 0-2"/></svg>