<svg xmlns="http://www.w3.org/2000/svg" width="1.5rem" height="1.5rem" fill="none" viewBox="0 0 24 24"><path fill="#0F0F0F" fill-rule="evenodd" d="M3 5.006V5c.012-.36.109-.732.27-1.053.128-.256.304-.482.55-.646C4.06 3.14 4.425 3 5 3s.94.14 1.18.3c.309.207.512.52.638.845a3.6 3.6 0 0 0-1.492.79c-.622.554-.944 1.241-1.113 1.787a1.7 1.7 0 0 0 .355 1.648c.36.406.887.63 1.432.63h4c.545 0 1.072-.224 1.432-.63a1.7 1.7 0 0 0 .355-1.648c-.17-.546-.491-1.233-1.113-1.787a3.64 3.64 0 0 0-1.791-.857 4.6 4.6 0 0 0-.364-1.025 3.63 3.63 0 0 0-1.23-1.416C6.685 1.234 5.925 1 5 1s-1.685.234-2.29.637a3.63 3.63 0 0 0-1.23 1.416c-.244.49-.362.967-.42 1.314-.034.207-.059.418-.06.629V13a15.834 15.834 0 0 0 .067 1.189c.066.692.199 1.632.471 2.586.27.942.695 1.971 1.39 2.782C3.648 20.397 4.662 21 6 21v1a1 1 0 1 0 2 0v-1h8v1a1 1 0 1 0 2 0v-1c2.088 0 3.3-1.434 3.96-2.857.657-1.417.893-3.056.983-4.059C23.048 12.898 22.087 12 21 12H3zM3.058 14c.06.62.176 1.43.404 2.225.23.808.555 1.529.985 2.03.404.473.891.745 1.553.745h12c.963 0 1.637-.602 2.146-1.698.493-1.065.708-2.376.796-3.302zm6.285-7.573c.178.16.313.359.413.573H6.244c.1-.214.235-.414.413-.573C6.902 6.209 7.3 6 8 6s1.098.209 1.343.427" clip-rule="evenodd"/></svg>