<svg xmlns="http://www.w3.org/2000/svg" width="1.5rem" height="1.5rem" viewBox="0 0 60 60"><path d="M41.02 24.006a1 1 0 1 0-.01-2 1 1 0 0 0 .01 2"/><path d="M5 33a2 2 0 0 0-2 2v4c0 1.106.894 2.003 2 2.008h3.209a21.983 21.983 0 0 0 42.37 4.707A2.01 2.01 0 0 0 48.705 43h-4.353c-.769 0-1.47.441-1.8 1.136A13.97 13.97 0 0 1 16.34 41H28a2 2 0 0 0 2-2v-4a2 2 0 0 0-2-2H16v-6h12a2 2 0 0 0 2-2v-4a2.01 2.01 0 0 0-2-2.008H16.337A14.015 14.015 0 0 1 44 21v9h-4a1 1 0 0 0-.748 1.665l8 9a1 1 0 0 0 1.5 0l8-9A1 1 0 0 0 56 30h-4v-9.047C51.455 9.598 42.352.526 30.995.02S9.765 7.739 8.21 19H5a2 2 0 0 0-2 2v4a2 2 0 0 0 2 2h3v6zm43 5.495L42.227 32h11.546zM8 25H5v-4h3.21a2 2 0 0 0 1.981-1.745C11.614 9.033 20.578 1.569 30.889 2.021S49.477 10.692 50 21v9h-4v-9.066a16.015 16.015 0 0 0-31.615-2.381A2.005 2.005 0 0 0 16.34 21H28v4H16a2 2 0 0 0-2 2v6a2 2 0 0 0 2 2h12v4H16.34a2.006 2.006 0 0 0-1.957 2.444 15.972 15.972 0 0 0 29.969 3.563h4.354a19.982 19.982 0 0 1-38.516-4.266A1.993 1.993 0 0 0 8.21 39H5v-4h3a2 2 0 0 0 2-2v-6a2 2 0 0 0-2-2"/><path d="M54 27a1 1 0 0 0 2 0v-5a1 1 0 0 0-2 0zM55 19a1 1 0 0 0 1-1v-1a1 1 0 0 0-2 0v1a1 1 0 0 0 1 1M40 28a1 1 0 0 0 2 0v-1a1 1 0 0 0-2 0zM59 51h-3a1 1 0 0 0 0 2h3a1 1 0 0 0 0-2M50 51a1 1 0 0 0 0 2h2a1 1 0 0 0 0-2zM59 56H47a1 1 0 0 0 0 2h12a1 1 0 0 0 0-2M0 52a1 1 0 0 0 1 1h3a1 1 0 0 0 0-2H1a1 1 0 0 0-1 1M8 51a1 1 0 0 0 0 2h2a1 1 0 0 0 0-2zM1 58h12a1 1 0 0 0 0-2H1a1 1 0 0 0 0 2"/></svg>