<svg height="1.5rem" viewBox="0 0 60 60" width="1.5rem" xmlns="http://www.w3.org/2000/svg"><g id="013---Euro-Down" transform="translate(0 -1)"><path id="Shape" d="m41.02 25.006c.5516255-.0027582.9968309-.4516874.9949945-1.0033167-.0018365-.5516293-.4500212-.9975842-1.0016528-.9966694s-.9983348.4483537-.9983417.9999861c-.0000033.2660851.1060396.5211997.2946588.7088804.1886191.1876808.4442595.29245.7103412.2911196z"/><path id="Shape" d="m5 34c-1.1045695 0-2 .8954305-2 2v4c.00053925 1.1056446.89436632 2.003047 2 2.008h3.209c1.36981644 9.9763678 9.3430419 17.7463856 19.3514423 18.8582463 10.0084003 1.1118608 19.4925591-4.7187681 23.0185577-14.1512463.2311715-.6158549.1462007-1.3058698-.2274755-1.8472417-.3736763-.541372-.9887157-.8655126-1.6465245-.8677583h-4.353c-.7690415-.0007453-1.4697488.4414789-1.8 1.136-2.6035896 5.3521611-8.3123123 8.4670299-14.2220001 7.7599957-5.9096878-.7070343-10.7224838-5.080696-11.9899999-10.8959957h11.66c1.1045695 0 2-.8954305 2-2v-4c0-1.1045695-.8954305-2-2-2h-12v-6h12c1.1045695 0 2-.8954305 2-2v-4c-.0005393-1.1056446-.8943663-2.003047-2-2.008h-11.663c1.5013029-6.7940738 7.7598126-11.45798243 14.6995242-10.95424311 6.9397115.50373931 12.4590765 6.02257951 12.9634758 12.96224311v9h-4c-.394156-.0004561-.7518115.2306637-.9133348.5902042s-.0967794.7804231.1653348 1.0747958l8 9c.189833.2152504.4629994.3385622.75.3385622s.560167-.1233118.75-.3385622l8-9c.2626047-.2949136.3270675-.7167468.1645259-1.0766294-.1625416-.3598827-.5216448-.5904116-.9165259-.5883706h-4v-9.047c-.5454286-11.3549715-9.6481779-20.42657195-21.0049522-20.93307527-11.3567744-.50650331-21.23094948 7.71874106-22.7850478 18.98007527h-3.21c-1.1045695 0-2 .8954305-2 2v4c0 1.1045695.8954305 2 2 2h3v6zm43 5.495-5.773-6.495h11.546zm-40-13.495h-3v-4h3.21c1.00496604-.0013453 1.8528676-.7482349 1.981-1.745 1.4234058-10.2223264 10.3871235-17.68570159 20.6981738-17.23372382 10.3110503.45197776 18.5873385 8.67105672 19.1108262 18.97872382v9h-4v-9.066c-.5373018-7.946975-6.8331749-14.29127489-14.7757997-14.88945264-7.9426247-.59817775-15.1176996 4.73159334-16.8392003 12.50845264-.1343208.5943159.0088987 1.2174641.3892205 1.6934985.3803218.4760345.9564738.7532967 1.5657795.7535015h11.66v4h-12c-1.1045695 0-2 .8954305-2 2v6c0 1.1045695.8954305 2 2 2h12v4h-11.66c-.6088645.0001817-1.1846935.276886-1.5652616.7521586-.3805681.4752725-.5246809 1.0976678-.3917384 1.6918414 1.4551214 6.6462096 6.9607467 11.6410823 13.716804 12.4443067 6.7560574.8032244 13.2793336-2.761538 16.252196-8.8813067h4.354c-3.2014101 8.5763233-11.8212809 13.8803293-20.9200036 12.8725623-9.0987226-1.0077669-16.3489707-8.069534-17.5959964-17.1385623-.1269997-.9963543-.97558547-1.7425097-1.98-1.741h-3.21v-4h3c1.1045695 0 2-.8954305 2-2v-6c0-1.1045695-.8954305-2-2-2z"/><path id="Shape" d="m54 28c0 .5522847.4477153 1 1 1s1-.4477153 1-1v-5c0-.5522847-.4477153-1-1-1s-1 .4477153-1 1z"/><path id="Shape" d="m55 20c.5522847 0 1-.4477153 1-1v-1c0-.5522847-.4477153-1-1-1s-1 .4477153-1 1v1c0 .5522847.4477153 1 1 1z"/><path id="Shape" d="m40 29c0 .5522847.4477153 1 1 1s1-.4477153 1-1v-1c0-.5522847-.4477153-1-1-1s-1 .4477153-1 1z"/><path id="Shape" d="m59 52h-3c-.5522847 0-1 .4477153-1 1s.4477153 1 1 1h3c.5522847 0 1-.4477153 1-1s-.4477153-1-1-1z"/><path id="Shape" d="m50 52c-.5522847 0-1 .4477153-1 1s.4477153 1 1 1h2c.5522847 0 1-.4477153 1-1s-.4477153-1-1-1z"/><path id="Shape" d="m59 57h-12c-.5522847 0-1 .4477153-1 1s.4477153 1 1 1h12c.5522847 0 1-.4477153 1-1s-.4477153-1-1-1z"/><path id="Shape" d="m0 53c0 .5522847.44771525 1 1 1h3c.55228475 0 1-.4477153 1-1s-.44771525-1-1-1h-3c-.55228475 0-1 .4477153-1 1z"/><path id="Shape" d="m8 52c-.55228475 0-1 .4477153-1 1s.44771525 1 1 1h2c.5522847 0 1-.4477153 1-1s-.4477153-1-1-1z"/><path id="Shape" d="m1 59h12c.5522847 0 1-.4477153 1-1s-.4477153-1-1-1h-12c-.55228475 0-1 .4477153-1 1s.44771525 1 1 1z"/></g></svg>