<svg xmlns="http://www.w3.org/2000/svg" xml:space="preserve" id="_x32_" width="1.5rem" height="1.5rem" version="1.1" viewBox="0 0 512 512"><style>.st0{fill:#000}</style><path d="M78.642 118.933c22.879 0 41.415-18.551 41.415-41.414 0-22.888-18.536-41.423-41.415-41.423-22.887 0-41.422 18.535-41.422 41.423-.001 22.864 18.535 41.414 41.422 41.414M255.706 228.731v.062c.101 0 .193-.031.294-.031s.194.031.294.031v-.062c15.563-.317 28.082-12.976 28.082-28.601 0-15.648-12.52-28.299-28.082-28.617v-.062c-.1 0-.193.031-.294.031s-.193-.031-.294-.031v.062c-15.563.318-28.082 12.969-28.082 28.617 0 15.624 12.519 28.283 28.082 28.601M433.358 118.933c22.887 0 41.423-18.551 41.423-41.414 0-22.888-18.536-41.423-41.423-41.423-22.879 0-41.414 18.535-41.414 41.423 0 22.864 18.536 41.414 41.414 41.414" class="st0"/><path d="M512 319.675V180.463c0-20.076-21.834-41.91-41.903-41.91h-5.799l-28.818 28.818-28.214-28.214c-17.839 2.609-33.564 13.665-41.918 30.018l-33.494 97.967a8.12 8.12 0 0 1-5.792 4.281 8.1 8.1 0 0 1-6.914-2.036l-20.835-18.04a33.7 33.7 0 0 0-22.902-8.974H236.59a33.72 33.72 0 0 0-22.903 8.974l-20.835 18.04a8.1 8.1 0 0 1-6.914 2.036 8.12 8.12 0 0 1-5.792-4.281l-33.494-97.967a56.19 56.19 0 0 0-50.032-30.622H41.903C21.834 138.553 0 160.387 0 180.463v139.211c0 10.035 8.13 18.172 18.165 18.172h12.682l6.906 118.724c0 10.677 8.664 19.333 19.341 19.333h42.243c10.677 0 19.341-8.656 19.341-19.333l6.906-118.724-.086-84.765c0-1.339.914-2.493 2.222-2.818a2.9 2.9 0 0 1 3.26 1.502l26.573 65.401a22.49 22.49 0 0 0 16.074 11.886 22.48 22.48 0 0 0 19.186-5.614l25.426-18.729a2.96 2.96 0 0 1 3.136-.542 2.92 2.92 0 0 1 1.742 2.663l.094 73.508 4.777 82.187c0 7.387 6 13.379 13.395 13.379h29.236c7.394 0 13.394-5.992 13.394-13.379l4.777-82.187.093-73.508a2.92 2.92 0 0 1 1.742-2.663 2.95 2.95 0 0 1 3.136.542l25.426 18.729a22.483 22.483 0 0 0 35.26-6.272l26.572-65.401a2.904 2.904 0 0 1 3.26-1.502 2.904 2.904 0 0 1 2.222 2.818l-.031 32.332-27.881 86.648a6.75 6.75 0 0 0 .967 6.039 6.75 6.75 0 0 0 5.451 2.772h23.91l4.405 75.699c0 10.677 8.664 19.333 19.341 19.333h42.243c10.677 0 19.34-8.656 19.34-19.333l4.406-75.699h26.418a6.75 6.75 0 0 0 5.451-2.772 6.75 6.75 0 0 0 .968-6.039L500.1 336.67c6.937-2.563 11.9-9.175 11.9-16.995M85.424 159.087v74.592H63.389v-74.592z" class="st0"/></svg>