<svg xmlns="http://www.w3.org/2000/svg" width="1.5rem" height="1.5rem" viewBox="0 0 45 60"><path d="M1 54a2 2 0 0 0 2 2h2v2a2 2 0 0 0 2 2h32a2 2 0 0 0 2-2v-2h2a2 2 0 0 0 2-2V7c0-.627-.213-.651-7.069-6.52A2 2 0 0 0 36.63 0H9.37c-.477 0-.937.171-1.3.481-8.3 7.1-6.461 5.534-6.741 5.789C.791 6.765 1 5.778 1 54m6 4V42h32v16zm30-18h-2.533l.888-4H37zm-4.583 0H12.443l5.12-13.656 16.282 7.236zM18.368 24.513a2 2 0 0 0-2.675 1.126L14.808 28H9V14h28v14H26.209zM10.307 40H9v-4h2.807zM43 54h-2V42a2 2 0 0 0-2-2v-4a2 2 0 0 0-2-2h-1.2a1.98 1.98 0 0 0-1.142-2.244L30.707 30H37a2 2 0 0 0 2-2V14a2 2 0 0 0-2-2H9a2 2 0 0 0-2 2v14a2 2 0 0 0 2 2h5.058l-1.5 4H9a2 2 0 0 0-2 2v4a2 2 0 0 0-2 2v12H3V8h40zM9.37 2h27.261L41.3 6H4.7z"/><path d="M32 18a3 3 0 0 0-2.816 2H16.816a3 3 0 1 0 0 2h12.368A2.995 2.995 0 1 0 32 18m-18 4a1 1 0 1 1 0-2 1 1 0 0 1 0 2m18 0a1 1 0 1 1 0-2 1 1 0 0 1 0 2M32 47a3 3 0 0 0-2.816 2H16.816a3 3 0 1 0 0 2h12.368A2.995 2.995 0 1 0 32 47m-18 4a1 1 0 1 1 0-2 1 1 0 0 1 0 2m18 0a1 1 0 1 1 0-2 1 1 0 0 1 0 2"/></svg>