<svg height="1.5rem" viewBox="0 0 45 60" width="1.5rem" xmlns="http://www.w3.org/2000/svg"><g id="029---Filling-cabinet"><path id="Shape" d="m1 54c0 1.1045695.8954305 2 2 2h2v2c0 1.1045695.8954305 2 2 2h32c1.1045695 0 2-.8954305 2-2v-2h2c1.1045695 0 2-.8954305 2-2v-47c0-.627-.213-.651-7.069-6.52-.3629057-.30941953-.8240925-.47957298-1.301-.48h-27.26c-.47669008.0009433-.93749736.171442-1.3.481-8.3 7.1-6.461 5.534-6.741 5.789-.538.495-.329-.492-.329 47.73zm6 4v-16h32v16zm30-18h-2.533l.888-4h1.645zm-4.583 0h-19.974l5.12-13.656 16.282 7.236zm-14.049-15.487c-.5025658-.2204996-1.0736602-.2247929-1.5794844-.011874-.5058241.2129189-.9019298.6243401-1.0955156 1.137874l-.885 2.361h-5.808v-14h28v14h-10.791zm-8.061 15.487h-1.307v-4h2.807zm32.693 14h-2v-12c0-1.1045695-.8954305-2-2-2v-4c0-1.1045695-.8954305-2-2-2h-1.2c.2047831-.92483-.2737965-1.8652265-1.142-2.244l-3.951-1.756h6.293c1.1045695 0 2-.8954305 2-2v-14c0-1.1045695-.8954305-2-2-2h-28c-1.1045695 0-2 .8954305-2 2v14c0 1.1045695.8954305 2 2 2h5.058l-1.5 4h-3.558c-1.1045695 0-2 .8954305-2 2v4c-1.1045695 0-2 .8954305-2 2v12h-2v-46h40zm-33.63-52h27.261l4.669 4h-36.6z"/><path id="Shape" d="m32 18c-1.2667854.0052514-2.3937454.8056491-2.816 2h-12.368c-.4870363-1.3775467-1.8956662-2.2038721-3.3357331-1.9567957-1.4400668.2470764-2.492694 1.4956868-2.492694 2.9567957s1.0526272 2.7097193 2.492694 2.9567957c1.4400669.2470764 2.8486968-.579249 3.3357331-1.9567957h12.368c.511019 1.4345815 2.0172125 2.2572889 3.5004302 1.9119918 1.4832176-.3452971 2.4711782-1.7486502 2.2960444-3.2614267-.1751339-1.5127765-1.4575966-2.6532831-2.9804746-2.6505651zm-18 4c-.5522847 0-1-.4477153-1-1s.4477153-1 1-1 1 .4477153 1 1-.4477153 1-1 1zm18 0c-.5522847 0-1-.4477153-1-1s.4477153-1 1-1 1 .4477153 1 1-.4477153 1-1 1z"/><path id="Shape" d="m32 47c-1.2667854.0052514-2.3937454.8056491-2.816 2h-12.368c-.4870363-1.3775467-1.8956662-2.2038721-3.3357331-1.9567957-1.4400668.2470764-2.492694 1.4956868-2.492694 2.9567957s1.0526272 2.7097193 2.492694 2.9567957c1.4400669.2470764 2.8486968-.579249 3.3357331-1.9567957h12.368c.511019 1.4345815 2.0172125 2.2572889 3.5004302 1.9119918 1.4832176-.3452971 2.4711782-1.7486502 2.2960444-3.2614267-.1751339-1.5127765-1.4575966-2.6532831-2.9804746-2.6505651zm-18 4c-.5522847 0-1-.4477153-1-1s.4477153-1 1-1 1 .4477153 1 1-.4477153 1-1 1zm18 0c-.5522847 0-1-.4477153-1-1s.4477153-1 1-1 1 .4477153 1 1-.4477153 1-1 1z"/></g></svg>