<svg xmlns="http://www.w3.org/2000/svg" xml:space="preserve" id="_x32_" width="1.5rem" height="1.5rem" version="1.1" viewBox="0 0 512 512"><style>.st0{fill:#000}</style><path d="M282.913 0h-81.555v47.582h92.89c88.36 0 111.009 43.032 111.009 43.032L421.11 79.29C393.932 9.06 298.787 0 282.913 0M98.919 373.915l-8.028 40.502h55.285l-8.03-40.502zM273.099 115.284V75.515c0-8.08-6.55-14.63-14.651-14.63h-27.32c-8.111 0-14.651 6.55-14.651 14.63v40.544c-34.319 12.119-58.927 44.847-58.927 83.31v278.658c0 18.762 15.242 33.973 33.993 33.973h108.754c18.772 0 33.972-15.212 33.972-33.973V199.368c.001-39.318-25.667-72.618-61.17-84.084" class="st0"/><path d="M129.015 200.929c-.01-38.686 19.822-74.149 51.255-94.736l.102-.071.01.01c.163-.154 6.488-4.132 16.516-7.54V76.791c-16.588 4.468-27.066 11.284-28.076 11.926l-.01.01c-.02.009-.122.071-.132.082l.01.01c-37.166 24.403-60.56 66.302-60.569 112.11v158.846h20.894zm51.52-94.91-.122.092-.011-.01z" class="st0"/></svg>