<svg xmlns="http://www.w3.org/2000/svg" xml:space="preserve" width="1.5rem" height="1.5rem" viewBox="0 0 512 512"><path d="M429.844 20.875A71.3 71.3 0 0 0 379.438 0a71.34 71.34 0 0 0-50.422 20.875 71.17 71.17 0 0 0-20.875 50.406 71.11 71.11 0 0 0 20.875 50.406c5.672 5.688 12.406 10.375 19.781 13.906v202.016c-.016 30.172-11.781 58.578-33.141 79.984-21.391 21.344-49.813 33.125-79.984 33.125-30.188 0-58.594-11.781-79.984-33.125-21.359-21.406-33.125-49.813-33.141-79.984a112.54 112.54 0 0 1 10.891-48.297c9.813 6.75 21.5 14.531 25.859 16.344 4.141 1.75 14.594-.078 10.609-18.25-5.313-24.156-.594-53.75 8.422-90.156 3.047-12.281-.609-15.719-6.813-14.375-32 3.641-67.016 36.781-72.906 46.797l-2.828 3.766c-22.594 30.281-34.516 66.297-34.5 104.172-.016 46.609 18.125 90.406 51.063 123.313C145.25 493.859 189.031 512 235.672 512h.047c46.594 0 90.375-18.141 123.281-51.078 32.953-32.906 51.078-76.703 51.063-123.313V135.563c7.391-3.5 14.109-8.188 19.781-13.875a71.11 71.11 0 0 0 20.875-50.406 71.18 71.18 0 0 0-20.875-50.407m-36.656 64.156c-3.609 3.563-8.297 5.688-13.75 5.719-5.453-.031-10.156-2.156-13.75-5.719-3.563-3.594-5.688-8.281-5.703-13.75.016-5.438 2.141-10.141 5.703-13.75 3.594-3.547 8.297-5.656 13.75-5.688 5.453.031 10.141 2.141 13.75 5.688 3.547 3.609 5.672 8.313 5.688 13.75-.017 5.469-2.142 10.157-5.688 13.75" style="fill:#000"/></svg>