<svg id="Layer_1" enable-background="new 0 0 511.999 511.999" height="1.5rem" viewBox="0 0 511.999 511.999" width="1.5rem" xmlns="http://www.w3.org/2000/svg"><path d="m511.988 161.93c0-12.659-4.931-24.562-13.883-33.511l-23.755-23.755 12.101-12.101c.068-.066.136-.133.203-.2 18.478-18.477 18.478-48.545 0-67.028-8.951-8.952-20.854-13.882-33.513-13.882-12.658 0-24.561 4.93-33.515 13.88-.076.076-.152.153-.227.231l-12.074 12.073-23.755-23.756c-8.951-8.951-20.852-13.881-33.512-13.881-12.661 0-24.563 4.931-33.514 13.883-4.697 4.698-8.193 10.146-10.502 15.962-7.365-4.517-15.849-6.938-24.707-6.938-12.66 0-24.563 4.93-33.519 13.885-18.473 18.478-18.473 48.545.002 67.026l46.662 46.66-144.017 144.017-46.663-46.662c-8.95-8.95-20.852-13.88-33.51-13.88-12.66 0-24.563 4.93-33.52 13.884-15.76 15.762-18.066 39.95-6.939 58.191-5.907 2.354-11.333 5.898-15.965 10.531-18.475 18.477-18.476 48.543.001 67.024l23.753 23.753-12.3 12.3c-8.952 8.952-13.883 20.854-13.883 33.514s4.931 24.562 13.882 33.511c8.951 8.953 20.854 13.884 33.515 13.884 12.546 0 24.347-4.843 33.27-13.642.083-.079.165-.159.246-.241l12.298-12.298 23.755 23.755c8.949 8.95 20.851 13.879 33.512 13.88h.002c12.661 0 24.565-4.931 33.519-13.885 4.695-4.696 8.191-10.143 10.5-15.956 7.363 4.514 15.844 6.934 24.7 6.935h.002c12.658 0 24.563-4.93 33.517-13.883 8.951-8.952 13.88-20.854 13.88-33.514 0-12.661-4.93-24.563-13.881-33.513l-46.663-46.663 144.021-144.016 46.662 46.659c8.952 8.951 20.854 13.88 33.513 13.881h.003c12.656 0 24.559-4.93 33.509-13.88 8.955-8.951 13.886-20.854 13.887-33.515 0-8.85-2.417-17.325-6.926-24.686 5.899-2.353 11.319-5.894 15.948-10.521 8.951-8.951 13.88-20.853 13.88-33.512zm-440.649 303.316c-.069.067-.139.136-.208.205-3.284 3.284-7.651 5.094-12.297 5.094s-9.015-1.81-12.302-5.097c-3.285-3.285-5.095-7.652-5.095-12.298s1.81-9.015 5.096-12.301l12.298-12.298 24.603 24.6zm357.2-406.395 12.29-12.289c.058-.058.114-.115.17-.173 3.27-3.185 7.572-4.936 12.143-4.936 4.646 0 9.015 1.81 12.298 5.093 6.735 6.738 6.784 17.669.143 24.462-.052.05-.104.101-.154.152l-12.29 12.29-12.299-12.3zm-90.78-23.757c3.284-3.285 7.652-5.094 12.299-5.094s9.014 1.809 12.3 5.095l57.268 57.269 22.906 22.907c.002.002.004.004.007.006l34.355 34.356c3.285 3.285 5.095 7.652 5.095 12.297 0 4.646-1.81 9.016-5.094 12.3-3.287 3.286-7.656 5.096-12.303 5.096-4.638 0-8.999-1.805-12.282-5.079l-114.577-114.574c-6.755-6.784-6.749-17.803.026-24.579zm-163.538 441.808c-3.287 3.286-7.657 5.097-12.306 5.097-4.647-.001-9.016-1.81-12.3-5.093l-34.354-34.354c-.003-.003-.005-.006-.007-.008l-7.289-7.288-72.883-72.884c-6.781-6.783-6.782-17.818 0-24.601 3.286-3.288 7.654-5.098 12.301-5.098 4.64 0 9.001 1.806 12.286 5.085l114.614 114.615c6.713 6.788 6.695 17.771-.062 24.529zm73.812-35.206c0 4.646-1.809 9.017-5.093 12.301-3.287 3.286-7.656 5.096-12.304 5.096 0 0 0 0-.001 0-4.647 0-9.017-1.81-12.302-5.095l-22.772-22.772c-.044-.044-.084-.091-.128-.135l-114.539-114.534-.003-.003-22.905-22.905c-6.782-6.781-6.782-17.816-.002-24.598 3.288-3.287 7.659-5.098 12.307-5.098 4.645 0 9.012 1.809 12.296 5.093l57.26 57.258c.003.004.006.008.01.012l42.95 42.948 60.135 60.134c3.283 3.284 5.091 7.651 5.091 12.298zm-51.757-101.388-12.301-12.299-12.299-12.301 144.018-144.018 24.604 24.602zm257.71-97.359c-3.286 3.286-7.653 5.096-12.298 5.096h-.001c-4.647 0-9.017-1.81-12.303-5.095l-57.229-57.227c-.013-.013-.023-.027-.036-.04l-45.818-45.814c-.007-.007-.015-.013-.021-.02l-57.246-57.243c-6.781-6.784-6.781-17.822-.003-24.604 3.287-3.287 7.657-5.097 12.305-5.097 4.646 0 9.016 1.81 12.302 5.096l22.841 22.84c.021.022.041.046.063.067l114.54 114.536c.011.011.021.021.032.03l22.874 22.874c3.286 3.286 5.097 7.654 5.097 12.301-.001 4.647-1.811 9.014-5.099 12.3z"/></svg>