<svg xmlns="http://www.w3.org/2000/svg" width="1.5rem" height="1.5rem" viewBox="0 0 511.999 511.999"><path d="M511.988 161.93c0-12.659-4.931-24.562-13.883-33.511l-23.755-23.755 12.101-12.101.203-.2c18.478-18.477 18.478-48.545 0-67.028-8.951-8.952-20.854-13.882-33.513-13.882s-24.561 4.93-33.515 13.88q-.114.114-.227.231l-12.074 12.073-23.755-23.756C374.619 4.93 362.718 0 350.058 0s-24.563 4.931-33.514 13.883a47.1 47.1 0 0 0-10.502 15.962c-7.365-4.517-15.849-6.938-24.707-6.938-12.66 0-24.563 4.93-33.519 13.885-18.473 18.478-18.473 48.545.002 67.026l46.662 46.66-144.017 144.017-46.663-46.662c-8.95-8.95-20.852-13.88-33.51-13.88-12.66 0-24.563 4.93-33.52 13.884-15.76 15.762-18.066 39.95-6.939 58.191a47.3 47.3 0 0 0-15.965 10.531c-18.475 18.477-18.476 48.543.001 67.024l23.753 23.753-12.3 12.3c-8.952 8.952-13.883 20.854-13.883 33.514s4.931 24.562 13.882 33.511c8.951 8.953 20.854 13.884 33.515 13.884 12.546 0 24.347-4.843 33.27-13.642q.125-.118.246-.241l12.298-12.298 23.755 23.755c8.949 8.95 20.851 13.879 33.512 13.88h.002c12.661 0 24.565-4.931 33.519-13.885a47.1 47.1 0 0 0 10.5-15.956c7.363 4.514 15.844 6.934 24.7 6.935h.002c12.658 0 24.563-4.93 33.517-13.883 8.951-8.952 13.88-20.854 13.88-33.514s-4.93-24.563-13.881-33.513l-46.663-46.663 144.021-144.016 46.662 46.659c8.952 8.951 20.854 13.88 33.513 13.881h.003c12.656 0 24.559-4.93 33.509-13.88 8.955-8.951 13.886-20.854 13.887-33.515 0-8.85-2.417-17.325-6.926-24.686a47.3 47.3 0 0 0 15.948-10.521c8.951-8.951 13.88-20.853 13.88-33.512M71.339 465.246l-.208.205c-3.284 3.284-7.651 5.094-12.297 5.094s-9.015-1.81-12.302-5.097c-3.285-3.285-5.095-7.652-5.095-12.298s1.81-9.015 5.096-12.301l12.298-12.298 24.603 24.6zm357.2-406.395 12.29-12.289.17-.173a17.3 17.3 0 0 1 12.143-4.936c4.646 0 9.015 1.81 12.298 5.093 6.735 6.738 6.784 17.669.143 24.462q-.079.075-.154.152l-12.29 12.29-12.299-12.3zm-90.78-23.757c3.284-3.285 7.652-5.094 12.299-5.094s9.014 1.809 12.3 5.095l57.268 57.269 22.906 22.907.007.006 34.355 34.356a17.28 17.28 0 0 1 5.095 12.297c0 4.646-1.81 9.016-5.094 12.3a17.29 17.29 0 0 1-12.303 5.096 17.28 17.28 0 0 1-12.282-5.079L337.733 59.673c-6.755-6.784-6.749-17.803.026-24.579M174.221 476.902a17.3 17.3 0 0 1-12.306 5.097 17.3 17.3 0 0 1-12.3-5.093l-34.354-34.354-.007-.008-7.289-7.288-72.883-72.884c-6.781-6.783-6.782-17.818 0-24.601a17.28 17.28 0 0 1 12.301-5.098c4.64 0 9.001 1.806 12.286 5.085l114.614 114.615c6.713 6.788 6.695 17.771-.062 24.529m73.812-35.206c0 4.646-1.809 9.017-5.093 12.301a17.3 17.3 0 0 1-12.304 5.096h-.001c-4.647 0-9.017-1.81-12.302-5.095l-22.772-22.772q-.064-.067-.128-.135L80.894 316.557l-.003-.003-22.905-22.905c-6.782-6.781-6.782-17.816-.002-24.598a17.3 17.3 0 0 1 12.307-5.098c4.645 0 9.012 1.809 12.296 5.093l57.26 57.258.01.012 42.95 42.948 60.135 60.134a17.28 17.28 0 0 1 5.091 12.298m-51.757-101.388-12.301-12.299-12.299-12.301L315.694 171.69l24.604 24.602zm257.71-97.359a17.28 17.28 0 0 1-12.298 5.096h-.001a17.3 17.3 0 0 1-12.303-5.095l-57.229-57.227-.036-.04-45.818-45.814-.021-.02-57.246-57.243c-6.781-6.784-6.781-17.822-.003-24.604a17.29 17.29 0 0 1 12.305-5.097c4.646 0 9.016 1.81 12.302 5.096l22.841 22.84q.03.034.063.067l114.54 114.536.032.03 22.874 22.874a17.28 17.28 0 0 1 5.097 12.301 17.28 17.28 0 0 1-5.099 12.3"/></svg>