<svg xmlns="http://www.w3.org/2000/svg" width="1.5rem" height="1.5rem" viewBox="0 0 64 64"><path d="M55.003 14.432H32.844v-3.904a5.91 5.91 0 0 0-5.904-5.904H8.997a5.91 5.91 0 0 0-5.904 5.904v42.945a5.91 5.91 0 0 0 5.904 5.904h46.006a5.91 5.91 0 0 0 5.904-5.904v-33.11c0-3.27-2.648-5.931-5.904-5.931M8.997 6.623H26.94a3.91 3.91 0 0 1 3.904 3.904v4.904a1 1 0 0 0 1 1h23.159c2.153 0 3.904 1.764 3.904 3.932v5.391a5.87 5.87 0 0 0-3.904-1.486H8.997a5.87 5.87 0 0 0-3.904 1.486V10.527a3.91 3.91 0 0 1 3.904-3.904m49.91 46.85a3.91 3.91 0 0 1-3.904 3.904H8.997a3.91 3.91 0 0 1-3.904-3.904V30.172a3.91 3.91 0 0 1 3.904-3.904h46.006a3.91 3.91 0 0 1 3.904 3.904z"/></svg>