<svg xmlns="http://www.w3.org/2000/svg" width="1.5rem" height="1.5rem" viewBox="0 0 61 61"><path d="M59.934 15.674c-.132-.378.848.694-14.227-14.381C45.3.881 46.832 1 24 1a3 3 0 0 0-3 3v36h-1.349a.99.99 0 0 1-.878-.539A9.94 9.94 0 0 0 10 34c-5.657.148-10.128 4.843-10 10.5-.128 5.657 4.343 10.352 10 10.5a9.94 9.94 0 0 0 8.773-5.461.99.99 0 0 1 .878-.539H21v9a3 3 0 0 0 3 3h33a3 3 0 0 0 3-3c0-44.823.032-42.046-.066-42.326M46 4.414 56.586 15H47a1 1 0 0 1-1-1zm-29 44.2A7.95 7.95 0 0 1 10 53a8.27 8.27 0 0 1-8-8.5 8.27 8.27 0 0 1 8-8.5 7.95 7.95 0 0 1 7 4.385 3 3 0 0 0 2.651 1.638H37V47h-1.583l-1-1a2.007 2.007 0 0 0-2.834 0l-.586.58-.58-.58a2.007 2.007 0 0 0-2.834 0l-.993 1h-6.939A2.99 2.99 0 0 0 17 48.614M57 59H24a1 1 0 0 1-1-1v-9c4.859 0 4.076.333 6-1.583l.58.58c.783.78 2.05.78 2.834 0l.586-.58C34.728 49.142 34.327 49 37 49v2a1 1 0 0 0 2 0V38a1 1 0 0 0-2 0v2H23V4a1 1 0 0 1 1-1h20v11a3 3 0 0 0 3 3h11v41a1 1 0 0 1-1 1"/><path d="M29 25h8a3 3 0 0 0 3-3v-7a2 2 0 0 0-2-2v-3a5 5 0 0 0-10 0v3a2 2 0 0 0-2 2v7a3 3 0 0 0 3 3m1-15a3 3 0 0 1 6 0v3h-6zm-2 5h10v7a1 1 0 0 1-1 1h-8a1 1 0 0 1-1-1z"/><path d="M32 20h2a1 1 0 0 0 0-2h-2a1 1 0 0 0 0 2M27 31h1a1 1 0 0 0 0-2h-1a1 1 0 0 0 0 2M42 30a1 1 0 0 0-1-1h-9a1 1 0 0 0 0 2h9a1 1 0 0 0 1-1M54 29h-9a1 1 0 0 0 0 2h9a1 1 0 0 0 0-2M54 38h-9a1 1 0 0 0 0 2h9a1 1 0 0 0 0-2M54 42h-9a1 1 0 0 0 0 2h9a1 1 0 0 0 0-2M54 46h-9a1 1 0 0 0 0 2h9a1 1 0 0 0 0-2M54 50h-9a1 1 0 0 0 0 2h9a1 1 0 0 0 0-2M37 33H27a1 1 0 0 0 0 2h10a1 1 0 0 0 0-2M54 33H41a1 1 0 0 0 0 2h13a1 1 0 0 0 0-2M30 55h-3a1 1 0 0 0 0 2h3a1 1 0 0 0 0-2M43 55h-9a1 1 0 0 0 0 2h9a1 1 0 0 0 0-2M54 55h-7a1 1 0 0 0 0 2h7a1 1 0 0 0 0-2M7.5 41a3.5 3.5 0 1 0 0 7 3.5 3.5 0 0 0 0-7m0 5a1.5 1.5 0 1 1 0-3 1.5 1.5 0 0 1 0 3"/></svg>