<svg height="1.5rem" viewBox="0 0 60 60" width="1.5rem" xmlns="http://www.w3.org/2000/svg"><g id="025---Folder-Preferences"><path id="Shape" d="m13.02 6c.5522847 0 1-.44771525 1-1s-.4477153-1-1-1-1 .44771525-1 1 .4477153 1 1 1z"/><path id="Shape" d="m9.02 6c.55228475 0 1-.44771525 1-1s-.44771525-1-1-1-1 .44771525-1 1 .44771525 1 1 1z"/><path id="Shape" d="m5.02 6c.55228475 0 1-.44771525 1-1s-.44771525-1-1-1-1 .44771525-1 1 .44771525 1 1 1z"/><path id="Shape" d="m55 0h-50c-2.76005315.00330612-4.99669388 2.23994685-5 5v50c.00330612 2.7600532 2.23994685 4.9966939 5 5h50c2.7600532-.0033061 4.9966939-2.2399468 5-5v-50c-.0033061-2.76005315-2.2399468-4.99669388-5-5zm-50 2h50c1.6568542 0 3 1.34314575 3 3v3h-56v-3c0-1.65685425 1.34314575-3 3-3zm2 56v-41c0-1.1045695.8954305-2 2-2h24c1.1045695 0 2 .8954305 2 2v1h-.36c-1.4285774.0053264-2.6567596 1.0137726-2.94 2.414l-.476 2.379c-.646215.2193774-1.2766836.4826574-1.887.788l-2.026-1.352c-1.1906996-.7880137-2.7711285-.6313908-3.784.375l-1.927 1.922c-1.006597 1.0141828-1.1623902 2.5959217-.373 3.787l1.35 2.024c-.3053426.6103164-.5686226 1.240785-.788 1.887l-2.381.476c-1.3978432.2857202-2.403259 1.5132628-2.408 2.94v2.72c.0053264 1.4285774 1.0137726 2.6567596 2.414 2.94l2.379.476c.2193774.646215.4826574 1.2766836.788 1.887l-1.352 2.026c-.787616 1.1907981-.6310203 2.7709539.375 3.784l1.922 1.927c1.0140081 1.0069681 2.5960206 1.1627882 3.787.373l2.024-1.35c.6103164.3053426 1.240785.5686226 1.887.788l.476 2.381c.2857202 1.3978432 1.5132628 2.403259 2.94 2.408h.36v2zm42.1-11.206c.2641461.3973233.2132092.9254801-.122 1.265l-1.918 1.923c-.3391152.3350001-.8666607.3863356-1.264.123l-1.222-.815c1.446347-1.011943 2.704057-2.269653 3.716-3.716zm1.651-12.421 1.436.287c.4677615.0937909.805519.5029409.809.98v2.72c-.0010491.4770483-.3389194.8869306-.807.979l-1.438.288c.3273216-1.7359144.328678-3.5175892.004-5.254zm-1.646-7.173-.815 1.222c-1.011943-1.446347-2.269653-2.704057-3.716-3.716l1.22-.814c.3976355-.2642992.9261523-.2133679 1.266.122l1.922 1.923c.3370793.3377351.3885814.8665735.123 1.263zm-.105 9.8c0 7.1797017-5.8202983 13-13 13s-13-5.8202983-13-13 5.8202983-13 13-13c7.1762751.008266 12.991734 5.8237249 13 13zm-14.36 17c-.4767393-.0009544-.8865133-.3383168-.979-.806l-.288-1.439c1.7361626.3259997 3.5178374.3259997 5.254 0l-.287 1.437c-.0942045.4673643-.503248.8046165-.98.808zm-11.74-26.794c-.2641461-.3973233-.2132092-.9254801.122-1.265l1.923-1.923c.3389443-.328674.8607312-.3777344 1.255-.118l1.222.815c-1.4461606 1.0121652-2.7038348 2.2698394-3.716 3.716zm-1.655 12.421-1.437-.287c-.4673643-.0942045-.8046165-.503248-.808-.98v-2.72c.0009544-.4767393.3383168-.8865133.806-.979l1.439-.288c-.3259997 1.7361626-.3259997 3.5178374 0 5.254zm1.655 7.173.815-1.222c1.0121652 1.4461606 2.2698394 2.7038348 3.716 3.716l-1.22.814c-.3972238.2645434-.9256538.2135802-1.265-.122l-1.923-1.923c-.3370793-.3377351-.3885814-.8665735-.123-1.263zm10.473-24.555.287-1.437c.0942045-.4673643.503248-.8046165.98-.808h2.72c.4767393.0009544.8865133.3383168.979.806l.288 1.439c-1.7361626-.3259997-3.5178374-.3259997-5.254 0zm21.627 35.755h-18v-2h.36c1.4285774-.0053264 2.6567596-1.0137726 2.94-2.414l.476-2.379c.646215-.2193774 1.2766836-.4826574 1.887-.788 1.9 1.267 2.49 1.852 3.689 1.852.7953571.0011566 1.5586223-.3135734 2.122-.875l1.926-1.922c1.006917-1.0139321 1.1631299-2.5956922.374-3.787l-1.351-2.025c.3055285-.6098878.5688145-1.2400368.788-1.886l2.381-.476c1.3976318-.2860703 2.4028742-1.513401 2.408-2.94v-2.72c-.0057123-1.4284384-1.013984-2.6564082-2.414-2.94l-2.379-.476c-.2191855-.6459632-.4824715-1.2761122-.788-1.886l1.352-2.027c.7880137-1.1906996.6313908-2.7711285-.375-3.784l-1.922-1.927c-1.0143573-1.0062263-2.5958229-1.1619925-3.787-.373l-2.024 1.35c-.6103164-.3053426-1.240785-.5686226-1.887-.788l-.476-2.377c-.2840677-1.3994326-1.5120365-2.4068682-2.94-2.412h-.36v-1c0-2.209139-1.790861-4-4-4h-24c-2.209139 0-4 1.790861-4 4v41c-1.65685425 0-3-1.3431458-3-3v-45h56v45c0 1.6568542-1.3431458 3-3 3z"/><path id="Shape" d="m53 6c0 .55228475.4477153 1 1 1s1-.44771525 1-1c.5522847 0 1-.44771525 1-1s-.4477153-1-1-1c0-.55228475-.4477153-1-1-1s-1 .44771525-1 1c-.5522847 0-1 .44771525-1 1s.4477153 1 1 1z"/><path id="Shape" d="m47 6h2c.5522847 0 1-.44771525 1-1s-.4477153-1-1-1h-2c-.5522847 0-1 .44771525-1 1s.4477153 1 1 1z"/><path id="Shape" d="m35 47c0 .5522847.4477153 1 1 1 6.0721626-.0071635 10.9928365-4.9278374 11-11 0-.5522847-.4477153-1-1-1s-1 .4477153-1 1c-.006061 4.9680501-4.0319499 8.993939-9 9-.5522847 0-1 .4477153-1 1z"/><path id="Shape" d="m25 37c0 .5522847.4477153 1 1 1s1-.4477153 1-1c.006061-4.9680501 4.0319499-8.993939 9-9 .5522847 0 1-.4477153 1-1s-.4477153-1-1-1c-6.0721626.0071635-10.9928365 4.9278374-11 11z"/><path id="Shape" d="m31 37c0 2.7614237 2.2385763 5 5 5s5-2.2385763 5-5-2.2385763-5-5-5c-2.7600532.0033061-4.9966939 2.2399468-5 5zm8 0c0 1.6568542-1.3431458 3-3 3s-3-1.3431458-3-3 1.3431458-3 3-3 3 1.3431458 3 3z"/><path id="Shape" d="m11 20h11c.5522847 0 1-.4477153 1-1s-.4477153-1-1-1h-11c-.5522847 0-1 .4477153-1 1s.4477153 1 1 1z"/><path id="Shape" d="m11 28h6c.5522847 0 1-.4477153 1-1s-.4477153-1-1-1h-6c-.5522847 0-1 .4477153-1 1s.4477153 1 1 1z"/><path id="Shape" d="m11 32h5c.5522847 0 1-.4477153 1-1s-.4477153-1-1-1h-5c-.5522847 0-1 .4477153-1 1s.4477153 1 1 1z"/><path id="Shape" d="m11 36h3c.5522847 0 1-.4477153 1-1s-.4477153-1-1-1h-3c-.5522847 0-1 .4477153-1 1s.4477153 1 1 1z"/><path id="Shape" d="m11 40h3c.5522847 0 1-.4477153 1-1s-.4477153-1-1-1h-3c-.5522847 0-1 .4477153-1 1s.4477153 1 1 1z"/><path id="Shape" d="m11 44h5c.5522847 0 1-.4477153 1-1s-.4477153-1-1-1h-5c-.5522847 0-1 .4477153-1 1s.4477153 1 1 1z"/><path id="Shape" d="m11 48h6c.5522847 0 1-.4477153 1-1s-.4477153-1-1-1h-6c-.5522847 0-1 .4477153-1 1s.4477153 1 1 1z"/><path id="Shape" d="m11 52h7c.5522847 0 1-.4477153 1-1s-.4477153-1-1-1h-7c-.5522847 0-1 .4477153-1 1s.4477153 1 1 1z"/><path id="Shape" d="m22 54h-11c-.5522847 0-1 .4477153-1 1s.4477153 1 1 1h11c.5522847 0 1-.4477153 1-1s-.4477153-1-1-1z"/><path id="Shape" d="m11 24h6c.5522847 0 1-.4477153 1-1s-.4477153-1-1-1h-6c-.5522847 0-1 .4477153-1 1s.4477153 1 1 1z"/></g></svg>