<svg xmlns="http://www.w3.org/2000/svg" width="1.5rem" height="1.5rem" viewBox="0 0 60 60"><path d="M13.02 6a1 1 0 1 0 0-2 1 1 0 0 0 0 2M9.02 6a1 1 0 1 0 0-2 1 1 0 0 0 0 2M5.02 6a1 1 0 1 0 0-2 1 1 0 0 0 0 2"/><path d="M55 0H5a5.006 5.006 0 0 0-5 5v50a5.006 5.006 0 0 0 5 5h50a5.006 5.006 0 0 0 5-5V5a5.006 5.006 0 0 0-5-5M5 2h50a3 3 0 0 1 3 3v3H2V5a3 3 0 0 1 3-3m2 56V17a2 2 0 0 1 2-2h24a2 2 0 0 1 2 2v1h-.36a3.01 3.01 0 0 0-2.94 2.414l-.476 2.379a15 15 0 0 0-1.887.788l-2.026-1.352a3.01 3.01 0 0 0-3.784.375L21.6 24.526a3.01 3.01 0 0 0-.373 3.787l1.35 2.024a15 15 0 0 0-.788 1.887l-2.381.476A3.01 3.01 0 0 0 17 35.64v2.72a3.01 3.01 0 0 0 2.414 2.94l2.379.476q.33.97.788 1.887l-1.352 2.026a3.01 3.01 0 0 0 .375 3.784l1.922 1.927a3.01 3.01 0 0 0 3.787.373l2.024-1.35q.916.459 1.887.788l.476 2.381A3.01 3.01 0 0 0 34.64 56H35v2zm42.1-11.206c.264.397.213.925-.122 1.265l-1.918 1.923c-.34.335-.867.386-1.264.123l-1.222-.815a15.1 15.1 0 0 0 3.716-3.716zm1.651-12.421 1.436.287c.468.094.806.503.809.98v2.72a1 1 0 0 1-.807.979l-1.438.288c.327-1.736.329-3.518.004-5.254zM49.105 27.2l-.815 1.222a15.1 15.1 0 0 0-3.716-3.716l1.22-.814a1.01 1.01 0 0 1 1.266.122l1.922 1.923a1 1 0 0 1 .123 1.263M49 37c0 7.18-5.82 13-13 13s-13-5.82-13-13 5.82-13 13-13c7.176.008 12.992 5.824 13 13M34.64 54a1 1 0 0 1-.979-.806l-.288-1.439c1.736.326 3.518.326 5.254 0l-.287 1.437a1.01 1.01 0 0 1-.98.808zM22.9 27.206a1.01 1.01 0 0 1 .122-1.265l1.923-1.923c.339-.329.86-.378 1.255-.118l1.222.815a15.1 15.1 0 0 0-3.716 3.716zm-1.655 12.421-1.437-.287a1.01 1.01 0 0 1-.808-.98v-2.72a1 1 0 0 1 .806-.979l1.439-.288a14.2 14.2 0 0 0 0 5.254M22.9 46.8l.815-1.222a15.1 15.1 0 0 0 3.716 3.716l-1.22.814a1.006 1.006 0 0 1-1.265-.122l-1.923-1.923A1 1 0 0 1 22.9 46.8m10.473-24.555.287-1.437c.094-.467.503-.805.98-.808h2.72a1 1 0 0 1 .979.806l.288 1.439a14.2 14.2 0 0 0-5.254 0M55 58H37v-2h.36a3.01 3.01 0 0 0 2.94-2.414l.476-2.379a15 15 0 0 0 1.887-.788c1.9 1.267 2.49 1.852 3.689 1.852a3 3 0 0 0 2.122-.875l1.926-1.922a3.01 3.01 0 0 0 .374-3.787l-1.351-2.025a15 15 0 0 0 .788-1.886l2.381-.476A3.01 3.01 0 0 0 55 38.36v-2.72a3.01 3.01 0 0 0-2.414-2.94l-2.379-.476a15 15 0 0 0-.788-1.886l1.352-2.027a3.01 3.01 0 0 0-.375-3.784L48.474 22.6a3.014 3.014 0 0 0-3.787-.373l-2.024 1.35a15 15 0 0 0-1.887-.788l-.476-2.377A3.01 3.01 0 0 0 37.36 18H37v-1a4 4 0 0 0-4-4H9a4 4 0 0 0-4 4v41a3 3 0 0 1-3-3V10h56v45a3 3 0 0 1-3 3"/><path d="M53 6a1 1 0 0 0 2 0 1 1 0 0 0 0-2 1 1 0 0 0-2 0 1 1 0 0 0 0 2M47 6h2a1 1 0 0 0 0-2h-2a1 1 0 0 0 0 2M35 47a1 1 0 0 0 1 1c6.072-.007 10.993-4.928 11-11a1 1 0 0 0-2 0 9.01 9.01 0 0 1-9 9 1 1 0 0 0-1 1M25 37a1 1 0 0 0 2 0 9.01 9.01 0 0 1 9-9 1 1 0 0 0 0-2c-6.072.007-10.993 4.928-11 11M31 37a5 5 0 1 0 10 0 5 5 0 0 0-10 0m8 0a3 3 0 1 1-6 0 3 3 0 0 1 6 0M11 20h11a1 1 0 0 0 0-2H11a1 1 0 0 0 0 2M11 28h6a1 1 0 0 0 0-2h-6a1 1 0 0 0 0 2M11 32h5a1 1 0 0 0 0-2h-5a1 1 0 0 0 0 2M11 36h3a1 1 0 0 0 0-2h-3a1 1 0 0 0 0 2M11 40h3a1 1 0 0 0 0-2h-3a1 1 0 0 0 0 2M11 44h5a1 1 0 0 0 0-2h-5a1 1 0 0 0 0 2M11 48h6a1 1 0 0 0 0-2h-6a1 1 0 0 0 0 2M11 52h7a1 1 0 0 0 0-2h-7a1 1 0 0 0 0 2M22 54H11a1 1 0 0 0 0 2h11a1 1 0 0 0 0-2M11 24h6a1 1 0 0 0 0-2h-6a1 1 0 0 0 0 2"/></svg>