<svg height="1.5rem" viewBox="0 0 61 61" width="1.5rem" xmlns="http://www.w3.org/2000/svg"><g id="003---Locked-File" transform="translate(-1)"><path id="Shape" d="m60.934 15.674c-.132-.378.848.694-14.227-14.381-.407-.412 1.125-.293-21.707-.293-1.6568542 0-3 1.34314575-3 3v36h-1.349c-.3703336-.0016923-.7088881-.2095292-.878-.539-1.6732402-3.3174761-5.0576231-5.4241802-8.773-5.461-5.65658093.1478497-10.12809287 4.8429372-10 10.5-.12809287 5.6570628 4.34341907 10.3521503 10 10.5 3.7153769-.0368198 7.0997598-2.1435239 8.773-5.461.1691119-.3294708.5076664-.5373077.878-.539h1.349v9c0 1.6568542 1.3431458 3 3 3h33c1.6568542 0 3-1.3431458 3-3 0-44.823.032-42.046-.066-42.326zm-13.934-11.26 10.586 10.586h-9.586c-.5522847 0-1-.4477153-1-1zm-29 44.2c-1.3305026 2.6551165-4.0304302 4.3468139-7 4.386-4.55213636-.1474166-8.12848787-3.94729-8-8.5-.12848787-4.55271 3.44786364-8.3525834 8-8.5 2.9693489.0389946 5.6692213 1.7302718 7 4.385.5094091.9973264 1.5311473 1.628638 2.651 1.638h17.349v4.977h-1.583l-1-1c-.7832848-.7809022-2.0507152-.7809022-2.834 0l-.586.58-.58-.58c-.7832848-.7809022-2.0507152-.7809022-2.834 0l-.993 1h-6.939c-1.1158837.0001962-2.1384785.6227794-2.651 1.614zm40 10.386h-33c-.5522847 0-1-.4477153-1-1v-9c4.859 0 4.076.333 6-1.583l.58.58c.7832848.7809022 2.0507152.7809022 2.834 0l.586-.58c1.728 1.725 1.327 1.583 4 1.583v2c0 .5522847.4477153 1 1 1s1-.4477153 1-1v-13c0-.5522847-.4477153-1-1-1s-1 .4477153-1 1v2h-14v-36c0-.55228475.4477153-1 1-1h20v11c0 1.6568542 1.3431458 3 3 3h11v41c0 .5522847-.4477153 1-1 1z"/><path id="Shape" d="m30 25h8c1.6568542 0 3-1.3431458 3-3v-7c0-1.1045695-.8954305-2-2-2v-3c0-2.76142375-2.2385763-5-5-5s-5 2.23857625-5 5v3c-1.1045695 0-2 .8954305-2 2v7c0 1.6568542 1.3431458 3 3 3zm1-15c0-1.65685425 1.3431458-3 3-3s3 1.34314575 3 3v3h-6zm-2 5h10v7c0 .5522847-.4477153 1-1 1h-8c-.5522847 0-1-.4477153-1-1z"/><path id="Shape" d="m33 20h2c.5522847 0 1-.4477153 1-1s-.4477153-1-1-1h-2c-.5522847 0-1 .4477153-1 1s.4477153 1 1 1z"/><path id="Shape" d="m28 31h1c.5522847 0 1-.4477153 1-1s-.4477153-1-1-1h-1c-.5522847 0-1 .4477153-1 1s.4477153 1 1 1z"/><path id="Shape" d="m43 30c0-.5522847-.4477153-1-1-1h-9c-.5522847 0-1 .4477153-1 1s.4477153 1 1 1h9c.5522847 0 1-.4477153 1-1z"/><path id="Shape" d="m55 29h-9c-.5522847 0-1 .4477153-1 1s.4477153 1 1 1h9c.5522847 0 1-.4477153 1-1s-.4477153-1-1-1z"/><path id="Shape" d="m55 38h-9c-.5522847 0-1 .4477153-1 1s.4477153 1 1 1h9c.5522847 0 1-.4477153 1-1s-.4477153-1-1-1z"/><path id="Shape" d="m55 42h-9c-.5522847 0-1 .4477153-1 1s.4477153 1 1 1h9c.5522847 0 1-.4477153 1-1s-.4477153-1-1-1z"/><path id="Shape" d="m55 46h-9c-.5522847 0-1 .4477153-1 1s.4477153 1 1 1h9c.5522847 0 1-.4477153 1-1s-.4477153-1-1-1z"/><path id="Shape" d="m55 50h-9c-.5522847 0-1 .4477153-1 1s.4477153 1 1 1h9c.5522847 0 1-.4477153 1-1s-.4477153-1-1-1z"/><path id="Shape" d="m38 33h-10c-.5522847 0-1 .4477153-1 1s.4477153 1 1 1h10c.5522847 0 1-.4477153 1-1s-.4477153-1-1-1z"/><path id="Shape" d="m55 33h-13c-.5522847 0-1 .4477153-1 1s.4477153 1 1 1h13c.5522847 0 1-.4477153 1-1s-.4477153-1-1-1z"/><path id="Shape" d="m31 55h-3c-.5522847 0-1 .4477153-1 1s.4477153 1 1 1h3c.5522847 0 1-.4477153 1-1s-.4477153-1-1-1z"/><path id="Shape" d="m44 55h-9c-.5522847 0-1 .4477153-1 1s.4477153 1 1 1h9c.5522847 0 1-.4477153 1-1s-.4477153-1-1-1z"/><path id="Shape" d="m55 55h-7c-.5522847 0-1 .4477153-1 1s.4477153 1 1 1h7c.5522847 0 1-.4477153 1-1s-.4477153-1-1-1z"/><path id="Shape" d="m8.5 41c-1.93299662 0-3.5 1.5670034-3.5 3.5s1.56700338 3.5 3.5 3.5c1.9329966 0 3.5-1.5670034 3.5-3.5s-1.5670034-3.5-3.5-3.5zm0 5c-.82842712 0-1.5-.6715729-1.5-1.5s.67157288-1.5 1.5-1.5 1.5.6715729 1.5 1.5-.67157288 1.5-1.5 1.5z"/></g></svg>