<svg xmlns="http://www.w3.org/2000/svg" xml:space="preserve" id="_x32_" width="1.5rem" height="1.5rem" version="1.1" viewBox="0 0 512 512"><style>.st0{fill:#000}</style><path d="M506.392 169.051c-138.136-138.08-362.658-138.08-500.784 0-7.477 7.476-7.477 19.589 0 27.066 7.476 7.477 19.589 7.477 27.066 0 61.6-61.582 142.37-92.321 223.317-92.34 80.965.019 161.735 30.759 223.335 92.34 7.468 7.477 19.59 7.477 27.066 0 7.477-7.477 7.477-19.59 0-27.066" class="st0"/><path d="M73.284 236.717c-7.487 7.486-7.487 19.589 0 27.076 7.476 7.467 19.589 7.476 27.066 0 42.936-42.945 99.209-64.339 155.65-64.367 56.442.018 112.705 21.44 155.651 64.367 7.477 7.467 19.59 7.467 27.066 0 7.478-7.477 7.478-19.599 0-27.076-100.826-100.77-264.617-100.761-365.433 0" class="st0"/><path d="M140.958 304.392c-7.486 7.486-7.486 19.588 0 27.076 7.468 7.476 19.59 7.476 27.067 0 24.281-24.273 56.039-36.357 87.974-36.375 31.936.018 63.684 12.102 87.975 36.375 7.478 7.476 19.599 7.476 27.067 0 7.476-7.478 7.476-19.599 0-27.076-63.507-63.451-166.585-63.441-230.083 0M204.54 395.04 256 446.51l51.46-51.451c-28.431-28.421-74.508-28.421-102.92-.019" class="st0"/></svg>