<svg id="Layer_1" enable-background="new 0 0 512 512" height="512" viewBox="0 0 512 512" width="512" xmlns="http://www.w3.org/2000/svg"><g><path d="m408.633 0h-305.266c-30.42 0-55.168 24.748-55.168 55.167v337.4c0 28.058 21.061 51.273 48.201 54.711v49.722c0 8.284 6.716 15 15 15h64.266c8.284 0 15-6.716 15-15v-49.267h130.668v49.267c0 8.284 6.716 15 15 15h64.266c8.284 0 15-6.716 15-15v-49.722c27.141-3.438 48.201-26.653 48.201-54.711v-337.4c0-30.419-24.748-55.167-55.168-55.167zm-305.266 30h305.266c13.878 0 25.168 11.29 25.168 25.167v9.1h-355.602v-9.1c0-13.877 11.29-25.167 25.168-25.167zm57.299 452h-34.266v-34.267h34.266zm224.934 0h-34.266v-34.267h34.266zm23.033-64.267h-8.033-64.266-160.668-64.266-8.033c-13.878 0-25.168-11.289-25.168-25.166v-298.3h355.602v298.301c0 13.876-11.29 25.165-25.168 25.165z"/><path d="m368.467 160.667c-8.284 0-15 6.716-15 15v96.4c0 8.284 6.716 15 15 15s15-6.716 15-15v-96.4c0-8.284-6.716-15-15-15z"/></g></svg>