<svg xmlns="http://www.w3.org/2000/svg" width="1.5rem" height="1.5rem" viewBox="0 0 512 512"><path d="M408.633 0H103.367c-30.42 0-55.168 24.748-55.168 55.167v337.4c0 28.058 21.061 51.273 48.201 54.711V497c0 8.284 6.716 15 15 15h64.266c8.284 0 15-6.716 15-15v-49.267h130.668V497c0 8.284 6.716 15 15 15H400.6c8.284 0 15-6.716 15-15v-49.722c27.141-3.438 48.201-26.653 48.201-54.711v-337.4C463.801 24.748 439.053 0 408.633 0M103.367 30h305.266c13.878 0 25.168 11.29 25.168 25.167v9.1H78.199v-9.1C78.199 41.29 89.489 30 103.367 30m57.299 452H126.4v-34.267h34.266zm224.934 0h-34.266v-34.267H385.6zm23.033-64.267H103.367c-13.878 0-25.168-11.289-25.168-25.166v-298.3h355.602v298.301c0 13.876-11.29 25.165-25.168 25.165"/><path d="M368.467 160.667c-8.284 0-15 6.716-15 15v96.4c0 8.284 6.716 15 15 15s15-6.716 15-15v-96.4c0-8.284-6.716-15-15-15"/></svg>