<?xml version="1.0" encoding="iso-8859-1"?>
<!-- Uploaded to: SVG Repo, www.svgrepo.com, Generator: SVG Repo Mixer Tools -->
<svg fill="#000000" height="1.5rem" width="1.5rem" version="1.1" id="Layer_1" xmlns="http://www.w3.org/2000/svg" xmlns:xlink="http://www.w3.org/1999/xlink" 
	 viewBox="0 0 512 512" xml:space="preserve">
<g>
	<g>
		<path d="M495.282,319.797v-50.695h-66.007c-2.029-20.136-16.013-36.793-34.724-42.756v-16.557h-30.417v16.557
			c-18.712,5.964-32.695,22.62-34.724,42.756h-43.549v-54.878c0-33.376-22.941-61.493-53.881-69.417
			c4.372-7.857,6.873-16.892,6.873-26.502v-16.578V71.309V26.103H129.478v45.206v30.417v16.578c0,9.612,2.501,18.646,6.873,26.502
			c-30.94,7.925-53.881,36.041-53.881,69.417v54.878H16.718v50.695H0v30.417h16.718v135.683h478.563V350.214H512v-30.417H495.282z
			 M379.342,254.4c9.149,0,16.868,6.248,19.113,14.702H360.23C362.473,260.648,370.191,254.4,379.342,254.4z M159.895,56.52h48.54
			v14.789h-48.54V56.52z M159.895,101.726c0,0,48.54,0,48.54,0v16.578c0,13.383-10.887,24.271-24.27,24.271
			c-13.383,0-24.27-10.887-24.27-24.271V101.726z M112.887,214.224c0-22.736,18.497-41.232,41.232-41.232h14.836v74.241h30.417
			v-74.241h14.836c22.736,0,41.233,18.497,41.233,41.232v54.878H112.887C112.887,269.102,112.887,214.224,112.887,214.224z
			 M464.865,455.48H47.135V350.214h417.729V455.48z M464.865,319.797H47.135v-20.278H82.47h203.389h43.294H429.53h35.335V319.797z"
			/>
	</g>
</g>
</svg>