<svg xmlns="http://www.w3.org/2000/svg" xml:space="preserve" width="1.5rem" height="1.5rem" viewBox="0 0 512 512"><path d="M495.282 319.797v-50.695h-66.007c-2.029-20.136-16.013-36.793-34.724-42.756v-16.557h-30.417v16.557c-18.712 5.964-32.695 22.62-34.724 42.756h-43.549v-54.878c0-33.376-22.941-61.493-53.881-69.417a54.34 54.34 0 0 0 6.873-26.502V26.103H129.478v92.201a54.33 54.33 0 0 0 6.873 26.502c-30.94 7.925-53.881 36.041-53.881 69.417v54.878H16.718v50.695H0v30.417h16.718v135.683h478.563V350.214H512v-30.417zM379.342 254.4c9.149 0 16.868 6.248 19.113 14.702H360.23c2.243-8.454 9.961-14.702 19.112-14.702M159.895 56.52h48.54v14.789h-48.54zm0 45.206h48.54v16.578c0 13.383-10.887 24.271-24.27 24.271s-24.27-10.887-24.27-24.271zm-47.008 112.498c0-22.736 18.497-41.232 41.232-41.232h14.836v74.241h30.417v-74.241h14.836c22.736 0 41.233 18.497 41.233 41.232v54.878H112.887zM464.865 455.48H47.135V350.214h417.729V455.48zm0-135.683H47.135v-20.278h417.73z"/></svg>