<svg height="1.5rem" viewBox="0 0 60 60" width="1.5rem" xmlns="http://www.w3.org/2000/svg"><g id="024---Fuel-Expenses" transform="translate(0 -1)"><path id="Shape" d="m36 6h-30c-1.1045695 0-2 .8954305-2 2v8c0 1.1045695.8954305 2 2 2h30c1.1045695 0 2-.8954305 2-2v-8c0-1.1045695-.8954305-2-2-2zm-30 10v-8h30v8z"/><path id="Shape" d="m9 20h-3c-1.1045695 0-2 .8954305-2 2v3c0 1.1045695.8954305 2 2 2h3c1.1045695 0 2-.8954305 2-2v-3c0-1.1045695-.8954305-2-2-2zm-3 5v-3h3v3z"/><path id="Shape" d="m18 20h-3c-1.1045695 0-2 .8954305-2 2v3c0 1.1045695.8954305 2 2 2h3c1.1045695 0 2-.8954305 2-2v-3c0-1.1045695-.8954305-2-2-2zm-3 5v-3h3v3z"/><path id="Shape" d="m27 20h-3c-1.1045695 0-2 .8954305-2 2v3c0 1.1045695.8954305 2 2 2h3c1.1045695 0 2-.8954305 2-2v-3c0-1.1045695-.8954305-2-2-2zm-3 5v-3h3v3z"/><path id="Shape" d="m36 20h-3c-1.1045695 0-2 .8954305-2 2v3c0 1.1045695.8954305 2 2 2h3c1.1045695 0 2-.8954305 2-2v-3c0-1.1045695-.8954305-2-2-2zm-3 5v-3h3v3z"/><path id="Shape" d="m9 30h-3c-1.1045695 0-2 .8954305-2 2v3c0 1.1045695.8954305 2 2 2h3c1.1045695 0 2-.8954305 2-2v-3c0-1.1045695-.8954305-2-2-2zm-3 5v-3h3v3z"/><path id="Shape" d="m18 30h-3c-1.1045695 0-2 .8954305-2 2v3c0 1.1045695.8954305 2 2 2h3c1.1045695 0 2-.8954305 2-2v-3c0-1.1045695-.8954305-2-2-2zm-3 5v-3h3v3z"/><path id="Shape" d="m27 30h-3c-1.1045695 0-2 .8954305-2 2v3c0 1.1045695.8954305 2 2 2h3c1.1045695 0 2-.8954305 2-2v-3c0-1.1045695-.8954305-2-2-2zm-3 5v-3h3v3z"/><path id="Shape" d="m36 30h-3c-1.1045695 0-2 .8954305-2 2v3c0 1.1045695.8954305 2 2 2h3c1.1045695 0 2-.8954305 2-2v-3c0-1.1045695-.8954305-2-2-2zm-3 5v-3h3v3z"/><path id="Shape" d="m9 40h-3c-1.1045695 0-2 .8954305-2 2v3c0 1.1045695.8954305 2 2 2h3c1.1045695 0 2-.8954305 2-2v-3c0-1.1045695-.8954305-2-2-2zm-3 5v-3h3v3z"/><path id="Shape" d="m18 40h-3c-1.1045695 0-2 .8954305-2 2v3c0 1.1045695.8954305 2 2 2h3c1.1045695 0 2-.8954305 2-2v-3c0-1.1045695-.8954305-2-2-2zm-3 5v-3h3v3z"/><path id="Shape" d="m27 40h-3c-1.1045695 0-2 .8954305-2 2v3c0 1.1045695.8954305 2 2 2h3c1.1045695 0 2-.8954305 2-2v-3c0-1.1045695-.8954305-2-2-2zm-3 5v-3h3v3z"/><path id="Shape" d="m36 40h-3c-1.1045695 0-2 .8954305-2 2v14c0 1.1045695.8954305 2 2 2h3c1.1045695 0 2-.8954305 2-2v-14c0-1.1045695-.8954305-2-2-2zm-3 16v-14h3v14z"/><path id="Shape" d="m9 50h-3c-1.1045695 0-2 .8954305-2 2v3c0 1.1045695.8954305 2 2 2h3c1.1045695 0 2-.8954305 2-2v-3c0-1.1045695-.8954305-2-2-2zm-3 5v-3h3v3z"/><path id="Shape" d="m18 50h-3c-1.1045695 0-2 .8954305-2 2v3c0 1.1045695.8954305 2 2 2h3c1.1045695 0 2-.8954305 2-2v-3c0-1.1045695-.8954305-2-2-2zm-3 5v-3h3v3z"/><path id="Shape" d="m27 50h-3c-1.1045695 0-2 .8954305-2 2v3c0 1.1045695.8954305 2 2 2h3c1.1045695 0 2-.8954305 2-2v-3c0-1.1045695-.8954305-2-2-2zm-3 5v-3h3v3z"/><path id="Shape" d="m25 9c-.5522847 0-1 .44771525-1 1v1c0 .5522847.4477153 1 1 1s1-.4477153 1-1v-1c0-.55228475-.4477153-1-1-1z"/><path id="Shape" d="m24 13v1c0 .5522847.4477153 1 1 1s1-.4477153 1-1v-1c0-.5522847-.4477153-1-1-1s-1 .4477153-1 1z"/><path id="Shape" d="m29 9c-.5522847 0-1 .44771525-1 1v1c0 .5522847.4477153 1 1 1s1-.4477153 1-1v-1c0-.55228475-.4477153-1-1-1z"/><path id="Shape" d="m28 13v1c0 .5522847.4477153 1 1 1s1-.4477153 1-1v-1c0-.5522847-.4477153-1-1-1s-1 .4477153-1 1z"/><path id="Shape" d="m33 9c-.5522847 0-1 .44771525-1 1v1c0 .5522847.4477153 1 1 1s1-.4477153 1-1v-1c0-.55228475-.4477153-1-1-1z"/><path id="Shape" d="m32 13v1c0 .5522847.4477153 1 1 1s1-.4477153 1-1v-1c0-.5522847-.4477153-1-1-1s-1 .4477153-1 1z"/><path id="Shape" d="m52.5 36h-1.5v-13.276c.6173688-.3547698.9985684-1.011958 1-1.724v-3.842c1.2732627.3288935 2.1202442 1.5324542 2 2.842 0 .5522847.4477153 1 1 1s1-.4477153 1-1c.1363876-2.4226086-1.5991322-4.5486204-4-4.9.0333243-.7475375-.3521882-1.4514834-1-1.826.2009294-2.7008293 1.6827821-5.14220574 3.986-6.567.970082-.70451451 1.4621752-1.89423232 1.2731943-3.0781605-.1889808-1.18392819-1.0269941-2.16133186-2.1681943-2.5288395-.8033931-.21984722-1.6627245-.07814701-2.353.388-4.0682801 2.56019896-6.5923595 6.98015069-6.73 11.785-.621378.3532604-1.0059982 1.0122276-1.008 1.727v6c.002145.7113268.3832487 1.3675874 1 1.722v13.278h-3v-30c-.0033061-2.76005315-2.2399468-4.99669388-5-5h-32c-2.76005315.00330612-4.99669388 2.23994685-5 5v50c.00330612 2.7600532 2.23994685 4.9966939 5 5h32c2.7600532-.0033061 4.9966939-2.2399468 5-5v-14h3v11.5c0 4.1421356 3.3578644 7.5 7.5 7.5s7.5-3.3578644 7.5-7.5v-10c-.0044093-4.1403079-3.3596921-7.4955907-7.5-7.5zm-1.5 6h1.5c.8284271 0 1.5.6715729 1.5 1.5v10c0 .8284271-.6715729 1.5-1.5 1.5s-1.5-.6715729-1.5-1.5zm-5-27h4v6h-4zm6.856-11.85c.2164904-.14572192.4871031-.18617732.7367455-.11014017s.4517554.2604774.5502545.50214017l.085.179c.2164838.48026312.0581549 1.04662547-.376 1.345-2.7630567 1.74415347-4.5526592 4.67898318-4.838 7.934h-2c.2380023-4.0354444 2.41497-7.70595656 5.842-9.85zm-12.856 52.85c0 1.6568542-1.3431458 3-3 3h-32c-1.65685425 0-3-1.3431458-3-3v-50c0-1.65685425 1.34314575-3 3-3h32c1.6568542 0 3 1.34314575 3 3zm2-16v-2h3v2zm16 13.5c0 3.0375661-2.4624339 5.5-5.5 5.5s-5.5-2.4624339-5.5-5.5v-30.5h2v30.5c0 1.9329966 1.5670034 3.5 3.5 3.5s3.5-1.5670034 3.5-3.5v-10c0-1.9329966-1.5670034-3.5-3.5-3.5h-1.5v-2h1.5c3.0361953.0033068 5.4966932 2.4638047 5.5 5.5z"/></g></svg>