<svg xmlns="http://www.w3.org/2000/svg" width="1.5rem" height="1.5rem" viewBox="0 0 60 60"><path d="M36 5H6a2 2 0 0 0-2 2v8a2 2 0 0 0 2 2h30a2 2 0 0 0 2-2V7a2 2 0 0 0-2-2M6 15V7h30v8zM9 19H6a2 2 0 0 0-2 2v3a2 2 0 0 0 2 2h3a2 2 0 0 0 2-2v-3a2 2 0 0 0-2-2m-3 5v-3h3v3zM18 19h-3a2 2 0 0 0-2 2v3a2 2 0 0 0 2 2h3a2 2 0 0 0 2-2v-3a2 2 0 0 0-2-2m-3 5v-3h3v3zM27 19h-3a2 2 0 0 0-2 2v3a2 2 0 0 0 2 2h3a2 2 0 0 0 2-2v-3a2 2 0 0 0-2-2m-3 5v-3h3v3zM36 19h-3a2 2 0 0 0-2 2v3a2 2 0 0 0 2 2h3a2 2 0 0 0 2-2v-3a2 2 0 0 0-2-2m-3 5v-3h3v3zM9 29H6a2 2 0 0 0-2 2v3a2 2 0 0 0 2 2h3a2 2 0 0 0 2-2v-3a2 2 0 0 0-2-2m-3 5v-3h3v3zM18 29h-3a2 2 0 0 0-2 2v3a2 2 0 0 0 2 2h3a2 2 0 0 0 2-2v-3a2 2 0 0 0-2-2m-3 5v-3h3v3zM27 29h-3a2 2 0 0 0-2 2v3a2 2 0 0 0 2 2h3a2 2 0 0 0 2-2v-3a2 2 0 0 0-2-2m-3 5v-3h3v3zM36 29h-3a2 2 0 0 0-2 2v3a2 2 0 0 0 2 2h3a2 2 0 0 0 2-2v-3a2 2 0 0 0-2-2m-3 5v-3h3v3zM9 39H6a2 2 0 0 0-2 2v3a2 2 0 0 0 2 2h3a2 2 0 0 0 2-2v-3a2 2 0 0 0-2-2m-3 5v-3h3v3zM18 39h-3a2 2 0 0 0-2 2v3a2 2 0 0 0 2 2h3a2 2 0 0 0 2-2v-3a2 2 0 0 0-2-2m-3 5v-3h3v3zM27 39h-3a2 2 0 0 0-2 2v3a2 2 0 0 0 2 2h3a2 2 0 0 0 2-2v-3a2 2 0 0 0-2-2m-3 5v-3h3v3zM36 39h-3a2 2 0 0 0-2 2v14a2 2 0 0 0 2 2h3a2 2 0 0 0 2-2V41a2 2 0 0 0-2-2m-3 16V41h3v14zM9 49H6a2 2 0 0 0-2 2v3a2 2 0 0 0 2 2h3a2 2 0 0 0 2-2v-3a2 2 0 0 0-2-2m-3 5v-3h3v3zM18 49h-3a2 2 0 0 0-2 2v3a2 2 0 0 0 2 2h3a2 2 0 0 0 2-2v-3a2 2 0 0 0-2-2m-3 5v-3h3v3zM27 49h-3a2 2 0 0 0-2 2v3a2 2 0 0 0 2 2h3a2 2 0 0 0 2-2v-3a2 2 0 0 0-2-2m-3 5v-3h3v3z"/><path d="M25 8a1 1 0 0 0-1 1v1a1 1 0 0 0 2 0V9a1 1 0 0 0-1-1"/><path d="M24 12v1a1 1 0 0 0 2 0v-1a1 1 0 0 0-2 0M29 8a1 1 0 0 0-1 1v1a1 1 0 0 0 2 0V9a1 1 0 0 0-1-1"/><path d="M28 12v1a1 1 0 0 0 2 0v-1a1 1 0 0 0-2 0M33 8a1 1 0 0 0-1 1v1a1 1 0 0 0 2 0V9a1 1 0 0 0-1-1"/><path d="M32 12v1a1 1 0 0 0 2 0v-1a1 1 0 0 0-2 0"/><path d="M52.5 35H51V21.724A1.99 1.99 0 0 0 52 20v-3.842A2.68 2.68 0 0 1 54 19a1 1 0 0 0 2 0 4.686 4.686 0 0 0-4-4.9 2.01 2.01 0 0 0-1-1.826 8.46 8.46 0 0 1 3.986-6.567A3.184 3.184 0 0 0 54.091.1a2.86 2.86 0 0 0-2.353.388 14.41 14.41 0 0 0-6.73 11.785A1.99 1.99 0 0 0 44 14v6a1.99 1.99 0 0 0 1 1.722V35h-3V5a5.006 5.006 0 0 0-5-5H5a5.006 5.006 0 0 0-5 5v50a5.006 5.006 0 0 0 5 5h32a5.006 5.006 0 0 0 5-5V41h3v11.5a7.5 7.5 0 0 0 15 0v-10a7.51 7.51 0 0 0-7.5-7.5M51 41h1.5a1.5 1.5 0 0 1 1.5 1.5v10a1.5 1.5 0 0 1-3 0zm-5-27h4v6h-4zm6.856-11.85a.867.867 0 0 1 1.287.392l.085.179c.216.48.058 1.047-.376 1.345A10.46 10.46 0 0 0 49.014 12h-2a12.49 12.49 0 0 1 5.842-9.85M40 55a3 3 0 0 1-3 3H5a3 3 0 0 1-3-3V5a3 3 0 0 1 3-3h32a3 3 0 0 1 3 3zm2-16v-2h3v2zm16 13.5a5.5 5.5 0 0 1-11 0V22h2v30.5a3.5 3.5 0 0 0 7 0v-10a3.5 3.5 0 0 0-3.5-3.5H51v-2h1.5a5.506 5.506 0 0 1 5.5 5.5z"/></svg>