<svg xmlns="http://www.w3.org/2000/svg" width="1.5rem" height="1.5rem" viewBox="0 0 512 512"><path d="M412.052 200.215c-6.895 8.42-37.394 36.022-40.155 71.215 0 22.142 18.014 40.155 40.155 40.155s40.155-18.014 40.155-40.155c-2.802-35.271-33.205-62.716-40.155-71.215m0 96.401c-13.887 0-25.185-11.299-25.185-25.186 0-15.318 15.138-36.845 25.189-48.956 10.053 12.097 25.182 33.601 25.182 48.956 0 13.887-11.299 25.186-25.186 25.186M32.671 246.49l10.584 10.586c31.262-31.26 82.126-31.26 113.387 0l10.584-10.586c-37.096-37.096-97.46-37.096-134.555 0"/><path d="M53.334 267.154 63.92 277.74c19.865-19.867 52.191-19.867 72.057 0l10.586-10.586c-25.704-25.703-67.526-25.703-93.229 0"/><path d="m73.999 287.819 10.586 10.586c8.475-8.478 22.263-8.481 30.735-.007l10.586-10.586c-14.309-14.308-37.593-14.307-51.907.007"/><path d="M416.647 157.778a188.74 188.74 0 0 0-61.027-61.876C353.489 42.659 309.517 0 255.761 0c-53.958 0-98.059 42.98-99.882 96.501-24.551 15.583-45.357 36.858-60.372 61.752C42.448 160.586 0 204.475 0 258.098c0 55.112 44.836 99.948 99.948 99.948s99.948-44.836 99.948-99.948c0-50.766-38.044-92.812-87.12-99.128a174.3 174.3 0 0 1 44.013-45.085c6.802 48.538 48.589 86.011 98.972 86.011 50.582 0 92.503-37.771 99.053-86.589a173.9 173.9 0 0 1 44.52 45.166c-49.129 6.267-87.23 48.339-87.23 99.143 0 55.112 44.836 99.948 99.948 99.948S512 312.728 512 257.616c0-53.571-42.366-97.428-95.353-99.838m-231.72 100.32c0 46.857-38.122 84.979-84.979 84.979s-84.979-38.122-84.979-84.979 38.122-84.979 84.979-84.979 84.979 38.121 84.979 84.979m70.834-73.171c-46.857 0-84.979-38.122-84.979-84.979s38.122-84.979 84.979-84.979 84.979 38.122 84.979 84.979-38.122 84.979-84.979 84.979m156.291 157.668c-46.857 0-84.979-38.122-84.979-84.979s38.122-84.979 84.979-84.979 84.979 38.122 84.979 84.979-38.122 84.979-84.979 84.979"/><path d="M255.761 30.389c-28.469 0-51.629 23.16-51.629 51.629 0 17.506 8.766 32.995 22.13 42.336v39.447H286v-39.974c12.946-9.39 21.389-24.627 21.389-41.808.001-28.469-23.16-51.63-51.628-51.63m15.27 118.443h-29.8v-17.28a51.5 51.5 0 0 0 14.53 2.095c5.314 0 10.442-.808 15.27-2.306zm-15.27-30.154c-20.214 0-36.66-16.446-36.66-36.66s16.446-36.66 36.66-36.66 36.66 16.446 36.66 36.66-16.446 36.66-36.66 36.66M353.848 436.446v-37.088l31.943.055-129.62-129.458-129.535 129.382 32.258.003L158.88 512h195.139v-60.227H339.05v45.258h-52.954v-75.477H225.78v75.477h-51.928l.012-97.689 16.324.002 65.757-65.481 65.899 65.44 17.035.029v37.114zm-113.099.077h30.378v60.508h-30.378zm87.275-52.18-72.095-71.592-71.922 71.623-21.204-.003 93.369-93.259 93.386 93.269z"/></svg>