<svg id="Capa_1" enable-background="new 0 0 512 512" height="512" viewBox="0 0 512 512" width="512" xmlns="http://www.w3.org/2000/svg"><g><g><path d="m412.052 200.215c-6.895 8.42-37.394 36.022-40.155 71.215 0 22.142 18.014 40.155 40.155 40.155 22.142 0 40.155-18.014 40.155-40.155-2.802-35.271-33.205-62.716-40.155-71.215zm0 96.401c-13.887 0-25.185-11.299-25.185-25.186 0-15.318 15.138-36.845 25.189-48.956 10.053 12.097 25.182 33.601 25.182 48.956 0 13.887-11.299 25.186-25.186 25.186z"/><path d="m32.671 246.49 10.584 10.586c31.262-31.26 82.126-31.26 113.387 0l10.584-10.586c-37.096-37.096-97.46-37.096-134.555 0z"/><path d="m53.334 267.154 10.586 10.586c19.865-19.867 52.191-19.867 72.057 0l10.586-10.586c-25.704-25.703-67.526-25.703-93.229 0z"/><path d="m73.999 287.819 10.586 10.586c8.475-8.478 22.263-8.481 30.735-.007l10.586-10.586c-14.309-14.308-37.593-14.307-51.907.007z"/><path d="m416.647 157.778c-15.211-25.05-36.189-46.32-61.027-61.876-2.131-53.243-46.103-95.902-99.859-95.902-53.958 0-98.059 42.98-99.882 96.501-24.551 15.583-45.357 36.858-60.372 61.752-53.059 2.333-95.507 46.222-95.507 99.845 0 55.112 44.836 99.948 99.948 99.948s99.948-44.836 99.948-99.948c0-50.766-38.044-92.812-87.12-99.128 11.776-17.543 26.755-32.888 44.013-45.085 6.802 48.538 48.589 86.011 98.972 86.011 50.582 0 92.503-37.771 99.053-86.589 17.463 12.182 32.596 27.526 44.52 45.166-49.129 6.267-87.23 48.339-87.23 99.143 0 55.112 44.836 99.948 99.948 99.948s99.948-44.836 99.948-99.948c0-53.571-42.366-97.428-95.353-99.838zm-231.72 100.32c0 46.857-38.122 84.979-84.979 84.979s-84.979-38.122-84.979-84.979 38.122-84.979 84.979-84.979 84.979 38.121 84.979 84.979zm70.834-73.171c-46.857 0-84.979-38.122-84.979-84.979s38.122-84.979 84.979-84.979 84.979 38.122 84.979 84.979-38.122 84.979-84.979 84.979zm156.291 157.668c-46.857 0-84.979-38.122-84.979-84.979s38.122-84.979 84.979-84.979 84.979 38.122 84.979 84.979-38.122 84.979-84.979 84.979z"/><path d="m255.761 30.389c-28.469 0-51.629 23.16-51.629 51.629 0 17.506 8.766 32.995 22.13 42.336v39.447h59.738v-39.974c12.946-9.39 21.389-24.627 21.389-41.808.001-28.469-23.16-51.63-51.628-51.63zm15.27 118.443h-29.8v-17.28c4.612 1.355 9.485 2.095 14.53 2.095 5.314 0 10.442-.808 15.27-2.306zm-15.27-30.154c-20.214 0-36.66-16.446-36.66-36.66s16.446-36.66 36.66-36.66 36.66 16.446 36.66 36.66-16.446 36.66-36.66 36.66z"/></g><path d="m353.848 436.446v-37.088l31.943.055-129.62-129.458-129.535 129.382 32.258.003-.014 112.66h195.139v-60.227h-14.969v45.258h-52.954v-75.477h-60.316v75.477h-51.928l.012-97.689 16.324.002 65.757-65.481 65.899 65.44 17.035.029v37.114zm-113.099.077h30.378v60.508h-30.378zm87.275-52.18-72.095-71.592-71.922 71.623-21.204-.003 93.369-93.259 93.386 93.269z"/></g></svg>