<svg xmlns="http://www.w3.org/2000/svg" width="1.5rem" height="1.5rem" viewBox="0 0 512.022 512.023"><path d="M497.855 425.911 271.013 199.066l-.002-44.833c11.146-2.7 21.374-8.414 29.69-16.73 11.937-11.938 18.511-27.809 18.511-44.69 0-34.847-28.351-63.197-63.199-63.197-34.85 0-63.201 28.351-63.201 63.197 0 8.284 6.716 15 15 15s15-6.716 15-15c0-18.305 14.894-33.197 33.201-33.197 18.306 0 33.199 14.893 33.199 33.197 0 8.869-3.453 17.207-9.725 23.478-6.271 6.271-14.605 9.724-23.473 9.724h-.004a15 15 0 0 0-15 15l.002 58.053L14.171 425.91C-3.085 443.161-.903 457.224 1.933 464.072c2.835 6.849 11.236 18.336 35.639 18.336h436.881c24.399 0 32.801-11.487 35.637-18.335 2.836-6.847 5.017-20.91-12.235-38.162m-376.87 26.497L256.01 317.383l135.028 135.025zm353.467 0h-40.986L266.617 285.563c-5.857-5.857-15.355-5.857-21.213 0L78.56 452.408H37.571c-2.693 0-4.735-.235-6.204-.525.833-1.244 2.111-2.854 4.016-4.759l220.63-220.632 220.63 220.632c1.903 1.904 3.182 3.515 4.014 4.758-1.469.291-3.511.526-6.205.526"/></svg>