<svg xmlns="http://www.w3.org/2000/svg" width="1.5rem" height="1.5rem" viewBox="0 0 60 61"><path d="M14.02 9a1 1 0 1 0 0-2 1 1 0 0 0 0 2M22.02 9a1 1 0 1 0 0-2 1 1 0 0 0 0 2M30.02 9a1 1 0 1 0 0-2 1 1 0 0 0 0 2"/><path d="M54.061 30.091A17.07 17.07 0 0 0 44 26.051V9a5.006 5.006 0 0 0-5-5h-4.278A1.99 1.99 0 0 0 33 3h-3.212C28.029-.947 15.971-.947 14.212 3H11a1.99 1.99 0 0 0-1.722 1H5a5.006 5.006 0 0 0-5 5v46a5.006 5.006 0 0 0 5 5c37.143 0 34.349.095 35.394-.221a16.987 16.987 0 0 0 13.667-29.688M11 13h22a2 2 0 0 0 2-2v-1h3v16.753a17.3 17.3 0 0 0-5.88 3.179 1 1 0 0 0-.063.078 17 17 0 0 0-2 1.99H24a1 1 0 0 0 0 2h4.6q-.607.964-1.078 2H24a1 1 0 0 0 0 2h2.753a17 17 0 0 0-.472 2H22a1 1 0 0 0 0 2h4.051a16.77 16.77 0 0 0 4.011 12H6V10h3v1a2 2 0 0 0 2 2m40.964 18-8.953 10.45-8.8-10.576A14.88 14.88 0 0 1 51.964 31m-19.3 1.152 9.023 10.838-9.176 10.71a14.945 14.945 0 0 1 .157-21.547zm20.821.143a14.94 14.94 0 0 1 4.46 9.7H45.174zM42 9v17.051q-1.007.056-2 .23V9a1 1 0 0 0-1-1h-4V6h4a3 3 0 0 1 3 3M15 5a1 1 0 0 0 1-1c0-.7 2.278-2 6-2s6 1.3 6 2a1 1 0 0 0 1 1h4v6H11V5zM5 58a3 3 0 0 1-3-3V9a3 3 0 0 1 3-3h4v2H5a1 1 0 0 0-1 1v46a1 1 0 0 0 1 1h27.068c.91.768 1.899 1.438 2.949 2zm29.036-3 8.225-9.6 1.4 12.568c-3.457.17-6.864-.88-9.625-2.968m11.612 2.752L44.118 44h13.831a15.006 15.006 0 0 1-12.301 13.751z"/><path d="m9.17 22.827 4.511 4.51a1 1 0 0 0 1.414 0l4.509-4.51A4.006 4.006 0 0 0 16.777 16a3.95 3.95 0 0 0-2.39.79A3.95 3.95 0 0 0 12 16a4.007 4.007 0 0 0-2.83 6.827m1.42-4.246a2 2 0 0 1 2.821.006l.27.27a1 1 0 0 0 1.414 0l.276-.276a2.037 2.037 0 0 1 2.819.006 2 2 0 0 1 0 2.826l-3.8 3.8-3.8-3.8a2 2 0 0 1 0-2.832M24 19h9a1 1 0 0 0 0-2h-9a1 1 0 0 0 0 2M24 23h9a1 1 0 0 0 0-2h-9a1 1 0 0 0 0 2M22 27h11a1 1 0 0 0 0-2H22a1 1 0 0 0 0 2M16.777 31a3.95 3.95 0 0 0-2.39.79A3.95 3.95 0 0 0 12 31a4.007 4.007 0 0 0-2.83 6.827l4.511 4.51a1 1 0 0 0 1.414 0l4.509-4.51A4.006 4.006 0 0 0 16.777 31m1.413 5.413-3.8 3.8-3.8-3.8A2 2 0 0 1 12 33a1.96 1.96 0 0 1 1.413.587l.27.27a1 1 0 0 0 1.414 0l.276-.276a2.037 2.037 0 0 1 2.819.006 2 2 0 0 1-.002 2.826"/></svg>