<svg height="512" viewBox="0 0 60 61" width="512" xmlns="http://www.w3.org/2000/svg"><g id="034---Health-Report"><path id="Shape" d="m14.02 9c.5522847 0 1-.44771525 1-1s-.4477153-1-1-1-1 .44771525-1 1 .4477153 1 1 1z"/><path id="Shape" d="m22.02 9c.5522847 0 1-.44771525 1-1s-.4477153-1-1-1-1 .44771525-1 1 .4477153 1 1 1z"/><path id="Shape" d="m30.02 9c.5522847 0 1-.44771525 1-1s-.4477153-1-1-1-1 .44771525-1 1 .4477153 1 1 1z"/><path id="Shape" d="m54.061 30.091c-2.8255734-2.4041434-6.3574335-3.8223637-10.061-4.04v-17.051c-.0033061-2.76005315-2.2399468-4.99669388-5-5h-4.278c-.3544126-.61675126-1.0106732-.997855-1.722-1h-3.212c-1.759-3.947-13.817-3.947-15.576 0h-3.212c-.7113268.002145-1.36758742.38324874-1.722 1h-4.278c-2.76005315.00330612-4.99669388 2.23994685-5 5v46c.00330612 2.7600532 2.23994685 4.9966939 5 5 37.143 0 34.349.095 35.394-.221 7.5042934 1.1713981 14.8742635-2.7810665 18.0503449-9.6802766s1.3863582-15.0683794-4.3833449-20.0077234zm-43.061-17.091h22c1.1045695 0 2-.8954305 2-2v-1h3v16.753c-2.1477564.6679784-4.1449125 1.7477334-5.88 3.179-.0226102.0246572-.0436516.0507083-.063.078-.7202827.6071769-1.3892204 1.2727698-2 1.99h-6.057c-.5522847 0-1 .4477153-1 1s.4477153 1 1 1h4.6c-.4037043.6417805-.7638481 1.3099508-1.078 2h-3.522c-.5522847 0-1 .4477153-1 1s.4477153 1 1 1h2.753c-.1979557.6564218-.3555833 1.324335-.472 2h-4.281c-.5522847 0-1 .4477153-1 1s.4477153 1 1 1h4.051c-.2811239 4.3702792 1.1584483 8.6771518 4.011 12h-24.062v-44h3v1c0 1.1045695.8954305 2 2 2zm40.964 18-8.953 10.45-8.8-10.576c5.2977575-3.8781398 12.5108228-3.8269458 17.753.126zm-19.3 1.152 9.023 10.838-9.176 10.71c-2.9103808-2.8390304-4.5384658-6.7412724-4.5088418-10.8069252.0296239-4.0656528 1.7143996-7.943756 4.6658418-10.7400748zm20.821.143c2.6303224 2.5738715 4.2184177 6.0278006 4.46 9.7h-12.771zm-11.485-23.295v17.051c-.6706543.0367441-1.3385122.1135478-2 .23v-17.281c0-.55228475-.4477153-1-1-1h-4v-2h4c1.6568542 0 3 1.34314575 3 3zm-27-4c.5522847 0 1-.44771525 1-1 0-.7 2.278-2 6-2s6 1.3 6 2c0 .55228475.4477153 1 1 1h4v6h-22v-6zm-10 53c-1.65685425 0-3-1.3431458-3-3v-46c0-1.65685425 1.34314575-3 3-3h4v2h-4c-.55228475 0-1 .44771525-1 1v46c0 .5522847.44771525 1 1 1h27.068c.9104617.7678183 1.8988559 1.4381433 2.949 2zm29.036-3 8.225-9.6 1.4 12.568c-3.4571899.1705864-6.8642661-.880032-9.625-2.968zm11.612 2.752-1.53-13.752h13.831c-.465325 6.8606948-5.5343182 12.5272036-12.301 13.751z"/><path id="Shape" d="m9.17 22.827 4.511 4.51c.3904999.3903819 1.0235001.3903819 1.414 0l4.509-4.51c1.1366887-1.1460439 1.4745191-2.8623361.8569668-4.3536801s-2.0698325-2.4663674-3.6839668-2.4733199c-.8615473-.0046413-1.7009393.2728147-2.39.79-.6883101-.516432-1.5265012-.7938392-2.387-.79-1.6142107.0067101-3.06677326.9813695-3.68491373 2.4725514-.61814047 1.491182-.28114054 3.2076696.85491373 4.3544486zm1.42-4.246c.7818412-.7744532 2.0424603-.771772 2.821.006l.27.27c.3904999.3903819 1.0235001.3903819 1.414 0l.276-.276c.7895392-.7535188 2.0326756-.7508729 2.819.006.7794319.7807702.7794319 2.0452298 0 2.826l-3.8 3.8-3.8-3.8c-.3761668-.3752171-.5875751-.884691-.5875751-1.416s.2114083-1.0407829.5875751-1.416z"/><path id="Shape" d="m24 19h9c.5522847 0 1-.4477153 1-1s-.4477153-1-1-1h-9c-.5522847 0-1 .4477153-1 1s.4477153 1 1 1z"/><path id="Shape" d="m24 23h9c.5522847 0 1-.4477153 1-1s-.4477153-1-1-1h-9c-.5522847 0-1 .4477153-1 1s.4477153 1 1 1z"/><path id="Shape" d="m22 27h11c.5522847 0 1-.4477153 1-1s-.4477153-1-1-1h-11c-.5522847 0-1 .4477153-1 1s.4477153 1 1 1z"/><path id="Shape" d="m16.777 31c-.8615473-.0046413-1.7009393.2728147-2.39.79-.6883101-.516432-1.5265012-.7938392-2.387-.79-1.6142107.0067101-3.06677326.9813695-3.68491373 2.4725514-.61814047 1.491182-.28114054 3.2076696.85491373 4.3544486l4.511 4.51c.3904999.3903819 1.0235001.3903819 1.414 0l4.509-4.51c1.1366887-1.1460439 1.4745191-2.8623361.8569668-4.3536801s-2.0698325-2.4663674-3.6839668-2.4733199zm1.413 5.413-3.8 3.8-3.8-3.8c-.5705922-.571566-.74142311-1.4302207-.4330501-2.1766584.308373-.7464377 1.035425-1.2341534 1.8430501-1.2363416.5310084-.003506 1.0407836.208269 1.413.587l.27.27c.3904999.3903819 1.0235001.3903819 1.414 0l.276-.276c.7895392-.7535188 2.0326756-.7508729 2.819.006.7788796.7813217.7779847 2.0457816-.002 2.826z"/></g></svg>