<svg xmlns="http://www.w3.org/2000/svg" width="1.5rem" height="1.5rem" viewBox="0 0 60 60"><path d="M14.02 9a1 1 0 1 0 0-2 1 1 0 0 0 0 2M22.02 9a1 1 0 1 0 0-2 1 1 0 0 0 0 2M30.02 9a1 1 0 1 0 0-2 1 1 0 0 0 0 2M9.171 22.827l4.51 4.51a1 1 0 0 0 1.414 0l4.509-4.51A4.006 4.006 0 0 0 16.777 16a3.95 3.95 0 0 0-2.39.79 4 4 0 0 0-5.216 6.037m1.421-4.246a1.994 1.994 0 0 1 2.819.006c.3.3.5.563.977.563a1 1 0 0 0 .708-.294l.274-.275a2.04 2.04 0 0 1 2.82.006 2 2 0 0 1 0 2.826l-3.8 3.8-3.8-3.8a2 2 0 0 1 .002-2.832M16.777 31a3.95 3.95 0 0 0-2.39.79 4 4 0 0 0-5.213 6.037l4.51 4.51a1 1 0 0 0 1.414 0l4.509-4.51A4.006 4.006 0 0 0 16.777 31m1.413 5.413-3.8 3.8-3.8-3.8a2 2 0 0 1 2.826-2.826c.3.3.5.563.977.563a1 1 0 0 0 .708-.294l.274-.275a2.04 2.04 0 0 1 2.82.006 2 2 0 0 1-.005 2.826"/><path d="M56 15H44V9a5.006 5.006 0 0 0-5-5h-4.278A1.99 1.99 0 0 0 33 3h-3.212C28.028-.947 15.972-.947 14.212 3H11a1.99 1.99 0 0 0-1.722 1H5a5.006 5.006 0 0 0-5 5v46a5.006 5.006 0 0 0 5 5h51a4 4 0 0 0 4-4V19a4 4 0 0 0-4-4m2 4v10H32V19a2 2 0 0 1 2-2h22a2 2 0 0 1 2 2m0 14H32v-2h26zM11 13h22a2 2 0 0 0 2-2v-1h3v5h-4a3.99 3.99 0 0 0-3.444 2H24a1 1 0 0 0 0 2h6v2h-6a1 1 0 0 0 0 2h6v2h-8a1 1 0 0 0 0 2h8v5h-6a1 1 0 0 0 0 2h6v2h-6a1 1 0 0 0 0 2h6v2h-8a1 1 0 0 0 0 2h8v12H6V10h3v1a2 2 0 0 0 2 2m31-4v6h-2V9a1 1 0 0 0-1-1h-4V6h4a3 3 0 0 1 3 3M15 5a1 1 0 0 0 1-1c0-.7 2.278-2 6-2s6 1.3 6 2a1 1 0 0 0 1 1h4v6H11V5zM2 55V9a3 3 0 0 1 3-3h4v2H5a1 1 0 0 0-1 1v46a1 1 0 0 0 1 1h25c.004.704.196 1.395.556 2H5a3 3 0 0 1-3-3m54 3H34a2 2 0 0 1-2-2V35h26v21a2 2 0 0 1-2 2"/><path d="M34 21v4a2 2 0 0 0 2 2h18a2 2 0 0 0 2-2v-4a2 2 0 0 0-2-2H36a2 2 0 0 0-2 2m20 4H36v-4h18zM38 37h-2a2 2 0 0 0-2 2v2a2 2 0 0 0 2 2h2a2 2 0 0 0 2-2v-2a2 2 0 0 0-2-2m-2 4v-2h2v2zM46 37h-2a2 2 0 0 0-2 2v2a2 2 0 0 0 2 2h2a2 2 0 0 0 2-2v-2a2 2 0 0 0-2-2m-2 4v-2h2v2zM54 37h-2a2 2 0 0 0-2 2v2a2 2 0 0 0 2 2h2a2 2 0 0 0 2-2v-2a2 2 0 0 0-2-2m-2 4v-2h2v2zM38 44h-2a2 2 0 0 0-2 2v2a2 2 0 0 0 2 2h2a2 2 0 0 0 2-2v-2a2 2 0 0 0-2-2m-2 4v-2h2v2zM46 44h-2a2 2 0 0 0-2 2v2a2 2 0 0 0 2 2h2a2 2 0 0 0 2-2v-2a2 2 0 0 0-2-2m-2 4v-2h2v2zM54 44h-2a2 2 0 0 0-2 2v9a2 2 0 0 0 2 2h2a2 2 0 0 0 2-2v-9a2 2 0 0 0-2-2m-2 11v-9h2v9zM38 51h-2a2 2 0 0 0-2 2v2a2 2 0 0 0 2 2h2a2 2 0 0 0 2-2v-2a2 2 0 0 0-2-2m-2 4v-2h2v2zM46 51h-2a2 2 0 0 0-2 2v2a2 2 0 0 0 2 2h2a2 2 0 0 0 2-2v-2a2 2 0 0 0-2-2m-2 4v-2h2v2z"/></svg>