<svg height="512" viewBox="0 0 60 60" width="512" xmlns="http://www.w3.org/2000/svg"><g id="036---Health-Budget"><path id="Shape" d="m14.02 9c.5522847 0 1-.44771525 1-1s-.4477153-1-1-1-1 .44771525-1 1 .4477153 1 1 1z"/><path id="Shape" d="m22.02 9c.5522847 0 1-.44771525 1-1s-.4477153-1-1-1-1 .44771525-1 1 .4477153 1 1 1z"/><path id="Shape" d="m30.02 9c.5522847 0 1-.44771525 1-1s-.4477153-1-1-1-1 .44771525-1 1 .4477153 1 1 1z"/><path id="Shape" d="m9.171 22.827 4.51 4.51c.3904999.3903819 1.0235001.3903819 1.414 0l4.509-4.51c1.1366887-1.1460439 1.4745191-2.8623361.8569668-4.3536801s-2.0698325-2.4663674-3.6839668-2.4733199c-.861524-.0044943-1.7008704.2729466-2.39.79-1.681703-1.2488767-4.0420774-.9888255-5.41155761.5962114-1.36948026 1.5850368-1.28418334 3.9581609.19555761 5.4407886zm1.421-4.246c.7802526-.7764231 2.0420595-.7737374 2.819.006.3.3.5.563.977.563.2656851-.0000563.5204263-.1058387.708-.294l.274-.275c.7900805-.7531308 2.0331314-.750486 2.82.006.7794319.7807702.7794319 2.0452298 0 2.826l-3.8 3.8-3.8-3.8c-.3759019-.3754826-.5869506-.8851059-.5865753-1.416415.0003752-.531309.2121434-1.0406337.5885753-1.415585z"/><path id="Shape" d="m16.777 31c-.861524-.0044943-1.7008704.2729466-2.39.79-.6884817-.5161037-1.5265594-.7934734-2.387-.79-1.6167805.0015568-3.07364529.9762597-3.69201776 2.4701128-.61837248 1.4938531-.27664315 3.2130744.86601776 4.3568872l4.51 4.51c.3904999.3903819 1.0235001.3903819 1.414 0l4.509-4.51c1.1370646-1.1464324 1.4746987-2.8634448.8563801-4.3550564-.6183186-1.4916117-2.0717005-2.4661933-3.6863801-2.4719436zm1.413 5.413-3.8 3.8-3.8-3.8c-.7262072-.7890197-.70090294-2.0103747.0573612-2.7686388.7582641-.7582641 1.9796191-.7835684 2.7686388-.0573612.3.3.5.563.977.563.2656851-.0000563.5204263-.1058387.708-.294l.274-.275c.7900805-.7531308 2.0331314-.750486 2.82.006.7780522.7821485.775815 2.0466096-.005 2.826z"/><path id="Shape" d="m56 15h-12v-6c-.0033061-2.76005315-2.2399468-4.99669388-5-5h-4.278c-.3544126-.61675126-1.0106732-.997855-1.722-1h-3.212c-1.76-3.947-13.816-3.947-15.576 0h-3.212c-.7113268.002145-1.36758742.38324874-1.722 1h-4.278c-2.76005315.00330612-4.99669388 2.23994685-5 5v46c.00330612 2.7600532 2.23994685 4.9966939 5 5h51c2.209139 0 4-1.790861 4-4v-37c0-2.209139-1.790861-4-4-4zm2 4v10h-26v-10c0-1.1045695.8954305-2 2-2h22c1.1045695 0 2 .8954305 2 2zm0 14h-26v-2h26zm-47-20h22c1.1045695 0 2-.8954305 2-2v-1h3v5h-4c-1.4225979.0044956-2.7350239.7666478-3.444 2h-6.556c-.5522847 0-1 .4477153-1 1s.4477153 1 1 1h6v2h-6c-.5522847 0-1 .4477153-1 1s.4477153 1 1 1h6v2h-8c-.5522847 0-1 .4477153-1 1s.4477153 1 1 1h8v5h-6c-.5522847 0-1 .4477153-1 1s.4477153 1 1 1h6v2h-6c-.5522847 0-1 .4477153-1 1s.4477153 1 1 1h6v2h-8c-.5522847 0-1 .4477153-1 1s.4477153 1 1 1h8v12h-24v-44h3v1c0 1.1045695.8954305 2 2 2zm31-4v6h-2v-6c0-.55228475-.4477153-1-1-1h-4v-2h4c1.6568542 0 3 1.34314575 3 3zm-27-4c.5522847 0 1-.44771525 1-1 0-.7 2.278-2 6-2s6 1.3 6 2c0 .55228475.4477153 1 1 1h4v6h-22v-6zm-13 50v-46c0-1.65685425 1.34314575-3 3-3h4v2h-4c-.55228475 0-1 .44771525-1 1v46c0 .5522847.44771525 1 1 1h25c.0041446.7042532.1960759 1.3946535.556 2h-25.556c-.79564947 0-1.55871121-.3160705-2.12132034-.8786797-.56260914-.5626091-.87867966-1.3256708-.87867966-2.1213203zm54 3h-22c-1.1045695 0-2-.8954305-2-2v-21h26v21c0 1.1045695-.8954305 2-2 2z"/><path id="Shape" d="m34 21v4c0 1.1045695.8954305 2 2 2h18c1.1045695 0 2-.8954305 2-2v-4c0-1.1045695-.8954305-2-2-2h-18c-1.1045695 0-2 .8954305-2 2zm20 4h-18v-4h18z"/><path id="Shape" d="m38 37h-2c-1.1045695 0-2 .8954305-2 2v2c0 1.1045695.8954305 2 2 2h2c1.1045695 0 2-.8954305 2-2v-2c0-1.1045695-.8954305-2-2-2zm-2 4v-2h2v2z"/><path id="Shape" d="m46 37h-2c-1.1045695 0-2 .8954305-2 2v2c0 1.1045695.8954305 2 2 2h2c1.1045695 0 2-.8954305 2-2v-2c0-1.1045695-.8954305-2-2-2zm-2 4v-2h2v2z"/><path id="Shape" d="m54 37h-2c-1.1045695 0-2 .8954305-2 2v2c0 1.1045695.8954305 2 2 2h2c1.1045695 0 2-.8954305 2-2v-2c0-1.1045695-.8954305-2-2-2zm-2 4v-2h2v2z"/><path id="Shape" d="m38 44h-2c-1.1045695 0-2 .8954305-2 2v2c0 1.1045695.8954305 2 2 2h2c1.1045695 0 2-.8954305 2-2v-2c0-1.1045695-.8954305-2-2-2zm-2 4v-2h2v2z"/><path id="Shape" d="m46 44h-2c-1.1045695 0-2 .8954305-2 2v2c0 1.1045695.8954305 2 2 2h2c1.1045695 0 2-.8954305 2-2v-2c0-1.1045695-.8954305-2-2-2zm-2 4v-2h2v2z"/><path id="Shape" d="m54 44h-2c-1.1045695 0-2 .8954305-2 2v9c0 1.1045695.8954305 2 2 2h2c1.1045695 0 2-.8954305 2-2v-9c0-1.1045695-.8954305-2-2-2zm-2 11v-9h2v9z"/><path id="Shape" d="m38 51h-2c-1.1045695 0-2 .8954305-2 2v2c0 1.1045695.8954305 2 2 2h2c1.1045695 0 2-.8954305 2-2v-2c0-1.1045695-.8954305-2-2-2zm-2 4v-2h2v2z"/><path id="Shape" d="m46 51h-2c-1.1045695 0-2 .8954305-2 2v2c0 1.1045695.8954305 2 2 2h2c1.1045695 0 2-.8954305 2-2v-2c0-1.1045695-.8954305-2-2-2zm-2 4v-2h2v2z"/></g></svg>