<svg xmlns="http://www.w3.org/2000/svg" width="1.5rem" height="1.5rem" viewBox="0 0 64 64"><path d="M60.771 31.679 38.94 9.236c-1.888-1.95-4.218-2.939-6.925-2.939-2.727 0-5.066.989-6.953 2.938L3.227 31.682a1 1 0 1 0 1.434 1.394l2.884-2.965v17.891c0 5.35 4.34 9.701 9.674 9.701h29.564c5.334 0 9.675-4.352 9.675-9.701V30.111l2.881 2.962a1 1 0 1 0 1.432-1.394m-22.16 24.024H25.418V42.305a3.057 3.057 0 0 1 3.053-3.055h7.059c1.699 0 3.082 1.37 3.082 3.055v13.398zm15.846-7.701c0 4.246-3.443 7.701-7.675 7.701h-6.171V42.305c0-2.787-2.28-5.055-5.082-5.055H28.47a5.06 5.06 0 0 0-5.053 5.055v13.398h-6.2c-4.231 0-7.674-3.455-7.674-7.701V28.056l16.953-17.429c1.498-1.546 3.354-2.33 5.518-2.33 2.175 0 3.97.763 5.49 2.332l16.952 17.427z"/></svg>