<svg id="Line" height="1.5rem" viewBox="0 0 64 64" width="1.5rem" xmlns="http://www.w3.org/2000/svg"><path d="m60.771 31.679-21.831-22.443c-1.888-1.95-4.218-2.939-6.925-2.939-2.727 0-5.066.989-6.953 2.938l-21.835 22.447c-.385.396-.376 1.029.02 1.414.194.189.446.283.697.283.26 0 .521-.102.717-.303l2.884-2.965v17.891c0 5.35 4.34 9.701 9.674 9.701h29.564c5.334 0 9.675-4.352 9.675-9.701v-17.891l2.881 2.962c.386.396 1.019.404 1.414.02.395-.385.404-1.019.018-1.414zm-22.16 24.024h-13.193v-13.398c0-1.685 1.37-3.055 3.053-3.055h7.059c1.699 0 3.082 1.37 3.082 3.055v13.398zm15.846-7.701c0 4.246-3.443 7.701-7.675 7.701h-6.171v-13.398c0-2.787-2.28-5.055-5.082-5.055h-7.059c-2.786 0-5.053 2.268-5.053 5.055v13.398h-6.2c-4.231 0-7.674-3.455-7.674-7.701v-19.946l16.953-17.429c1.498-1.546 3.354-2.33 5.518-2.33 2.175 0 3.97.763 5.49 2.332l16.952 17.427v19.946z"/></svg>