<svg xmlns="http://www.w3.org/2000/svg" width="52.593" height="55.634" viewBox="0 0 52.593 55.634">
  <g id="Group_44" data-name="Group 44" transform="translate(-342.27 -229.717)">
    <path id="Path_72" data-name="Path 72" d="M359.093,250.6l-8.1,4.26,1.548-9.023-6.556-6.39,9.06-1.316,4.052-8.21,4.052,8.21,9.06,1.316-6.556,6.39,1.548,9.023Z" transform="translate(12.227 0)" fill="none" stroke="rgba(0,0,0,0.85)" stroke-linecap="round" stroke-linejoin="round" stroke-width="0.4"/>
    <path id="Path_73" data-name="Path 73" d="M388.352,241.577a6.3,6.3,0,0,0-8.426-2.839l-8.55,4.243-.262-.4a4.985,4.985,0,0,0-4.084-2.263l-5.42-.107a1.1,1.1,0,0,1-.532-.18,11.031,11.031,0,0,0-6.841-2.512h-.077a11.457,11.457,0,0,0-9.886,6.369.3.3,0,0,0,.125.408.32.32,0,0,0,.228.026.308.308,0,0,0,.185-.159,10.863,10.863,0,0,1,9.353-6.038h.073a10.436,10.436,0,0,1,6.425,2.358,1.476,1.476,0,0,0,.919.335l5.428.112a4.384,4.384,0,0,1,4.221,3.539l.129.649h-.137l-12.566-.253a.3.3,0,0,0-.009.61l12.965.258a.3.3,0,0,0,.313-.3,4.757,4.757,0,0,0-.193-1.46l-.129-.438.086-.039,8.49-4.217a5.559,5.559,0,0,1,4.329-.292,5.651,5.651,0,0,1,2.817,2.1l.348.49-.107.06-15.245,8.4a5.217,5.217,0,0,1-2.289.563l-18.861-.271a.3.3,0,0,0-.309.3.29.29,0,0,0,.086.219.279.279,0,0,0,.21.09l18.866.271h.116a5.218,5.218,0,0,0,2.474-.648l15.593-8.593A.285.285,0,0,0,388.352,241.577Z" transform="translate(6.482 25.045)" fill="rgba(0,0,0,0.85)"/>
    <path id="Path_74" data-name="Path 74" d="M358.1,250.213a1.71,1.71,0,0,0-.507-1.2L348,239.584a1.763,1.763,0,0,0-1.138-.412,1.692,1.692,0,0,0-1.207.485l-3.3,3.358a.292.292,0,0,0-.086.215.3.3,0,0,0,.086.21.322.322,0,0,0,.429,0l3.3-3.354a1.108,1.108,0,0,1,.782-.318,1.122,1.122,0,0,1,.769.3l9.529,9.379a1.1,1.1,0,0,1,0,1.555l-3.294,3.354a.286.286,0,0,0-.09.21.3.3,0,0,0,.09.215.292.292,0,0,0,.215.082h0a.312.312,0,0,0,.223-.094l3.294-3.345A1.705,1.705,0,0,0,358.1,250.213Z" transform="translate(0 30.491)" fill="rgba(0,0,0,0.85)"/>
    <path id="Path_75" data-name="Path 75" d="M343.275,241.458a.68.68,0,0,0,.958-.966.683.683,0,0,0-.962.009A.674.674,0,0,0,343.275,241.458Z" transform="translate(2.645 34.2)" fill="rgba(0,0,0,0.85)"/>
  </g>
</svg>
