<svg xmlns="http://www.w3.org/2000/svg" width="52.593" height="55.634"><g data-name="Group 44"><path fill="none" stroke="rgba(0,0,0,0.85)" stroke-linecap="round" stroke-linejoin="round" stroke-width=".4" d="m29.05 20.883-8.1 4.26 1.548-9.023-6.556-6.39 9.06-1.316 4.052-8.21 4.052 8.21 9.06 1.316-6.556 6.39 1.548 9.023Z" data-name="Path 72"/><path fill="rgba(0,0,0,0.85)" d="M52.564 36.905a6.3 6.3 0 0 0-8.426-2.839l-8.55 4.243-.262-.4a4.99 4.99 0 0 0-4.084-2.263l-5.42-.107a1.1 1.1 0 0 1-.532-.18 11.03 11.03 0 0 0-6.841-2.512h-.077a11.46 11.46 0 0 0-9.886 6.369.3.3 0 0 0 .125.408.32.32 0 0 0 .228.026.3.3 0 0 0 .185-.159 10.86 10.86 0 0 1 9.353-6.038h.073a10.44 10.44 0 0 1 6.425 2.358 1.48 1.48 0 0 0 .919.335l5.428.112a4.384 4.384 0 0 1 4.221 3.539l.129.649h-.137l-12.566-.253a.305.305 0 0 0-.009.61l12.965.258a.3.3 0 0 0 .313-.3 4.8 4.8 0 0 0-.193-1.46l-.129-.438.086-.039 8.49-4.217a5.56 5.56 0 0 1 4.329-.292 5.65 5.65 0 0 1 2.817 2.1l.348.49-.107.06-15.245 8.4a5.2 5.2 0 0 1-2.289.563l-18.861-.271a.3.3 0 0 0-.309.3.3.3 0 0 0 .086.219.28.28 0 0 0 .21.09l18.866.271h.116a5.2 5.2 0 0 0 2.474-.648l15.593-8.593a.285.285 0 0 0 .144-.391" data-name="Path 73"/><path fill="rgba(0,0,0,0.85)" d="M15.83 50.987a1.7 1.7 0 0 0-.507-1.2L5.73 40.358a1.76 1.76 0 0 0-1.138-.412 1.7 1.7 0 0 0-1.207.485l-3.3 3.358a.3.3 0 0 0-.086.215.3.3 0 0 0 .086.21.32.32 0 0 0 .429 0l3.3-3.354a1.1 1.1 0 0 1 .782-.318 1.12 1.12 0 0 1 .769.3l9.529 9.379a1.1 1.1 0 0 1 0 1.555L11.6 55.13a.29.29 0 0 0-.09.21.3.3 0 0 0 .09.215.3.3 0 0 0 .215.082.31.31 0 0 0 .223-.094l3.294-3.345a1.7 1.7 0 0 0 .498-1.211" data-name="Path 74"/><path fill="rgba(0,0,0,0.85)" d="M3.65 45.941a.68.68 0 0 0 .958-.966.683.683 0 0 0-.962.009.674.674 0 0 0 .004.957" data-name="Path 75"/></g></svg>