<svg xmlns="http://www.w3.org/2000/svg" width="1.5rem" height="1.5rem" viewBox="0 0 512 512"><path d="M424.699 64.267H367.4V15c0-8.284-6.716-15-15-15H159.6c-8.284 0-15 6.716-15 15v49.267H87.301c-30.42 0-55.168 24.748-55.168 55.167V497c0 8.284 6.716 15 15 15h417.734c8.284 0 15-6.716 15-15V119.434c0-30.42-24.748-55.167-55.168-55.167M174.6 30h162.8v49.15c0 .039-.006.077-.006.116s.005.077.006.116V192.8H174.6zm64.267 452v-66.4h34.266V482zm211 0H303.133v-81.4c0-8.284-6.716-15-15-15h-64.266c-8.284 0-15 6.716-15 15V482H62.133V119.434c0-13.877 11.29-25.167 25.168-25.167H144.6V207.8c0 8.284 6.716 15 15 15h192.8c8.284 0 15-6.716 15-15V94.267h57.299c13.878 0 25.168 11.29 25.168 25.167z"/><path d="M288.133 64.267c-8.284 0-15 6.716-15 15V96.4h-34.266V79.267c0-8.284-6.716-15-15-15s-15 6.716-15 15v64.267c0 8.284 6.716 15 15 15s15-6.716 15-15V126.4h34.266v17.133c0 8.284 6.716 15 15 15s15-6.716 15-15V79.267c0-8.285-6.716-15-15-15M352.4 257.066h-64.268c-8.284 0-15 6.716-15 15v64.267c0 8.284 6.716 15 15 15H352.4c8.284 0 15-6.716 15-15v-64.267c0-8.284-6.715-15-15-15m-15 64.267h-34.268v-34.267H337.4zM223.867 257.066H159.6c-8.284 0-15 6.716-15 15v64.267c0 8.284 6.716 15 15 15h64.268c8.284 0 15-6.716 15-15v-64.267c-.001-8.284-6.717-15-15.001-15m-15 64.267H174.6v-34.267h34.268v34.267z"/></svg>