<svg id="Layer_1" enable-background="new 0 0 512 512" height="1.5rem" viewBox="0 0 512 512" width="1.5rem" xmlns="http://www.w3.org/2000/svg"><g><path d="m256 238.843c12.364 0 24.729-4.706 34.14-14.118 5.858-5.858 5.858-15.355 0-21.213-5.857-5.858-15.355-5.858-21.213 0-7.128 7.127-18.728 7.126-25.856-.001-5.858-5.857-15.356-5.857-21.213.001s-5.856 15.356.001 21.213c9.413 9.412 21.777 14.118 34.141 14.118z"/><path d="m328.788 276.354c24.309-20.66 39.761-51.44 39.761-85.767 0-22.84-6.735-44.621-19.51-63.326v-112.261c0-8.284-6.716-15-15-15h-156.074c-8.284 0-15 6.716-15 15v112.261c-12.777 18.704-19.514 40.485-19.514 63.327 0 34.326 15.453 65.107 39.761 85.767-40.688 10.871-70.746 48.044-70.746 92.112v128.533c0 8.284 6.716 15 15 15h257.066c8.284 0 15-6.716 15-15v-128.533c.001-44.068-30.056-81.241-70.744-92.113zm-114.02 26.78h82.467v178.866h-82.467zm-21.803-273.134h126.074v87.058h-126.074zm-19.514 160.588c0-15.583 4.265-30.492 12.397-43.53h140.305c8.13 13.04 12.395 27.949 12.395 43.53 0 45.516-37.031 82.546-82.549 82.546s-82.548-37.03-82.548-82.546zm-30.984 177.879c0-27.919 17.609-51.793 42.301-61.128v174.661h-42.301zm227.066 113.533h-42.299v-174.661c24.69 9.335 42.299 33.208 42.299 61.128z"/></g></svg>