<svg xmlns="http://www.w3.org/2000/svg" width="54.587" height="56.145"><g fill="none" stroke="rgba(0,0,0,0.85)" stroke-linecap="round" stroke-linejoin="round" stroke-width=".6" data-name="Group 41"><path d="M10.96 14.997h32.668v40.847H10.96z" data-name="Rectangle 24"/><path d="M21.964 42.516h10.66v13.329h-10.66z" data-name="Rectangle 25"/><path d="M.3 32.583h10.66v23.261H.3z" data-name="Rectangle 26"/><path d="M43.627 32.583h10.66v23.261h-10.66z" data-name="Rectangle 27"/><path d="M27.294 42.516v13.329" data-name="Line 33"/><g data-name="Group 40"><path d="m27.294 7.392-2.779 1.461.531-3.095-2.248-2.192 3.107-.451 1.39-2.816 1.39 2.816 3.107.451-2.248 2.192.531 3.095Z" data-name="Path 66"/><path d="m38.281 7.392-2.779 1.461.531-3.095-2.248-2.192 3.107-.451 1.39-2.816 1.39 2.816 3.107.451-2.248 2.192.531 3.095Z" data-name="Path 67"/><path d="m16.305 7.392-2.778 1.461.531-3.095-2.248-2.192 3.107-.451 1.39-2.816 1.39 2.816 3.107.451-2.248 2.192.531 3.095Z" data-name="Path 68"/></g></g></svg>