<svg id="Layer_1" enable-background="new 0 0 511.998 511.999" height="1.5rem" viewBox="0 0 511.998 511.999" width="1.5rem" xmlns="http://www.w3.org/2000/svg"><g><path d="m255.998 86.309c-74.714 0-135.498 60.786-135.498 135.501s60.784 135.5 135.498 135.5c74.715 0 135.5-60.785 135.5-135.5s-60.785-135.501-135.5-135.501zm0 241.001c-58.172 0-105.498-47.327-105.498-105.5s47.326-105.501 105.498-105.501c58.173 0 105.5 47.328 105.5 105.501s-47.327 105.5-105.5 105.5z"/><path d="m288.133 174.675c-8.284 0-15 6.716-15 15v17.134h-34.268v-17.134c0-8.284-6.716-15-15-15s-15 6.716-15 15v64.267c0 8.284 6.716 15 15 15s15-6.716 15-15v-17.133h34.268v17.133c0 8.284 6.716 15 15 15s15-6.716 15-15v-64.267c0-8.284-6.716-15-15-15z"/><path d="m412.843 64.966c-41.894-41.894-97.596-64.966-156.844-64.966-59.249 0-114.951 23.072-156.844 64.966-41.895 41.894-64.967 97.596-64.967 156.844s23.073 114.949 64.968 156.844l116.817 116.817c10.659 10.658 24.875 16.527 40.027 16.527 15.153 0 29.369-5.87 40.027-16.528l116.814-116.816c41.896-41.894 64.969-97.596 64.97-156.844 0-59.248-23.073-114.95-64.968-156.844zm-21.215 292.475-116.815 116.816c-4.992 4.992-11.674 7.741-18.814 7.741s-13.822-2.75-18.815-7.741l-116.816-116.816c-36.228-36.229-56.18-84.397-56.18-135.631 0-51.235 19.952-99.402 56.181-135.63 36.226-36.228 84.394-56.18 135.63-56.18 51.235 0 99.403 19.952 135.631 56.18 36.229 36.228 56.181 84.396 56.181 135.63-.001 51.235-19.954 99.403-56.183 135.631z"/></g></svg>