<svg xmlns="http://www.w3.org/2000/svg" width="1.5rem" height="1.5rem" viewBox="0 0 511.998 511.999"><path d="M255.998 86.309c-74.714 0-135.498 60.786-135.498 135.501s60.784 135.5 135.498 135.5c74.715 0 135.5-60.785 135.5-135.5s-60.785-135.501-135.5-135.501m0 241.001c-58.172 0-105.498-47.327-105.498-105.5s47.326-105.501 105.498-105.501 105.5 47.328 105.5 105.501-47.327 105.5-105.5 105.5"/><path d="M288.133 174.675c-8.284 0-15 6.716-15 15v17.134h-34.268v-17.134c0-8.284-6.716-15-15-15s-15 6.716-15 15v64.267c0 8.284 6.716 15 15 15s15-6.716 15-15v-17.133h34.268v17.133c0 8.284 6.716 15 15 15s15-6.716 15-15v-64.267c0-8.284-6.716-15-15-15"/><path d="M412.843 64.966C370.949 23.072 315.247 0 255.999 0 196.75 0 141.048 23.072 99.155 64.966 57.26 106.86 34.188 162.562 34.188 221.81s23.073 114.949 64.968 156.844l116.817 116.817c10.659 10.658 24.875 16.527 40.027 16.527s29.369-5.87 40.027-16.528l116.814-116.816c41.896-41.894 64.969-97.596 64.97-156.844 0-59.248-23.073-114.95-64.968-156.844m-21.215 292.475L274.813 474.257c-4.992 4.992-11.674 7.741-18.814 7.741s-13.822-2.75-18.815-7.741L120.368 357.441c-36.228-36.229-56.18-84.397-56.18-135.631 0-51.235 19.952-99.402 56.181-135.63C156.595 49.952 204.763 30 255.999 30s99.403 19.952 135.631 56.18c36.229 36.228 56.181 84.396 56.181 135.63-.001 51.235-19.954 99.403-56.183 135.631"/></svg>