<svg xmlns="http://www.w3.org/2000/svg" width="1.5rem" height="1.5rem" viewBox="0 0 512 512"><path d="M143.842 309.992h-21.809c-14.165 0-25.688 11.524-25.688 25.688v43.752c0 14.165 11.524 25.688 25.688 25.688h21.809c14.165 0 25.688-11.523 25.688-25.688V335.68c0-14.164-11.524-25.688-25.688-25.688m10.688 69.44c0 5.894-4.795 10.688-10.688 10.688h-21.809c-5.894 0-10.688-4.795-10.688-10.688V335.68c0-5.894 4.795-10.688 10.688-10.688h21.809c5.894 0 10.688 4.795 10.688 10.688zM169.53 205.051c0-14.165-11.524-25.688-25.688-25.688h-21.809c-14.165 0-25.688 11.524-25.688 25.688v43.752c0 14.165 11.524 25.688 25.688 25.688h21.809c14.165 0 25.688-11.523 25.688-25.688zm-15 43.753c0 5.894-4.795 10.688-10.688 10.688h-21.809c-5.894 0-10.688-4.794-10.688-10.688v-43.752c0-5.894 4.795-10.688 10.688-10.688h21.809c5.894 0 10.688 4.795 10.688 10.688zM245.095 179.363c-14.165 0-25.688 11.524-25.688 25.688v43.752c0 14.165 11.524 25.688 25.688 25.688h21.809c14.165 0 25.688-11.523 25.688-25.688v-43.752c0-14.165-11.524-25.688-25.688-25.688zm32.498 25.688v43.752c0 5.894-4.795 10.688-10.688 10.688h-21.809c-5.894 0-10.688-4.794-10.688-10.688v-43.752c0-5.894 4.795-10.688 10.688-10.688h21.809c5.893 0 10.688 4.795 10.688 10.688M389.967 309.992h-21.809c-14.165 0-25.688 11.524-25.688 25.688v43.752c0 14.165 11.524 25.688 25.688 25.688h21.809c14.165 0 25.688-11.523 25.688-25.688V335.68c.001-14.164-11.523-25.688-25.688-25.688m10.689 69.44c0 5.894-4.795 10.688-10.688 10.688h-21.809c-5.894 0-10.688-4.795-10.688-10.688V335.68c0-5.894 4.795-10.688 10.688-10.688h21.809c5.894 0 10.688 4.795 10.688 10.688zM415.656 205.051c0-14.165-11.524-25.688-25.688-25.688h-21.809c-14.165 0-25.688 11.524-25.688 25.688v43.752c0 14.165 11.524 25.688 25.688 25.688h21.809c14.165 0 25.688-11.523 25.688-25.688zm-15 43.753c0 5.894-4.795 10.688-10.688 10.688h-21.809c-5.894 0-10.688-4.794-10.688-10.688v-43.752c0-5.894 4.795-10.688 10.688-10.688h21.809c5.894 0 10.688 4.795 10.688 10.688zM388.108 89.317c-3.777.021-8.511.04-12.37.046V40a7.5 7.5 0 0 0-15 0v56.816a7.5 7.5 0 0 0 6.23 7.392c1.604.275 17.874.127 21.224.108a7.5 7.5 0 0 0 7.458-7.542c-.023-4.141-3.413-7.516-7.542-7.457M163.2 32.5a7.5 7.5 0 0 0-7.5 7.5v19.957h-24.351V40a7.5 7.5 0 0 0-15 0v56.864c0 4.143 3.358 7.5 7.5 7.5s7.5-3.357 7.5-7.5V74.958H155.7v21.907c0 4.143 3.358 7.5 7.5 7.5s7.5-3.357 7.5-7.5V40a7.5 7.5 0 0 0-7.5-7.5M341.465 48.02a7.5 7.5 0 0 0 0-15h-23.741a7.5 7.5 0 0 0-7.5 7.5v56.345a7.5 7.5 0 0 0 7.5 7.5h23.741a7.5 7.5 0 0 0 0-15h-16.241V76.192h14.491a7.5 7.5 0 0 0 0-15h-14.491V48.02zM291.663 32.5h-31.404a7.5 7.5 0 0 0 0 15h8.139v49.364c0 4.143 3.358 7.5 7.5 7.5s7.5-3.357 7.5-7.5V47.5h8.265a7.5 7.5 0 0 0 0-15M215.28 32.5c-19.813 0-35.932 16.119-35.932 35.933 0 19.813 16.119 35.932 35.932 35.932s35.932-16.119 35.932-35.932S235.093 32.5 215.28 32.5m0 56.865c-11.542 0-20.932-9.39-20.932-20.932S203.738 47.5 215.28 47.5s20.932 9.39 20.932 20.933-9.39 20.932-20.932 20.932"/><path d="M382.989 0H129.011c-26.468 0-48 21.533-48 48v82.816c-17.135 10.836-28.546 29.94-28.546 51.67v152.849a7.5 7.5 0 0 0 15 0V182.487c0-25.51 20.811-46.105 46.106-46.105H398.43c25.403 0 46.106 20.693 46.106 46.105v45.981a7.5 7.5 0 0 0 15 0v-45.981c0-21.73-11.411-40.834-28.546-51.67V48c-.001-26.467-21.534-48-48.001-48M113.57 121.381c-5.754 0-11.821.867-17.56 2.58V48c0-18.196 14.804-33 33-33h253.978c18.196 0 33 14.804 33 33v75.961c-5.78-1.725-11.831-2.58-17.56-2.58zM52.464 432.189c-15.633 4.744-27.046 19.286-27.046 36.448v18.865c0 13.508 10.99 24.497 24.498 24.497h412.168c13.508 0 24.498-10.99 24.498-24.497v-18.865c0-17.162-11.413-31.704-27.046-36.448V258.468a7.5 7.5 0 0 0-15 0v172.084H313.59v-88.021c0-17.942-14.597-32.54-32.54-32.54h-50.1c-17.943 0-32.54 14.598-32.54 32.54v88.021H67.464v-65.216a7.5 7.5 0 0 0-15 0zm419.117 36.448v18.865c0 5.237-4.261 9.497-9.498 9.497H49.916c-5.237 0-9.498-4.26-9.498-9.497v-18.865c0-11.821 8.932-21.589 20.4-22.924h.004a23 23 0 0 1 2.681-.161h384.994c.864 0 1.741.052 2.681.161h.007c11.466 1.337 20.396 11.105 20.396 22.924M213.41 342.532c0-9.672 7.869-17.54 17.54-17.54h50.101c9.671 0 17.54 7.868 17.54 17.54v88.021H213.41z"/></svg>