<svg id="Layer_2" height="1.5rem" viewBox="0 0 32 32" width="1.5rem" xmlns="http://www.w3.org/2000/svg" data-name="Layer 2"><path d="m9.39 4.83h-2a.25.25 0 0 0 -.25.25v2a.25.25 0 0 0 .25.25h2a.251.251 0 0 0 .25-.25v-2a.251.251 0 0 0 -.25-.25zm-.25 2h-1.5v-1.5h1.5z"/><path d="m9.39 7.83h-2a.25.25 0 0 0 -.25.25v2a.25.25 0 0 0 .25.25h2a.251.251 0 0 0 .25-.25v-2a.251.251 0 0 0 -.25-.25zm-.25 2h-1.5v-1.5h1.5z"/><path d="m12.39 7.83h-2a.25.25 0 0 0 -.25.25v2a.25.25 0 0 0 .25.25h2a.251.251 0 0 0 .25-.25v-2a.251.251 0 0 0 -.25-.25zm-.25 2h-1.5v-1.5h1.5z"/><path d="m12.39 4.83h-2a.25.25 0 0 0 -.25.25v2a.25.25 0 0 0 .25.25h2a.251.251 0 0 0 .25-.25v-2a.251.251 0 0 0 -.25-.25zm-.25 2h-1.5v-1.5h1.5z"/><path d="m9.39 10.83h-2a.25.25 0 0 0 -.25.25v2a.25.25 0 0 0 .25.25h2a.251.251 0 0 0 .25-.25v-2a.251.251 0 0 0 -.25-.25zm-.25 2h-1.5v-1.5h1.5z"/><path d="m9.39 13.83h-2a.25.25 0 0 0 -.25.25v2a.25.25 0 0 0 .25.25h2a.251.251 0 0 0 .25-.25v-2a.251.251 0 0 0 -.25-.25zm-.25 2h-1.5v-1.5h1.5z"/><path d="m12.39 13.83h-2a.25.25 0 0 0 -.25.25v2a.25.25 0 0 0 .25.25h2a.251.251 0 0 0 .25-.25v-2a.251.251 0 0 0 -.25-.25zm-.25 2h-1.5v-1.5h1.5z"/><path d="m12.39 10.83h-2a.25.25 0 0 0 -.25.25v2a.25.25 0 0 0 .25.25h2a.251.251 0 0 0 .25-.25v-2a.251.251 0 0 0 -.25-.25zm-.25 2h-1.5v-1.5h1.5z"/><path d="m30.007 18.713-3.037-3.037v-5.176a.251.251 0 0 0 -.25-.25h-2.75v-2.75a.251.251 0 0 0 -.25-.25h-3a.25.25 0 0 0 -.25.25v1.677l-2.57-2.577a.249.249 0 0 0 -.353 0l-1.827 1.827-1.58-1.58v-3.347a.251.251 0 0 0 -.25-.25h-8a.25.25 0 0 0 -.25.25v7.33h-4.75a.25.25 0 0 0 -.25.25v17.42a.25.25 0 0 0 .25.25h4.988s.007 0 .012 0h21.5a.251.251 0 0 0 .25-.25v-7.76h.75a.251.251 0 0 0 .25-.25v-1.017l.3.3a.249.249 0 0 0 .354 0l.71-.71a.25.25 0 0 0 0-.353zm-3.537-7.968v4.431l-2.5-2.5v-1.931zm-5.5-3h2.5v4.431l-2.5-2.5zm-5.427 1.212.674.674a.26.26 0 0 0 .036.046l7.224 7.213-.357.356-8.98-8.979v-.713zm6.1 11.283-7.188.01h-.315v-11.276l7.5 7.5zm-20.503-8.91h4.5v16.915h-4.5zm5-.25v-7.33h7.5v24.5h-7.5zm19.75 14.17h-10.5v-1.071h10.5zm-10.5.5h10.5v1.071h-10.5zm10.5-2.071h-10.5v-.929h10.5zm-10.5 4.571v-.929h10.5v.929zm11.75 0h-.75v-5.75a.251.251 0 0 0 -.25-.25h-11a.25.25 0 0 0 -.25.25v5.75h-.75v-7.5l13-.01zm1-9.276v1.266h-6v-3.266l.8.8a.249.249 0 0 0 .354 0l.71-.71a.25.25 0 0 0 0-.353l-7.226-7.216.942-.941zm.98.272-11.22-11.223a.25.25 0 0 0 -.353 0l-1.117 1.114-.357-.357 1.647-1.646 2.819 2.819v.009l3 3 3 3h.01l2.924 2.924z"/><path d="m3.39 11.83a1.75 1.75 0 1 0 1.75 1.75 1.752 1.752 0 0 0 -1.75-1.75zm0 3a1.25 1.25 0 1 1 1.25-1.25 1.25 1.25 0 0 1 -1.25 1.25z"/></svg>