<svg xmlns="http://www.w3.org/2000/svg" width="1.5rem" height="1.5rem" data-name="Layer 2" viewBox="0 0 32 32"><path d="M9.39 4.83h-2a.25.25 0 0 0-.25.25v2a.25.25 0 0 0 .25.25h2a.25.25 0 0 0 .25-.25v-2a.25.25 0 0 0-.25-.25m-.25 2h-1.5v-1.5h1.5zM9.39 7.83h-2a.25.25 0 0 0-.25.25v2a.25.25 0 0 0 .25.25h2a.25.25 0 0 0 .25-.25v-2a.25.25 0 0 0-.25-.25m-.25 2h-1.5v-1.5h1.5zM12.39 7.83h-2a.25.25 0 0 0-.25.25v2a.25.25 0 0 0 .25.25h2a.25.25 0 0 0 .25-.25v-2a.25.25 0 0 0-.25-.25m-.25 2h-1.5v-1.5h1.5zM12.39 4.83h-2a.25.25 0 0 0-.25.25v2a.25.25 0 0 0 .25.25h2a.25.25 0 0 0 .25-.25v-2a.25.25 0 0 0-.25-.25m-.25 2h-1.5v-1.5h1.5zM9.39 10.83h-2a.25.25 0 0 0-.25.25v2a.25.25 0 0 0 .25.25h2a.25.25 0 0 0 .25-.25v-2a.25.25 0 0 0-.25-.25m-.25 2h-1.5v-1.5h1.5zM9.39 13.83h-2a.25.25 0 0 0-.25.25v2a.25.25 0 0 0 .25.25h2a.25.25 0 0 0 .25-.25v-2a.25.25 0 0 0-.25-.25m-.25 2h-1.5v-1.5h1.5zM12.39 13.83h-2a.25.25 0 0 0-.25.25v2a.25.25 0 0 0 .25.25h2a.25.25 0 0 0 .25-.25v-2a.25.25 0 0 0-.25-.25m-.25 2h-1.5v-1.5h1.5zM12.39 10.83h-2a.25.25 0 0 0-.25.25v2a.25.25 0 0 0 .25.25h2a.25.25 0 0 0 .25-.25v-2a.25.25 0 0 0-.25-.25m-.25 2h-1.5v-1.5h1.5z"/><path d="m30.007 18.713-3.037-3.037V10.5a.25.25 0 0 0-.25-.25h-2.75V7.5a.25.25 0 0 0-.25-.25h-3a.25.25 0 0 0-.25.25v1.677L17.9 6.6a.25.25 0 0 0-.353 0L15.72 8.427l-1.58-1.58V3.5a.25.25 0 0 0-.25-.25h-8a.25.25 0 0 0-.25.25v7.33H.89a.25.25 0 0 0-.25.25V28.5a.25.25 0 0 0 .25.25h26.5a.25.25 0 0 0 .25-.25v-7.76h.75a.25.25 0 0 0 .25-.25v-1.017l.3.3a.25.25 0 0 0 .354 0l.71-.71a.25.25 0 0 0 0-.353zm-3.537-7.968v4.431l-2.5-2.5v-1.931zm-5.5-3h2.5v4.431l-2.5-2.5zm-5.427 1.212.674.674a.3.3 0 0 0 .036.046l7.224 7.213-.357.356-8.98-8.979v-.713zm6.1 11.283-7.188.01h-.315V8.974l7.5 7.5zM1.14 11.33h4.5v16.915h-4.5zm5-.25V3.75h7.5v24.5h-7.5zm19.75 14.17h-10.5v-1.071h10.5zm-10.5.5h10.5v1.071h-10.5zm10.5-2.071h-10.5v-.929h10.5zm-10.5 4.571v-.929h10.5v.929zm11.75 0h-.75V22.5a.25.25 0 0 0-.25-.25h-11a.25.25 0 0 0-.25.25v5.75h-.75v-7.5l13-.01zm1-9.276v1.266h-6v-3.266l.8.8a.25.25 0 0 0 .354 0l.71-.71a.25.25 0 0 0 0-.353l-7.226-7.216.942-.941zm.98.272L17.9 8.023a.25.25 0 0 0-.353 0L16.43 9.137l-.357-.357 1.647-1.646 2.819 2.819v.009l3 3 3 3h.01l2.924 2.924z"/><path d="M3.39 11.83a1.75 1.75 0 1 0 1.75 1.75 1.75 1.75 0 0 0-1.75-1.75m0 3a1.25 1.25 0 1 1 1.25-1.25 1.25 1.25 0 0 1-1.25 1.25"/></svg>