<svg id="Layer_1" enable-background="new 0 0 512 512" height="512" viewBox="0 0 512 512" width="512" xmlns="http://www.w3.org/2000/svg"><g><path d="m310.731 352.935c-4.143-7.176-13.315-9.634-20.49-5.49l-19.242 11.109v-22.219c0-8.284-6.716-15-15-15s-15 6.716-15 15v22.217l-19.24-11.108c-7.175-4.145-16.349-1.686-20.49 5.49-4.143 7.174-1.685 16.348 5.49 20.49l19.242 11.11-19.242 11.109c-7.175 4.142-9.633 13.316-5.49 20.49 2.778 4.813 7.82 7.503 13.004 7.503 2.545 0 5.124-.648 7.486-2.013l19.24-11.108v22.218c0 8.284 6.716 15 15 15s15-6.716 15-15v-22.22l19.242 11.11c2.362 1.364 4.941 2.013 7.486 2.013 5.184 0 10.226-2.69 13.004-7.503 4.143-7.174 1.685-16.348-5.49-20.49l-19.241-11.109 19.241-11.109c7.175-4.142 9.633-13.317 5.49-20.49z"/><path d="m368.47 94.27c3.94 0 7.811-1.6 10.6-4.399 2.79-2.79 4.4-6.66 4.4-10.601 0-3.95-1.61-7.819-4.4-10.609-2.789-2.79-6.659-4.391-10.6-4.391-3.95 0-7.82 1.601-10.61 4.391s-4.39 6.659-4.39 10.609 1.6 7.811 4.39 10.601c2.789 2.799 6.66 4.399 10.61 4.399z"/><path d="m143.53 94.27c3.949 0 7.819-1.6 10.609-4.399 2.79-2.79 4.391-6.66 4.391-10.601 0-3.95-1.601-7.819-4.391-10.609s-6.66-4.391-10.609-4.391c-3.95 0-7.811 1.601-10.601 4.391-2.8 2.79-4.399 6.659-4.399 10.609 0 3.94 1.6 7.811 4.399 10.601 2.791 2.799 6.651 4.399 10.601 4.399z"/><path d="m207.8 94.27c3.95 0 7.81-1.6 10.61-4.399 2.79-2.79 4.39-6.66 4.39-10.601 0-3.95-1.6-7.819-4.39-10.609-2.801-2.79-6.66-4.391-10.61-4.391s-7.82 1.601-10.61 4.391-4.39 6.659-4.39 10.609c0 3.94 1.6 7.811 4.39 10.601 2.8 2.799 6.66 4.399 10.61 4.399z"/><path d="m463.684 270.208-15.95-127.606v-87.435c-.001-30.419-24.748-55.167-55.167-55.167h-273.133c-30.419 0-55.166 24.748-55.166 55.167v87.434l-15.952 127.607c-.077.617-.116 1.238-.116 1.86v184.765c0 30.419 24.748 55.167 55.167 55.167h305.267c30.419 0 55.166-24.748 55.166-55.167v-184.765c0-.622-.039-1.243-.116-1.86zm-371.175-111.673h326.983l12.316 98.533h-351.616zm26.925-128.535h273.134c13.877 0 25.166 11.29 25.166 25.167v73.368h-323.466v-73.368c0-13.877 11.289-25.167 25.166-25.167zm289.2 452h-305.267c-13.877 0-25.167-11.29-25.167-25.167v-169.765h355.6v169.765c0 13.877-11.289 25.167-25.166 25.167z"/></g></svg>