<svg xmlns="http://www.w3.org/2000/svg" width="1.5rem" height="1.5rem" viewBox="0 0 512 512"><path d="M310.731 352.935c-4.143-7.176-13.315-9.634-20.49-5.49l-19.242 11.109v-22.219c0-8.284-6.716-15-15-15s-15 6.716-15 15v22.217l-19.24-11.108c-7.175-4.145-16.349-1.686-20.49 5.49-4.143 7.174-1.685 16.348 5.49 20.49l19.242 11.11-19.242 11.109c-7.175 4.142-9.633 13.316-5.49 20.49 2.778 4.813 7.82 7.503 13.004 7.503 2.545 0 5.124-.648 7.486-2.013l19.24-11.108v22.218c0 8.284 6.716 15 15 15s15-6.716 15-15v-22.22l19.242 11.11a14.93 14.93 0 0 0 7.486 2.013c5.184 0 10.226-2.69 13.004-7.503 4.143-7.174 1.685-16.348-5.49-20.49L286 384.534l19.241-11.109c7.175-4.142 9.633-13.317 5.49-20.49M368.47 94.27c3.94 0 7.811-1.6 10.6-4.399 2.79-2.79 4.4-6.66 4.4-10.601 0-3.95-1.61-7.819-4.4-10.609a15.1 15.1 0 0 0-10.6-4.391c-3.95 0-7.82 1.601-10.61 4.391s-4.39 6.659-4.39 10.609 1.6 7.811 4.39 10.601a15.08 15.08 0 0 0 10.61 4.399M143.53 94.27c3.949 0 7.819-1.6 10.609-4.399a15.1 15.1 0 0 0 4.391-10.601c0-3.95-1.601-7.819-4.391-10.609s-6.66-4.391-10.609-4.391c-3.95 0-7.811 1.601-10.601 4.391a15.08 15.08 0 0 0-4.399 10.609c0 3.94 1.6 7.811 4.399 10.601a15.06 15.06 0 0 0 10.601 4.399M207.8 94.27c3.95 0 7.81-1.6 10.61-4.399 2.79-2.79 4.39-6.66 4.39-10.601 0-3.95-1.6-7.819-4.39-10.609-2.801-2.79-6.66-4.391-10.61-4.391s-7.82 1.601-10.61 4.391-4.39 6.659-4.39 10.609c0 3.94 1.6 7.811 4.39 10.601a15.1 15.1 0 0 0 10.61 4.399"/><path d="m463.684 270.208-15.95-127.606V55.167C447.733 24.748 422.986 0 392.567 0H119.434C89.015 0 64.268 24.748 64.268 55.167v87.434L48.316 270.208a15 15 0 0 0-.116 1.86v184.765C48.2 487.252 72.948 512 103.367 512h305.267c30.419 0 55.166-24.748 55.166-55.167V272.068q0-.934-.116-1.86M92.509 158.535h326.983l12.316 98.533H80.192zM119.434 30h273.134c13.877 0 25.166 11.29 25.166 25.167v73.368H94.268V55.167C94.268 41.29 105.557 30 119.434 30m289.2 452H103.367C89.49 482 78.2 470.71 78.2 456.833V287.068h355.6v169.765c0 13.877-11.289 25.167-25.166 25.167"/></svg>