<svg height="512" viewBox="0 0 38 60" width="512" xmlns="http://www.w3.org/2000/svg"><g id="037---Employee-Access-Card"><path id="Shape" d="m19.02 13c.5522847 0 1-.4477153 1-1s-.4477153-1-1-1-1 .4477153-1 1 .4477153 1 1 1z"/><path id="Shape" d="m33 8h-8v-5c0-1.65685425-1.3431458-3-3-3h-6c-1.6568542 0-3 1.34314575-3 3v5h-8c-2.76005315.00330612-4.99669388 2.2399468-5 5v42c.00330612 2.7600532 2.23994685 4.9966939 5 5h28c2.7600532-.0033061 4.9966939-2.2399468 5-5v-42c-.0033061-2.7600532-2.2399468-4.99669388-5-5zm-18-1h8v5c0 2.209139-1.790861 4-4 4s-4-1.790861-4-4zm1-5h6c.5522847 0 1 .44771525 1 1v2h-8v-2c0-.55228475.4477153-1 1-1zm20 53c0 1.6568542-1.3431458 3-3 3h-28c-1.65685425 0-3-1.3431458-3-3v-42c0-1.6568542 1.34314575-3 3-3h8v2c0 3.3137085 2.6862915 6 6 6s6-2.6862915 6-6v-2h8c1.6568542 0 3 1.3431458 3 3z"/><path id="Shape" d="m11.505 40.112c.0888585.2314826.2596854.4222393.48.536.02.01.034.029.055.038s.056.019.082.03l.023.008c4.4482022 1.7127747 9.3762874 1.6992193 13.815-.038.022-.009.035-.028.056-.039.2191249-.1145214.3893046-.3045968.479-.535 1.2584773-3.7104284.1526262-7.8135307-2.8-10.389 1.9521229-2.4559783 1.6826206-6.0012189-.6183223-8.1338873-2.300943-2.1326685-5.8564124-2.1326685-8.1573554 0-2.3009429 2.1326684-2.5704452 5.677909-.6183223 8.1338873-2.1325915 1.8104263-3.3435197 4.4798976-3.301 7.277-.0145033 1.0588507.1564081 2.1120707.505 3.112zm1.776-1.1c-.6472494-2.2924706-.1899621-4.7556111 1.237-6.663.3640033-.4885002.7995631-.9193403 1.292-1.278 1.9465377 1.2366171 4.4324623 1.2366171 6.379 0 2.3673953 1.8947056 3.365026 5.026004 2.53 7.941-3.6990555 1.3156142-7.7384846 1.3163206-11.438.002zm5.719-17.012c2.209139 0 4 1.790861 4 4s-1.790861 4-4 4-4-1.790861-4-4 1.790861-4 4-4z"/><path id="Shape" d="m32 44h-26c-1.1045695 0-2 .8954305-2 2v3c0 1.1045695.8954305 2 2 2h26c1.1045695 0 2-.8954305 2-2v-3c0-1.1045695-.8954305-2-2-2zm-26 5v-3h26v3z"/><path id="Shape" d="m16 53h-5c-.5522847 0-1 .4477153-1 1s.4477153 1 1 1h5c.5522847 0 1-.4477153 1-1s-.4477153-1-1-1z"/><path id="Shape" d="m27 53h-5c-.5522847 0-1 .4477153-1 1s.4477153 1 1 1h5c.5522847 0 1-.4477153 1-1s-.4477153-1-1-1z"/></g></svg>