<svg xmlns="http://www.w3.org/2000/svg" width="1.5rem" height="1.5rem" viewBox="0 0 38 60"><path d="M19.02 13a1 1 0 1 0 0-2 1 1 0 0 0 0 2"/><path d="M33 8h-8V3a3 3 0 0 0-3-3h-6a3 3 0 0 0-3 3v5H5a5.006 5.006 0 0 0-5 5v42a5.006 5.006 0 0 0 5 5h28a5.006 5.006 0 0 0 5-5V13a5.006 5.006 0 0 0-5-5M15 7h8v5a4 4 0 1 1-8 0zm1-5h6a1 1 0 0 1 1 1v2h-8V3a1 1 0 0 1 1-1m20 53a3 3 0 0 1-3 3H5a3 3 0 0 1-3-3V13a3 3 0 0 1 3-3h8v2a6 6 0 1 0 12 0v-2h8a3 3 0 0 1 3 3z"/><path d="M11.505 40.112c.089.231.26.422.48.536.02.01.034.029.055.038s.056.019.082.03l.023.008a19.1 19.1 0 0 0 13.815-.038c.022-.009.035-.028.056-.039.22-.115.39-.305.479-.535a9.67 9.67 0 0 0-2.8-10.389 6 6 0 1 0-9.394 0A9.36 9.36 0 0 0 11 37a9.1 9.1 0 0 0 .505 3.112m1.776-1.1a7.65 7.65 0 0 1 1.237-6.663c.364-.489.8-.92 1.292-1.278a5.95 5.95 0 0 0 6.379 0 7.52 7.52 0 0 1 2.53 7.941 17.08 17.08 0 0 1-11.438.002zM19 22a4 4 0 1 1 0 8 4 4 0 0 1 0-8M32 44H6a2 2 0 0 0-2 2v3a2 2 0 0 0 2 2h26a2 2 0 0 0 2-2v-3a2 2 0 0 0-2-2M6 49v-3h26v3zM16 53h-5a1 1 0 0 0 0 2h5a1 1 0 0 0 0-2M27 53h-5a1 1 0 0 0 0 2h5a1 1 0 0 0 0-2"/></svg>