<svg id="Line" height="1.5rem" viewBox="0 0 64 64" width="1.5rem" xmlns="http://www.w3.org/2000/svg"><g><path d="m60.731 36.544-2.148-8.006v-8.345c0-2.972-1.664-5.562-4.109-6.889-.596-1.826-1.827-3.357-3.516-4.335-1.812-1.049-3.912-1.332-5.907-.797l-15.622 4.189h-16.18c-4.192 0-7.615 3.313-7.813 7.457-2.039 1.965-2.898 4.914-2.167 7.664l2.148 8.006v8.346c0 2.957 1.66 5.535 4.1 6.858.59 1.829 1.817 3.361 3.505 4.338 1.213.703 2.557 1.062 3.914 1.062.673 0 1.349-.088 2.014-.267l15.668-4.189h16.134c4.196 0 7.622-3.307 7.813-7.441 2.037-1.965 2.895-4.908 2.166-7.651zm-15.163-26.44c1.482-.396 3.039-.184 4.387.596.763.441 1.384 1.044 1.869 1.744-.352-.048-.708-.082-1.073-.082h-13.603zm-32.319 4.257h37.502c3.215 0 5.832 2.616 5.832 5.832v23.641c0 .044-.006.087-.007.13l-10.638-10.638c-.916-.934-2.146-1.448-3.463-1.448-1.317 0-2.547.514-3.456 1.44l-6.655 6.644-10.3-10.3c-.935-.936-2.222-1.452-3.49-1.441-1.302.006-2.52.52-3.422 1.44l-7.733 7.71v-17.178c-.002-3.215 2.615-5.832 5.83-5.832zm-8.048 12.605c-.32-1.206-.22-2.463.216-3.596v4.402zm2.216 16.868v-3.639l9.153-9.125c.533-.544 1.248-.845 2.012-.849h.014c.772 0 1.501.303 2.053.855l10.299 10.299-8.276 8.262h-9.423c-3.215 0-5.832-2.603-5.832-5.803zm11.016 10.061c-1.492.399-3.057.188-4.409-.594-.763-.442-1.383-1.046-1.865-1.749.357.05.719.085 1.09.085h13.628zm32.318-4.258h-25.249l14.936-14.91c.537-.547 1.26-.849 2.036-.849.776 0 1.499.301 2.042.855l11.526 11.526c-.925 1.991-2.946 3.378-5.291 3.378zm7.832-8.994v-4.389l.216.806c.319 1.201.22 2.453-.216 3.583z"/><path d="m33.091 30.037c2.599 0 4.714-2.127 4.714-4.742 0-2.599-2.115-4.713-4.714-4.713s-4.713 2.114-4.713 4.713c0 2.615 2.114 4.742 4.713 4.742zm0-7.455c1.497 0 2.714 1.217 2.714 2.713 0 1.512-1.217 2.742-2.714 2.742-1.496 0-2.713-1.23-2.713-2.742 0-1.496 1.217-2.713 2.713-2.713z"/></g></svg>