<svg xmlns="http://www.w3.org/2000/svg" width="1.5rem" height="1.5rem" viewBox="0 0 64 64"><path d="m60.731 36.544-2.148-8.006v-8.345a7.84 7.84 0 0 0-4.109-6.889 7.77 7.77 0 0 0-3.516-4.335 7.73 7.73 0 0 0-5.907-.797l-15.622 4.189h-16.18c-4.192 0-7.615 3.313-7.813 7.457-2.039 1.965-2.898 4.914-2.167 7.664l2.148 8.006v8.346c0 2.957 1.66 5.535 4.1 6.858a7.72 7.72 0 0 0 3.505 4.338 7.8 7.8 0 0 0 3.914 1.062c.673 0 1.349-.088 2.014-.267l15.668-4.189h16.134c4.196 0 7.622-3.307 7.813-7.441 2.037-1.965 2.895-4.908 2.166-7.651m-15.163-26.44a5.74 5.74 0 0 1 4.387.596 5.8 5.8 0 0 1 1.869 1.744 8 8 0 0 0-1.073-.082H37.148zm-32.319 4.257h37.502a5.84 5.84 0 0 1 5.832 5.832v23.641c0 .044-.006.087-.007.13L45.938 33.326a4.8 4.8 0 0 0-3.463-1.448 4.8 4.8 0 0 0-3.456 1.44l-6.655 6.644-10.3-10.3a4.93 4.93 0 0 0-3.49-1.441 4.8 4.8 0 0 0-3.422 1.44l-7.733 7.71V20.193a5.837 5.837 0 0 1 5.83-5.832M5.201 26.966a5.84 5.84 0 0 1 .216-3.596v4.402zm2.216 16.868v-3.639l9.153-9.125a2.82 2.82 0 0 1 2.012-.849h.014c.772 0 1.501.303 2.053.855l10.299 10.299-8.276 8.262h-9.423c-3.215 0-5.832-2.603-5.832-5.803m11.016 10.061a5.77 5.77 0 0 1-6.274-2.343c.357.05.719.085 1.09.085h13.628zm32.318-4.258H25.502l14.936-14.91a2.83 2.83 0 0 1 2.036-.849 2.83 2.83 0 0 1 2.042.855l11.526 11.526a5.84 5.84 0 0 1-5.291 3.378m7.832-8.994v-4.389l.216.806a5.8 5.8 0 0 1-.216 3.583"/><path d="M33.091 30.037c2.599 0 4.714-2.127 4.714-4.742 0-2.599-2.115-4.713-4.714-4.713s-4.713 2.114-4.713 4.713c0 2.615 2.114 4.742 4.713 4.742m0-7.455a2.716 2.716 0 0 1 2.714 2.713c0 1.512-1.217 2.742-2.714 2.742s-2.713-1.23-2.713-2.742a2.716 2.716 0 0 1 2.713-2.713"/></svg>