<svg xmlns="http://www.w3.org/2000/svg" width="1.5rem" height="1.5rem" viewBox="0 0 512 512"><path d="M437.019 74.981C388.667 26.629 324.379 0 256 0S123.333 26.629 74.98 74.981 0 187.62 0 256s26.628 132.668 74.98 181.02S187.62 512 256 512s132.667-26.628 181.019-74.98S512 324.38 512 256c0-68.379-26.629-132.667-74.981-181.019M256 482C131.383 482 30 380.617 30 256S131.383 30 256 30s226 101.383 226 226-101.383 226-226 226"/><path d="M303.133 339.847V256c0-25.989-21.144-47.133-47.133-47.133h-32.133c-25.99 0-47.135 21.144-47.135 47.133 0 20.749 13.475 38.409 32.135 44.688v39.159c-18.66 6.279-32.135 23.938-32.135 44.687 0 25.99 21.145 47.134 47.135 47.134h64.266c25.989 0 47.133-21.144 47.133-47.134 0-20.749-13.474-38.408-32.133-44.687m-15 61.82h-64.266c-9.448 0-17.135-7.686-17.135-17.134 0-9.447 7.687-17.133 17.135-17.133 8.284 0 15-6.716 15-15v-64.267c0-8.284-6.716-15-15-15-9.448 0-17.135-7.686-17.135-17.134 0-9.447 7.687-17.133 17.135-17.133H256c9.447 0 17.133 7.686 17.133 17.133v96.4c0 8.284 6.716 15 15 15 9.447 0 17.133 7.686 17.133 17.133 0 9.449-7.686 17.135-17.133 17.135M256 174.601c30.418 0 55.166-24.748 55.166-55.167 0-30.418-24.748-55.166-55.166-55.166s-55.166 24.748-55.166 55.166c0 30.419 24.748 55.167 55.166 55.167m0-80.333c13.876 0 25.166 11.29 25.166 25.166s-11.29 25.167-25.166 25.167-25.166-11.29-25.166-25.167S242.124 94.268 256 94.268"/></svg>