<svg id="Layer_1" enable-background="new 0 0 512 512" height="1.5rem" viewBox="0 0 512 512" width="1.5rem" xmlns="http://www.w3.org/2000/svg"><g><path d="m437.019 74.981c-48.352-48.352-112.64-74.981-181.019-74.981-68.38 0-132.667 26.629-181.02 74.981s-74.98 112.639-74.98 181.019 26.628 132.668 74.98 181.02 112.64 74.98 181.02 74.98 132.667-26.628 181.019-74.98 74.981-112.64 74.981-181.02c0-68.379-26.629-132.667-74.981-181.019zm-181.019 407.019c-124.617 0-226-101.383-226-226s101.383-226 226-226 226 101.383 226 226-101.383 226-226 226z"/><path d="m303.133 339.847v-83.847c0-25.989-21.144-47.133-47.133-47.133h-32.133c-25.99 0-47.135 21.144-47.135 47.133 0 20.749 13.475 38.409 32.135 44.688v39.159c-18.66 6.279-32.135 23.938-32.135 44.687 0 25.99 21.145 47.134 47.135 47.134h64.266c25.989 0 47.133-21.144 47.133-47.134 0-20.749-13.474-38.408-32.133-44.687zm-15 61.82h-64.266c-9.448 0-17.135-7.686-17.135-17.134 0-9.447 7.687-17.133 17.135-17.133 8.284 0 15-6.716 15-15v-64.267c0-8.284-6.716-15-15-15-9.448 0-17.135-7.686-17.135-17.134 0-9.447 7.687-17.133 17.135-17.133h32.133c9.447 0 17.133 7.686 17.133 17.133v96.4c0 8.284 6.716 15 15 15 9.447 0 17.133 7.686 17.133 17.133 0 9.449-7.686 17.135-17.133 17.135z"/><path d="m256 174.601c30.418 0 55.166-24.748 55.166-55.167 0-30.418-24.748-55.166-55.166-55.166s-55.166 24.748-55.166 55.166c0 30.419 24.748 55.167 55.166 55.167zm0-80.333c13.876 0 25.166 11.29 25.166 25.166 0 13.877-11.29 25.167-25.166 25.167s-25.166-11.29-25.166-25.167 11.29-25.166 25.166-25.166z"/></g></svg>