<svg xmlns="http://www.w3.org/2000/svg" width="1.5rem" height="1.5rem" viewBox="0 0 50 50"><path d="M16 13c-1.025 0-1.74.75-1.74 1.82 0 1.271.987 2.841 2.517 4.002C18.087 19.815 20.403 21 24 21c5.04 0 7.187-.825 8.754-1.426.869-.333 1.497-.574 2.4-.574 2.438 0 6.815 1.531 7.684 7h6.976c-.969-8.403-6.13-13-14.814-13zm12.832 11.02A2.8 2.8 0 0 0 26.137 26l10.717-.012a2.82 2.82 0 0 0-2.688-1.968zm-1.8 3.98q-.86.001-1.702.064c-.088.007-.176.022-.264.03q-.74.061-1.468.172-.07.012-.141.025C16.217 29.453 9.781 34.228 3.648 43h.008a78 78 0 0 0-3.433 5.354 1 1 0 0 0-.233.58A1 1 0 0 0 1.215 50H48c1.093 0 2-.907 2-2V29.168A1 1 0 0 0 49 28zM24 35a2 2 0 1 1-.001 4.001A2 2 0 0 1 24 35m7 0a2 2 0 1 1-.001 4.001A2 2 0 0 1 31 35m7 0a2 2 0 1 1-.001 4.001A2 2 0 0 1 38 35m10 8.975V48H2.777a75 75 0 0 1 2.612-4h42.486c.044 0 .082-.02.125-.025"/></svg>