<svg xmlns="http://www.w3.org/2000/svg" xml:space="preserve" width="1.5rem" height="1.5rem" viewBox="0 0 508 508"><path d="M493.9 85.1H300.2C158.5 85.1 0 201.4 0 357.1c0 7.8 6.3 14.1 14.1 14.1h479.8c7.8 0 14.1-6.3 14.1-14.1V99.2c0-7.8-6.3-14.1-14.1-14.1M479.8 343H28.7C38 210.6 176.2 113.3 300.2 113.3h179.6z"/><path d="M437.4 141.6H300.2c-70.8 0-147.6 36.3-195.6 92.6-3.6 4.2-4.4 10.1-2.1 15.1s7.3 8.2 12.8 8.2h322.1c7.8 0 14.1-6.3 14.1-14.1v-87.7c0-7.8-6.3-14.1-14.1-14.1m-14.1 87.7H390c0-7.8-6.3-14.1-14.1-14.1h-94.6c-7.8 0-14.1 6.3-14.1 14.1H149.1c42.1-36.8 98.5-59.5 151-59.5h123.2zM435.2 394.7H14.1C6.3 394.7 0 401 0 408.8s6.3 14.1 14.1 14.1h421.1c7.8 0 14.1-6.3 14.1-14.1s-6.3-14.1-14.1-14.1"/></svg>