<svg xmlns="http://www.w3.org/2000/svg" width="1.5rem" height="1.5rem" viewBox="0 0 60 61"><path d="M46.279 11.6a1 1 0 0 0-1.631-.317l-5.029 5.055h-2.89v-2.922l5.032-5.068a1 1 0 0 0-.322-1.626 9.14 9.14 0 0 0-12.2 11.385l-.591.6-4.419-4.447.016-.016a1 1 0 0 0-.093-1.494L17.688 7.7a1 1 0 0 0-1.325.082l-2.873 2.885a1 1 0 0 0-.082 1.317l5.028 6.5a1 1 0 0 0 1.508.085l4.415 4.438L14.187 33.23a4.08 4.08 0 0 0 0 5.74 4 4 0 0 0 5.725 0l8.73-8.769 9.272 9.31a5.04 5.04 0 0 0 7.157 0 5.1 5.1 0 0 0 0-7.178l-8.012-8.055a9.14 9.14 0 0 0 9.22-12.678m-25.625 4.85a1.02 1.02 0 0 0-1.329-.082l-3.8-4.908 1.628-1.636 4.882 3.816q-.048.073-.082.153a.67.67 0 0 0-.117.372c-.065.649-.062.469 5.391 5.96l-1.46 1.467zm-2.16 21.114a2.053 2.053 0 0 1-2.889-2.918c7.348-7.39-7.017 7.054 13.67-13.746.013-.01.019-.027.031-.038.228-.2-.548.574 1.8-1.8a1 1 0 0 0 .211-1.092 7.16 7.16 0 0 1 7.853-9.847L35.019 12.3a1 1 0 0 0-.29.705v4.329a1 1 0 0 0 1 1h4.306a1 1 0 0 0 .709-.295l4.142-4.163a7.138 7.138 0 0 1-9.786 7.887 1 1 0 0 0-1.1.215l-1.757 1.767c-2.136 2.145-4.419 4.43-4.314 4.325-.964.968 3.499-3.514-9.435 9.489zm25.159.541a3.12 3.12 0 0 1-4.321 0l-9.278-9.318 4.334-4.354 9.265 9.314a3.1 3.1 0 0 1 0 4.353z"/><path d="M53 0H7a7.01 7.01 0 0 0-7 7v34a7.01 7.01 0 0 0 7 7h10.038c0 1.781-.391 5.856-3.592 8.479a2 2 0 0 0 1.368 3.559C19.763 59.7 28.27 57.649 30.767 48H53a7.01 7.01 0 0 0 7-7V7a7.01 7.01 0 0 0-7-7m5 41a5.006 5.006 0 0 1-5 5c-24.3 0-23.006-.032-23.3.06a.96.96 0 0 0-.564.462c-.04.071-.117.269-.117.269-1.94 9.067-9.819 10.942-14.305 11.234 5-4.1 4.311-10.85 4.28-11.135a5 5 0 0 0-.1-.324 1.6 1.6 0 0 0-.225-.3C18.27 45.9 18.814 46 7 46a5.006 5.006 0 0 1-5-5V7a5.006 5.006 0 0 1 5-5h46a5.006 5.006 0 0 1 5 5z"/><path d="M7 4H6a1 1 0 1 0 0 2h1a1 1 0 1 0 0-2M17 5a1 1 0 0 0-1-1h-5a1 1 0 0 0 0 2h5a1 1 0 0 0 1-1M45 42h-1a1 1 0 0 0 0 2h1a1 1 0 0 0 0-2M54 42h-5a1 1 0 0 0 0 2h5a1 1 0 0 0 0-2"/></svg>