<svg xmlns="http://www.w3.org/2000/svg" xml:space="preserve" viewBox="0 0 64 64"><path d="M61.9 13.5c-.2-.3-.6-.5-.9-.5H48.2c-2.5-4.7-5.6-8-9.3-10.2-1.9-1.1-4.9-1.1-6.8-.1-4.4 2.4-7.5 5.4-9.9 10.2H11.8c-.3 0-.7.2-.9.5C.9 30.5.9 51.8.9 52c0 .1 0 .2.1.4.9 2.2 2.3 2.7 3.4 2.7 1.7 0 3.1-1.2 3.2-1.3.2-.2.3-.5.3-.7s.2-18.6 7.6-32h4C14 37.2 12 53.2 12 63c0 .5.5 1 1 1h44.9c.6 0 1-.4 1-1 0-7.9-1.3-21.2-4.5-33.5l7.5-15.1q.15-.45 0-.9M33.3 4.4c1.2-.6 3.2-.6 4.3 0 3.2 1.7 5.9 4.5 8.2 8.6H24.5c2.1-4.1 5-6.5 8.8-8.6M14 62c.1-10 2.2-25.9 7.8-41.7.1-.3.1-.6-.1-.9s-.5-.4-.8-.4h-6c-.4 0-.7.2-.9.5-7.3 12.9-8 29.8-8.1 33-.4.3-1 .6-1.6.6-.2 0-.9 0-1.4-1.3 0-2.1.5-21.2 9.6-36.8H47c6.8 13.4 9.8 34.5 10 47zm39.6-35.3c-1.2-4.1-2.7-8.1-4.4-11.7h10.2z"/><path d="M43.8 19.2c-.3-.5-.9-.6-1.4-.3s-.6.9-.3 1.4c.2.4.7 1.3.9 2.1.1.4.5.7.9.7.1 0 .2 0 .3-.1.5-.2.8-.7.6-1.3-.1-.9-.6-2-1-2.5M45.7 25c-.5.1-.8.7-.7 1.2 4.5 16.1 6 32.6 6 32.8 0 .5.5.9 1 .9h.1c.6 0 1-.5.9-1.1 0-.2-1.4-16.9-6-33.2-.2-.4-.7-.7-1.3-.6"/></svg>