<svg xmlns="http://www.w3.org/2000/svg" width="1.5rem" height="1.5rem" viewBox="0 0 512 512"><path d="M456.834 48.2H55.166C24.747 48.2 0 72.948 0 103.366v305.267C0 439.052 24.747 463.8 55.166 463.8h401.668c30.419 0 55.166-24.748 55.166-55.167V103.365c0-30.417-24.747-55.165-55.166-55.165m-401.668 30h401.668C470.711 78.2 482 89.49 482 103.366v9.1H30v-9.1C30 89.49 41.289 78.2 55.166 78.2M482 176.733H30v-34.268h452zM456.834 433.8H55.166C41.289 433.8 30 422.51 30 408.633v-201.9h452v201.899c0 13.878-11.289 25.168-25.166 25.168"/><path d="M384.533 257.065c-8.284 0-15 6.716-15 15v33.201h-34.268v-33.201c0-8.284-6.716-15-15-15s-15 6.716-15 15v33.201h-68.212c-6.753-27.63-31.706-48.201-61.388-48.201-34.849 0-63.199 28.352-63.199 63.201 0 34.848 28.351 63.199 63.199 63.199 29.681 0 54.635-20.57 61.388-48.199h147.479c8.284 0 15-6.716 15-15v-48.201c.001-8.284-6.715-15-14.999-15m-208.867 96.401c-18.306 0-33.199-14.893-33.199-33.199 0-18.307 14.894-33.201 33.199-33.201 18.308 0 33.201 14.894 33.201 33.201 0 18.306-14.893 33.199-33.201 33.199"/></svg>