<svg enable-background="new 0 0 512 512" height="512" viewBox="0 0 512 512" width="512" xmlns="http://www.w3.org/2000/svg"><g id="_x38_1_Features"><g><g><path d="m171.6 44.918-29.234-4.233c-1.519-.227-2.835-1.179-3.515-2.554l-13.071-26.54c-7.558-15.354-29.446-15.374-37.024-.031l-13.133 26.578c-.679 1.367-1.984 2.32-3.503 2.538l-29.25 4.241c-16.931 2.446-23.708 23.275-11.454 35.209l21.197 20.666c1.097 1.07 1.601 2.609 1.343 4.116l-4.999 29.101c-2.899 16.936 14.908 29.704 29.968 21.76l26.188-13.785c1.359-.711 2.972-.719 4.331 0l26.079 13.754c15.196 7.992 32.868-4.914 29.98-21.752l-4.991-29.078c-.258-1.507.242-3.046 1.343-4.116l21.193-20.666c12.263-11.931 5.482-32.762-11.448-35.208zm.285 23.759-21.193 20.658c-4.87 4.749-7.092 11.575-5.944 18.276h.004l4.987 29.078c.659 3.816-3.34 6.698-6.752 4.897l-26.079-13.754c-6.03-3.171-13.227-3.171-19.249 0l-26.184 13.785c-3.439 1.798-7.397-1.117-6.752-4.905l4.999-29.101c1.144-6.693-1.074-13.528-5.94-18.268l-21.201-20.666c-2.763-2.705-1.245-7.381 2.581-7.935l29.246-4.233c6.729-.976 12.543-5.194 15.554-11.286l13.133-26.579c1.708-3.45 6.627-3.447 8.338.008l13.071 26.547c3.007 6.1 8.822 10.333 15.566 11.309l29.242 4.233c3.832.557 5.331 5.242 2.573 7.936z"/><path d="m119.177 66.677-19.643 19.643-4.241-4.241c-3.124-3.124-8.185-3.124-11.309 0s-3.124 8.185 0 11.309l9.896 9.896c3.124 3.124 8.185 3.124 11.309 0l25.298-25.298c3.124-3.124 3.124-8.185 0-11.309-3.125-3.124-8.186-3.124-11.31 0z"/><path d="m228.897 34.718h249.943c4.417 0 7.998-3.577 7.998-7.998s-3.581-7.998-7.998-7.998h-249.943c-4.417 0-7.998 3.577-7.998 7.998s3.581 7.998 7.998 7.998z"/><path d="m478.839 71.122h-249.942c-4.417 0-7.998 3.577-7.998 7.998s3.581 7.998 7.998 7.998h249.943c4.417 0 7.998-3.577 7.998-7.998-.001-4.421-3.582-7.998-7.999-7.998z"/><path d="m228.897 139.517h177.826c4.417 0 7.998-3.577 7.998-7.998s-3.581-7.998-7.998-7.998h-177.826c-4.417 0-7.998 3.577-7.998 7.998s3.581 7.998 7.998 7.998z"/><path d="m171.6 221.791-29.234-4.233c-1.519-.227-2.835-1.179-3.515-2.554l-13.071-26.54c-7.553-15.358-29.448-15.37-37.025-.031l-13.133 26.579c-.679 1.367-1.984 2.32-3.503 2.538l-29.25 4.241c-16.93 2.446-23.707 23.275-11.453 35.209l21.197 20.666c1.097 1.07 1.601 2.609 1.343 4.116l-4.999 29.101c-2.904 16.963 14.934 29.69 29.968 21.76l26.188-13.785c1.359-.711 2.972-.719 4.331 0l26.079 13.754c15.196 7.992 32.868-4.914 29.98-21.752l-4.991-29.078c-.258-1.507.242-3.046 1.343-4.116l21.195-20.666c12.261-11.932 5.48-32.763-11.45-35.209zm.285 23.759-21.193 20.658c-4.87 4.749-7.092 11.575-5.944 18.276h.004l4.987 29.078c.656 3.8-3.318 6.699-6.752 4.897l-26.079-13.754c-6.03-3.171-13.227-3.171-19.249 0l-26.184 13.785c-3.427 1.792-7.399-1.091-6.752-4.905l4.999-29.101c1.144-6.693-1.074-13.528-5.94-18.268l-21.201-20.666c-2.763-2.705-1.245-7.381 2.581-7.935l29.246-4.233c6.729-.976 12.543-5.194 15.554-11.286l13.133-26.571c1.703-3.452 6.629-3.463 8.338 0l13.071 26.547c3.007 6.1 8.822 10.333 15.566 11.309l29.242 4.233c3.832.557 5.331 5.242 2.573 7.936z"/><path d="m119.177 243.558-19.639 19.643-4.241-4.249c-3.124-3.124-8.189-3.124-11.313 0-3.124 3.116-3.124 8.185-.004 11.309l9.896 9.904c3.112 3.112 8.178 3.135 11.313 0l25.298-25.298c3.124-3.124 3.124-8.185 0-11.309-3.125-3.124-8.186-3.124-11.31 0z"/><path d="m478.839 195.595h-249.942c-4.417 0-7.998 3.577-7.998 7.998s3.581 7.998 7.998 7.998h249.943c4.417 0 7.998-3.577 7.998-7.998s-3.582-7.998-7.999-7.998z"/><path d="m478.839 247.995h-249.942c-4.417 0-7.998 3.577-7.998 7.998s3.581 7.998 7.998 7.998h249.943c4.417 0 7.998-3.577 7.998-7.998s-3.582-7.998-7.999-7.998z"/><path d="m228.897 316.39h177.826c4.417 0 7.998-3.577 7.998-7.998s-3.581-7.998-7.998-7.998h-177.826c-4.417 0-7.998 3.577-7.998 7.998s3.581 7.998 7.998 7.998z"/><path d="m171.6 398.664-29.234-4.233c-1.523-.227-2.835-1.179-3.515-2.546l-13.071-26.547c-7.553-15.358-29.448-15.37-37.025-.031l-13.133 26.579c-.679 1.367-1.992 2.32-3.499 2.546l-29.254 4.233c-16.931 2.446-23.708 23.275-11.454 35.209l21.197 20.666c1.097 1.07 1.601 2.609 1.343 4.116l-4.999 29.101c-2.899 16.936 14.9 29.709 29.968 21.76l26.188-13.785c1.347-.719 2.968-.711 4.331.008l26.083 13.754c15.125 7.984 32.868-4.88 29.98-21.752l-4.991-29.086h-.004c-.258-1.507.242-3.046 1.343-4.116l21.193-20.666c12.264-11.933 5.483-32.764-11.447-35.21zm.285 23.759-21.193 20.658c-4.87 4.749-7.092 11.575-5.944 18.276l4.995 29.086c.652 3.829-3.376 6.691-6.756 4.897l-26.079-13.754c-6.033-3.187-13.231-3.179-19.249-.008l-26.184 13.785c-3.401 1.778-7.403-1.068-6.752-4.905l4.999-29.101c1.144-6.693-1.074-13.527-5.94-18.268l-21.201-20.666c-2.758-2.7-1.248-7.38 2.577-7.935l29.265-4.233c6.725-.976 12.532-5.202 15.539-11.286l13.133-26.571c1.703-3.452 6.629-3.463 8.338 0l13.075 26.555c3.007 6.1 8.822 10.325 15.562 11.302l29.242 4.233c3.832.556 5.331 5.241 2.573 7.935z"/><path d="m119.177 420.431-19.639 19.643-4.241-4.249c-3.124-3.124-8.189-3.124-11.313 0-3.124 3.116-3.124 8.185-.004 11.309l9.896 9.904c3.112 3.112 8.178 3.135 11.313 0l25.298-25.298c3.124-3.124 3.124-8.185 0-11.309-3.125-3.124-8.186-3.124-11.31 0z"/><path d="m478.839 372.468h-249.942c-4.417 0-7.998 3.577-7.998 7.998s3.581 7.998 7.998 7.998h249.943c4.417 0 7.998-3.577 7.998-7.998s-3.582-7.998-7.999-7.998z"/><path d="m478.839 424.868h-249.942c-4.417 0-7.998 3.577-7.998 7.998s3.581 7.998 7.998 7.998h249.943c4.417 0 7.998-3.577 7.998-7.998s-3.582-7.998-7.999-7.998z"/><path d="m406.723 477.267h-177.826c-4.417 0-7.998 3.577-7.998 7.998s3.581 7.998 7.998 7.998h177.826c4.417 0 7.998-3.577 7.998-7.998s-3.582-7.998-7.998-7.998z"/></g></g></g></svg>