<svg xmlns="http://www.w3.org/2000/svg" width="1.5rem" height="1.5rem" viewBox="0 0 64 64"><path d="M60 49h-5.142c-.447-1.721-1.999-3-3.858-3v-7.026A4.95 4.95 0 0 0 54 40c2.757 0 5-2.243 5-5a4.7 4.7 0 0 0-.096-.943A4.94 4.94 0 0 0 61 30a4.93 4.93 0 0 0-1.602-3.652A4.94 4.94 0 0 0 60 24a4.95 4.95 0 0 0-1.298-3.336A4.8 4.8 0 0 0 59 19a5.007 5.007 0 0 0-4.416-4.966C53.809 12.215 52.019 11 50 11s-3.809 1.215-4.584 3.034A5.007 5.007 0 0 0 41 19q0 .85.298 1.664a4.95 4.95 0 0 0-1.091 1.997C38.983 21.615 37.544 21 36 21c-1.904 0-3.652.922-5.027 2.455a5.87 5.87 0 0 0-1.68-3.576L26.414 17H31v-2.014a2.96 2.96 0 0 0-1.249-2.393 26.3 26.3 0 0 1-8.436-10.109C20.882 1.568 19.994 1 19 1s-1.882.568-2.315 1.484a26.26 26.26 0 0 1-8.437 10.109A2.96 2.96 0 0 0 7 14.986V17h4.586l-2.879 2.879A5.87 5.87 0 0 0 7 24v1h4.586l-2.879 2.879A5.87 5.87 0 0 0 7 32v1h11v4a5.007 5.007 0 0 0-4.966 4.416A4.98 4.98 0 0 0 10 46c0 1.105.369 2.167.997 3A3.004 3.004 0 0 0 8 52a1 1 0 0 1-1 1H4c-1.654 0-3 1.346-3 3s1.346 3 3 3h5.184A3 3 0 0 0 9 60c0 1.654 1.346 3 3 3h39c1.654 0 3-1.346 3-3s-1.346-3-3-3h-3a1 1 0 0 1 0-2h12c1.654 0 3-1.346 3-3s-1.346-3-3-3m-7.29 0H39.295a2 2 0 0 1 1.052-.878l.694-.242-.024-.735A.6.6 0 0 0 41 47c0-1.654 1.346-3 3-3 1.068 0 2.064.59 2.6 1.539l.237.421.478.075c.77.122 1.4.689 1.605 1.446l.294 1.086 1.044-.42c.962-.384 1.971.062 2.452.853M37 42.905c2.23-.385 4.173-2.035 5.444-4.413A5.02 5.02 0 0 0 46 40c1.13 0 2.162-.391 3-1.026v5.592a4 4 0 0 0-.904-.402A4.99 4.99 0 0 0 44 42a5.007 5.007 0 0 0-4.979 4.536A4 4 0 0 0 37.131 49H37zm6.129-21.226.649-.524-.399-.732A3 3 0 0 1 43 19c0-1.654 1.346-3 2.935-3.003l.971.05.2-.786C47.445 13.93 48.636 13 50 13s2.555.93 2.895 2.261l.2.786.812-.034c.053-.002.106-.008.093-.013 1.654 0 3 1.346 3 3 0 .481-.128.96-.379 1.422l-.399.732.649.524A2.98 2.98 0 0 1 58 24c0 .888-.395 1.538-.726 1.928l-.765.901 1.016.604a2.972 2.972 0 0 1-.229 5.257l-.823.398.323.855c.136.36.204.715.204 1.057 0 1.654-1.346 3-3 3s-3-1.346-3-3v-2.648l3.781-4.727-1.563-1.25L51 29.148V19h-2v6.148l-2.219-2.773-1.563 1.25L49 28.352V35c0 1.654-1.346 3-3 3a3.02 3.02 0 0 1-2.662-1.631C43.762 35.028 44 33.552 44 32c0-2.779-.759-5.313-2-7.251V24c0-.896.411-1.742 1.129-2.321M36 23c3.309 0 6 4.037 6 9 0 4.451-2.167 8.147-5 8.865v-7.513l3.781-4.727-1.563-1.25L37 30.148V27h-2v7.697l-2.168-3.252-1.664 1.109L35 38.303v2.562c-2.833-.717-5-4.414-5-8.865 0-4.963 2.691-9 6-9m-6.166 2a12.2 12.2 0 0 0-1.072 2.347L26.414 25zm-19.713 4.293L14.414 25H16v-2H9.135a3.86 3.86 0 0 1 .986-1.707L14.414 17H16v-2H9v-.014c0-.299.15-.579.413-.768a28.27 28.27 0 0 0 9.08-10.879c.197-.42.816-.42 1.014 0a28.3 28.3 0 0 0 9.079 10.879c.264.189.414.47.414.768L22 15v2h1.586l4.293 4.293c.473.473.812 1.066.986 1.707H22v2h1.586l4.293 4.293q.167.168.31.353-.106.663-.152 1.354H9.135a3.85 3.85 0 0 1 .986-1.707M20 33h8.037c.339 5.142 3.261 9.266 6.963 9.905V49h-4.016A5 5 0 0 0 32 46c0-2.757-2.243-5-5-5q-.47 0-.943.096A4.94 4.94 0 0 0 22 39h-.021A5 5 0 0 0 20 37.434zm-5.739 10.105.786-.2-.034-.812a.3.3 0 0 0-.012-.096l-.001.002c0-1.654 1.346-3 3-3 1.071 0 2.067.591 2.602 1.542l.421.584.677-.095c.098-.012.197-.03.3-.03 1.152 0 2.183.652 2.69 1.703l.398.826.857-.326c2.058-.78 4.056.798 4.055 2.797 0 .86-.37 1.681-1.017 2.25l-.579.75H13.717l-.701-.75A3 3 0 0 1 12 46c0-1.364.93-2.555 2.261-2.895M60 53H48c-1.654 0-3 1.346-3 3 0 .352.072.686.184 1H43v2h8a1 1 0 0 1 0 2H12a1 1 0 0 1 0-2h6v-2H4a1 1 0 0 1 0-2h3c1.654 0 3-1.346 3-3a1 1 0 0 1 1-1h49a1 1 0 0 1 0 2"/><path d="M24 55.5c0-1.379-1.121-2.5-2.5-2.5H18v2h3.5c.275 0 .5.225.5.5 0 1.379 1.121 2.5 2.5 2.5H28v-2h-3.5a.5.5 0 0 1-.5-.5"/></svg>