<svg id="Line" height="1.5rem" viewBox="0 0 64 64" width="1.5rem" xmlns="http://www.w3.org/2000/svg"><path d="m55.231 31.996c0-1.931-1.036-3.591-2.761-4.436l-5.756-2.911 5.744-2.896c1.736-.85 2.772-2.51 2.772-4.441 0-1.949-1.036-3.62-2.762-4.465l-17.538-8.84c-2.598-1.331-5.492-1.328-8.078-.003l-17.536 8.839c-1.736.85-2.772 2.521-2.772 4.47 0 1.931 1.036 3.591 2.762 4.436l5.755 2.901-5.744 2.905c-1.736.85-2.772 2.51-2.772 4.441 0 1.914 1.031 3.583 2.762 4.465l5.736 2.891-5.74 2.894c-1.727.881-2.758 2.549-2.758 4.462 0 1.914 1.031 3.583 2.762 4.465l17.549 8.846c1.3.65 2.666.975 4.032.975 1.367 0 2.734-.326 4.037-.977l17.55-8.846c1.727-.88 2.758-2.549 2.758-4.463s-1.031-3.582-2.762-4.465l-5.735-2.891 5.739-2.893c1.725-.88 2.756-2.549 2.756-4.463zm-46.687-14.683c0-1.186.602-2.16 1.662-2.679l17.552-8.847c1.014-.52 2.067-.783 3.13-.783s2.116.264 3.136.786l17.557 8.849c1.05.514 1.651 1.488 1.651 2.674 0 1.15-.617 2.139-1.662 2.65l-17.552 8.847c-2.027 1.039-4.227 1.042-6.266-.003l-17.557-8.849c-1.034-.506-1.651-1.495-1.651-2.645zm43.021 26.714c1.059.541 1.666 1.518 1.666 2.681 0 1.164-.607 2.141-1.662 2.679l-17.543 8.843c-2.053 1.026-4.224 1.028-6.274.001l-17.542-8.842c-1.059-.54-1.666-1.517-1.666-2.681s.607-2.141 1.662-2.679l7.058-3.557 9.582 4.83c1.304.668 2.674 1.001 4.044 1.001 1.367 0 2.734-.333 4.034-.999l9.588-4.833zm.004-9.352-17.552 8.847c-2.049 1.05-4.213 1.049-6.266-.003l-17.541-8.842c-1.059-.54-1.666-1.517-1.666-2.681 0-1.15.617-2.139 1.663-2.65l7.073-3.577 9.565 4.822c1.299.666 2.659 1.003 4.042 1.003s2.743-.337 4.036-1l9.571-4.825 7.085 3.583c1.034.506 1.651 1.495 1.651 2.645.001 1.163-.606 2.14-1.661 2.678z"/></svg>