<svg xmlns="http://www.w3.org/2000/svg" width="1.5rem" height="1.5rem" viewBox="0 0 64 64"><path d="M55.231 31.996c0-1.931-1.036-3.591-2.761-4.436l-5.756-2.911 5.744-2.896c1.736-.85 2.772-2.51 2.772-4.441 0-1.949-1.036-3.62-2.762-4.465L34.93 4.007c-2.598-1.331-5.492-1.328-8.078-.003L9.316 12.843c-1.736.85-2.772 2.521-2.772 4.47 0 1.931 1.036 3.591 2.762 4.436l5.755 2.901-5.744 2.905c-1.736.85-2.772 2.51-2.772 4.441 0 1.914 1.031 3.583 2.762 4.465l5.736 2.891-5.74 2.894c-1.727.881-2.758 2.549-2.758 4.462 0 1.914 1.031 3.583 2.762 4.465l17.549 8.846a9 9 0 0 0 4.032.975c1.367 0 2.734-.326 4.037-.977l17.55-8.846c1.727-.88 2.758-2.549 2.758-4.463s-1.031-3.582-2.762-4.465l-5.735-2.891 5.739-2.893c1.725-.88 2.756-2.549 2.756-4.463M8.544 17.313c0-1.186.602-2.16 1.662-2.679l17.552-8.847c1.014-.52 2.067-.783 3.13-.783s2.116.264 3.136.786l17.557 8.849c1.05.514 1.651 1.488 1.651 2.674 0 1.15-.617 2.139-1.662 2.65L34.018 28.81c-2.027 1.039-4.227 1.042-6.266-.003l-17.557-8.849a2.89 2.89 0 0 1-1.651-2.645m43.021 26.714c1.059.541 1.666 1.518 1.666 2.681s-.607 2.141-1.662 2.679L34.026 58.23c-2.053 1.026-4.224 1.028-6.274.001L10.21 49.389c-1.059-.54-1.666-1.517-1.666-2.681s.607-2.141 1.662-2.679l7.058-3.557 9.582 4.83c1.304.668 2.674 1.001 4.044 1.001 1.367 0 2.734-.333 4.034-.999l9.588-4.833zm.004-9.352-17.552 8.847c-2.049 1.05-4.213 1.049-6.266-.003L10.21 34.677c-1.059-.54-1.666-1.517-1.666-2.681 0-1.15.617-2.139 1.663-2.65l7.073-3.577 9.565 4.822c1.299.666 2.659 1.003 4.042 1.003s2.743-.337 4.036-1l9.571-4.825 7.085 3.583a2.89 2.89 0 0 1 1.651 2.645c.001 1.163-.606 2.14-1.661 2.678"/></svg>