<svg xmlns="http://www.w3.org/2000/svg" width="1.5rem" height="1.5rem" viewBox="0 0 64 64"><path d="M55.895 12.27a17.28 17.28 0 0 0-12.301-5.098A17.27 17.27 0 0 0 32 11.6a17.27 17.27 0 0 0-11.594-4.428c-4.645 0-9.014 1.811-12.301 5.098s-5.098 7.66-5.098 12.314 1.811 9.027 5.098 12.314l17.149 17.15c1.793 1.793 4.188 2.78 6.745 2.78s4.952-.987 6.745-2.78l17.149-17.15c3.287-3.287 5.098-7.66 5.098-12.314s-1.809-9.027-5.096-12.314M54.48 35.484l-17.149 17.15c-1.415 1.415-3.309 2.194-5.331 2.194s-3.916-.779-5.331-2.194L9.52 35.484c-2.909-2.909-4.512-6.78-4.512-10.9s1.603-7.991 4.512-10.9c2.91-2.909 6.776-4.512 10.887-4.512s7.977 1.603 10.887 4.512a1 1 0 0 0 1.414 0c2.909-2.909 6.775-4.512 10.887-4.512s7.978 1.603 10.887 4.512 4.512 6.78 4.512 10.9-1.604 7.991-4.514 10.9"/><path d="M37.419 18.39a1 1 0 1 0 1.408 1.42c2.629-2.604 6.907-2.605 9.53-.003a6.7 6.7 0 0 1 1.981 4.776c0 1.804-.703 3.5-1.981 4.778l-3.118 3.119a.999.999 0 1 0 1.414 1.414l3.118-3.119a8.7 8.7 0 0 0 2.567-6.192 8.7 8.7 0 0 0-2.57-6.193c-3.404-3.375-8.945-3.376-12.349 0"/></svg>