<svg id="Line" height="1.5rem" viewBox="0 0 64 64" width="1.5rem" xmlns="http://www.w3.org/2000/svg"><g><path d="m55.895 12.27c-3.287-3.287-7.655-5.098-12.301-5.098-4.319 0-8.399 1.565-11.594 4.428-3.194-2.862-7.275-4.428-11.594-4.428-4.645 0-9.014 1.811-12.301 5.098s-5.098 7.66-5.098 12.314 1.811 9.027 5.098 12.314l17.149 17.15c1.793 1.793 4.188 2.78 6.745 2.78s4.952-.987 6.745-2.78l17.149-17.15c3.287-3.287 5.098-7.66 5.098-12.314s-1.809-9.027-5.096-12.314zm-1.415 23.214-17.149 17.15c-1.415 1.415-3.309 2.194-5.331 2.194s-3.916-.779-5.331-2.194l-17.149-17.15c-2.909-2.909-4.512-6.78-4.512-10.9s1.603-7.991 4.512-10.9c2.91-2.909 6.776-4.512 10.887-4.512s7.977 1.603 10.887 4.512c.391.391 1.023.391 1.414 0 2.909-2.909 6.775-4.512 10.887-4.512s7.978 1.603 10.887 4.512 4.512 6.78 4.512 10.9-1.604 7.991-4.514 10.9z"/><path d="m37.419 18.39c-.392.389-.395 1.021-.006 1.414s1.021.395 1.414.006c2.629-2.604 6.907-2.605 9.53-.003 1.278 1.277 1.981 2.974 1.981 4.776 0 1.804-.703 3.5-1.981 4.778l-3.118 3.119c-.391.391-.391 1.023 0 1.414.195.195.451.293.707.293s.512-.098.707-.293l3.118-3.119c1.656-1.656 2.567-3.854 2.567-6.192 0-2.337-.911-4.536-2.57-6.193-3.404-3.375-8.945-3.376-12.349 0z"/></g></svg>