<svg xmlns="http://www.w3.org/2000/svg" width="1.5rem" height="1.5rem" viewBox="0 0 512 512"><path d="M360.434 96.399h-41.232V15c0-8.284-6.716-15-15-15h-96.4c-8.284 0-15 6.716-15 15v81.399h-41.234c-30.418 0-55.166 24.748-55.166 55.167v241c0 23.958 15.356 44.389 36.739 51.991a46.84 46.84 0 0 0-4.606 20.309c0 25.989 21.145 47.134 47.135 47.134s47.133-21.145 47.133-47.134a46.9 46.9 0 0 0-3.237-17.133h72.875a46.9 46.9 0 0 0-3.237 17.133c0 25.989 21.144 47.134 47.133 47.134s47.133-21.145 47.133-47.134a46.86 46.86 0 0 0-4.606-20.309c21.383-7.603 36.739-28.033 36.739-51.991v-241c-.003-30.419-24.751-55.167-55.169-55.167M222.801 30h66.4v66.399h-66.4zm-30 434.866c0 9.447-7.686 17.134-17.133 17.134-9.448 0-17.135-7.687-17.135-17.134s7.687-17.133 17.135-17.133c9.447 0 17.133 7.686 17.133 17.133M336.334 482c-9.447 0-17.133-7.687-17.133-17.134s7.686-17.133 17.133-17.133 17.133 7.686 17.133 17.133S345.781 482 336.334 482m49.266-89.434c0 13.877-11.29 25.167-25.166 25.167H151.566c-13.876 0-25.166-11.29-25.166-25.167v-241c0-13.877 11.29-25.167 25.166-25.167h208.867c13.876 0 25.166 11.29 25.166 25.167v241z"/><path d="M336.334 224.933H175.668c-8.284 0-15 6.716-15 15v128.534c0 8.284 6.716 15 15 15h160.666c8.284 0 15-6.716 15-15V239.933c0-8.285-6.716-15-15-15m-15 128.534H190.668v-98.534h130.666zM336.334 160.666H175.668c-8.284 0-15 6.716-15 15s6.716 15 15 15h160.666c8.284 0 15-6.716 15-15s-6.716-15-15-15"/></svg>