<svg id="Layer_1" enable-background="new 0 0 512 512" height="512" viewBox="0 0 512 512" width="512" xmlns="http://www.w3.org/2000/svg"><path d="m479.868 355.929v-300.763c0-30.419-24.747-55.166-55.166-55.166h-337.401c-30.419 0-55.166 24.747-55.166 55.166v300.762c-18.656 6.281-32.135 23.926-32.135 44.672 0 25.989 21.145 47.134 47.135 47.134h20.37c-2.082 5.314-3.237 11.09-3.237 17.133 0 25.988 21.143 47.133 47.132 47.133s47.133-21.145 47.133-47.134c0-6.043-1.156-11.818-3.237-17.133h201.409c-2.081 5.314-3.237 11.09-3.237 17.133 0 25.989 21.144 47.134 47.133 47.134 25.99 0 47.135-21.145 47.135-47.134 0-6.043-1.156-11.818-3.237-17.133h20.37c25.989 0 47.133-21.145 47.133-47.134-.002-20.745-13.48-38.39-32.134-44.67zm-392.567-325.929h337.401c13.877 0 25.166 11.289 25.166 25.166v298.301h-40.368c3.889-7.552 6.1-16.104 6.1-25.167v-144.6c0-30.419-24.747-55.167-55.166-55.167h-41.232v-49.266c0-8.284-6.716-15-15-15h-96.401c-8.284 0-15 6.716-15 15v49.267h-41.234c-30.418 0-55.166 24.748-55.166 55.167v144.6c0 9.063 2.211 17.615 6.1 25.167h-40.366v-298.302c0-13.877 11.289-25.166 25.166-25.166zm103.367 323.467v-194.934h17.133 96.401 17.133v194.934zm-39.102 0c-13.876 0-25.166-11.29-25.166-25.167v-144.6c0-13.877 11.29-25.167 25.166-25.167h9.102v194.934zm137.636-224.934h-66.401v-34.266h66.401zm62.132 30h9.1c13.877 0 25.166 11.29 25.166 25.167v144.6c0 13.877-11.289 25.167-25.166 25.167h-9.1zm-222.801 306.333c0 9.447-7.686 17.134-17.133 17.134s-17.133-7.687-17.133-17.134 7.686-17.133 17.133-17.133 17.133 7.686 17.133 17.133zm289.202 0c0 9.447-7.687 17.134-17.135 17.134-9.447 0-17.133-7.687-17.133-17.134s7.686-17.133 17.133-17.133c9.448 0 17.135 7.686 17.135 17.133zm47.133-47.133h-417.733c-9.448 0-17.135-7.686-17.135-17.133s7.687-17.133 17.135-17.133h104.432 208.868 104.434c9.447 0 17.133 7.686 17.133 17.133s-7.687 17.133-17.134 17.133z"/></svg>