<svg xmlns="http://www.w3.org/2000/svg" width="1.5rem" height="1.5rem" viewBox="0 0 512 512"><path d="M479.868 355.929V55.166C479.868 24.747 455.121 0 424.702 0H87.301C56.882 0 32.135 24.747 32.135 55.166v300.762C13.479 362.209 0 379.854 0 400.6c0 25.989 21.145 47.134 47.135 47.134h20.37a46.9 46.9 0 0 0-3.237 17.133C64.268 490.855 85.411 512 111.4 512s47.133-21.145 47.133-47.134a46.9 46.9 0 0 0-3.237-17.133h201.409a46.9 46.9 0 0 0-3.237 17.133c0 25.989 21.144 47.134 47.133 47.134s47.135-21.145 47.135-47.134a46.9 46.9 0 0 0-3.237-17.133h20.37c25.989 0 47.133-21.145 47.133-47.134-.002-20.745-13.48-38.39-32.134-44.67M87.301 30h337.401c13.877 0 25.166 11.289 25.166 25.166v298.301H409.5a54.8 54.8 0 0 0 6.1-25.167V183.7c0-30.419-24.747-55.167-55.166-55.167h-41.232V79.267c0-8.284-6.716-15-15-15h-96.401c-8.284 0-15 6.716-15 15v49.267h-41.234c-30.418 0-55.166 24.748-55.166 55.167v144.6a54.8 54.8 0 0 0 6.1 25.167H62.135V55.166C62.135 41.289 73.424 30 87.301 30m103.367 323.467V158.533h130.667v194.934zm-39.102 0c-13.876 0-25.166-11.29-25.166-25.167V183.7c0-13.877 11.29-25.167 25.166-25.167h9.102v194.934zm137.636-224.934h-66.401V94.267h66.401zm62.132 30h9.1c13.877 0 25.166 11.29 25.166 25.167v144.6c0 13.877-11.289 25.167-25.166 25.167h-9.1zM128.533 464.866c0 9.447-7.686 17.134-17.133 17.134s-17.133-7.687-17.133-17.134 7.686-17.133 17.133-17.133 17.133 7.686 17.133 17.133m289.202 0c0 9.447-7.687 17.134-17.135 17.134-9.447 0-17.133-7.687-17.133-17.134s7.686-17.133 17.133-17.133c9.448 0 17.135 7.686 17.135 17.133m47.133-47.133H47.135C37.687 417.733 30 410.047 30 400.6s7.687-17.133 17.135-17.133h417.734c9.447 0 17.133 7.686 17.133 17.133s-7.687 17.133-17.134 17.133"/></svg>