<svg xmlns="http://www.w3.org/2000/svg" width="1.5rem" height="1.5rem" viewBox="0 0 60 60"><path d="M57 0H28c-8.7 0-11 7.85-11 12v18H4a4 4 0 0 0-4 4v22a4 4 0 0 0 4 4h34a4 4 0 0 0 4-4v-3h15a3 3 0 0 0 3-3V3a3 3 0 0 0-3-3M28 2h21.53c-3.073 2.319-4.26 6.178-4.484 9H19.062c.258-2.538 1.63-9 8.938-9m12 54a2 2 0 0 1-2 2H4a2 2 0 0 1-2-2V34a2 2 0 0 1 2-2h34a2 2 0 0 1 2 2zm5-5h-3V34a4 4 0 0 0-4-4H19V13h26zm13-1a1 1 0 0 1-1 1H47V12c0-.408.1-10 9-10h1a1 1 0 0 1 1 1z"/><path d="M23 9h19a1 1 0 0 0 0-2H23a1 1 0 0 0 0 2M35 35h-4a2 2 0 0 0-2 2v6a2 2 0 0 0 2 2h4a2 2 0 0 0 2-2v-6a2 2 0 0 0-2-2m-4 8v-6h4v6zM22 42H8a1 1 0 0 0 0 2h14a1 1 0 0 0 0-2M22 46H8a1 1 0 0 0 0 2h14a1 1 0 0 0 0-2M22 50H8a1 1 0 0 0 0 2h14a1 1 0 0 0 0-2M23 24h18a2 2 0 0 0 2-2v-4a2 2 0 0 0-2-2H23a2 2 0 0 0-2 2v4a2 2 0 0 0 2 2m0-6h18v4H23zM55 5a1 1 0 0 0-1 1v2a1 1 0 0 0 2 0V6a1 1 0 0 0-1-1M55 11a1 1 0 0 0-1 1v26a1 1 0 0 0 2 0V12a1 1 0 0 0-1-1"/></svg>