<svg height="512" viewBox="0 0 60 60" width="512" xmlns="http://www.w3.org/2000/svg"><g id="021---Mailbox"><path id="Shape" d="m57 0h-29c-8.7 0-11 7.85-11 12v18h-13c-2.209139 0-4 1.790861-4 4v22c0 2.209139 1.790861 4 4 4h34c2.209139 0 4-1.790861 4-4v-3h15c1.6568542 0 3-1.3431458 3-3v-47c0-1.65685425-1.3431458-3-3-3zm-29 2h21.53c-3.073 2.319-4.26 6.178-4.484 9h-25.984c.258-2.538 1.63-9 8.938-9zm12 54c0 1.1045695-.8954305 2-2 2h-34c-1.1045695 0-2-.8954305-2-2v-22c0-1.1045695.8954305-2 2-2h34c1.1045695 0 2 .8954305 2 2zm5-5h-3v-17c0-2.209139-1.790861-4-4-4h-19v-17h26zm13-1c0 .5522847-.4477153 1-1 1h-10v-39c0-.408.1-10 9-10h1c.5522847 0 1 .44771525 1 1z"/><path id="Shape" d="m23 9h19c.5522847 0 1-.44771525 1-1s-.4477153-1-1-1h-19c-.5522847 0-1 .44771525-1 1s.4477153 1 1 1z"/><path id="Shape" d="m35 35h-4c-1.1045695 0-2 .8954305-2 2v6c0 1.1045695.8954305 2 2 2h4c1.1045695 0 2-.8954305 2-2v-6c0-1.1045695-.8954305-2-2-2zm-4 8v-6h4v6z"/><path id="Shape" d="m22 42h-14c-.55228475 0-1 .4477153-1 1s.44771525 1 1 1h14c.5522847 0 1-.4477153 1-1s-.4477153-1-1-1z"/><path id="Shape" d="m22 46h-14c-.55228475 0-1 .4477153-1 1s.44771525 1 1 1h14c.5522847 0 1-.4477153 1-1s-.4477153-1-1-1z"/><path id="Shape" d="m22 50h-14c-.55228475 0-1 .4477153-1 1s.44771525 1 1 1h14c.5522847 0 1-.4477153 1-1s-.4477153-1-1-1z"/><path id="Shape" d="m23 24h18c1.1045695 0 2-.8954305 2-2v-4c0-1.1045695-.8954305-2-2-2h-18c-1.1045695 0-2 .8954305-2 2v4c0 1.1045695.8954305 2 2 2zm0-6h18v4h-18z"/><path id="Shape" d="m55 5c-.5522847 0-1 .44771525-1 1v2c0 .55228475.4477153 1 1 1s1-.44771525 1-1v-2c0-.55228475-.4477153-1-1-1z"/><path id="Shape" d="m55 11c-.5522847 0-1 .4477153-1 1v26c0 .5522847.4477153 1 1 1s1-.4477153 1-1v-26c0-.5522847-.4477153-1-1-1z"/></g></svg>