<svg xmlns="http://www.w3.org/2000/svg" width="25" height="25" viewBox="0 0 60 60"><g fill="#000" fill-rule="nonzero"><path d="M60 8.466a2.99 2.99 0 0 0-2.1-2.861L40.3.046c-.034-.01-.068-.012-.1-.019l-.053-.01a1 1 0 0 0-.4.023h-.03l-19.71 5.914L3.9.868A3 3 0 0 0 0 3.729v47.805A2.99 2.99 0 0 0 2.1 54.4l17.6 5.559a1 1 0 0 0 .588 0l19.706-5.912 16.1 5.086c.295.094.603.142.912.142a3.006 3.006 0 0 0 2.991-3zM2 51.534V3.729a1 1 0 0 1 1.305-.953L19 7.733v39.249a.994.994 0 0 0-.059 1.987H19v8.666L2.7 52.488a1 1 0 0 1-.7-.954m19 6.122v-8.7q.594-.044 1.181-.147a1 1 0 0 0-.362-1.967c-.26.048-.537.079-.819.1V7.744l18-5.4v9.688c-1.12.048-2.228.237-3.3.563a1 1 0 1 0 .608 1.9 11.1 11.1 0 0 1 2.7-.469v38.23zm36.591-.578a.99.99 0 0 1-.893.147L41 52.267V14.05a8.2 8.2 0 0 1 2.587.673 1 1 0 0 0 .826-1.822A10.3 10.3 0 0 0 41 12.048V2.364l16.3 5.148a1 1 0 0 1 .7.954v47.805c.001.32-.15.62-.409.807"/><path d="M54.707 36.293a1 1 0 0 0-1.414 0L50 39.586l-3.293-3.293a1 1 0 0 0-1.414 1.414L48.586 41l-3.293 3.293a1 1 0 1 0 1.414 1.414L50 42.414l3.293 3.293a1 1 0 0 0 1.414-1.414L51.414 41l3.293-3.293a1 1 0 0 0 0-1.414M9.982 32h.007a1 1 0 0 0 1-.993v-.289C11 30.144 11 29.569 11 29a1 1 0 0 0-2 0c0 .564 0 1.133-.009 1.7v.29A1 1 0 0 0 9.982 32M10.14 38a1 1 0 0 0 .934-1.062c-.041-.642-.066-1.3-.08-1.957a1 1 0 0 0-2 .042c.016.692.041 1.374.084 2.043a1 1 0 0 0 1 .936c.022-.002.04-.002.062-.002M11.606 40.766a1 1 0 1 0-1.943.468 13.6 13.6 0 0 0 .7 2.159 1 1 0 1 0 1.838-.786 12 12 0 0 1-.595-1.841M15.435 46.121a6.4 6.4 0 0 1-1.363-.882 1 1 0 1 0-1.3 1.522 8.4 8.4 0 0 0 1.79 1.161 1 1 0 0 0 .87-1.8zM26.2 44.172a7.3 7.3 0 0 1-.994 1.078 1 1 0 1 0 1.32 1.5 9.2 9.2 0 0 0 1.27-1.374 1.002 1.002 0 0 0-1.6-1.205zM29.543 38.02a1 1 0 0 0-1.177.784q-.19.961-.477 1.9a1 1 0 1 0 1.912.588q.316-1.037.526-2.1a1 1 0 0 0-.784-1.172M30.009 32h-.036a1 1 0 0 0-1 .965 54 54 0 0 1-.105 1.962A1 1 0 0 0 29.794 36h.074a1 1 0 0 0 1-.927c.05-.678.085-1.36.109-2.038A1 1 0 0 0 30.009 32M30.019 30h.005a1 1 0 0 0 .995-1.006l-.015-2A1 1 0 0 0 30 26a1 1 0 0 0-1 1.006l.015 2a1 1 0 0 0 1.004.994M30.031 24h.083a1 1 0 0 0 1-.918c.056-.678.136-1.321.238-1.912a1 1 0 0 0-1.971-.34c-.112.649-.2 1.351-.261 2.088A1 1 0 0 0 30.031 24M31.2 17.869a1 1 0 0 0 1.364-.376 6.6 6.6 0 0 1 1.136-1.479 1 1 0 1 0-1.39-1.438 8.5 8.5 0 0 0-1.483 1.93 1 1 0 0 0 .373 1.363M47.4 18.472a1 1 0 0 0 1.764-.944 11.7 11.7 0 0 0-1.5-2.186 1 1 0 0 0-1.506 1.316 9.7 9.7 0 0 1 1.242 1.814M48.865 23.137q.13.927.135 1.863a1 1 0 0 0 2 0 16 16 0 0 0-.154-2.137 1 1 0 1 0-1.981.274M50 32a1 1 0 0 0 1-1v-2a1 1 0 0 0-2 0v2a1 1 0 0 0 1 1"/><path d="M50 34a1 1 0 0 0-1 1v1a1 1 0 0 0 2 0v-1a1 1 0 0 0-1-1M9.375 25.781a1 1 0 0 0 1.25 0C10.844 25.605 16 21.418 16 16a6 6 0 1 0-12 0c0 5.418 5.156 9.605 5.375 9.781M10 12a4 4 0 0 1 4 4c0 3.439-2.736 6.451-4 7.658C8.736 22.451 6 19.439 6 16a4 4 0 0 1 4-4"/><circle cx="10" cy="16" r="1"/></g></svg>