<svg xmlns="http://www.w3.org/2000/svg" xml:space="preserve" width="1.5rem" height="1.5rem" viewBox="0 0 512 512"><path d="M269.62 436.454H35.557c-9.948 0-18.013 8.065-18.013 18.013s8.065 18.013 18.013 18.013h234.064c9.948 0 18.013-8.065 18.013-18.013-.001-9.948-8.065-18.013-18.014-18.013"/><path d="m467.635 413.673-68.947-.055-24.188-43.072c6.055 6.36 13.686 11.061 22.331 13.615a51 51 0 0 0 14.442 2.101c8.358 0 16.635-2.088 24.182-6.194l15.469-8.415c11.909-6.479 20.581-17.206 24.419-30.206s2.385-26.719-4.094-38.626l-8.414-15.467c-6.479-11.909-17.204-20.581-30.205-24.42-13-3.841-26.719-2.387-38.626 4.092l-15.468 8.415c-21.293 11.585-30.971 36.303-24.487 58.686l-2.602-4.634a45 45 0 0 0-3.127-4.806 59.7 59.7 0 0 0-27.852-21.356 44 44 0 0 0 2.448-2.421c16.656-17.927 15.624-46.063-2.294-62.727l-111.95-104.252a45 45 0 0 0-3.259-2.744c-.567-.464-1.159-.89-1.741-1.332 6.458-1.524 12.612-4.328 18.143-8.342 10.972-7.962 18.185-19.719 20.312-33.106l2.764-17.393c4.39-27.635-14.522-53.691-42.157-58.083l-17.392-2.764c-27.63-4.393-53.691 14.521-58.083 42.157l-2.763 17.389c-2.127 13.387 1.086 26.803 9.048 37.774 3.999 5.511 8.957 10.071 14.597 13.518a59.8 59.8 0 0 0-15.419 8.079c-12.874 9.344-21.339 23.141-23.844 38.91L88.412 299.599H59.554C26.716 299.599 0 326.314 0 359.152s26.716 59.554 59.554 59.554l240.152-.006 34.314 61.106c8.276 14.735 24.409 23.533 41.248 22.584l92.311.077h.025c24.466 0 44.381-19.898 44.396-44.367.016-24.48-19.886-44.409-44.365-44.427m-78.966-97.822a14.63 14.63 0 0 1 7.084-8.764l15.469-8.415a14.6 14.6 0 0 1 11.205-1.186 14.63 14.63 0 0 1 8.764 7.085l8.415 15.468a14.63 14.63 0 0 1 1.188 11.206 14.63 14.63 0 0 1-7.084 8.763l-15.47 8.415a14.64 14.64 0 0 1-11.204 1.188 14.64 14.64 0 0 1-8.765-7.086l-8.415-15.468a14.63 14.63 0 0 1-1.187-11.206M160.074 75.368l2.763-17.389c1.275-8.018 8.832-13.505 16.85-12.232l17.391 2.764c8.019 1.275 13.506 8.835 12.233 16.851l-2.764 17.393a14.63 14.63 0 0 1-5.891 9.603 14.63 14.63 0 0 1-10.961 2.625l-17.391-2.763c-3.884-.617-7.294-2.709-9.604-5.893s-3.244-7.074-2.626-10.959m-15.607 98.22a23.37 23.37 0 0 1 9.416-15.349c5.086-3.69 11.302-5.179 17.513-4.196a23.46 23.46 0 0 1 11.323 5.124q.356.297.727.575c.268.199.502.394.687.566L296.07 264.55l.016.014c3.382 3.143 3.577 8.449.436 11.831-3.141 3.383-8.449 3.576-11.803.461l-70.183-65.454a18.013 18.013 0 0 0-30.088 10.439l-11.94 77.759h-47.636zm111.819 126.011h-47.333l5.929-38.614zm211.323 166.842h-.005l-92.891-.077h-.018q-.665 0-1.328.049c-3.222.241-6.351-1.428-7.934-4.247l-39.476-70.298a18.01 18.01 0 0 0-15.706-9.192l-250.697.007c-12.974 0-23.529-10.555-23.529-23.529s10.555-23.528 23.529-23.528H299.76c7.645 0 14.846 3.75 19.263 10.029q.176.252.363.497.387.512.651.983l52.399 93.306a18.01 18.01 0 0 0 15.691 9.192l79.481.065h.001c4.617.004 8.371 3.761 8.367 8.377-.005 4.615-3.759 8.366-8.367 8.366"/></svg>