<svg height="512" viewBox="0 0 60 60" width="512" xmlns="http://www.w3.org/2000/svg"><g id="035---Maternity-Leave"><path id="Shape" d="m56 23.757v-13.757c-.0033061-2.76005315-2.2399468-4.99669388-5-5h-3v-3c0-1.1045695-.8954305-2-2-2h-2c-1.1045695 0-2 .8954305-2 2v3h-11v-3c0-1.1045695-.8954305-2-2-2h-2c-1.1045695 0-2 .8954305-2 2v3h-11v-3c0-1.1045695-.8954305-2-2-2h-2c-1.1045695 0-2 .8954305-2 2v3h-3c-2.76005315.00330612-4.99669388 2.23994685-5 5v41c.00330612 2.7600532 2.23994685 4.9966939 5 5h31v1c.0592335 1.7102675 1.4894706 3.0511147 3.2 3h17.6c1.7105294.0511147 3.1407665-1.2897325 3.2-3v-28c0-2.068-1.448-3.938-4-5.243zm-37 23.243v-5h8v5zm-8 0c-.5522847 0-1-.4477153-1-1v-4h7v5zm16-19v5h-8v-5zm9.122 0c-.163.685-.122.662-.122 5h-7v-5zm-26.122 7h7v5h-7zm9 0h8v5h-8zm10 0h7v5h-7zm-12-2h-7v-4c0-.5522847.4477153-1 1-1h6zm12 9h7v5h-7zm9-12h20v2h-20zm19.771-2h-19.527c.668-1.524 2.788-2.885 5.726-3.556.7974863-.177577 1.4880504-.6727302 1.9121435-1.3710589s.5450254-1.5394178.3348565-2.3289411c-.1463739-.5697076-.2192986-1.1557936-.217-1.744 0-2.29 1.056-4 2-4 1.211 0 2.548 2.82 1.785 5.743-.2057911.7907365-.0817252 1.6311411.343775 2.3286823.4255001.6975412 1.1159692 1.1924398 1.913225 1.3713177 2.072.483 4.88 1.63 5.729 3.557zm-5.271-5.5c-.2720495-.0564766-.5090064-.2221134-.6555012-.4582062-.1464948-.2360929-.1896924-.5219566-.1194988-.7907938.268704-1.061569.3422322-2.1631362.217-3.251h2.058v4.929c-.485-.163-.984-.311-1.5-.429zm-8.5-20.5h2v8h-2zm-17 0h2v8h-2zm-17 0h2v8h-2zm-5 5h3v3c0 1.1045695.8954305 2 2 2h2c1.1045695 0 2-.8954305 2-2v-3h11v3c0 1.1045695.8954305 2 2 2h2c1.1045695 0 2-.8954305 2-2v-3h11v3c0 1.1045695.8954305 2 2 2h2c1.1045695 0 2-.8954305 2-2v-3h3c1.6568542 0 3 1.34314575 3 3v6h-2.523c-1.513-4-5.443-4-6.954 0h-42.523v-6c0-1.65685425 1.34314575-3 3-3zm0 47c-1.65685425 0-3-1.3431458-3-3v-33h42.058c-.0372547.3320518-.056616.6658677-.058 1 0 2.11.577 2.364.172 3.031-.143466.2365745-.3777011.4039369-.648.463-2.4592564.4326886-4.7068894 1.6651254-6.394 3.506h-26.13c-1.65685425 0-3 1.3431458-3 3v17c0 1.6568542 1.34314575 3 3 3h25v5zm51.8 4h-17.6c-.603258.041824-1.1323541-.3990895-1.2-1v-23h20v23c-.0676459.6009105-.596742 1.041824-1.2 1z"/><path id="Shape" d="m55 39c.5522847 0 1-.4477153 1-1s-.4477153-1-1-1h-1c0-.5522847-.4477153-1-1-1s-1 .4477153-1 1h-5c-.5522847 0-1 .4477153-1 1s.4477153 1 1 1h5v3h-5c-.5522847 0-1 .4477153-1 1s.4477153 1 1 1h5v3h-5c-.5522847 0-1 .4477153-1 1s.4477153 1 1 1h5v3h-5c-.5522847 0-1 .4477153-1 1s.4477153 1 1 1h5c0 .5522847.4477153 1 1 1s1-.4477153 1-1h1c.5522847 0 1-.4477153 1-1s-.4477153-1-1-1h-1v-3h1c.5522847 0 1-.4477153 1-1s-.4477153-1-1-1h-1v-3h1c.5522847 0 1-.4477153 1-1s-.4477153-1-1-1h-1v-3z"/></g></svg>