<svg xmlns="http://www.w3.org/2000/svg" width="1.5rem" height="1.5rem" viewBox="0 0 60 60"><path d="M56 23.757V10a5.006 5.006 0 0 0-5-5h-3V2a2 2 0 0 0-2-2h-2a2 2 0 0 0-2 2v3H31V2a2 2 0 0 0-2-2h-2a2 2 0 0 0-2 2v3H14V2a2 2 0 0 0-2-2h-2a2 2 0 0 0-2 2v3H5a5.006 5.006 0 0 0-5 5v41a5.006 5.006 0 0 0 5 5h31v1a3.11 3.11 0 0 0 3.2 3h17.6a3.11 3.11 0 0 0 3.2-3V29c0-2.068-1.448-3.938-4-5.243M19 47v-5h8v5zm-8 0a1 1 0 0 1-1-1v-4h7v5zm16-19v5h-8v-5zm9.122 0c-.163.685-.122.662-.122 5h-7v-5zM10 35h7v5h-7zm9 0h8v5h-8zm10 0h7v5h-7zm-12-2h-7v-4a1 1 0 0 1 1-1h6zm12 9h7v5h-7zm9-12h20v2H38zm19.771-2H38.244c.668-1.524 2.788-2.885 5.726-3.556a3 3 0 0 0 2.247-3.7A7 7 0 0 1 46 19c0-2.29 1.056-4 2-4 1.211 0 2.548 2.82 1.785 5.743a3.014 3.014 0 0 0 2.257 3.7c2.072.483 4.88 1.63 5.729 3.557M52.5 22.5a1.014 1.014 0 0 1-.775-1.249A9 9 0 0 0 51.942 18H54v4.929a16 16 0 0 0-1.5-.429M44 2h2v8h-2zM27 2h2v8h-2zM10 2h2v8h-2zM5 7h3v3a2 2 0 0 0 2 2h2a2 2 0 0 0 2-2V7h11v3a2 2 0 0 0 2 2h2a2 2 0 0 0 2-2V7h11v3a2 2 0 0 0 2 2h2a2 2 0 0 0 2-2V7h3a3 3 0 0 1 3 3v6h-2.523c-1.513-4-5.443-4-6.954 0H2v-6a3 3 0 0 1 3-3m0 47a3 3 0 0 1-3-3V18h42.058A9 9 0 0 0 44 19c0 2.11.577 2.364.172 3.031a1 1 0 0 1-.648.463A11.34 11.34 0 0 0 37.13 26H11a3 3 0 0 0-3 3v17a3 3 0 0 0 3 3h25v5zm51.8 4H39.2a1.13 1.13 0 0 1-1.2-1V34h20v23a1.13 1.13 0 0 1-1.2 1"/><path d="M55 39a1 1 0 0 0 0-2h-1a1 1 0 0 0-2 0h-5a1 1 0 0 0 0 2h5v3h-5a1 1 0 0 0 0 2h5v3h-5a1 1 0 0 0 0 2h5v3h-5a1 1 0 0 0 0 2h5a1 1 0 0 0 2 0h1a1 1 0 0 0 0-2h-1v-3h1a1 1 0 0 0 0-2h-1v-3h1a1 1 0 0 0 0-2h-1v-3z"/></svg>