<svg xmlns="http://www.w3.org/2000/svg" width="1.5rem" height="1.5rem" viewBox="0 0 60 54"><path d="M56 0H4a4 4 0 0 0-4 4v46a4 4 0 0 0 4 4h52a4 4 0 0 0 4-4V4a4 4 0 0 0-4-4m2 4v4H22a2 2 0 0 1-2-2c0-1.949.136-2.813-.556-4H56a2 2 0 0 1 2 2M4 2h12a2 2 0 0 1 2 2c0 1.949-.136 2.813.556 4H2V4a2 2 0 0 1 2-2m54 48a2 2 0 0 1-2 2H4a2 2 0 0 1-2-2V10h56z"/><path d="M5 12a1 1 0 0 0-1 1v2a1 1 0 0 0 2 0v-2a1 1 0 0 0-1-1M5 18a1 1 0 0 0-1 1v30a1 1 0 0 0 2 0V19a1 1 0 0 0-1-1M55 50a1 1 0 0 0 1-1v-2a1 1 0 0 0-2 0v2a1 1 0 0 0 1 1M55 44a1 1 0 0 0 1-1V13a1 1 0 0 0-2 0v30a1 1 0 0 0 1 1M23 7c.543 0 .565-.151 2.707-2.293a1 1 0 1 0-1.414-1.414l-2 2A1 1 0 0 0 23 7M28 7c.543 0 .565-.151 2.707-2.293a1 1 0 1 0-1.414-1.414l-2 2A1 1 0 0 0 28 7M33 7c.543 0 .565-.151 2.707-2.293a1 1 0 1 0-1.414-1.414l-2 2A1 1 0 0 0 33 7M38 7c.543 0 .565-.151 2.707-2.293a1 1 0 1 0-1.414-1.414l-2 2A1 1 0 0 0 38 7M43 7c.543 0 .565-.151 2.707-2.293a1 1 0 1 0-1.414-1.414l-2 2A1 1 0 0 0 43 7M48 7c.543 0 .565-.151 2.707-2.293a1 1 0 1 0-1.414-1.414l-2 2A1 1 0 0 0 48 7M53 7c.543 0 .565-.151 2.707-2.293a1 1 0 1 0-1.414-1.414l-2 2A1 1 0 0 0 53 7M25 25h-7a2 2 0 0 0-2 2v6a2 2 0 0 0 2 2h7v7a2 2 0 0 0 2 2h6a2 2 0 0 0 2-2v-7h7a2 2 0 0 0 2-2v-6a2 2 0 0 0-2-2h-7v-7a2 2 0 0 0-2-2h-6a2 2 0 0 0-2 2zm2 0v-7h6v7a2 2 0 0 0 2 2h7v6h-7a2 2 0 0 0-2 2v7h-6v-7a2 2 0 0 0-2-2h-7v-6h7a2 2 0 0 0 2-2"/></svg>