<svg height="1.5rem" viewBox="0 0 60 54" width="1.5rem" xmlns="http://www.w3.org/2000/svg"><g id="030---Medical-File"><path id="Shape" d="m56 0h-52c-2.209139 0-4 1.790861-4 4v46c0 2.209139 1.790861 4 4 4h52c2.209139 0 4-1.790861 4-4v-46c0-2.209139-1.790861-4-4-4zm2 4v4h-36c-1.1045695 0-2-.8954305-2-2 0-1.949.136-2.813-.556-4h36.556c1.1045695 0 2 .8954305 2 2zm-54-2h12c1.1045695 0 2 .8954305 2 2 0 1.949-.136 2.813.556 4h-16.556v-4c0-1.1045695.8954305-2 2-2zm54 48c0 1.1045695-.8954305 2-2 2h-52c-1.1045695 0-2-.8954305-2-2v-40h56z"/><path id="Shape" d="m5 12c-.55228475 0-1 .4477153-1 1v2c0 .5522847.44771525 1 1 1s1-.4477153 1-1v-2c0-.5522847-.44771525-1-1-1z"/><path id="Shape" d="m5 18c-.55228475 0-1 .4477153-1 1v30c0 .5522847.44771525 1 1 1s1-.4477153 1-1v-30c0-.5522847-.44771525-1-1-1z"/><path id="Shape" d="m55 50c.5522847 0 1-.4477153 1-1v-2c0-.5522847-.4477153-1-1-1s-1 .4477153-1 1v2c0 .5522847.4477153 1 1 1z"/><path id="Shape" d="m55 44c.5522847 0 1-.4477153 1-1v-30c0-.5522847-.4477153-1-1-1s-1 .4477153-1 1v30c0 .5522847.4477153 1 1 1z"/><path id="Shape" d="m23 7c.543 0 .565-.151 2.707-2.293.2599566-.25107447.3642126-.62287789.2726972-.97250732-.0915155-.34962944-.3645604-.6226744-.7141899-.71418984-.3496294-.09151544-.7214328.01274058-.9725073.27269716l-2 2c-.2859079.28599425-.3714219.71603662-.216678 1.08965456s.5192821.61725909.923678.61734544z"/><path id="Shape" d="m28 7c.543 0 .565-.151 2.707-2.293.2599566-.25107447.3642126-.62287789.2726972-.97250732-.0915155-.34962944-.3645604-.6226744-.7141899-.71418984-.3496294-.09151544-.7214328.01274058-.9725073.27269716l-2 2c-.2859079.28599425-.3714219.71603662-.216678 1.08965456s.5192821.61725909.923678.61734544z"/><path id="Shape" d="m33 7c.543 0 .565-.151 2.707-2.293.2599566-.25107447.3642126-.62287789.2726972-.97250732-.0915155-.34962944-.3645604-.6226744-.7141899-.71418984-.3496294-.09151544-.7214328.01274058-.9725073.27269716l-2 2c-.2859079.28599425-.3714219.71603662-.216678 1.08965456s.5192821.61725909.923678.61734544z"/><path id="Shape" d="m38 7c.543 0 .565-.151 2.707-2.293.2599566-.25107447.3642126-.62287789.2726972-.97250732-.0915155-.34962944-.3645604-.6226744-.7141899-.71418984-.3496294-.09151544-.7214328.01274058-.9725073.27269716l-2 2c-.2859079.28599425-.3714219.71603662-.216678 1.08965456s.5192821.61725909.923678.61734544z"/><path id="Shape" d="m43 7c.543 0 .565-.151 2.707-2.293.2599566-.25107447.3642126-.62287789.2726972-.97250732-.0915155-.34962944-.3645604-.6226744-.7141899-.71418984-.3496294-.09151544-.7214328.01274058-.9725073.27269716l-2 2c-.2859079.28599425-.3714219.71603662-.216678 1.08965456s.5192821.61725909.923678.61734544z"/><path id="Shape" d="m48 7c.543 0 .565-.151 2.707-2.293.2599566-.25107447.3642126-.62287789.2726972-.97250732-.0915155-.34962944-.3645604-.6226744-.7141899-.71418984-.3496294-.09151544-.7214328.01274058-.9725073.27269716l-2 2c-.2859079.28599425-.3714219.71603662-.216678 1.08965456s.5192821.61725909.923678.61734544z"/><path id="Shape" d="m53 7c.543 0 .565-.151 2.707-2.293.2599566-.25107447.3642126-.62287789.2726972-.97250732-.0915155-.34962944-.3645604-.6226744-.7141899-.71418984-.3496294-.09151544-.7214328.01274058-.9725073.27269716l-2 2c-.2859079.28599425-.3714219.71603662-.216678 1.08965456s.5192821.61725909.923678.61734544z"/><path id="Shape" d="m25 25h-7c-1.1045695 0-2 .8954305-2 2v6c0 1.1045695.8954305 2 2 2h7v7c0 1.1045695.8954305 2 2 2h6c1.1045695 0 2-.8954305 2-2v-7h7c1.1045695 0 2-.8954305 2-2v-6c0-1.1045695-.8954305-2-2-2h-7v-7c0-1.1045695-.8954305-2-2-2h-6c-1.1045695 0-2 .8954305-2 2zm2 0v-7h6v7c0 1.1045695.8954305 2 2 2h7v6h-7c-1.1045695 0-2 .8954305-2 2v7h-6v-7c0-1.1045695-.8954305-2-2-2h-7v-6h7c1.1045695 0 2-.8954305 2-2z"/></g></svg>