<svg height="1.5rem" viewBox="0 0 60 61" width="1.5rem" xmlns="http://www.w3.org/2000/svg"><g id="020---Book-meeting-room"><path id="Shape" d="m53 0h-46c-3.86416566.00440864-6.99559136 3.13583434-7 7v34c.00440864 3.8641657 3.13583434 6.9955914 7 7h10.038c0 1.781-.391 5.856-3.592 8.479-.6810212.5440611-.9312471 1.4665293-.6185076 2.2801548.3127394.8136255 1.1164086 1.331 1.9865076 1.2788452 4.949-.338 13.456-2.389 15.953-12.038h22.233c3.8641657-.0044086 6.9955914-3.1358343 7-7v-34c-.0044086-3.86416566-3.1358343-6.99559136-7-7zm5 41c-.0033061 2.7600532-2.2399468 4.9966939-5 5-24.335 0-23.013-.031-23.3.06-.3327381.1175467-.586782.3906439-.68.731-1.941 9.067-9.82 10.942-14.306 11.234 5-4.1 4.311-10.85 4.28-11.135 0-.011-.082-.282-.1-.324-.0622788-.1086782-.1374933-.2094119-.224-.3-.404-.366.056-.266-11.67-.266-2.76005315-.0033061-4.99669388-2.2399468-5-5v-34c.00330612-2.76005315 2.23994685-4.99669388 5-5h46c2.7600532.00330612 4.9966939 2.23994685 5 5z"/><path id="Shape" d="m50 28c1.6568542 0 3-1.3431458 3-3v-2c0-1.6568542-1.3431458-3-3-3h-2c-.0029983-2.3751008-1.6735832-4.4215673-4-4.9v-2.1c0-1.6568542-1.3431458-3-3-3h-2c-1.6568542 0-3 1.3431458-3 3v2h-2v-2c0-1.6568542-1.3431458-3-3-3h-2c-1.6568542 0-3 1.3431458-3 3v2h-2v-2c0-1.6568542-1.3431458-3-3-3h-2c-1.6568542 0-3 1.3431458-3 3v2.1c-2.3264168.4784327-3.9970017 2.5248992-4 4.9h-2c-1.65685425 0-3 1.3431458-3 3v2c0 1.6568542 1.34314575 3 3 3h2c.0029983 2.3751008 1.6735832 4.4215673 4 4.9v2.1c0 1.6568542 1.3431458 3 3 3h2c1.6568542 0 3-1.3431458 3-3v-2h2v2c0 1.6568542 1.3431458 3 3 3h2c1.6568542 0 3-1.3431458 3-3v-2h2v2c0 1.6568542 1.3431458 3 3 3h2c1.6568542 0 3-1.3431458 3-3v-2.1c2.3264168-.4784327 3.9970017-2.5248992 4-4.9zm0-6c.5522847 0 1 .4477153 1 1v2c0 .5522847-.4477153 1-1 1h-2v-4zm-12-9c0-.5522847.4477153-1 1-1h2c.5522847 0 1 .4477153 1 1v2h-4zm-10 0c0-.5522847.4477153-1 1-1h2c.5522847 0 1 .4477153 1 1v2h-4zm-10 0c0-.5522847.4477153-1 1-1h2c.5522847 0 1 .4477153 1 1v2h-4zm-8 13c-.55228475 0-1-.4477153-1-1v-2c0-.5522847.44771525-1 1-1h2v4zm12 9c0 .5522847-.4477153 1-1 1h-2c-.5522847 0-1-.4477153-1-1v-2h4zm10 0c0 .5522847-.4477153 1-1 1h-2c-.5522847 0-1-.4477153-1-1v-2h4zm10 0c0 .5522847-.4477153 1-1 1h-2c-.5522847 0-1-.4477153-1-1v-2h4zm4-7c0 1.6568542-1.3431458 3-3 3h-26c-1.6568542 0-3-1.3431458-3-3v-8c0-1.6568542 1.3431458-3 3-3h26c1.6568542 0 3 1.3431458 3 3z"/><path id="Shape" d="m8 5c0-.55228475-.44771525-1-1-1h-1c-.55228475 0-1 .44771525-1 1s.44771525 1 1 1h1c.55228475 0 1-.44771525 1-1z"/><path id="Shape" d="m11 6h5c.5522847 0 1-.44771525 1-1s-.4477153-1-1-1h-5c-.5522847 0-1 .44771525-1 1s.4477153 1 1 1z"/><path id="Shape" d="m45 42h-1c-.5522847 0-1 .4477153-1 1s.4477153 1 1 1h1c.5522847 0 1-.4477153 1-1s-.4477153-1-1-1z"/><path id="Shape" d="m54 42h-5c-.5522847 0-1 .4477153-1 1s.4477153 1 1 1h5c.5522847 0 1-.4477153 1-1s-.4477153-1-1-1z"/></g></svg>