<svg xmlns="http://www.w3.org/2000/svg" width="1.5rem" height="1.5rem" viewBox="0 0 60 61"><path d="M53 0H7a7.01 7.01 0 0 0-7 7v34a7.01 7.01 0 0 0 7 7h10.038c0 1.781-.391 5.856-3.592 8.479a2 2 0 0 0 1.368 3.559C19.763 59.7 28.27 57.649 30.767 48H53a7.01 7.01 0 0 0 7-7V7a7.01 7.01 0 0 0-7-7m5 41a5.006 5.006 0 0 1-5 5c-24.335 0-23.013-.031-23.3.06-.333.118-.587.39-.68.731-1.941 9.067-9.82 10.942-14.306 11.234 5-4.1 4.311-10.85 4.28-11.135a5 5 0 0 0-.1-.324 1.6 1.6 0 0 0-.224-.3C18.266 45.9 18.726 46 7 46a5.006 5.006 0 0 1-5-5V7a5.006 5.006 0 0 1 5-5h46a5.006 5.006 0 0 1 5 5z"/><path d="M50 28a3 3 0 0 0 3-3v-2a3 3 0 0 0-3-3h-2a5.01 5.01 0 0 0-4-4.9V13a3 3 0 0 0-3-3h-2a3 3 0 0 0-3 3v2h-2v-2a3 3 0 0 0-3-3h-2a3 3 0 0 0-3 3v2h-2v-2a3 3 0 0 0-3-3h-2a3 3 0 0 0-3 3v2.1a5.01 5.01 0 0 0-4 4.9h-2a3 3 0 0 0-3 3v2a3 3 0 0 0 3 3h2a5.01 5.01 0 0 0 4 4.9V35a3 3 0 0 0 3 3h2a3 3 0 0 0 3-3v-2h2v2a3 3 0 0 0 3 3h2a3 3 0 0 0 3-3v-2h2v2a3 3 0 0 0 3 3h2a3 3 0 0 0 3-3v-2.1a5.01 5.01 0 0 0 4-4.9zm0-6a1 1 0 0 1 1 1v2a1 1 0 0 1-1 1h-2v-4zm-12-9a1 1 0 0 1 1-1h2a1 1 0 0 1 1 1v2h-4zm-10 0a1 1 0 0 1 1-1h2a1 1 0 0 1 1 1v2h-4zm-10 0a1 1 0 0 1 1-1h2a1 1 0 0 1 1 1v2h-4zm-8 13a1 1 0 0 1-1-1v-2a1 1 0 0 1 1-1h2v4zm12 9a1 1 0 0 1-1 1h-2a1 1 0 0 1-1-1v-2h4zm10 0a1 1 0 0 1-1 1h-2a1 1 0 0 1-1-1v-2h4zm10 0a1 1 0 0 1-1 1h-2a1 1 0 0 1-1-1v-2h4zm4-7a3 3 0 0 1-3 3H17a3 3 0 0 1-3-3v-8a3 3 0 0 1 3-3h26a3 3 0 0 1 3 3zM8 5a1 1 0 0 0-1-1H6a1 1 0 1 0 0 2h1a1 1 0 0 0 1-1M11 6h5a1 1 0 0 0 0-2h-5a1 1 0 0 0 0 2M45 42h-1a1 1 0 0 0 0 2h1a1 1 0 0 0 0-2M54 42h-5a1 1 0 0 0 0 2h5a1 1 0 0 0 0-2"/></svg>