<svg xmlns="http://www.w3.org/2000/svg" xml:space="preserve" viewBox="0 0 454.231 454.231"><circle cx="239.971" cy="40.832" r="36.243"/><path d="M291.289 308.145v2.323a28 28 0 0 1 3.524.151l37.269 4.105v-19.422a7.2 7.2 0 0 0-3.463-6.149c-2.698 10.892-12.552 18.991-24.265 18.991h-13.065zM185.954 233.568l.52-103.59a3.376 3.376 0 0 1 6.753.017l.003 109.104c4.848 5.062 7.773 11.722 8.035 19.047h84.929c-.029-3.807-.071-6.64-.115-11.872l-22.213-13.538c-13.698-8.348-18.034-26.22-9.686-39.917 6.752-11.078 19.732-16.029 31.696-13.103-.013-13.622-.021-29.96-.023-49.664a3.66 3.66 0 0 1 7.319-.071l.265 52.773c1 .575-3.188-1.966 35.083 21.359l-.374-74.309c-.114-22.704-18.679-41.175-41.384-41.175h-18.418c-2.291 5.985-18.727 50.215-21.184 56.634l5.111-24.077a7.2 7.2 0 0 0-.734-4.969l-7.019-12.765 6.24-11.059a2.54 2.54 0 0 0-2.226-3.764h-17.126a2.542 2.542 0 0 0-2.226 3.764l6.24 11.059-7.045 12.813a7.2 7.2 0 0 0-.754 4.875l4.469 24.123c-2.232-5.723-18.071-50.415-20.497-56.634h-18.712c-22.705 0-41.27 18.471-41.384 41.176l-.51 101.595 19.452-1.212a28.9 28.9 0 0 1 15.515 3.38M272.146 364.891v-2.524l-5.723-12.73c-4.874-10.841-2.222-23.149 5.723-31.075v-10.417h-20.03v98.895h17c6.619 0 12.641 2.591 17.118 6.805v-20.14l-3.465-7.708c-6.438-4.807-10.623-12.472-10.623-21.106M193.233 308.145h8.884v98.895h-8.884zM305.612 258.177l-11.831-7.211.036 7.179c10.974 0 10.795-.018 11.795.032"/><circle cx="72.623" cy="141.854" r="34.701"/><circle cx="381.609" cy="144.467" r="33.562"/><path d="M443.192 212.604c-6.097 0-11.039 4.942-11.039 11.039v109.963h-18.068l7.685-116.711c.785-11.929-8.245-22.237-20.173-23.029l-38.54-2.557c-10.53-.699-19.796 6.255-22.374 16.099l31.418-5.659-42.665 19.926-42.896-26.144c-6.849-4.174-15.784-2.006-19.958 4.843-4.175 6.849-2.006 15.784 4.843 19.958l49.545 30.196a14.52 14.52 0 0 0 13.704.758l49.719-23.221c-47.209 39.412-44.645 37.643-48.073 39.167l-3.159 47.61 36.104 3.977-73.397 5.608a17.426 17.426 0 0 0-14.566 24.522l40.643 90.406c3.951 8.789 14.273 12.692 23.04 8.749 8.778-3.946 12.695-14.262 8.749-23.04l-30.469-67.775c27.416-2.095 3.517-1.606 108.89-1.606v21.398h-71.561v-20.47l-20.03 5.377 20.03 44.556v-7.385h71.561v32.878c0 6.097 4.942 11.039 11.039 11.039s11.039-4.942 11.039-11.039V223.644c-.002-6.097-4.944-11.04-11.041-11.04"/><path d="M269.116 422.04h-32V293.145h67.237c5.521 0 10-4.476 10-10 0-5.525-4.479-10-10-10H176.199c6.442-1.815 10.977-7.923 10.543-14.874-.499-8.005-7.393-14.103-15.397-13.591l-50.138 3.125-28.452-37.523 22.731 17.762-1.272-19.175c-.792-11.932-11.107-20.964-23.039-20.172l-38.53 2.556c-11.932.792-20.964 11.107-20.172 23.039l6.698 100.961c-.625 7.213 3.29 14.549 11.041 17.741H22.078V223.031c0-6.097-4.942-11.039-11.039-11.039S0 216.934 0 223.031v209.181c0 6.097 4.942 11.039 11.039 11.039s11.039-4.942 11.039-11.039v-33.05h43.8l20.034-22.078H22.078v-22.011h81.742l15.119 6.227-49.935 55.029c-6.468 7.127-5.934 18.149 1.194 24.617 7.139 6.477 18.159 5.922 24.616-1.195l66.609-73.405a17.427 17.427 0 0 0-6.268-27.825L87.09 310.488l34.339 7.129 39.001 8.097a27.7 27.7 0 0 1 9.011 3.592l-3.88-16.536c-1.811-7.715-8.754-13.445-16.966-13.445h-28.379l-.516-7.775-9.622.6c-8.381.522-15.845-4.466-18.881-11.818l-21.584-52.5 33.156 43.725a14.52 14.52 0 0 0 12.476 5.72l29.937-1.866a9.98 9.98 0 0 0-3.662 7.733 9.96 9.96 0 0 0 2.75 6.874 9.96 9.96 0 0 0 7.25 3.126h65.597V422.04h-25.915l-3.52-15-9.269-39.499c-1.833 2.963-.481 1.225-28.315 31.898l7.646 32.582c2.19 9.332 11.574 15.186 20.947 12.984a17.3 17.3 0 0 0 6.707-3.219c1.835.415-5.191.253 83.718.253 5.521 0 10-4.476 10-10s-4.479-9.999-10-9.999"/></svg>