<?xml version="1.0" encoding="iso-8859-1"?>
<!-- Uploaded to: SVG Repo, www.svgrepo.com, Generator: SVG Repo Mixer Tools -->
<svg fill="#000000" height="1.5rem" width="1.5rem" version="1.1" id="Layer_1" xmlns="http://www.w3.org/2000/svg" xmlns:xlink="http://www.w3.org/1999/xlink" 
	 viewBox="0 0 511.999 511.999" xml:space="preserve">
<g>
	<g>
		<path d="M302.892,53.229H0v380.508h30.417v25.032h30.417v-25.032h181.222v25.032h30.417v-25.032h30.417v-22.801h209.108V76.031
			H302.892V53.229z M30.417,83.646h242.056v86.281H258v-50.14h-30.417v50.14h-20.278v-19.676c0-14.154-8.321-26.399-20.326-32.107
			V99.509h-30.417v18.636c-12.005,5.709-20.325,17.953-20.325,32.107v19.675h-20.278v-36.912c0-19.594-15.941-35.534-35.534-35.534
			c-19.593,0-35.533,15.941-35.533,35.534v36.911H30.417V83.646z M176.887,150.251v19.675h-10.233v-19.675
			c0-2.822,2.295-5.117,5.116-5.117C174.592,145.134,176.887,147.429,176.887,150.251z M85.541,133.015v36.912H75.308v-36.912
			c0-2.822,2.296-5.117,5.116-5.117C83.246,127.897,85.541,130.193,85.541,133.015z M30.417,200.343h14.474h71.068v0.001h20.278
			h71.068h65.169v86.281H258v-39.038c0-19.594-15.941-35.534-35.534-35.534c-19.593,0-35.533,15.941-35.533,35.534v39.037h-20.278
			v-53.496h-18.643v-17.02h-30.417v17.02H98.953v53.496H75.309v-50.14H44.892v50.14H30.417V200.343z M227.583,247.586v36.911
			h-10.233v-36.911c0-2.822,2.295-5.117,5.116-5.117C225.287,242.469,227.583,244.764,227.583,247.586z M136.237,263.546v23.079
			h-6.866v-23.079H136.237z M272.474,403.32H258v-50.14h-30.417v50.14h-15.256v-50.14h-30.417v50.14h-15.255v-50.14h-30.417v50.14
			H120.98v-50.14H90.563v50.14H75.308v-50.14H44.891v50.14H30.417v-86.279h68.536h67.701h105.82V403.32z M481.583,106.449v274.07
			H302.892v-21.448h32.531v-30.417h-32.531v-170.34h32.531v-30.417h-32.531v-21.448H481.583z"/>
	</g>
</g>
</svg>