<svg xmlns="http://www.w3.org/2000/svg" xml:space="preserve" width="1.5rem" height="1.5rem" viewBox="0 0 511.999 511.999"><path d="M302.892 53.229H0v380.508h30.417v25.032h30.417v-25.032h181.222v25.032h30.417v-25.032h30.417v-22.801h209.108V76.031H302.892zM30.417 83.646h242.056v86.281H258v-50.14h-30.417v50.14h-20.278v-19.676c0-14.154-8.321-26.399-20.326-32.107V99.509h-30.417v18.636c-12.005 5.709-20.325 17.953-20.325 32.107v19.675h-20.278v-36.912c0-19.594-15.941-35.534-35.534-35.534s-35.533 15.941-35.533 35.534v36.911H30.417zm146.47 66.605v19.675h-10.233v-19.675a5.12 5.12 0 0 1 5.116-5.117 5.12 5.12 0 0 1 5.117 5.117m-91.346-17.236v36.912H75.308v-36.912a5.123 5.123 0 0 1 5.116-5.117 5.12 5.12 0 0 1 5.117 5.117m-55.124 67.328h85.542v.001h156.515v86.281H258v-39.038c0-19.594-15.941-35.534-35.534-35.534s-35.533 15.941-35.533 35.534v39.037h-20.278v-53.496h-18.643v-17.02h-30.417v17.02H98.953v53.496H75.309v-50.14H44.892v50.14H30.417zm197.166 47.243v36.911H217.35v-36.911a5.12 5.12 0 0 1 5.116-5.117 5.123 5.123 0 0 1 5.117 5.117m-91.346 15.96v23.079h-6.866v-23.079zM272.474 403.32H258v-50.14h-30.417v50.14h-15.256v-50.14H181.91v50.14h-15.255v-50.14h-30.417v50.14H120.98v-50.14H90.563v50.14H75.308v-50.14H44.891v50.14H30.417v-86.279h242.057zm209.109-296.871v274.07H302.892v-21.448h32.531v-30.417h-32.531v-170.34h32.531v-30.417h-32.531v-21.448z"/></svg>