<svg id="Layer_1" enable-background="new 0 0 512 512" height="1.5rem" viewBox="0 0 512 512" width="1.5rem" xmlns="http://www.w3.org/2000/svg"><g><path d="m142.73 285.461c78.701 0 142.729-64.029 142.729-142.731 0-78.7-64.027-142.729-142.729-142.729-78.702 0-142.73 64.028-142.73 142.728 0 78.703 64.028 142.732 142.73 142.732zm0-255.461c62.158.001 112.729 50.571 112.729 112.729 0 62.16-50.569 112.731-112.729 112.731-62.16.001-112.73-50.57-112.73-112.731 0-62.158 50.57-112.728 112.73-112.729z"/><path d="m369.269 226.536c-78.701.004-142.729 64.033-142.729 142.73-.001 78.704 64.027 142.734 142.73 142.734s142.73-64.03 142.73-142.733c0-78.698-64.028-142.727-142.731-142.731zm.001 255.464c-62.16 0-112.73-50.572-112.73-112.733 0-62.156 50.571-112.727 112.729-112.73 62.16.003 112.731 50.573 112.731 112.73 0 62.161-50.57 112.733-112.73 112.733z"/><path d="m336.332 183.683h79.113v4.492c0 6.067 3.654 11.536 9.26 13.858 1.856.769 3.805 1.142 5.737 1.142 3.902 0 7.74-1.524 10.609-4.394l66.555-66.552c2.813-2.813 4.394-6.628 4.394-10.606s-1.58-7.793-4.394-10.606l-66.549-66.551c-4.289-4.291-10.743-5.572-16.347-3.252-5.605 2.322-9.26 7.791-9.26 13.858v4.493h-79.119c-8.284 0-15 6.716-15 15v94.117c.001 8.285 6.717 15.001 15.001 15.001zm15-94.118h79.119c3.704 0 7.095-1.343 9.712-3.567l35.624 35.625-35.63 35.628c-2.617-2.226-6.008-3.568-9.712-3.568h-79.113z"/><path d="m175.666 328.316h-79.111v-4.491c0-6.066-3.654-11.536-9.26-13.858-5.605-2.321-12.057-1.038-16.347 3.252l-66.554 66.551c-5.857 5.857-5.858 15.354 0 21.213l66.547 66.551c2.869 2.87 6.706 4.394 10.609 4.394 1.933 0 3.882-.373 5.737-1.142 5.605-2.322 9.26-7.791 9.26-13.858v-4.493h79.119c8.284 0 15-6.716 15-15v-94.117c0-8.286-6.716-15.002-15-15.002zm-15 94.118h-79.119c-3.704 0-7.095 1.342-9.711 3.567l-35.623-35.624 35.63-35.628c2.617 2.225 6.008 3.567 9.712 3.567h79.111z"/><path d="m106.879 175.468c-6.226 0-11.248 8.437-11.248 14.06 0 11.247 18.276 24.304 42.581 24.905v5.623c0 2.611 3.013 5.021 6.823 5.021 3.418 0 6.831-2.409 6.831-5.021v-6.225c22.495-3.617 37.962-17.877 37.962-42.582 0-27.314-20.088-36.351-37.962-42.979v-35.35c13.457 1.004 18.079 7.432 23.704 7.432 7.429 0 10.642-9.24 10.642-13.859 0-11.648-21.289-15.463-34.346-15.866v-5.222c0-2.611-3.413-5.021-6.831-5.021-3.811 0-6.823 2.41-6.823 5.021v5.625c-20.086 2.609-38.968 13.655-38.968 39.163 0 25.708 20.688 33.542 38.968 40.371v39.968c-17.676-2.01-23.701-15.064-31.333-15.064zm43.381-20.085c8.638 3.817 15.063 8.638 15.063 18.479 0 9.439-6.226 14.66-15.063 16.469zm-26.511-47.799c0-7.634 6.027-12.452 16.069-14.061v30.329c-9.241-3.617-16.069-7.431-16.069-16.268z"/><path d="m378.308 318.153c17.07 0 20.687 12.051 20.687 19.883 0 5.424 3.818 7.634 13.054 7.634 9.038 0 13.057-2.21 13.057-11.849 0-24.104-20.285-38.564-47.803-38.564-25.708 0-46.394 12.453-46.394 45.994v4.419h-9.241c-4.816 0-8.234 4.218-8.234 9.44 0 5.423 3.418 9.037 8.234 9.037h9.241v14.061h-9.241c-4.816 0-8.234 4.217-8.234 9.439 0 5.422 3.418 9.037 8.234 9.037h9.241v3.414c0 25.709 16.87 43.182 46.394 43.182 27.518 0 47.803-15.264 47.803-39.969 0-9.842-3.818-12.049-13.057-12.049-9.035 0-13.054 2.008-13.054 7.63 0 10.044-4.219 21.491-20.486 21.491-17.876 0-21.489-13.455-21.489-20.285v-3.414h18.877c4.219 0 8.438-3.816 8.438-9.24 0-5.02-4.219-9.236-8.438-9.236h-18.877v-14.061h18.877c4.219 0 8.438-3.816 8.438-9.037 0-5.223-4.219-9.44-8.438-9.44h-18.877v-4.419c-.001-15.666 7.628-23.098 21.288-23.098z"/></g></svg>