<svg xmlns="http://www.w3.org/2000/svg" width="1.5rem" height="1.5rem" viewBox="0 0 512 512"><path d="M256 0c-8.284 0-15 6.716-15 15v482c0 8.284 6.716 15 15 15s15-6.716 15-15V15c0-8.284-6.716-15-15-15M408.635 126.399c34.848 0 63.199-28.351 63.199-63.199S443.483 0 408.635 0s-63.201 28.352-63.201 63.2 28.352 63.199 63.201 63.199m0-96.399c18.306 0 33.199 14.894 33.199 33.2s-14.893 33.199-33.199 33.199c-18.307 0-33.201-14.894-33.201-33.199 0-18.306 14.894-33.2 33.201-33.2M510.916 362.867l-47.115-117.075v-29.959c0-30.419-24.748-55.167-55.166-55.167-30.42 0-55.168 24.748-55.168 55.167v29.959l-47.115 117.075a14.998 14.998 0 0 0 13.916 20.6h33.199V497c0 8.284 6.716 15 15 15h80.334c8.284 0 15-6.716 15-15V383.467H497a15 15 0 0 0 13.916-20.6m-62.115-9.4c-8.284 0-15 6.716-15 15V482h-50.334V368.467c0-8.284-6.716-15-15-15h-25.994l39.909-99.17a15 15 0 0 0 1.084-5.6v-32.864c0-13.877 11.291-25.167 25.168-25.167s25.166 11.29 25.166 25.167v32.864c0 1.919.368 3.82 1.084 5.6l39.909 99.17zM87.301 126.399c34.848 0 63.199-28.351 63.199-63.199S122.149 0 87.301 0 24.102 28.352 24.102 63.2s28.351 63.199 63.199 63.199m0-96.399c18.306 0 33.199 14.894 33.199 33.2s-14.893 33.199-33.199 33.199S54.102 81.506 54.102 63.2 68.995 30 87.301 30M119.434 160.666H55.168C24.748 160.666 0 185.414 0 215.833v120.5c0 8.284 6.716 15 15 15h17.135V497c0 8.284 6.716 15 15 15h80.332c8.284 0 15-6.716 15-15V351.333h17.135c8.284 0 15-6.716 15-15v-120.5c0-30.419-24.748-55.167-55.168-55.167m25.168 160.667h-17.135c-8.284 0-15 6.716-15 15V482H62.135V336.333c0-8.284-6.716-15-15-15H30v-105.5c0-13.877 11.291-25.167 25.168-25.167h64.266c13.877 0 25.168 11.29 25.168 25.167z"/></svg>