<svg id="Layer_1" enable-background="new 0 0 512 512" height="1.5rem" viewBox="0 0 512 512" width="1.5rem" xmlns="http://www.w3.org/2000/svg"><g><path d="m256 0c-8.284 0-15 6.716-15 15v482c0 8.284 6.716 15 15 15s15-6.716 15-15v-482c0-8.284-6.716-15-15-15z"/><path d="m408.635 126.399c34.848 0 63.199-28.351 63.199-63.199s-28.351-63.2-63.199-63.2c-34.849 0-63.201 28.352-63.201 63.2s28.352 63.199 63.201 63.199zm0-96.399c18.306 0 33.199 14.894 33.199 33.2s-14.893 33.199-33.199 33.199c-18.307 0-33.201-14.894-33.201-33.199 0-18.306 14.894-33.2 33.201-33.2z"/><path d="m510.916 362.867-47.115-117.075v-29.959c0-30.419-24.748-55.167-55.166-55.167-30.42 0-55.168 24.748-55.168 55.167v29.959l-47.115 117.075c-1.86 4.622-1.304 9.867 1.486 13.996 2.789 4.129 7.447 6.604 12.43 6.604h33.199v113.533c0 8.284 6.716 15 15 15h80.334c8.284 0 15-6.716 15-15v-113.533h33.199c4.983 0 9.641-2.475 12.43-6.604s3.346-9.374 1.486-13.996zm-62.115-9.4c-8.284 0-15 6.716-15 15v113.533h-50.334v-113.533c0-8.284-6.716-15-15-15h-25.994l39.909-99.17c.716-1.779 1.084-3.681 1.084-5.6v-32.864c0-13.877 11.291-25.167 25.168-25.167 13.876 0 25.166 11.29 25.166 25.167v32.864c0 1.919.368 3.82 1.084 5.6l39.909 99.17z"/><path d="m87.301 126.399c34.848 0 63.199-28.351 63.199-63.199s-28.351-63.2-63.199-63.2-63.199 28.352-63.199 63.2 28.351 63.199 63.199 63.199zm0-96.399c18.306 0 33.199 14.894 33.199 33.2s-14.893 33.199-33.199 33.199-33.199-14.893-33.199-33.199 14.893-33.2 33.199-33.2z"/><path d="m119.434 160.666h-64.266c-30.42 0-55.168 24.748-55.168 55.167v120.5c0 8.284 6.716 15 15 15h17.135v145.667c0 8.284 6.716 15 15 15h80.332c8.284 0 15-6.716 15-15v-145.667h17.135c8.284 0 15-6.716 15-15v-120.5c0-30.419-24.748-55.167-55.168-55.167zm25.168 160.667h-17.135c-8.284 0-15 6.716-15 15v145.667h-50.332v-145.667c0-8.284-6.716-15-15-15h-17.135v-105.5c0-13.877 11.291-25.167 25.168-25.167h64.266c13.877 0 25.168 11.29 25.168 25.167z"/></g></svg>