<?xml version="1.0" encoding="utf-8"?>

<!DOCTYPE svg PUBLIC "-//W3C//DTD SVG 1.1//EN" "http://www.w3.org/Graphics/SVG/1.1/DTD/svg11.dtd">
<!-- Uploaded to: SVG Repo, www.svgrepo.com, Generator: SVG Repo Mixer Tools -->
<svg height="800px" width="800px" version="1.1" id="_x32_" xmlns="http://www.w3.org/2000/svg" xmlns:xlink="http://www.w3.org/1999/xlink" 
	 viewBox="0 0 512 512"  xml:space="preserve">
<style type="text/css">
	.st0{fill:#000000;}
</style>
<g>
	<polygon class="st0" points="0,65.754 196.308,262.063 40.122,262.063 40.122,354.588 288.838,354.588 440.672,506.423 
		470.702,476.388 30.03,35.72 	"/>
	<path class="st0" d="M269.067,108.132c6.895,10.138,16.942,17.212,28.494,21.125c11.594,3.976,24.681,5.313,39.762,5.332
		c7.491,0,12.853,0,16.666,0c0,0,0.289,0,0.668,0c0.542,0,1.342,0,2.272,0c8.155-0.019,13.775,0.74,16.988,1.716
		c2.435,0.723,3.406,1.437,3.871,1.862l0.863,1.238c0.461,0.948,0.998,2.973,1.256,6.153c0.271,3.162,0.294,7.346,0.29,12.307
		c0.104,11.81-0.326,25.625,4.78,38.781c2.58,6.532,7.025,13.056,13.811,17.547c6.767,4.526,15.266,6.704,24.812,6.678
		c6.682-0.009,11.741,0.008,15.044,0.253c0.898,0.054,1.495,0.144,2.105,0.226c0.108,1.283,0.194,3.09,0.172,5.422
		c0,8.674,0,15.405,0,15.405h24.052c0,0,0-6.731,0-15.405c-0.036-4.78-0.059-8.81-1.211-13.41c-0.836-3.37-2.783-7.408-6.117-10.318
		c-2.449-2.186-5.272-3.524-7.861-4.328c-3.93-1.202-7.568-1.509-11.719-1.716c-4.143-0.19-8.81-0.181-14.466-0.181
		c-6.145-0.027-9.411-1.282-11.467-2.638c-1.554-1.058-2.688-2.304-3.79-4.274c-1.64-2.91-2.878-7.563-3.46-13.228
		c-0.61-5.656-0.637-12.207-0.633-18.812c-0.009-5.891,0.036-11.385-0.641-16.933c-0.529-4.147-1.482-8.439-3.628-12.668
		c-1.595-3.154-3.922-6.19-6.831-8.62c-4.387-3.686-9.727-5.918-15.614-7.247c-4.197-0.939-8.977-1.373-14.132-1.608
		c-0.428-0.045-0.826-0.252-1.26-0.252c0,0-1.174,0-4.079,0c-0.38,0-0.691,0-1.134,0c-2.132,0-2.94,0-2.94,0
		c-3.813,0-9.176,0-16.666,0c-12.086,0.008-21.835-1.048-29.235-3.181c-5.57-1.59-9.786-3.705-13.192-6.397
		c-5.046-4.03-8.841-9.542-11.741-18.911c-2.856-9.307-4.41-22.274-4.396-39.215V5.577h-24.053v37.254
		c0.009,16.309,1.243,30.043,4.224,41.88C261.17,93.566,264.446,101.409,269.067,108.132z"/>
	<path class="st0" d="M390.38,58.453c6.338,3.778,14.041,5.566,22.693,5.549c2.286,0,2.286,0,2.286,0s0,0,2.29,0
		c5.778,0,10.481,0.704,14.109,1.87c5.467,1.816,8.476,4.211,10.879,7.852c2.358,3.668,4.066,9.298,4.166,17.602
		c0.054,4.753,0.072,8.61,0.072,12.099c0,6.966-0.072,12.487-0.072,20.42c0,4.626-0.118,8.738-0.118,12.596
		c0.009,3.614,0.077,6.993,0.655,10.58c0.448,2.666,1.206,5.53,2.783,8.43c1.17,2.16,2.851,4.275,4.875,5.955
		c3.058,2.548,6.618,4.003,10.042,4.789c3.456,0.795,6.935,1.039,10.779,1.048c3.52,0,5.468,0.614,6.483,1.102l1.504,1.138
		c0.533,0.624,1.139,1.753,1.577,3.642c0.438,1.862,0.638,4.338,0.633,6.93c0,27.45,0,62.12,0,62.12h24.053c0,0,0-34.67,0-62.12
		c0-3.252-0.176-6.921-0.931-10.861c-1.111-5.801-3.705-12.65-9.622-17.99c-2.918-2.639-6.551-4.736-10.568-6.063
		c-4.026-1.337-8.408-1.951-13.129-1.951c-2.385,0.018-3.83-0.172-4.766-0.353c-0.176-1.247-0.348-3.416-0.312-6.397
		c-0.005-3.344,0.113-7.59,0.113-12.596c0-7.761,0.077-13.264,0.077-20.42c0-3.569-0.018-7.544-0.077-12.37
		c-0.09-7.608-1.156-14.674-3.483-21.144c-3.411-9.686-10.106-17.908-18.957-22.887c-8.836-5.032-19.245-7.076-30.766-7.076
		c-2.286,0-2.286,0-2.29,0c0,0,0,0-2.286,0c-5.502-0.018-8.557-1.083-10.387-2.168c-1.391-0.84-2.295-1.754-3.207-3.145
		c-1.346-2.051-2.476-5.421-3.073-9.758c-0.619-4.301-0.732-9.406-0.723-14.583c0-1.573,0.005-3.145,0.005-4.717h-24.053
		c0,1.491-0.009,3.072-0.009,4.717c0.104,9.704-0.05,21.531,5.25,33.07C379.547,49.092,384.028,54.713,390.38,58.453z"/>
	<polygon class="st0" points="309.47,262.063 401.995,354.588 512,354.588 512,262.063 	"/>
</g>
</svg>