<svg id="Line" height="1.5rem" viewBox="0 0 64 64" width="1.5rem" xmlns="http://www.w3.org/2000/svg"><path d="m49.788 24.367h-1.948v-5.52c0-8.742-7.099-15.854-15.825-15.854-8.742 0-15.854 7.112-15.854 15.854v5.52h-1.948c-4.646 0-8.427 3.768-8.427 8.398v19.815c0 4.646 3.78 8.426 8.427 8.426h35.575c4.646 0 8.427-3.78 8.427-8.426v-19.815c-.001-4.631-3.781-8.398-8.427-8.398zm-31.627-5.52c0-7.639 6.215-13.854 13.854-13.854 7.623 0 13.825 6.215 13.825 13.854v5.52h-27.679zm38.053 33.733c0 3.543-2.883 6.426-6.427 6.426h-35.575c-3.544 0-6.427-2.883-6.427-6.426v-19.815c0-3.528 2.883-6.398 6.427-6.398h35.575c3.544 0 6.427 2.87 6.427 6.398z"/></svg>