<svg xmlns="http://www.w3.org/2000/svg" width="1.5rem" height="1.5rem" viewBox="0 0 64 64"><path d="M49.788 24.367H47.84v-5.52c0-8.742-7.099-15.854-15.825-15.854-8.742 0-15.854 7.112-15.854 15.854v5.52h-1.948c-4.646 0-8.427 3.768-8.427 8.398V52.58c0 4.646 3.78 8.426 8.427 8.426h35.575c4.646 0 8.427-3.78 8.427-8.426V32.765c-.001-4.631-3.781-8.398-8.427-8.398m-31.627-5.52c0-7.639 6.215-13.854 13.854-13.854 7.623 0 13.825 6.215 13.825 13.854v5.52H18.161zM56.214 52.58a6.434 6.434 0 0 1-6.427 6.426H14.212a6.434 6.434 0 0 1-6.427-6.426V32.765c0-3.528 2.883-6.398 6.427-6.398h35.575c3.544 0 6.427 2.87 6.427 6.398z"/></svg>