<svg id="Layer_1" enable-background="new 0 0 512 512" height="512" viewBox="0 0 512 512" width="512" xmlns="http://www.w3.org/2000/svg"><g><path d="m456.832 0h-401.666c-30.419 0-55.166 24.747-55.166 55.166v401.667c0 30.419 24.747 55.167 55.166 55.167h401.666c30.42 0 55.168-24.748 55.168-55.167v-401.667c0-30.419-24.748-55.166-55.168-55.166zm25.168 456.833c0 13.877-11.29 25.167-25.168 25.167h-401.666c-13.877 0-25.166-11.29-25.166-25.167v-401.667c0-13.877 11.289-25.166 25.166-25.166h401.666c13.878 0 25.168 11.289 25.168 25.166z"/><path d="m432.732 64.267h-353.466c-8.284 0-15 6.716-15 15v353.467c0 8.284 6.716 15 15 15h353.467c8.284 0 15-6.716 15-15v-353.467c-.001-8.285-6.716-15-15.001-15zm-15 353.466h-323.466v-323.466h323.467v323.466z"/><path d="m239.932 283.05h32.135c25.989 0 47.133-21.145 47.133-47.134s-21.144-47.133-47.133-47.133h-32.135c-8.284 0-15 6.716-15 15v64.267c0 8.284 6.715 15 15 15zm15-64.267h17.135c9.447 0 17.133 7.686 17.133 17.133s-7.686 17.134-17.133 17.134h-17.135z"/><path d="m175.666 387.483h64.266c8.284 0 15-6.716 15-15v-25.167h17.135c61.427 0 111.4-49.974 111.4-111.4s-49.974-111.399-111.4-111.399h-96.4c-8.284 0-15 6.716-15 15v232.967c-.001 8.284 6.715 14.999 14.999 14.999zm15-232.966h81.4c44.885 0 81.4 36.516 81.4 81.399 0 44.885-36.516 81.4-81.4 81.4h-32.135c-8.284 0-15 6.716-15 15v25.167h-34.266v-202.966z"/></g></svg>