<svg height="1.5rem" viewBox="0 0 60 60" width="1.5rem" xmlns="http://www.w3.org/2000/svg"><g id="018---Payday"><path id="Shape" d="m55 6h-2c-.5522847 0-1 .44771525-1 1v4c0 2.7614237-2.2385763 5-5 5s-5-2.2385763-5-5v-4c0-.55228475-.4477153-1-1-1h-5c-.5522847 0-1 .44771525-1 1v4c0 2.7614237-2.2385763 5-5 5s-5-2.2385763-5-5v-4c0-.55228475-.4477153-1-1-1h-5c-.5522847 0-1 .44771525-1 1v4c0 2.7614237-2.2385763 5-5 5s-5-2.2385763-5-5v-4c0-.55228475-.44771525-1-1-1h-2c-2.76005315.00330612-4.99669388 2.23994685-5 5v44c.00330612 2.7600532 2.23994685 4.9966939 5 5h50c2.7600532-.0033061 4.9966939-2.2399468 5-5v-44c-.0033061-2.76005315-2.2399468-4.99669388-5-5zm-14 45h2v7h-26v-7h2c.5522847 0 1-.4477153 1-1s-.4477153-1-1-1h-2v-7h2c.5522847 0 1-.4477153 1-1s-.4477153-1-1-1h-2v-7h2c.5522847 0 1-.4477153 1-1s-.4477153-1-1-1h-2v-7h12c0 .5522847.4477153 1 1 1s1-.4477153 1-1h12v7h-2c-.5522847 0-1 .4477153-1 1s.4477153 1 1 1h2v7h-2c-.5522847 0-1 .4477153-1 1s.4477153 1 1 1h2v7h-2c-.5522847 0-1 .4477153-1 1s.4477153 1 1 1zm-39-20v-7h13v7zm13 2v7h-13v-7zm-13 9h13v7h-13zm56-18v7h-13v-7zm0 9v7h-13v-7zm-13 9h13v7h-13zm-40-34h1v3c.00000008 3.8659932 3.13400681 6.9999999 7 6.9999999 3.8659932 0 6.9999999-3.1340067 7-6.9999999v-3h3v3c0 3.8659932 3.1340068 7 7 7s7-3.1340068 7-7v-3h3v3c0 3.8659932 3.1340068 7 7 7s7-3.1340068 7-7v-3h1c1.6568542 0 3 1.34314575 3 3v11h-56v-11c0-1.65685425 1.34314575-3 3-3zm-3 47v-4h13v7h-10c-1.65685425 0-3-1.3431458-3-3zm53 3h-10v-7h13v4c0 1.6568542-1.3431458 3-3 3z"/><path id="Shape" d="m16 11v-8c0-1.65685425-1.3431458-3-3-3s-3 1.34314575-3 3v8c0 1.6568542 1.3431458 3 3 3s3-1.3431458 3-3zm-4 0v-8c0-.55228475.4477153-1 1-1s1 .44771525 1 1v8c0 .5522847-.4477153 1-1 1s-1-.4477153-1-1z"/><path id="Shape" d="m33 11v-8c0-1.65685425-1.3431458-3-3-3s-3 1.34314575-3 3v8c0 1.6568542 1.3431458 3 3 3s3-1.3431458 3-3zm-4 0v-8c0-.55228475.4477153-1 1-1s1 .44771525 1 1v8c0 .5522847-.4477153 1-1 1s-1-.4477153-1-1z"/><path id="Shape" d="m50 11v-8c-.0000001-1.6568542-1.3431458-2.99999987-3-2.99999987s-2.9999999 1.34314567-3 2.99999987v8c0 1.6568542 1.3431458 3 3 3s3-1.3431458 3-3zm-4 0v-8c0-.55228475.4477153-1 1-1s1 .44771525 1 1v8c0 .5522847-.4477153 1-1 1s-1-.4477153-1-1z"/><path id="Shape" d="m36 36c0 .5522847.4477153 1 1 1s1-.4477153 1-1c0-3.563-3.06-6.506-7-6.939v-1.061c0-.5522847-.4477153-1-1-1s-1 .4477153-1 1v1.061c-3.94.433-7 3.376-7 6.939s3.06 6.506 7 6.939v9.986c-2.833-.4-5-2.453-5-4.925 0-.5522847-.4477153-1-1-1s-1 .4477153-1 1c0 3.563 3.06 6.506 7 6.939v1.061c0 .5522847.4477153 1 1 1s1-.4477153 1-1v-1.061c3.94-.433 7-3.376 7-6.939s-3.06-6.506-7-6.939v-9.986c2.833.399 5 2.453 5 4.925zm-12 0c0-2.472 2.167-4.526 5-4.925v9.85c-2.833-.399-5-2.453-5-4.925zm12 12c0 2.472-2.167 4.526-5 4.925v-9.85c2.833.399 5 2.453 5 4.925z"/></g></svg>