<svg xmlns="http://www.w3.org/2000/svg" width="1.5rem" height="1.5rem" viewBox="0 0 60 60"><path d="M55 6h-2a1 1 0 0 0-1 1v4a5 5 0 0 1-10 0V7a1 1 0 0 0-1-1h-5a1 1 0 0 0-1 1v4a5 5 0 0 1-10 0V7a1 1 0 0 0-1-1h-5a1 1 0 0 0-1 1v4a5 5 0 0 1-10 0V7a1 1 0 0 0-1-1H5a5.006 5.006 0 0 0-5 5v44a5.006 5.006 0 0 0 5 5h50a5.006 5.006 0 0 0 5-5V11a5.006 5.006 0 0 0-5-5M41 51h2v7H17v-7h2a1 1 0 0 0 0-2h-2v-7h2a1 1 0 0 0 0-2h-2v-7h2a1 1 0 0 0 0-2h-2v-7h12a1 1 0 0 0 2 0h12v7h-2a1 1 0 0 0 0 2h2v7h-2a1 1 0 0 0 0 2h2v7h-2a1 1 0 0 0 0 2M2 31v-7h13v7zm13 2v7H2v-7zM2 42h13v7H2zm56-18v7H45v-7zm0 9v7H45v-7zm-13 9h13v7H45zM5 8h1v3a7 7 0 0 0 14 0V8h3v3a7 7 0 0 0 14 0V8h3v3a7 7 0 0 0 14 0V8h1a3 3 0 0 1 3 3v11H2V11a3 3 0 0 1 3-3M2 55v-4h13v7H5a3 3 0 0 1-3-3m53 3H45v-7h13v4a3 3 0 0 1-3 3"/><path d="M16 11V3a3 3 0 0 0-6 0v8a3 3 0 0 0 6 0m-4 0V3a1 1 0 0 1 2 0v8a1 1 0 0 1-2 0M33 11V3a3 3 0 0 0-6 0v8a3 3 0 0 0 6 0m-4 0V3a1 1 0 0 1 2 0v8a1 1 0 0 1-2 0M50 11V3a3 3 0 0 0-6 0v8a3 3 0 0 0 6 0m-4 0V3a1 1 0 0 1 2 0v8a1 1 0 0 1-2 0M36 36a1 1 0 0 0 2 0c0-3.563-3.06-6.506-7-6.939V28a1 1 0 0 0-2 0v1.061c-3.94.433-7 3.376-7 6.939s3.06 6.506 7 6.939v9.986c-2.833-.4-5-2.453-5-4.925a1 1 0 0 0-2 0c0 3.563 3.06 6.506 7 6.939V56a1 1 0 0 0 2 0v-1.061c3.94-.433 7-3.376 7-6.939s-3.06-6.506-7-6.939v-9.986c2.833.399 5 2.453 5 4.925m-12 0c0-2.472 2.167-4.526 5-4.925v9.85c-2.833-.399-5-2.453-5-4.925m12 12c0 2.472-2.167 4.526-5 4.925v-9.85c2.833.399 5 2.453 5 4.925"/></svg>