<svg id="Layer_1" enable-background="new 0 0 512 512" height="512" viewBox="0 0 512 512" width="512" xmlns="http://www.w3.org/2000/svg"><g><path d="m437.02 74.981c-48.353-48.352-112.64-74.981-181.02-74.981-68.379 0-132.667 26.629-181.019 74.981s-74.981 112.639-74.981 181.019c0 68.381 26.629 132.668 74.981 181.021 48.352 48.351 112.639 74.979 181.019 74.979s132.668-26.628 181.02-74.979c48.352-48.353 74.98-112.64 74.98-181.021 0-68.38-26.628-132.667-74.98-181.019zm-181.02 407.019c-124.617 0-226-101.383-226-226s101.383-226 226-226 226 101.383 226 226-101.383 226-226 226z"/><path d="m380.193 289.258c-10.388-10.389-24.241-16.11-39.009-16.11s-28.622 5.721-39.009 16.108l-2.928 2.928-79.421-79.431 2.925-2.926c21.51-21.51 21.51-56.508 0-78.019l-18.683-18.68c-10.388-10.389-24.241-16.109-39.008-16.109-14.766 0-28.62 5.721-39.01 16.11l-13.358 13.359c-.059.058-.118.115-.177.174-20.753 20.755-32.181 48.35-32.18 77.702 0 29.354 11.432 56.949 32.187 77.702l117.41 117.412c20.756 20.759 48.354 32.191 77.707 32.191 29.188 0 56.64-11.306 77.352-31.844.119-.111.236-.226.352-.341l13.531-13.531c10.388-10.388 16.109-24.241 16.109-39.009s-5.721-28.621-16.109-39.009zm-2.534 75.484-13.213 13.213c-.111.104-.22.211-.328.318-15.086 15.088-35.145 23.397-56.48 23.397-21.34 0-41.403-8.312-56.493-23.404l-117.412-117.412c-15.088-15.087-23.398-35.148-23.399-56.488-.001-21.261 8.246-41.252 23.226-56.32.079-.077.158-.154.235-.233l13.467-13.469c4.723-4.723 11.043-7.323 17.797-7.323s13.073 2.601 17.796 7.323l18.683 18.68c9.813 9.813 9.813 25.779 0 35.591l-13.504 13.503c-.063.064-.127.129-.189.193-5.695 5.87-5.641 15.245.161 21.048l100.633 100.646c2.813 2.813 6.628 4.395 10.607 4.395 3.978 0 7.793-1.58 10.606-4.393l13.535-13.535c4.722-4.722 11.042-7.322 17.797-7.322 6.754 0 13.073 2.601 17.794 7.322l18.68 18.681c4.722 4.722 7.322 11.042 7.322 17.796s-2.599 13.072-7.321 17.793z"/></g></svg>