<svg xmlns="http://www.w3.org/2000/svg" width="1.5rem" height="1.5rem" viewBox="0 0 512 512"><path d="M437.02 74.981C388.667 26.629 324.38 0 256 0 187.621 0 123.333 26.629 74.981 74.981S0 187.62 0 256s26.629 132.668 74.981 181.021C123.333 485.372 187.62 512 256 512s132.668-26.628 181.02-74.979C485.372 388.668 512 324.381 512 256s-26.628-132.667-74.98-181.019M256 482C131.383 482 30 380.617 30 256S131.383 30 256 30s226 101.383 226 226-101.383 226-226 226"/><path d="M380.193 289.258c-10.388-10.389-24.241-16.11-39.009-16.11s-28.622 5.721-39.009 16.108l-2.928 2.928-79.421-79.431 2.925-2.926c21.51-21.51 21.51-56.508 0-78.019l-18.683-18.68c-10.388-10.389-24.241-16.109-39.008-16.109-14.766 0-28.62 5.721-39.01 16.11l-13.358 13.359-.177.174c-20.753 20.755-32.181 48.35-32.18 77.702 0 29.354 11.432 56.949 32.187 77.702l117.41 117.412c20.756 20.759 48.354 32.191 77.707 32.191 29.188 0 56.64-11.306 77.352-31.844q.178-.167.352-.341l13.531-13.531c10.388-10.388 16.109-24.241 16.109-39.009s-5.721-28.621-16.109-39.009zm-2.534 75.484-13.213 13.213a16 16 0 0 0-.328.318c-15.086 15.088-35.145 23.397-56.48 23.397-21.34 0-41.403-8.312-56.493-23.404L133.733 260.854c-15.088-15.087-23.398-35.148-23.399-56.488-.001-21.261 8.246-41.252 23.226-56.32q.119-.115.235-.233l13.467-13.469c4.723-4.723 11.043-7.323 17.797-7.323s13.073 2.601 17.796 7.323l18.683 18.68c9.813 9.813 9.813 25.779 0 35.591l-13.504 13.503-.189.193c-5.695 5.87-5.641 15.245.161 21.048l100.633 100.646a15 15 0 0 0 21.213.002l13.535-13.535c4.722-4.722 11.042-7.322 17.797-7.322 6.754 0 13.073 2.601 17.794 7.322l18.68 18.681c4.722 4.722 7.322 11.042 7.322 17.796s-2.599 13.072-7.321 17.793"/></svg>