<svg id="Line" height="512" viewBox="0 0 64 64" width="512" xmlns="http://www.w3.org/2000/svg"><g><path d="m50.51 16.302h-1.75v-2.373c0-4.209-3.424-7.633-7.633-7.633h-18.227c-4.209 0-7.633 3.424-7.633 7.633v2.373h-1.75c-5.803 0-10.524 4.708-10.524 10.496v20.41c0 5.787 4.721 10.496 10.524 10.496h36.993c5.788 0 10.496-4.709 10.496-10.496v-20.41c0-5.787-4.708-10.496-10.496-10.496zm-33.242-2.373c0-3.106 2.527-5.633 5.633-5.633h18.227c3.106 0 5.633 2.527 5.633 5.633v2.373h-29.493zm-3.75 4.373h36.992c4.685 0 8.496 3.812 8.496 8.496v1.608h-13.705c-2.828-4.36-7.729-7.257-13.301-7.257s-10.473 2.896-13.301 7.257h-13.705v-1.608c0-4.684 3.824-8.496 8.524-8.496zm4.628 18.701c0-7.639 6.215-13.854 13.854-13.854s13.854 6.215 13.854 13.854-6.215 13.853-13.854 13.853-13.854-6.214-13.854-13.853zm-.543 6.597h-12.609v-13.194h12.609c-.926 2.012-1.456 4.241-1.456 6.597s.53 4.585 1.456 6.597zm28.794-13.194h12.609v13.194h-12.609c.926-2.012 1.456-4.241 1.456-6.597s-.53-4.585-1.456-6.597zm4.113 25.298h-36.992c-4.7 0-8.524-3.812-8.524-8.496v-1.608h13.706c2.828 4.36 7.728 7.257 13.301 7.257s10.472-2.897 13.3-7.257h13.706v1.608c-.001 4.685-3.812 8.496-8.497 8.496z"/><path d="m32 29.244c4.278 0 7.759 3.48 7.759 7.759 0 .553.448 1 1 1s1-.447 1-1c0-5.381-4.378-9.759-9.759-9.759-.552 0-1 .448-1 1s.448 1 1 1z"/></g></svg>