<svg xmlns="http://www.w3.org/2000/svg" width="1.5rem" height="1.5rem" viewBox="0 0 64 64"><path d="M50.51 16.302h-1.75v-2.373c0-4.209-3.424-7.633-7.633-7.633H22.9c-4.209 0-7.633 3.424-7.633 7.633v2.373h-1.75c-5.803 0-10.524 4.708-10.524 10.496v20.41c0 5.787 4.721 10.496 10.524 10.496H50.51c5.788 0 10.496-4.709 10.496-10.496v-20.41c0-5.787-4.708-10.496-10.496-10.496m-33.242-2.373a5.64 5.64 0 0 1 5.633-5.633h18.227a5.64 5.64 0 0 1 5.633 5.633v2.373H17.268zm-3.75 4.373H50.51c4.685 0 8.496 3.812 8.496 8.496v1.608H45.301c-2.828-4.36-7.729-7.257-13.301-7.257s-10.473 2.896-13.301 7.257H4.994v-1.608c0-4.684 3.824-8.496 8.524-8.496m4.628 18.701c0-7.639 6.215-13.854 13.854-13.854s13.854 6.215 13.854 13.854S39.639 50.856 32 50.856s-13.854-6.214-13.854-13.853m-.543 6.597H4.994V30.406h12.609c-.926 2.012-1.456 4.241-1.456 6.597s.53 4.585 1.456 6.597m28.794-13.194h12.609V43.6H46.397c.926-2.012 1.456-4.241 1.456-6.597s-.53-4.585-1.456-6.597m4.113 25.298H13.518c-4.7 0-8.524-3.812-8.524-8.496V45.6H18.7c2.828 4.36 7.728 7.257 13.301 7.257s10.472-2.897 13.3-7.257h13.706v1.608c-.001 4.685-3.812 8.496-8.497 8.496"/><path d="M32 29.244c4.278 0 7.759 3.48 7.759 7.759a1 1 0 1 0 2 0c0-5.381-4.378-9.759-9.759-9.759a1 1 0 0 0 0 2"/></svg>