<svg xmlns="http://www.w3.org/2000/svg" width="1.5rem" height="1.5rem" viewBox="0 0 512 512"><path d="M138.073 160.102c-8.102 0-14.692 6.591-14.692 14.693v16.065c0 8.102 6.591 14.693 14.692 14.693h84.686c4.143 0 7.5-3.358 7.5-7.5s-3.357-7.5-7.5-7.5h-84.378v-15.451h135.047v15.451h-16.961c-4.143 0-7.5 3.358-7.5 7.5s3.357 7.5 7.5 7.5h17.269c8.102 0 14.692-6.591 14.692-14.693v-16.065c0-8.102-6.591-14.693-14.692-14.693h-9.769v-40.687h8.503c8.799 0 15.958-7.159 15.958-15.958 0-10.275-5.479-19.935-14.297-25.209l-54.653-32.686a26.4 26.4 0 0 0-27.147 0l-54.653 32.686c-8.818 5.274-14.296 14.934-14.296 25.209 0 8.799 7.158 15.958 15.957 15.958h8.503v40.687zm77.186-40.687v40.687H196.55v-40.687zm33.708 40.687h-18.708v-40.687h18.708zm-110.586-56.644c0-5.028 2.681-9.755 6.995-12.336l54.653-32.686a11.44 11.44 0 0 1 11.749 0l54.653 32.686a14.45 14.45 0 0 1 6.996 12.336.96.96 0 0 1-.958.958H139.338a.96.96 0 0 1-.957-.958m24.46 15.957h18.709v40.687h-18.709z"/><path d="M450.06 217.046h-63.974V26.315C386.086 11.805 374.281 0 359.771 0H52.037C37.526 0 25.722 11.805 25.722 26.315v36.849c0 4.142 3.357 7.5 7.5 7.5s7.5-3.358 7.5-7.5V26.315C40.722 20.076 45.798 15 52.037 15h307.734c6.239 0 11.314 5.076 11.314 11.315v190.731h-51.479c-16.905 0-30.658 13.753-30.658 30.658v.795H154.689c-4.143 0-7.5 3.358-7.5 7.5s3.357 7.5 7.5 7.5h134.259v56.934H154.689c-4.143 0-7.5 3.358-7.5 7.5s3.357 7.5 7.5 7.5h134.259v29.776c0 9.74 2.636 19.063 7.47 27.158H154.689c-4.143 0-7.5 3.358-7.5 7.5s3.357 7.5 7.5 7.5h155.099l9.777 7.762a7.5 7.5 0 0 0 9.326-11.748L318.334 395c-9.143-7.259-14.387-18.117-14.387-29.791V247.705c0-8.634 7.024-15.658 15.658-15.658H450.06c11.7 0 21.219 9.519 21.219 21.219V365.21c0 11.674-5.244 22.532-14.387 29.791l-53.362 42.365c-9.371 7.439-22.459 7.439-31.832 0l-14.696-11.667a7.5 7.5 0 0 0-10.537 1.21 7.5 7.5 0 0 0 1.211 10.538l14.696 11.667a41 41 0 0 0 8.715 5.304v31.266c0 6.239-5.075 11.315-11.314 11.315H52.037c-6.239 0-11.315-5.076-11.315-11.315v-386.2c0-4.142-3.357-7.5-7.5-7.5s-7.5 3.358-7.5 7.5v386.2c0 14.51 11.805 26.315 26.315 26.315h307.734c14.51 0 26.314-11.805 26.314-26.315v-27.753c8.181.396 18.898-2.502 26.77-8.818l53.362-42.365c12.749-10.122 20.061-25.262 20.061-41.539V253.265c0-19.971-16.248-36.219-36.218-36.219"/><path d="M377.49 372.799c9.559-.001 19.121-3.64 26.399-10.917l41.587-41.586c8.506-8.506 8.506-22.347 0-30.854a21.68 21.68 0 0 0-15.428-6.39 21.68 21.68 0 0 0-15.427 6.39l-37.133 37.132-16.885-16.885a21.67 21.67 0 0 0-15.427-6.39 21.68 21.68 0 0 0-15.428 6.39c-8.506 8.506-8.506 22.347 0 30.854l21.34 21.339c7.281 7.279 16.84 10.918 26.402 10.917m-37.133-52.504a6.77 6.77 0 0 1 4.82-1.997c1.82 0 3.532.709 4.819 1.997l18.098 18.096a13.2 13.2 0 0 0 9.396 3.892c3.549 0 6.886-1.382 9.396-3.892l38.344-38.343a6.77 6.77 0 0 1 4.819-1.997c1.821 0 3.533.709 4.82 1.997a6.825 6.825 0 0 1 0 9.641l-41.587 41.586a22.2 22.2 0 0 1-15.792 6.542 22.19 22.19 0 0 1-15.793-6.542l-21.34-21.339a6.825 6.825 0 0 1 0-9.641M105.702 229.112H87.998c-9.945 0-18.036 8.091-18.036 18.036v17.705c0 9.945 8.091 18.036 18.036 18.036h17.704c9.945 0 18.036-8.091 18.036-18.036v-17.705c0-9.945-8.091-18.036-18.036-18.036m3.036 35.741a3.04 3.04 0 0 1-3.036 3.036H87.998a3.04 3.04 0 0 1-3.036-3.036v-17.705a3.04 3.04 0 0 1 3.036-3.036h17.704a3.04 3.04 0 0 1 3.036 3.036zM69.962 336.787c0 9.945 8.091 18.036 18.036 18.036h17.704c9.945 0 18.036-8.091 18.036-18.036v-17.705c0-9.945-8.091-18.036-18.036-18.036H87.998c-9.945 0-18.036 8.091-18.036 18.036zm15-17.705a3.04 3.04 0 0 1 3.036-3.036h17.704a3.04 3.04 0 0 1 3.036 3.036v17.705a3.04 3.04 0 0 1-3.036 3.036H87.998a3.04 3.04 0 0 1-3.036-3.036zM69.962 408.72c0 9.945 8.091 18.036 18.036 18.036h17.704c9.945 0 18.036-8.091 18.036-18.036v-17.705c0-9.945-8.091-18.036-18.036-18.036H87.998c-9.945 0-18.036 8.091-18.036 18.036zm15-17.704a3.04 3.04 0 0 1 3.036-3.036h17.704a3.04 3.04 0 0 1 3.036 3.036v17.705a3.04 3.04 0 0 1-3.036 3.036H87.998a3.04 3.04 0 0 1-3.036-3.036z"/></svg>