<?xml version="1.0" ?><!-- Uploaded to: SVG Repo, www.svgrepo.com, Generator: SVG Repo Mixer Tools -->
<svg width="800px" height="800px" viewBox="0 0 64 64" data-name="Layer 1" id="Layer_1" xmlns="http://www.w3.org/2000/svg"><defs><style>.cls-1{fill:#231f20;}</style></defs><title/><path class="cls-1" d="M27.78,44.38H25.22a1,1,0,1,1,0-2h2.56a1,1,0,0,1,0,2Z"/><path class="cls-1" d="M38.78,44.38H36.22a1,1,0,0,1,0-2h2.56a1,1,0,0,1,0,2Z"/><path class="cls-1" d="M25.26,44.94a1,1,0,0,1-1-1,1.71,1.71,0,0,0,0-.39,3.26,3.26,0,0,0-6.46,0,3.46,3.46,0,0,0,0,.43,1,1,0,0,1-2,0,5.68,5.68,0,0,1,0-.72,5.26,5.26,0,0,1,10.42,0,3.56,3.56,0,0,1,.05.68A1,1,0,0,1,25.26,44.94Z"/><path class="cls-1" d="M36.26,44.94a1,1,0,0,1-1-1,1.71,1.71,0,0,0,0-.39,3.26,3.26,0,0,0-6.46,0,3.46,3.46,0,0,0,0,.43,1,1,0,0,1-2,0,5.68,5.68,0,0,1,.05-.72,5.26,5.26,0,0,1,10.42,0,3.56,3.56,0,0,1,0,.68A1,1,0,0,1,36.26,44.94Z"/><path class="cls-1" d="M47.26,44.94a1,1,0,0,1-1-1,1.71,1.71,0,0,0,0-.39,3.26,3.26,0,0,0-6.46,0,3.46,3.46,0,0,0,0,.43,1,1,0,0,1-2,0,5.68,5.68,0,0,1,0-.72,5.26,5.26,0,0,1,10.42,0,3.56,3.56,0,0,1,0,.68A1,1,0,0,1,47.26,44.94Z"/><path class="cls-1" d="M27.78,51.38H25.22a1,1,0,1,1,0-2h2.56a1,1,0,0,1,0,2Z"/><path class="cls-1" d="M38.78,51.38H36.22a1,1,0,0,1,0-2h2.56a1,1,0,0,1,0,2Z"/><path class="cls-1" d="M25.26,51.94a1,1,0,0,1-1-1,1.71,1.71,0,0,0,0-.39,3.26,3.26,0,0,0-6.46,0,3.46,3.46,0,0,0,0,.43,1,1,0,0,1-2,0,5.68,5.68,0,0,1,0-.72,5.26,5.26,0,0,1,10.42,0,3.56,3.56,0,0,1,.05.68A1,1,0,0,1,25.26,51.94Z"/><path class="cls-1" d="M36.26,51.94a1,1,0,0,1-1-1,1.71,1.71,0,0,0,0-.39,3.26,3.26,0,0,0-6.46,0,3.46,3.46,0,0,0,0,.43,1,1,0,0,1-2,0,5.68,5.68,0,0,1,.05-.72,5.26,5.26,0,0,1,10.42,0,3.56,3.56,0,0,1,0,.68A1,1,0,0,1,36.26,51.94Z"/><path class="cls-1" d="M47.26,51.94a1,1,0,0,1-1-1,1.71,1.71,0,0,0,0-.39,3.26,3.26,0,0,0-6.46,0,3.46,3.46,0,0,0,0,.43,1,1,0,0,1-2,0,5.68,5.68,0,0,1,0-.72,5.26,5.26,0,0,1,10.42,0,3.56,3.56,0,0,1,0,.68A1,1,0,0,1,47.26,51.94Z"/><path class="cls-1" d="M32,34.86a11.32,11.32,0,0,1-6.83-2.26,1,1,0,0,1-.36-1.09,1,1,0,0,1,.89-.71c7.78-.57,10.37-4.95,11.22-7.51a1,1,0,0,1,1.25-.64,10.15,10.15,0,0,1,4.58,3,1,1,0,0,1,.21.94A11.44,11.44,0,0,1,32,34.86Zm-3.08-2.51a9.34,9.34,0,0,0,3.08.51,9.44,9.44,0,0,0,8.87-6.27,8.44,8.44,0,0,0-2.42-1.7C37.28,27.53,34.71,31.05,28.88,32.35Z"/><path class="cls-1" d="M25.73,32.8a1,1,0,0,1-.6-.2,11.46,11.46,0,0,1-4.24-6.43,1,1,0,0,1,1-1.23,20.91,20.91,0,0,0,4.69-.15,7.73,7.73,0,0,0,4.32-1.93,1,1,0,0,1,.39-.25,11.85,11.85,0,0,1,6.8,0,1,1,0,0,1,.59.5,1,1,0,0,1,.06.77c-1,3-4,8.22-13,8.87ZM23.25,27A9.43,9.43,0,0,0,26,30.77c6.56-.6,9.31-4,10.45-6.48a10,10,0,0,0-4.32.16,9.71,9.71,0,0,1-5.23,2.31A21.45,21.45,0,0,1,23.25,27Z"/><path class="cls-1" d="M26.78,26.77a1,1,0,0,1-.83-.44c-1.94-2.89-2.52-6.94-2.66-9.83a1,1,0,0,1,.26-.74,11.49,11.49,0,0,1,6.26-3.5,1,1,0,0,1,.86.24,1,1,0,0,1,.33.82,20.31,20.31,0,0,0,.32,4.77,37.39,37.39,0,0,0,1.28,5.15,1,1,0,0,1-.23,1,9.57,9.57,0,0,1-5.43,2.5Zm-1.47-9.95a18.6,18.6,0,0,0,2,7.84,7.64,7.64,0,0,0,3.23-1.41,40.27,40.27,0,0,1-1.15-4.83A26,26,0,0,1,29,14.55,9.4,9.4,0,0,0,25.31,16.82Z"/><path class="cls-1" d="M23.72,27c-.62,0-1.27,0-1.94-.08a1,1,0,0,1-.89-.75,11.17,11.17,0,0,1-.33-2.71,11.44,11.44,0,0,1,3-7.69,1,1,0,0,1,1.08-.27,1,1,0,0,1,.66.9c.13,2.63.64,6.3,2.33,8.81a1,1,0,0,1-.67,1.54A20.23,20.23,0,0,1,23.72,27Zm-1-2a22.6,22.6,0,0,0,2.48,0,19.35,19.35,0,0,1-1.61-5.67,9.25,9.25,0,0,0-1,4.18A9.51,9.51,0,0,0,22.68,25Z"/><path class="cls-1" d="M41.63,20.64a1,1,0,0,1-.47-.12,14,14,0,0,0-10.55-1.31,1,1,0,0,1-.81-.11,1,1,0,0,1-.45-.68A22.21,22.21,0,0,1,29,13.17a1,1,0,0,1,.8-.91,10.85,10.85,0,0,1,2.16-.2,11.33,11.33,0,0,1,10.6,7.22,1,1,0,0,1-.27,1.11A1,1,0,0,1,41.63,20.64ZM34.2,16.71a16,16,0,0,1,5.07.84A9.31,9.31,0,0,0,32,14.06a8.17,8.17,0,0,0-1,0,20.83,20.83,0,0,0,.2,2.91A15.31,15.31,0,0,1,34.2,16.71Z"/><path class="cls-1" d="M42,27.34a1,1,0,0,1-.75-.34,8.2,8.2,0,0,0-3.69-2.45,9.75,9.75,0,0,0-5.55,0,1,1,0,0,1-1.26-.63,38.28,38.28,0,0,1-1.36-5.46,1,1,0,0,1,.7-1.13,15.94,15.94,0,0,1,12,1.47,1,1,0,0,1,.46.51,11,11,0,0,1,.81,4.2,11.29,11.29,0,0,1-.44,3.14,1,1,0,0,1-.74.7Zm-7.24-5.21a11.15,11.15,0,0,1,3.41.52,10,10,0,0,1,3.19,1.7c0-.29,0-.59,0-.88a9.34,9.34,0,0,0-.53-3.12A14.13,14.13,0,0,0,31.49,19c.28,1.4.61,2.6.83,3.37A12.4,12.4,0,0,1,34.72,22.13Z"/></svg>