<svg xmlns="http://www.w3.org/2000/svg" id="Layer_1" width="1.5rem" height="1.5rem" data-name="Layer 1" viewBox="0 0 64 64"><defs><style>.cls-1{fill:#231f20}</style></defs><path d="M27.78 44.38h-2.56a1 1 0 1 1 0-2h2.56a1 1 0 0 1 0 2M38.78 44.38h-2.56a1 1 0 0 1 0-2h2.56a1 1 0 0 1 0 2" class="cls-1"/><path d="M25.26 44.94a1 1 0 0 1-1-1 1.7 1.7 0 0 0 0-.39 3.26 3.26 0 0 0-6.46 0 4 4 0 0 0 0 .43 1 1 0 0 1-2 0 6 6 0 0 1 0-.72 5.26 5.26 0 0 1 10.42 0 3.6 3.6 0 0 1 .05.68 1 1 0 0 1-1.01 1M36.26 44.94a1 1 0 0 1-1-1 1.7 1.7 0 0 0 0-.39 3.26 3.26 0 0 0-6.46 0 4 4 0 0 0 0 .43 1 1 0 0 1-2 0 6 6 0 0 1 .05-.72 5.26 5.26 0 0 1 10.42 0 3.6 3.6 0 0 1 0 .68 1 1 0 0 1-1.01 1M47.26 44.94a1 1 0 0 1-1-1 1.7 1.7 0 0 0 0-.39 3.26 3.26 0 0 0-6.46 0 4 4 0 0 0 0 .43 1 1 0 0 1-2 0 6 6 0 0 1 0-.72 5.26 5.26 0 0 1 10.42 0 3.6 3.6 0 0 1 0 .68 1 1 0 0 1-.96 1M27.78 51.38h-2.56a1 1 0 1 1 0-2h2.56a1 1 0 0 1 0 2M38.78 51.38h-2.56a1 1 0 0 1 0-2h2.56a1 1 0 0 1 0 2" class="cls-1"/><path d="M25.26 51.94a1 1 0 0 1-1-1 1.7 1.7 0 0 0 0-.39 3.26 3.26 0 0 0-6.46 0 4 4 0 0 0 0 .43 1 1 0 0 1-2 0 6 6 0 0 1 0-.72 5.26 5.26 0 0 1 10.42 0 3.6 3.6 0 0 1 .05.68 1 1 0 0 1-1.01 1M36.26 51.94a1 1 0 0 1-1-1 1.7 1.7 0 0 0 0-.39 3.26 3.26 0 0 0-6.46 0 4 4 0 0 0 0 .43 1 1 0 0 1-2 0 6 6 0 0 1 .05-.72 5.26 5.26 0 0 1 10.42 0 3.6 3.6 0 0 1 0 .68 1 1 0 0 1-1.01 1M47.26 51.94a1 1 0 0 1-1-1 1.7 1.7 0 0 0 0-.39 3.26 3.26 0 0 0-6.46 0 4 4 0 0 0 0 .43 1 1 0 0 1-2 0 6 6 0 0 1 0-.72 5.26 5.26 0 0 1 10.42 0 3.6 3.6 0 0 1 0 .68 1 1 0 0 1-.96 1M32 34.86a11.32 11.32 0 0 1-6.83-2.26 1 1 0 0 1-.36-1.09 1 1 0 0 1 .89-.71c7.78-.57 10.37-4.95 11.22-7.51a1 1 0 0 1 1.25-.64 10.15 10.15 0 0 1 4.58 3 1 1 0 0 1 .21.94A11.44 11.44 0 0 1 32 34.86m-3.08-2.51a9.3 9.3 0 0 0 3.08.51 9.44 9.44 0 0 0 8.87-6.27 8.4 8.4 0 0 0-2.42-1.7c-1.17 2.64-3.74 6.16-9.57 7.46Z" class="cls-1"/><path d="M25.73 32.8a1 1 0 0 1-.6-.2 11.46 11.46 0 0 1-4.24-6.43 1 1 0 0 1 1-1.23 21 21 0 0 0 4.69-.15 7.73 7.73 0 0 0 4.32-1.93 1 1 0 0 1 .39-.25 11.85 11.85 0 0 1 6.8 0 1 1 0 0 1 .59.5 1 1 0 0 1 .06.77c-1 3-4 8.22-13 8.87ZM23.25 27A9.4 9.4 0 0 0 26 30.77c6.56-.6 9.31-4 10.45-6.48a10 10 0 0 0-4.32.16 9.7 9.7 0 0 1-5.23 2.31 21.5 21.5 0 0 1-3.65.24" class="cls-1"/><path d="M26.78 26.77a1 1 0 0 1-.83-.44c-1.94-2.89-2.52-6.94-2.66-9.83a1 1 0 0 1 .26-.74 11.5 11.5 0 0 1 6.26-3.5 1 1 0 0 1 .86.24 1 1 0 0 1 .33.82 20.3 20.3 0 0 0 .32 4.77 37 37 0 0 0 1.28 5.15 1 1 0 0 1-.23 1 9.57 9.57 0 0 1-5.43 2.5Zm-1.47-9.95a18.6 18.6 0 0 0 2 7.84 7.64 7.64 0 0 0 3.23-1.41 40 40 0 0 1-1.15-4.83 26 26 0 0 1-.39-3.87 9.4 9.4 0 0 0-3.69 2.27" class="cls-1"/><path d="M23.72 27c-.62 0-1.27 0-1.94-.08a1 1 0 0 1-.89-.75 11.2 11.2 0 0 1-.33-2.71 11.44 11.44 0 0 1 3-7.69 1 1 0 0 1 1.08-.27 1 1 0 0 1 .66.9c.13 2.63.64 6.3 2.33 8.81a1 1 0 0 1-.67 1.54 20 20 0 0 1-3.24.25m-1-2a23 23 0 0 0 2.48 0 19.4 19.4 0 0 1-1.61-5.67 9.25 9.25 0 0 0-1 4.18 9.5 9.5 0 0 0 .09 1.49ZM41.63 20.64a1 1 0 0 1-.47-.12 14 14 0 0 0-10.55-1.31 1 1 0 0 1-.81-.11 1 1 0 0 1-.45-.68 22.2 22.2 0 0 1-.35-5.25 1 1 0 0 1 .8-.91 11 11 0 0 1 2.16-.2 11.33 11.33 0 0 1 10.6 7.22 1 1 0 0 1-.27 1.11 1 1 0 0 1-.66.25m-7.43-3.93a16 16 0 0 1 5.07.84A9.31 9.31 0 0 0 32 14.06a8 8 0 0 0-1 0 21 21 0 0 0 .2 2.91 15.3 15.3 0 0 1 3-.26" class="cls-1"/><path d="M42 27.34a1 1 0 0 1-.75-.34 8.2 8.2 0 0 0-3.69-2.45 9.75 9.75 0 0 0-5.55 0 1 1 0 0 1-1.26-.63 38 38 0 0 1-1.36-5.46 1 1 0 0 1 .7-1.13 15.94 15.94 0 0 1 12 1.47 1 1 0 0 1 .46.51 11 11 0 0 1 .81 4.2 11.3 11.3 0 0 1-.44 3.14 1 1 0 0 1-.74.7Zm-7.24-5.21a11.2 11.2 0 0 1 3.41.52 10 10 0 0 1 3.19 1.7v-.88a9.3 9.3 0 0 0-.53-3.12A14.13 14.13 0 0 0 31.49 19c.28 1.4.61 2.6.83 3.37a12.4 12.4 0 0 1 2.4-.24Z" class="cls-1"/></svg>