<svg xmlns="http://www.w3.org/2000/svg" width="1.5rem" height="1.5rem" viewBox="0 0 60 56"><path d="M56 0H4a4 4 0 0 0-4 4v38a4 4 0 0 0 4 4h11.06a3 3 0 0 0 .544 3.473l1.922 1.927a3.01 3.01 0 0 0 3.787.373l2.028-1.352q.912.456 1.88.779l.479 2.392A3.01 3.01 0 0 0 28.64 56h2.72a3.01 3.01 0 0 0 2.94-2.414l.479-2.391a14 14 0 0 0 1.88-.778l2.03 1.354c1.19.787 2.77.63 3.784-.375l1.927-1.922A3 3 0 0 0 44.939 46H56a4 4 0 0 0 4-4V4a4 4 0 0 0-4-4m2 4v4H22a2 2 0 0 1-2-2c0-1.949.136-2.813-.556-4H56a2 2 0 0 1 2 2M4 2h12a2 2 0 0 1 2 2c0 1.949-.136 2.813.556 4H2V4a2 2 0 0 1 2-2m22.376 22.518c6.74-1.958 13.816 1.786 15.989 8.46s-1.344 13.866-7.945 16.25c-6.6 2.385-13.902-.9-16.496-7.421a13.007 13.007 0 0 1 8.452-17.289m1-2.277.287-1.433c.094-.466.501-.803.977-.808h2.72a1 1 0 0 1 .979.806l.288 1.436a15.3 15.3 0 0 0-5.254-.001zm17.385 12.133 1.431.286c.467.094.805.503.808.98v2.72a1 1 0 0 1-.806.979l-1.433.287a14.6 14.6 0 0 0 0-5.252M43.105 27.2l-.812 1.217a14.9 14.9 0 0 0-3.714-3.714l1.215-.811a1.01 1.01 0 0 1 1.265.122l1.923 1.923a1 1 0 0 1 .123 1.263m-25.4 1.217-.805-1.211a1.01 1.01 0 0 1 .122-1.265l1.923-1.923A1 1 0 0 1 20.2 23.9l1.217.812a14.9 14.9 0 0 0-3.71 3.709zm-2.468 11.2-1.431-.286A1.01 1.01 0 0 1 13 38.36v-2.72a1 1 0 0 1 .806-.979l1.433-.287a14.6 14.6 0 0 0 0 5.252zM20.206 50.1a1 1 0 0 1-1.265-.122l-1.923-1.923A1 1 0 0 1 16.9 46.8l.811-1.216a14.9 14.9 0 0 0 3.715 3.713zM31.36 54h-2.72a1 1 0 0 1-.979-.806l-.287-1.433c1.736.319 3.516.319 5.252 0l-.286 1.431a1.01 1.01 0 0 1-.98.808m11.622-5.941-1.923 1.923a1.01 1.01 0 0 1-1.263.123l-1.217-.812a15 15 0 0 0 3.714-3.714l.811 1.215c.264.397.213.925-.122 1.265M58 42a2 2 0 0 1-2 2H43.644l-.227-.341q.456-.912.779-1.88l2.392-.479A3.01 3.01 0 0 0 49 38.36v-2.72a3.01 3.01 0 0 0-2.414-2.94l-2.386-.479a14 14 0 0 0-.778-1.88l1.354-2.03a3.01 3.01 0 0 0-.375-3.784L42.474 22.6a3.01 3.01 0 0 0-3.787-.373l-2.016 1.344a11.7 11.7 0 0 0-1.895-.784l-.476-2.375A3.01 3.01 0 0 0 31.36 18h-2.72a3.01 3.01 0 0 0-2.94 2.414l-.479 2.391a14 14 0 0 0-1.88.778l-2.03-1.354a3.01 3.01 0 0 0-3.784.375L15.6 24.526a3.01 3.01 0 0 0-.373 3.787l1.352 2.028a14 14 0 0 0-.779 1.88l-2.392.479A3.01 3.01 0 0 0 11 35.64v2.72a3.01 3.01 0 0 0 2.414 2.94l2.389.478c.195.655.454 1.29.772 1.894l-.219.328H4a2 2 0 0 1-2-2V10h56z"/><path d="M5 12a1 1 0 0 0-1 1v2a1 1 0 0 0 2 0v-2a1 1 0 0 0-1-1M5 18a1 1 0 0 0-1 1v22a1 1 0 0 0 2 0V19a1 1 0 0 0-1-1M23 7c.543 0 .565-.151 2.707-2.293a1 1 0 1 0-1.414-1.414l-2 2A1 1 0 0 0 23 7M28 7c.543 0 .565-.151 2.707-2.293a1 1 0 1 0-1.414-1.414l-2 2A1 1 0 0 0 28 7M33 7c.543 0 .565-.151 2.707-2.293a1 1 0 1 0-1.414-1.414l-2 2A1 1 0 0 0 33 7M38 7c.543 0 .565-.151 2.707-2.293a1 1 0 1 0-1.414-1.414l-2 2A1 1 0 0 0 38 7M43 7c.543 0 .565-.151 2.707-2.293a1 1 0 1 0-1.414-1.414l-2 2A1 1 0 0 0 43 7M48 7c.543 0 .565-.151 2.707-2.293a1 1 0 1 0-1.414-1.414l-2 2A1 1 0 0 0 48 7M53 7c.543 0 .565-.151 2.707-2.293a1 1 0 1 0-1.414-1.414l-2 2A1 1 0 0 0 53 7M29 47a1 1 0 0 0 1 1c6.072-.007 10.993-4.928 11-11a1 1 0 0 0-2 0 9.01 9.01 0 0 1-9 9 1 1 0 0 0-1 1M19 37a1 1 0 0 0 2 0 9.01 9.01 0 0 1 9-9 1 1 0 0 0 0-2c-6.072.007-10.993 4.928-11 11M25 37a5 5 0 1 0 10 0 5 5 0 0 0-10 0m8 0a3 3 0 1 1-6 0 3 3 0 0 1 6 0"/></svg>