<svg xmlns="http://www.w3.org/2000/svg" width="1.5rem" height="1.5rem" viewBox="0 0 64 64"><path d="M39 45c-1.654 0-3 1.346-3 3s1.346 3 3 3 3-1.346 3-3-1.346-3-3-3m0 4a1 1 0 1 1 0-2 1 1 0 0 1 0 2M7.001 57h8v-8h-8zm2-6h4v4h-4z"/><path d="M63 11.586 52.414 1H23v8H13v1c0 2.757-2.243 5-5 5s-5-2.243-5-5 2.243-5 5-5c1.779 0 3.439.958 4.332 2.501l1.73-1.002A7.02 7.02 0 0 0 8 3c-3.859 0-7 3.141-7 7s3.141 7 7 7c3.521 0 6.442-2.612 6.929-6H23v14H13v1c0 2.757-2.243 5-5 5s-5-2.243-5-5 2.243-5 5-5c1.779 0 3.439.958 4.332 2.501l1.73-1.002A7.02 7.02 0 0 0 8 19c-3.859 0-7 3.141-7 7s3.141 7 7 7c3.521 0 6.442-2.612 6.929-6H23v6.396l-3.999-2.588-18 11.647V45h2v18H51v-8h12zM57 13v4H29V7h22v6zm-4-2V4.414L59.586 11zm1.919 36.306a2.98 2.98 0 0 0-1.347-1.861l-6.03-3.71A4.99 4.99 0 0 1 52 39c2.757 0 5 2.243 5 5 0 1.63-.796 3.066-2.006 3.98a3 3 0 0 0-.075-.674m-2.396-.159a.99.99 0 0 1 .45.62.99.99 0 0 1-.122.757 1.02 1.02 0 0 1-1.375.327L39 41.174l-12.476 7.678a1.02 1.02 0 0 1-1.376-.326c-.142-.231-.184-.493-.121-.757s.218-.479.449-.62l13.001-8.001a1.01 1.01 0 0 1 1.044 0zM28.401 43h-8.4v-9.162l11.352 7.345zm-10.4-9.162V43H3.842zM5.001 45h20.15l-.722.444a2.98 2.98 0 0 0-1.347 1.86 3 3 0 0 0 .093 1.695h-6.174v8h8v-6.192c.318.112.649.192 1 .192.343 0 .679-.065.999-.179V61H5.001zm18 6v4h-4v-4zM43 61h-8v-6h8zm2 0v-8H33v8h-4V49.677l10-6.155 10 6.154V61zm6-8v-2.179a3 3 0 0 0 .999.179H52c3.859 0 7-3.141 7-7s-3.141-7-7-7a6.98 6.98 0 0 0-6.16 3.687l-5.271-3.243a3.04 3.04 0 0 0-3.14 0l-4.19 2.578L25 34.691V3h26v2H27v14h32v-6h2v40z"/><path d="m7 26.586-1.293-1.293-1.414 1.414L7 29.414l4.707-4.707-1.414-1.414zM7 10.586 5.707 9.293l-1.414 1.414L7 13.414l4.707-4.707-1.414-1.414zM27 27h6v-6h-6zm2-4h2v2h-2zM35 21h2v2h-2zM39 21h20v2H39zM35 25h24v2H35zM27 35h6v-6h-6zm2-4h2v2h-2zM57 33h2v2h-2zM35 33h20v2H35zM35 29h24v2H35z"/></svg>