<svg xmlns="http://www.w3.org/2000/svg" width="512pt" height="512pt" viewBox="0 -16 512 512"><path d="m509.445 249.36-41.695-36.15c6.902-9.628 12.223-20.054 12.223-29.323 0-26.246-21.356-47.602-47.602-47.602-13.973 0-26.558 6.055-35.273 15.676l-98.985-85.816c3.332-6.313 5.489-12.66 5.489-18.543C303.602 21.355 282.246 0 256 0s-47.602 21.355-47.602 47.602c0 5.914 2.184 12.3 5.543 18.648l-98.77 86.023c-8.722-9.8-21.421-15.988-35.542-15.988-26.246 0-47.602 21.356-47.602 47.602 0 9.433 5.512 20.066 12.594 29.836L2.543 250.37c-3.39 2.95-3.39 8.387 0 11.336l248.52 216.457c2.8 2.438 7.093 2.434 9.886-.012l137.016-119.89a7.514 7.514 0 0 0 .707-10.606 7.52 7.52 0 0 0-10.606-.707l-22.953 20.086-85.562-97.785v-48.871l105.75-58.754 3.531 3.063a47.3 47.3 0 0 0-4.059 19.199c0 24.902 38.364 58.144 42.739 61.851 2.77 2.348 6.953 2.348 9.718 0 2.051-1.738 11.575-9.968 21.114-20.789l34.738 30.113-77.227 67.57c-2.878 2.52-3.386 6.942-1.152 10.048 2.55 3.547 7.758 4.148 11.05 1.265l83.72-73.254c3.382-2.957 3.367-8.39-.028-11.332M256 15.03c17.957 0 32.566 14.61 32.566 32.57 0 12.122-18.34 33.012-32.566 46.083-8.844-8.125-19.273-19.27-25.906-29.457a8 8 0 0 0-.48-.754c-3.759-5.918-6.184-11.473-6.184-15.875 0-17.957 14.61-32.567 32.57-32.567m-4.86 94.418c2.77 2.352 6.954 2.352 9.72 0 2.632-2.23 17.566-15.156 29.046-30.523l83.305 72.219-100.027 55.574-94.989-89.403 43.97-38.293c11.472 15.325 26.347 28.204 28.976 30.426M79.63 151.32c17.957 0 32.566 14.61 32.566 32.567 0 12.125-18.34 33.015-32.566 46.086-14.227-13.075-32.57-33.965-32.57-46.086 0-17.957 14.609-32.567 32.57-32.567m-25.55 74.098c9.394 10.586 18.667 18.605 20.69 20.32 2.766 2.348 6.95 2.348 9.72 0 4.374-3.707 42.738-36.949 42.738-61.851a47.3 47.3 0 0 0-3.88-18.801l43.454-37.848 97.715 91.965v45.356h-72.653c-1.629 0-3.21.527-4.511 1.5l-84.32 63.242-84.114-73.262zm201.91 237.102L114.624 339.395l79.746-59.81h74.254l85.176 97.349zM432.37 229.973c-14.226-13.075-32.57-33.965-32.57-46.086 0-17.957 14.613-32.567 32.57-32.567s32.57 14.61 32.57 32.567c0 12.12-18.343 33.015-32.57 46.086m0 0"/><path d="M256 71.148c12.984 0 23.55-10.562 23.55-23.546 0-12.989-10.566-23.551-23.55-23.551s-23.55 10.562-23.55 23.55c0 12.985 10.566 23.547 23.55 23.547m0-32.066c4.695 0 8.52 3.82 8.52 8.52 0 4.695-3.825 8.515-8.52 8.515s-8.52-3.82-8.52-8.515c0-4.7 3.825-8.52 8.52-8.52M432.371 160.336c-12.984 0-23.55 10.566-23.55 23.55s10.566 23.552 23.55 23.552 23.55-10.567 23.55-23.551-10.566-23.551-23.55-23.551m0 32.07c-4.695 0-8.52-3.82-8.52-8.52 0-4.695 3.825-8.515 8.52-8.515s8.52 3.82 8.52 8.516c0 4.699-3.825 8.52-8.52 8.52M208.398 368.277c0 24.899 38.368 58.141 42.743 61.848 1.398 1.191 3.129 1.785 4.859 1.785s3.457-.594 4.86-1.785c4.374-3.707 42.742-36.95 42.742-61.848 0-26.25-21.356-47.601-47.602-47.601s-47.602 21.351-47.602 47.601m80.168 0c0 12.121-18.34 33.012-32.566 46.082-14.227-13.07-32.57-33.964-32.57-46.082 0-17.96 14.61-32.57 32.57-32.57 17.957 0 32.566 14.61 32.566 32.57m0 0"/><path d="M232.45 368.277c0 12.985 10.566 23.547 23.55 23.547s23.55-10.562 23.55-23.547c0-12.988-10.566-23.55-23.55-23.55s-23.55 10.562-23.55 23.55m32.07 0c0 4.696-3.825 8.516-8.52 8.516s-8.52-3.82-8.52-8.516c0-4.699 3.825-8.52 8.52-8.52s8.52 3.821 8.52 8.52M103.18 183.887c0-12.985-10.567-23.551-23.551-23.551s-23.55 10.566-23.55 23.55 10.566 23.552 23.55 23.552 23.55-10.567 23.55-23.551m-32.07 0c0-4.696 3.82-8.516 8.519-8.516 4.695 0 8.516 3.82 8.516 8.516 0 4.699-3.82 8.52-8.516 8.52-4.7 0-8.52-3.825-8.52-8.52m0 0"/></svg>