<svg xmlns="http://www.w3.org/2000/svg" width="1.5rem" height="1.5rem" viewBox="0 0 512 512"><path d="M255.998 238.845c12.068 0 24.141-4.595 33.328-13.781 5.858-5.857 5.859-15.354.002-21.213-5.856-5.858-15.354-5.86-21.213-.002-6.683 6.682-17.551 6.683-24.232.001-5.857-5.857-15.355-5.857-21.213 0s-5.858 15.355 0 21.213c9.189 9.189 21.257 13.782 33.328 13.782"/><path d="M328.47 276.268c23.815-20.445 38.929-50.753 38.931-84.527V55.167C367.4 24.748 342.653 0 312.234 0H199.767c-30.42 0-55.168 24.748-55.168 55.167v136.582l.003.201c.064 33.69 15.163 63.915 38.928 84.318-40.85 10.762-71.064 48.017-71.064 92.198V497c0 8.284 6.716 15 15 15h257.067c8.284 0 15-6.716 15-15V368.467c0-44.183-30.214-81.438-71.063-92.199m8.93-120.747-58.074-58.072a177.3 177.3 0 0 1 58.074-9.793zM199.767 30h112.467c13.877 0 25.166 11.29 25.166 25.167v2.485c-37.722.021-74.49 10.283-107.21 30.036-21.586 13.031-40.305 29.576-55.591 48.963V55.167C174.599 41.29 185.89 30 199.767 30m-25.095 164.621c15.796-36.361 42.611-65.377 75.437-83.963l87.049 87.046c-3.07 42.104-38.284 75.43-81.159 75.43-43.916 0-79.798-34.962-81.327-78.513M214.767 415.6h82.467V482h-82.467zM369.533 482h-42.299V352.4c0-8.284-6.716-15-15-15s-15 6.716-15 15v33.2h-82.467v-33.2c0-8.284-6.716-15-15-15s-15 6.716-15 15V482h-42.301V368.467c0-36.024 29.309-65.333 65.334-65.333h96.401c36.024 0 65.332 29.309 65.332 65.333z"/></svg>