<svg fill="var(--color-white)" height="25" viewBox="0 0 100 100" width="25" xmlns="http://www.w3.org/2000/svg"><path d="m54.2694 8.7388c-1.2072-1.13481-3.1645-1.1348-4.3717 0l-10.0381 9.4359c-.6254.5879-.9268 1.3651-.9042 2.1355-.0156.7623.286 1.5294.9048 2.1111l10.0381 9.4359c1.2072 1.1348 3.1645 1.1348 4.3718 0 1.2072-1.1348 1.2072-2.9747 0-4.1095l-5.5255-5.194c6.3291-.2502 12.5889 1.3959 17.9765 4.7275 5.3942 3.3356 9.6674 8.2085 12.2703 13.9921 2.6028 5.7835 3.4163 12.2134 2.3359 18.463-1.0805 6.2495-4.0055 12.0331-8.399 16.6071s-10.0546 7.7294-16.2557 9.0605c-6.201 1.331-12.6584.777-18.542-1.591s-10.9245-6.4417-14.4746-11.6973c-3.55-5.2556-5.447-11.4529-5.447-17.7952 0-1.6569-1.3432-3-3-3-1.6569 0-3 1.3431-3 3 0 7.5392 2.255 14.9062 6.475 21.1537 4.2201 6.2475 10.2124 11.09 17.2064 13.9049s14.6701 3.4735 22.0415 1.8912c7.3713-1.5822 14.1009-5.3331 19.3236-10.7704 5.2227-5.4372 8.6997-12.3123 9.9841-19.7414 1.2843-7.429.3173-15.0724-2.7768-21.9475-3.094-6.8751-8.1738-12.6676-14.586-16.6329-5.8803-3.6363-12.6348-5.5834-19.5246-5.6475l3.9172-3.6822c1.2073-1.1348 1.2073-2.9747 0-4.1095z" fill="var(--color-white)"/></svg>
