<svg xmlns="http://www.w3.org/2000/svg" xml:space="preserve" width="1.5rem" height="1.5rem" viewBox="0 -2.89 122.88 122.88"><path d="M36.82 107.86 35.65 78.4l13.25-.53c5.66.78 11.39 3.61 17.15 6.92l10.29-.41c4.67.1 7.3 4.72 2.89 8-3.5 2.79-8.27 2.83-13.17 2.58-3.37-.03-3.34 4.5.17 4.37 1.22.05 2.54-.29 3.69-.34 6.09-.25 11.06-1.61 13.94-6.55l1.4-3.66 15.01-8.2c7.56-2.83 12.65 4.3 7.23 10.1-10.77 8.51-21.2 16.27-32.62 22.09-8.24 5.47-16.7 5.64-25.34 1.01zm-7.08-44.89h91.9c.68 0 1.24.57 1.24 1.24v5.41c0 .67-.56 1.24-1.24 1.24h-91.9c-.68 0-1.24-.56-1.24-1.24v-5.41c0-.68.56-1.24 1.24-1.24m49.52-51.74c25.16 2.01 46.35 23.16 43.22 48.06H28.91C25.82 34.23 47.09 13.05 72.43 11.2V7.14h-4c-.7 0-1.28-.58-1.28-1.28V1.28c0-.7.57-1.28 1.28-1.28h14.72c.7 0 1.28.58 1.28 1.28v4.58c0 .7-.58 1.28-1.28 1.28h-3.89zM0 77.39l31.55-1.66 1.4 35.25-31.55 1.65z" style="fill-rule:evenodd;clip-rule:evenodd"/></svg>