<svg xmlns="http://www.w3.org/2000/svg" width="38.243" height="61.072"><g data-name="Group 46" transform="translate(-392.423 -229.59)"><circle cx="18.921" cy="18.921" r="18.921" fill="none" stroke="rgba(0,0,0,0.85)" stroke-linecap="round" stroke-linejoin="round" stroke-width=".4" data-name="Ellipse 3" transform="translate(392.623 252.619)"/><path fill="rgba(0,0,0,0.85)" d="M415.218 275.578a3.676 3.676 0 0 0-3.674-3.674 2.887 2.887 0 1 1 2.885-2.885c0 .431.788.431.788 0a3.674 3.674 0 0 0-2.755-3.562l-.524-.13v-1.776c0-.431-.793-.431-.793 0v1.776l-.524.13a3.674 3.674 0 0 0 .923 7.231 2.887 2.887 0 1 1-2.885 2.89.394.394 0 0 0-.394-.394.4.4 0 0 0-.4.394 3.68 3.68 0 0 0 2.76 3.558l.52.134v1.772c0 .431.793.431.793 0v-1.772l.519-.134a3.676 3.676 0 0 0 2.761-3.558" data-name="Path 77"/><g fill="none" stroke="rgba(0,0,0,0.85)" stroke-linecap="round" stroke-linejoin="round" stroke-width=".4" data-name="Group 46"><path d="M411.544 252.619v-22.746" data-name="Line 39"/><path d="m411.544 229.873-4.617 4.617" data-name="Line 40"/><path d="m411.544 229.873 4.617 4.617" data-name="Line 41"/></g><g fill="none" stroke="rgba(0,0,0,0.85)" stroke-linecap="round" stroke-linejoin="round" stroke-width=".4" data-name="Group 47"><path d="M399.243 257.165v-27.292" data-name="Line 42"/><path d="m399.243 229.873-4.617 4.617" data-name="Line 43"/><path d="m399.243 229.873 4.617 4.617" data-name="Line 44"/></g><g fill="none" stroke="rgba(0,0,0,0.85)" stroke-linecap="round" stroke-linejoin="round" stroke-width=".4" data-name="Group 48"><path d="M423.845 257.165v-27.292" data-name="Line 45"/><path d="m423.845 229.873-4.617 4.617" data-name="Line 46"/><path d="m423.845 229.873 4.617 4.617" data-name="Line 47"/></g></g></svg>