<svg xmlns="http://www.w3.org/2000/svg" width="1.5rem" height="1.5rem" fill-rule="evenodd" clip-rule="evenodd" image-rendering="optimizeQuality" shape-rendering="geometricPrecision" text-rendering="geometricPrecision" viewBox="0 0 28444 28444"><path fill-rule="nonzero" d="M19425 26381c-195 195-512 195-707 0s-195-512 0-707l5206-5206H3360c-15 1-29 2-44 2-276 0-500-224-500-500V2416c0-276 224-500 500-500s500 224 500 500v17056h20108l-5206-5206c-195-195-195-512 0-707s512-195 707 0l6057 6057c195 195 195 512 0 707l-6057 6057z"/></svg>