<svg clip-rule="evenodd" fill-rule="evenodd" height="512" image-rendering="optimizeQuality" shape-rendering="geometricPrecision" text-rendering="geometricPrecision" viewBox="0 0 28444 28444" width="512" xmlns="http://www.w3.org/2000/svg"><g id="Layer_x0020_1"><path d="m19425 26381c-195 195-512 195-707 0s-195-512 0-707l5206-5206h-20564c-15 1-29 2-44 2-276 0-500-224-500-500v-17554c0-276 224-500 500-500s500 224 500 500v17056h20108l-5206-5206c-195-195-195-512 0-707s512-195 707 0l6057 6057c195 195 195 512 0 707l-6057 6057z" fill-rule="nonzero"/></g></svg>