<svg xmlns="http://www.w3.org/2000/svg" width="1.5rem" height="1.5rem" viewBox="0 0 512 512"><path d="M440.768 160.667h-42.017C391.742 93.477 338.189 39.925 271 32.916V15c0-8.284-6.716-15-15-15s-15 6.716-15 15v17.916c-67.189 7.009-120.742 60.561-127.751 127.751H71.234a54.8 54.8 0 0 0-25.168 6.101V87.3c0-8.284-6.716-15-15-15s-15 6.716-15 15v257.067c0 25.989 21.145 47.133 47.135 47.133.357 0 .711-.018 1.066-.026v28.721c-18.654 6.281-32.133 23.927-32.133 44.672 0 25.989 21.144 47.133 47.133 47.133s47.133-21.144 47.133-47.133c0-20.746-13.479-38.391-32.133-44.672V379.77c.357-.314.719-.626 1.066-.951 8.425 7.863 19.727 12.681 32.133 12.681s23.708-4.818 32.133-12.681c8.426 7.863 19.729 12.681 32.135 12.681s23.708-4.818 32.133-12.681c8.425 7.863 19.727 12.681 32.133 12.681s23.709-4.818 32.135-12.681c8.425 7.863 19.727 12.681 32.133 12.681s23.708-4.818 32.133-12.681c8.425 7.863 19.727 12.681 32.133 12.681s23.709-4.818 32.135-12.681c.348.325.709.637 1.066.951v40.425c-18.656 6.281-32.135 23.926-32.135 44.672 0 25.989 21.145 47.133 47.135 47.133s47.133-21.144 47.133-47.133c0-20.746-13.479-38.391-32.133-44.672v-28.721c.355.008.709.026 1.066.026 25.989 0 47.133-21.144 47.133-47.133V215.833c0-30.418-24.747-55.166-55.166-55.166M79.268 482c-9.447 0-17.133-7.686-17.133-17.133 0-9.448 7.686-17.134 17.133-17.134S96.4 455.419 96.4 464.867c0 9.447-7.685 17.133-17.132 17.133m353.466 0c-9.448 0-17.135-7.686-17.135-17.133 0-9.448 7.687-17.134 17.135-17.134 9.447 0 17.133 7.686 17.133 17.134 0 9.447-7.685 17.133-17.133 17.133M256 62.134c57.517 0 105.182 42.997 112.547 98.533H143.453c7.365-55.536 55.03-98.533 112.547-98.533m209.934 282.233c0 9.447-7.686 17.133-17.133 17.133s-17.133-7.686-17.133-17.133c0-8.284-6.716-15-15-15s-15 6.716-15 15c0 9.447-7.687 17.133-17.135 17.133-9.447 0-17.133-7.686-17.133-17.133 0-8.284-6.716-15-15-15s-15 6.716-15 15c0 9.447-7.686 17.133-17.133 17.133s-17.133-7.686-17.133-17.133c0-8.284-6.716-15-15-15s-15 6.716-15 15c0 9.447-7.687 17.133-17.135 17.133-9.447 0-17.133-7.686-17.133-17.133 0-8.284-6.716-15-15-15s-15 6.716-15 15c0 9.447-7.686 17.133-17.133 17.133-9.448 0-17.135-7.686-17.135-17.133 0-8.284-6.716-15-15-15s-15 6.716-15 15c0 9.447-7.686 17.133-17.133 17.133s-17.133-7.686-17.133-17.133c0-8.284-6.716-15-15-15s-15 6.716-15 15c0 9.447-7.686 17.133-17.133 17.133-9.448 0-17.135-7.686-17.135-17.133V215.833c0-13.876 11.29-25.166 25.168-25.166h369.532c13.877 0 25.166 11.29 25.166 25.166v128.534z"/></svg>