<svg xmlns="http://www.w3.org/2000/svg" width="1.5rem" height="1.5rem" viewBox="0 0 64 64"><path d="M50.184 50.305h-.275v-1.383c0-7.832-5.058-14.489-12.072-16.922 7.015-2.433 12.072-9.09 12.072-16.923v-1.41h.275a5.344 5.344 0 0 0 5.338-5.337c0-2.927-2.395-5.309-5.338-5.309H13.816c-2.943 0-5.338 2.381-5.338 5.309a5.344 5.344 0 0 0 5.338 5.337h.246v1.41c0 7.833 5.059 14.49 12.074 16.923-7.016 2.433-12.074 9.09-12.074 16.922v1.383h-.246a5.343 5.343 0 0 0-5.338 5.336 5.345 5.345 0 0 0 5.338 5.338h36.367c2.943 0 5.338-2.395 5.338-5.338s-2.394-5.336-5.337-5.336M10.479 8.331c0-1.824 1.497-3.309 3.338-3.309h36.367c1.841 0 3.338 1.484 3.338 3.309a3.34 3.34 0 0 1-3.338 3.337H13.816a3.34 3.34 0 0 1-3.337-3.337m5.584 6.746v-1.41h31.846v1.41c0 8.78-7.143 15.923-15.922 15.923-8.781 0-15.924-7.143-15.924-15.923m0 33.845C16.063 40.143 23.206 33 31.986 33c8.779 0 15.922 7.143 15.922 15.922v1.383H16.063zm34.121 10.057H13.816a3.34 3.34 0 0 1-3.338-3.338 3.34 3.34 0 0 1 3.338-3.336h36.367c1.841 0 3.338 1.496 3.338 3.336s-1.497 3.338-3.337 3.338"/></svg>