<svg id="Line" height="1.5rem" viewBox="0 0 64 64" width="1.5rem" xmlns="http://www.w3.org/2000/svg"><path d="m50.184 50.305h-.275v-1.383c0-7.832-5.058-14.489-12.072-16.922 7.015-2.433 12.072-9.09 12.072-16.923v-1.41h.275c2.943 0 5.338-2.394 5.338-5.337 0-2.927-2.395-5.309-5.338-5.309h-36.368c-2.943 0-5.338 2.381-5.338 5.309 0 2.943 2.395 5.337 5.338 5.337h.246v1.41c0 7.833 5.059 14.49 12.074 16.923-7.016 2.433-12.074 9.09-12.074 16.922v1.383h-.246c-2.943 0-5.338 2.394-5.338 5.336 0 2.943 2.395 5.338 5.338 5.338h36.367c2.943 0 5.338-2.395 5.338-5.338s-2.394-5.336-5.337-5.336zm-39.705-41.974c0-1.824 1.497-3.309 3.338-3.309h36.367c1.841 0 3.338 1.484 3.338 3.309 0 1.84-1.497 3.337-3.338 3.337h-36.368c-1.84-.001-3.337-1.498-3.337-3.337zm5.584 6.746v-1.41h31.846v1.41c0 8.78-7.143 15.923-15.922 15.923-8.781 0-15.924-7.143-15.924-15.923zm0 33.845c0-8.779 7.143-15.922 15.923-15.922 8.779 0 15.922 7.143 15.922 15.922v1.383h-31.845zm34.121 10.057h-36.368c-1.841 0-3.338-1.497-3.338-3.338 0-1.84 1.497-3.336 3.338-3.336h36.367c1.841 0 3.338 1.496 3.338 3.336s-1.497 3.338-3.337 3.338z"/></svg>