<svg xmlns="http://www.w3.org/2000/svg" xml:space="preserve" width="1.5rem" height="1.5rem" viewBox="0 0 488.324 488.324"><path d="M255.803 488.324c22.565-.496 43.631-2.428 62.509-5.554l3.081-110.97c-18.985 3.658-40.944 6.082-65.591 6.667zM255.803 299.227c25.496-.59 48.194-3.096 67.797-6.884l4.469-160.97c-22.083 2.49-46.737 3.973-72.266 4.32z"/><path d="M431.982 112.45c0-16.901-19.462-28.719-61.247-37.191-2.23-.452-4.511-.891-6.834-1.316-.835-7.393-3.426-11.971-5.415-15.469-1.707-3.003-2.486-4.372-2.486-8.321s.779-5.317 2.486-8.319c2.402-4.226 5.692-10.011 5.692-20.445 0-6.774-5.492-12.267-12.266-12.267s-12.266 5.492-12.266 12.267c0 3.948-.779 5.317-2.486 8.319-2.402 4.225-5.692 10.011-5.692 20.445 0 9.819 2.913 15.521 5.258 19.68-24.258-2.992-51.649-4.765-80.317-5.158-.852-7.309-3.424-11.848-5.401-15.324-1.706-3.002-2.486-4.371-2.486-8.319s.779-5.317 2.486-8.319c2.402-4.225 5.692-10.011 5.692-20.445C256.698 5.492 251.206 0 244.432 0s-12.266 5.492-12.266 12.266c0 3.948-.779 5.317-2.486 8.319-2.402 4.226-5.692 10.011-5.692 20.445s3.29 16.22 5.692 20.445c.711 1.25 1.258 2.218 1.658 3.206-29.745.427-58.101 2.34-82.99 5.561-1.141-5.293-3.183-8.896-4.817-11.769-1.707-3.003-2.486-4.372-2.486-8.321s.779-5.317 2.485-8.319c2.402-4.226 5.692-10.011 5.692-20.445 0-6.774-5.492-12.267-12.266-12.267s-12.266 5.492-12.266 12.267c0 3.948-.779 5.317-2.485 8.319-2.402 4.225-5.692 10.011-5.692 20.445s3.289 16.221 5.691 20.445c.765 1.345 1.342 2.362 1.748 3.431q-3.242.598-6.362 1.229c-41.786 8.474-61.248 20.292-61.248 37.193 0 .298.02.591.032.886-.03.518-.04 1.038-.004 1.567l21.552 315.963c.415 19.185 24.867 35.594 63.903 45.931l-3.051-111.918c-35.628-10.935-55.123-26.522-55.123-39.634L79.5 245.902c1.248 13.25 21.337 28.687 57.109 39.557l-4.307-158.025c-.63-.11-1.279-.214-1.901-.325-29.109-5.192-42.68-11.227-47.727-14.658 4.205-2.859 14.337-7.525 34.434-12.005-.37 2.136-.595 4.525-.595 7.234 0 6.773 5.492 12.266 12.266 12.266s12.266-5.492 12.266-12.266c0-3.947.778-5.317 2.485-8.317.672-1.181 1.412-2.491 2.131-3.985 23.491-3.316 50.742-5.389 79.326-6.033-.606 2.611-.999 5.633-.999 9.212 0 6.774 5.492 12.267 12.266 12.267s12.266-5.492 12.266-12.267c0-3.947.779-5.316 2.485-8.317.198-.348.404-.713.611-1.084 29.236.255 57.457 2.001 82.134 5.041-1.292 3.438-2.285 7.758-2.285 13.484 0 6.773 5.492 12.266 12.266 12.266s12.266-5.492 12.266-12.266c0-3.947.779-5.317 2.485-8.317.241-.425.494-.871.749-1.332 28.199 5.138 41.446 11.04 46.416 14.42-5.046 3.432-18.617 9.466-47.726 14.658-1.709.305-3.457.6-5.218.89l-4.4 158.472c37.904-10.909 59.23-26.901 60.517-40.567l-4.15 79.343c0 13.527-20.752 29.696-58.572 40.664l-3.104 111.789c41.071-10.271 66.978-27.078 67.405-46.832l21.552-315.963c.036-.528.026-1.05-.004-1.567.014-.298.035-.591.035-.889"/><path d="M166.516 482.174c19.416 3.418 41.26 5.552 64.754 6.125v-109.86c-25.639-.676-48.339-3.347-67.781-7.32zM161.323 291.666c20.049 4.101 43.476 6.852 69.947 7.531v-163.52c-26.365-.397-51.767-2.006-74.327-4.686z"/></svg>