<?xml version="1.0" encoding="iso-8859-1"?>
<!-- Uploaded to: SVG Repo, www.svgrepo.com, Generator: SVG Repo Mixer Tools -->
<svg fill="#000000" height="800px" width="800px" version="1.1" id="Capa_1" xmlns="http://www.w3.org/2000/svg" xmlns:xlink="http://www.w3.org/1999/xlink" 
	 viewBox="0 0 488.324 488.324" xml:space="preserve">
<g>
	<g>
		<path d="M255.803,488.324c22.565-0.496,43.631-2.428,62.509-5.554l3.081-110.97c-18.985,3.658-40.944,6.082-65.591,6.667v109.857
			H255.803z"/>
		<path d="M255.803,299.227c25.496-0.59,48.194-3.096,67.797-6.884l4.469-160.97c-22.083,2.49-46.737,3.973-72.266,4.32
			L255.803,299.227L255.803,299.227z"/>
		<path d="M431.982,112.45c0-16.901-19.462-28.719-61.247-37.191c-2.23-0.452-4.511-0.891-6.834-1.316
			c-0.835-7.393-3.426-11.971-5.415-15.469c-1.707-3.003-2.486-4.372-2.486-8.321c0-3.948,0.779-5.317,2.486-8.319
			c2.402-4.226,5.692-10.011,5.692-20.445c0-6.774-5.492-12.267-12.266-12.267s-12.266,5.492-12.266,12.267
			c0,3.948-0.779,5.317-2.486,8.319c-2.402,4.225-5.692,10.011-5.692,20.445c0,9.819,2.913,15.521,5.258,19.68
			c-24.258-2.992-51.649-4.765-80.317-5.158c-0.852-7.309-3.424-11.848-5.401-15.324c-1.706-3.002-2.486-4.371-2.486-8.319
			s0.779-5.317,2.486-8.319c2.402-4.225,5.692-10.011,5.692-20.445C256.698,5.492,251.206,0,244.432,0s-12.266,5.492-12.266,12.266
			c0,3.948-0.779,5.317-2.486,8.319c-2.402,4.226-5.692,10.011-5.692,20.445c0,10.435,3.29,16.22,5.692,20.445
			c0.711,1.25,1.258,2.218,1.658,3.206c-29.745,0.427-58.101,2.34-82.99,5.561c-1.141-5.293-3.183-8.896-4.817-11.769
			c-1.707-3.003-2.486-4.372-2.486-8.321c0-3.948,0.779-5.317,2.485-8.319c2.402-4.226,5.692-10.011,5.692-20.445
			c0-6.774-5.492-12.267-12.266-12.267c-6.774,0-12.266,5.492-12.266,12.267c0,3.948-0.779,5.317-2.485,8.319
			c-2.402,4.225-5.692,10.011-5.692,20.445s3.289,16.221,5.691,20.445c0.765,1.345,1.342,2.362,1.748,3.431
			c-2.161,0.398-4.282,0.809-6.362,1.229c-41.786,8.474-61.248,20.292-61.248,37.193c0,0.298,0.02,0.591,0.032,0.886
			c-0.03,0.518-0.04,1.038-0.004,1.567l21.552,315.963c0.415,19.185,24.867,35.594,63.903,45.931l-3.051-111.918
			c-35.628-10.935-55.123-26.522-55.123-39.634L79.5,245.902c1.248,13.25,21.337,28.687,57.109,39.557l-4.307-158.025
			c-0.63-0.11-1.279-0.214-1.901-0.325c-29.109-5.192-42.68-11.227-47.727-14.658c4.205-2.859,14.337-7.525,34.434-12.005
			c-0.37,2.136-0.595,4.525-0.595,7.234c0,6.773,5.492,12.266,12.266,12.266s12.266-5.492,12.266-12.266
			c0-3.947,0.778-5.317,2.485-8.317c0.672-1.181,1.412-2.491,2.131-3.985c23.491-3.316,50.742-5.389,79.326-6.033
			c-0.606,2.611-0.999,5.633-0.999,9.212c0,6.774,5.492,12.267,12.266,12.267s12.266-5.492,12.266-12.267
			c0-3.947,0.779-5.316,2.485-8.317c0.198-0.348,0.404-0.713,0.611-1.084c29.236,0.255,57.457,2.001,82.134,5.041
			c-1.292,3.438-2.285,7.758-2.285,13.484c0,6.773,5.492,12.266,12.266,12.266s12.266-5.492,12.266-12.266
			c0-3.947,0.779-5.317,2.485-8.317c0.241-0.425,0.494-0.871,0.749-1.332c28.199,5.138,41.446,11.04,46.416,14.42
			c-5.046,3.432-18.617,9.466-47.726,14.658c-1.709,0.305-3.457,0.6-5.218,0.89l-4.4,158.472
			c37.904-10.909,59.23-26.901,60.517-40.567l-4.15,79.343c0,13.527-20.752,29.696-58.572,40.664l-3.104,111.789
			c41.071-10.271,66.978-27.078,67.405-46.832l21.552-315.963c0.036-0.528,0.026-1.05-0.004-1.567
			C431.961,113.041,431.982,112.748,431.982,112.45z"/>
		<path d="M166.516,482.174c19.416,3.418,41.26,5.552,64.754,6.125v-109.86c-25.639-0.676-48.339-3.347-67.781-7.32L166.516,482.174
			z"/>
		<path d="M161.323,291.666c20.049,4.101,43.476,6.852,69.947,7.531v-163.52c-26.365-0.397-51.767-2.006-74.327-4.686
			L161.323,291.666z"/>
	</g>
</g>
</svg>