<svg xmlns="http://www.w3.org/2000/svg" width="1.5rem" height="1.5rem" viewBox="0 0 60 60"><path d="M56 10a5.006 5.006 0 0 0-5-5h-3V2a2 2 0 0 0-2-2h-2a2 2 0 0 0-2 2v3H31V2a2 2 0 0 0-2-2h-2a2 2 0 0 0-2 2v3H14V2a2 2 0 0 0-2-2h-2a2 2 0 0 0-2 2v3H5a5.006 5.006 0 0 0-5 5v45a5.006 5.006 0 0 0 5 5c40.825 0 37.192.014 37.488-.026 14.729.44 22.893-16.768 13.512-27.906zM34.036 55l8.225-9.6 1.4 12.568c-3.457.17-6.864-.88-9.625-2.968m-1.368-22.847 9.023 10.838-9.18 10.709a14.945 14.945 0 0 1 .157-21.547M11 47a1 1 0 0 1-1-1v-4h7v5zm15-19v5h-7v-5zm9.017 0a16.9 16.9 0 0 0-5.734 5H28v-5zm16.947 3-8.953 10.45-8.8-10.576A14.88 14.88 0 0 1 51.964 31m-25.683 9H19v-5h9.008a16.9 16.9 0 0 0-1.727 5M10 35h7v5h-7zm7-2h-7v-4a1 1 0 0 1 1-1h6zm2 9h7.051c-.124 1.68.026 3.368.444 5H19zm34.489-9.7a14.94 14.94 0 0 1 4.46 9.7H45.174zM44 2h2v8h-2zM27 2h2v8h-2zM10 2h2v8h-2zM5 7h3v3a2 2 0 0 0 2 2h2a2 2 0 0 0 2-2V7h11v3a2 2 0 0 0 2 2h2a2 2 0 0 0 2-2V7h11v3a2 2 0 0 0 2 2h2a2 2 0 0 0 2-2V7h3a3 3 0 0 1 3 3v6H2v-6a3 3 0 0 1 3-3m0 51a3 3 0 0 1-3-3V18h52v12.057l-.014-.008A16.9 16.9 0 0 0 43 26H11a3 3 0 0 0-3 3v17a3 3 0 0 0 3 3h16.114a17.4 17.4 0 0 0 4.825 6.909c.025.021.055.029.082.048.924.786 1.93 1.47 3 2.043zm40.648-.249L44.118 44h13.831a15.006 15.006 0 0 1-12.301 13.751"/></svg>