<svg id="Capa_1" enable-background="new 0 0 512 512" height="1.5rem" viewBox="0 0 512 512" width="1.5rem" xmlns="http://www.w3.org/2000/svg"><path id="XMLID_1649_" d="m482 .008h-452c-16.542 0-30 13.458-30 30v400c0 16.542 13.458 30 30 30h111.25c5.522 0 10-4.478 10-10s-4.478-10-10-10h-111.25c-5.514 0-10-4.486-10-10v-330h472v330c0 5.514-4.486 10-10 10h-49.278l-102.038-102.038c11.045-20.19 17.332-43.339 17.332-67.931 0-78.299-63.701-142-142-142s-142 63.701-142 142 63.701 142 142 142c24.589 0 47.737-6.286 67.926-17.33l45.298 45.298h-87.99c-5.522 0-10 4.478-10 10s4.478 10 10 10h107.99l40.252 40.253c7.821 7.821 18.096 11.732 28.37 11.731 10.274 0 20.549-3.91 28.371-11.732 10.874-10.875 14.18-26.487 9.937-40.252h35.83c16.542 0 30-13.458 30-30v-400c0-16.541-13.458-29.999-30-29.999zm-397.984 270.031c0-67.271 54.729-122 122-122s122 54.729 122 122-54.729 122-122 122-122-54.728-122-122zm235.581 85.13 19.044 19.044-28.456 28.456-19.044-19.044c10.773-8.095 20.362-17.684 28.456-28.456zm102.495 130.949c-7.847 7.845-20.612 7.845-28.457 0l-69.307-69.307 28.456-28.456 69.307 69.307c7.846 7.845 7.846 20.61.001 28.456zm-402.092-406.11v-50c0-5.514 4.486-10 10-10h452c5.514 0 10 4.486 10 10v50z"/><path id="XMLID_1658_" d="m448 40.008h-216c-5.522 0-10 4.478-10 10s4.478 10 10 10h216c5.522 0 10-4.478 10-10s-4.478-10-10-10z"/><path id="XMLID_1660_" d="m108 40.01c-2.63 0-5.21 1.06-7.07 2.93-1.861 1.86-2.93 4.44-2.93 7.07s1.069 5.21 2.93 7.069c1.86 1.86 4.44 2.931 7.07 2.931s5.21-1.07 7.069-2.931c1.861-1.859 2.931-4.439 2.931-7.069s-1.07-5.21-2.931-7.07c-1.859-1.871-4.439-2.93-7.069-2.93z"/><path id="XMLID_1661_" d="m64 40.01c-2.63 0-5.21 1.06-7.07 2.93-1.861 1.86-2.93 4.44-2.93 7.07s1.069 5.21 2.93 7.069c1.86 1.86 4.44 2.931 7.07 2.931s5.21-1.07 7.069-2.931c1.861-1.869 2.931-4.439 2.931-7.069s-1.07-5.21-2.931-7.07c-1.859-1.871-4.439-2.93-7.069-2.93z"/><path id="XMLID_1665_" d="m152 40.01c-2.63 0-5.21 1.06-7.07 2.93-1.86 1.86-2.93 4.44-2.93 7.07s1.069 5.21 2.93 7.069c1.86 1.86 4.44 2.931 7.07 2.931s5.21-1.07 7.069-2.931c1.861-1.859 2.931-4.439 2.931-7.069s-1.07-5.21-2.931-7.07c-1.859-1.871-4.439-2.93-7.069-2.93z"/><path id="XMLID_1667_" d="m206.016 263.039c-5.522 0-10 4.478-10 10v39c0 5.522 4.478 10 10 10s10-4.478 10-10v-39c0-5.522-4.478-10-10-10z"/><path id="XMLID_1668_" d="m206.02 218.04c-2.64 0-5.22 1.069-7.08 2.93-1.859 1.859-2.92 4.439-2.92 7.07 0 2.63 1.061 5.21 2.92 7.069 1.86 1.86 4.44 2.931 7.08 2.931 2.63 0 5.21-1.07 7.07-2.931 1.86-1.859 2.93-4.439 2.93-7.069 0-2.631-1.069-5.211-2.93-7.07-1.861-1.861-4.441-2.93-7.07-2.93z"/><path id="XMLID_1671_" d="m206.016 168.039c-56.243 0-102 45.757-102 102s45.757 102 102 102 102-45.757 102-102-45.757-102-102-102zm0 184c-45.215 0-82-36.785-82-82s36.785-82 82-82 82 36.785 82 82-36.786 82-82 82z"/><path id="XMLID_1672_" d="m362.268 202.048c0 5.522 4.478 10 10 10h75.732c5.522 0 10-4.478 10-10s-4.478-10-10-10h-75.732c-5.523 0-10 4.477-10 10z"/><path id="XMLID_1673_" d="m372.268 144.05h-20.535c-5.522 0-10 4.478-10 10s4.478 10 10 10h20.535c5.522 0 10-4.478 10-10s-4.478-10-10-10z"/><path id="XMLID_1675_" d="m448 164.05c5.522 0 10-4.478 10-10s-4.478-10-10-10h-31.732c-5.522 0-10 4.478-10 10s4.478 10 10 10z"/><path id="XMLID_1692_" d="m448 240.046h-24.75c-5.522 0-10 4.478-10 10s4.478 10 10 10h24.75c5.522 0 10-4.478 10-10s-4.478-10-10-10z"/><path id="XMLID_1711_" d="m186.25 440.01c-2.63 0-5.21 1.06-7.07 2.93-1.86 1.86-2.93 4.44-2.93 7.07s1.069 5.2 2.93 7.069c1.86 1.86 4.44 2.931 7.07 2.931s5.21-1.07 7.069-2.931c1.86-1.859 2.931-4.439 2.931-7.069 0-2.641-1.07-5.21-2.931-7.07-1.859-1.871-4.439-2.93-7.069-2.93z"/></svg>