<svg xmlns="http://www.w3.org/2000/svg" width="1.5rem" height="1.5rem" viewBox="0 0 512 512"><path d="M482 .008H30c-16.542 0-30 13.458-30 30v400c0 16.542 13.458 30 30 30h111.25c5.522 0 10-4.478 10-10s-4.478-10-10-10H30c-5.514 0-10-4.486-10-10v-330h472v330c0 5.514-4.486 10-10 10h-49.278L330.684 337.97c11.045-20.19 17.332-43.339 17.332-67.931 0-78.299-63.701-142-142-142s-142 63.701-142 142 63.701 142 142 142c24.589 0 47.737-6.286 67.926-17.33l45.298 45.298h-87.99c-5.522 0-10 4.478-10 10s4.478 10 10 10h107.99l40.252 40.253c7.821 7.821 18.096 11.732 28.37 11.731s20.549-3.91 28.371-11.732c10.874-10.875 14.18-26.487 9.937-40.252H482c16.542 0 30-13.458 30-30v-400C512 13.466 498.542.008 482 .008M84.016 270.039c0-67.271 54.729-122 122-122s122 54.729 122 122-54.729 122-122 122-122-54.728-122-122m235.581 85.13 19.044 19.044-28.456 28.456-19.044-19.044a143.3 143.3 0 0 0 28.456-28.456m102.495 130.949c-7.847 7.845-20.612 7.845-28.457 0l-69.307-69.307 28.456-28.456 69.307 69.307c7.846 7.845 7.846 20.61.001 28.456M20 80.008v-50c0-5.514 4.486-10 10-10h452c5.514 0 10 4.486 10 10v50z"/><path d="M448 40.008H232c-5.522 0-10 4.478-10 10s4.478 10 10 10h216c5.522 0 10-4.478 10-10s-4.478-10-10-10M108 40.01c-2.63 0-5.21 1.06-7.07 2.93C99.069 44.8 98 47.38 98 50.01s1.069 5.21 2.93 7.069c1.86 1.86 4.44 2.931 7.07 2.931s5.21-1.07 7.069-2.931C116.93 55.22 118 52.64 118 50.01s-1.07-5.21-2.931-7.07A10.03 10.03 0 0 0 108 40.01M64 40.01c-2.63 0-5.21 1.06-7.07 2.93C55.069 44.8 54 47.38 54 50.01s1.069 5.21 2.93 7.069c1.86 1.86 4.44 2.931 7.07 2.931s5.21-1.07 7.069-2.931C72.93 55.21 74 52.64 74 50.01s-1.07-5.21-2.931-7.07A10.03 10.03 0 0 0 64 40.01M152 40.01c-2.63 0-5.21 1.06-7.07 2.93-1.86 1.86-2.93 4.44-2.93 7.07s1.069 5.21 2.93 7.069c1.86 1.86 4.44 2.931 7.07 2.931s5.21-1.07 7.069-2.931C160.93 55.22 162 52.64 162 50.01s-1.07-5.21-2.931-7.07A10.03 10.03 0 0 0 152 40.01M206.016 263.039c-5.522 0-10 4.478-10 10v39c0 5.522 4.478 10 10 10s10-4.478 10-10v-39c0-5.522-4.478-10-10-10M206.02 218.04c-2.64 0-5.22 1.069-7.08 2.93a10.07 10.07 0 0 0-2.92 7.07c0 2.63 1.061 5.21 2.92 7.069a10.08 10.08 0 0 0 7.08 2.931c2.63 0 5.21-1.07 7.07-2.931a10.07 10.07 0 0 0 2.93-7.069c0-2.631-1.069-5.211-2.93-7.07a10.07 10.07 0 0 0-7.07-2.93"/><path d="M206.016 168.039c-56.243 0-102 45.757-102 102s45.757 102 102 102 102-45.757 102-102-45.757-102-102-102m0 184c-45.215 0-82-36.785-82-82s36.785-82 82-82 82 36.785 82 82-36.786 82-82 82M362.268 202.048c0 5.522 4.478 10 10 10H448c5.522 0 10-4.478 10-10s-4.478-10-10-10h-75.732c-5.523 0-10 4.477-10 10M372.268 144.05h-20.535c-5.522 0-10 4.478-10 10s4.478 10 10 10h20.535c5.522 0 10-4.478 10-10s-4.478-10-10-10M448 164.05c5.522 0 10-4.478 10-10s-4.478-10-10-10h-31.732c-5.522 0-10 4.478-10 10s4.478 10 10 10zM448 240.046h-24.75c-5.522 0-10 4.478-10 10s4.478 10 10 10H448c5.522 0 10-4.478 10-10s-4.478-10-10-10M186.25 440.01c-2.63 0-5.21 1.06-7.07 2.93-1.86 1.86-2.93 4.44-2.93 7.07s1.069 5.2 2.93 7.069c1.86 1.86 4.44 2.931 7.07 2.931s5.21-1.07 7.069-2.931a10.07 10.07 0 0 0 2.931-7.069c0-2.641-1.07-5.21-2.931-7.07a10.03 10.03 0 0 0-7.069-2.93"/></svg>