<svg xmlns="http://www.w3.org/2000/svg" width="1.5rem" height="1.5rem" viewBox="0 0 32 32"><path d="M31.119 14.845a1.25 1.25 0 0 0-.639-.702l-.008-.003-1.765-.823.39-.836a1.249 1.249 0 0 0-.598-1.658l-.008-.003L7.237.909a1.248 1.248 0 0 0-1.658.597l-.003.008-4.589 9.842a1.248 1.248 0 0 0 .597 1.658l.008.003 7.773 3.624-2.19 5.11H3.249v-3.75a1.25 1.25 0 0 0-2.5 0v10a1.25 1.25 0 0 0 2.5 0v-3.75h4.75c.512 0 .953-.309 1.146-.75l.003-.008 2.484-5.795 11.215 5.229c.154.074.334.117.525.117h.003c.498 0 .928-.292 1.13-.713l.003-.008.39-.835 1.767.824c.154.074.334.117.525.117h.003c.499 0 .929-.293 1.13-.715l.003-.008 2.754-5.904a1.241 1.241 0 0 0 .038-.964l.003.009zm-8.349 5.288-11.174-5.211a1 1 0 0 0-.098-.069l-.005-.003c-.029-.013-.06-.009-.09-.019l-7.62-3.554 3.532-7.576 18.988 8.854zm3.816-.617-.631-.295 1.697-3.639.631.295z"/></svg>