<svg xmlns="http://www.w3.org/2000/svg" width="1.5rem" height="1.5rem" viewBox="0 0 64 64"><path d="M50.345 3.579a5.07 5.07 0 0 0-5.512.283L13.189 26.858c-1.646 1.225-2.388 3.234-1.937 5.248.462 2.027 2.009 3.503 4.024 3.851l14.789 2.741 9.773 11.435c.967 1.145 2.357 1.802 3.814 1.802.524 0 1.051-.084 1.549-.243 1.973-.6 3.328-2.253 3.537-4.311l4.111-38.865c.213-2.046-.75-3.94-2.504-4.937m.516 4.729L46.75 47.175c-.128 1.264-.925 2.236-2.145 2.607-1.187.379-2.428.021-3.243-.944L31.356 37.13a1 1 0 0 0-.578-.334l-15.149-2.808c-1.236-.213-2.143-1.083-2.426-2.323-.279-1.247.162-2.444 1.171-3.196L46.007 5.481a3.05 3.05 0 0 1 1.793-.599c.535 0 1.054.144 1.549.431 1.077.613 1.642 1.734 1.512 2.995M17.999 40.824a1 1 0 0 0-1.365.369l-5.216 9.071a1 1 0 1 0 1.734.996l5.216-9.071a1 1 0 0 0-.369-1.365"/><path d="M27.979 42.329a1 1 0 0 0-1.367.363 7135 7135 0 0 0-8.93 15.45 1 1 0 1 0 1.733 1 7500 7500 0 0 1 8.927-15.446 1 1 0 0 0-.363-1.367M34.242 50.208a1 1 0 0 0-1.366.366l-5.216 9.043a1 1 0 1 0 1.733 1l5.216-9.043a1 1 0 0 0-.367-1.366"/></svg>