<svg id="Line" height="512" viewBox="0 0 64 64" width="512" xmlns="http://www.w3.org/2000/svg"><g><path d="m50.345 3.579c-1.728-1.001-3.889-.893-5.512.283l-31.644 22.996c-1.646 1.225-2.388 3.234-1.937 5.248.462 2.027 2.009 3.503 4.024 3.851l14.789 2.741 9.773 11.435c.967 1.145 2.357 1.802 3.814 1.802.524 0 1.051-.084 1.549-.243 1.973-.6 3.328-2.253 3.537-4.311l4.111-38.865c.213-2.046-.75-3.94-2.504-4.937zm.516 4.729-4.111 38.867c-.128 1.264-.925 2.236-2.145 2.607-1.187.379-2.428.021-3.243-.944l-10.006-11.708c-.149-.175-.353-.292-.578-.334l-15.149-2.808c-1.236-.213-2.143-1.083-2.426-2.323-.279-1.247.162-2.444 1.171-3.196l31.633-22.988c.541-.392 1.161-.599 1.793-.599.535 0 1.054.144 1.549.431 1.077.613 1.642 1.734 1.512 2.995z"/><path d="m17.999 40.824c-.479-.273-1.09-.109-1.365.369l-5.216 9.071c-.275.479-.11 1.09.368 1.365.157.09.329.133.498.133.346 0 .683-.18.868-.502l5.216-9.071c.274-.478.109-1.089-.369-1.365z"/><path d="m27.979 42.329c-.477-.276-1.09-.114-1.367.363-2.977 5.131-5.954 10.291-8.93 15.45-.276.479-.112 1.09.367 1.366.157.091.329.134.499.134.346 0 .682-.18.867-.5 2.976-5.159 5.952-10.317 8.927-15.446.278-.477.115-1.09-.363-1.367z"/><path d="m34.242 50.208c-.481-.276-1.09-.112-1.366.366l-5.216 9.043c-.276.479-.112 1.09.367 1.366.157.091.329.134.499.134.346 0 .682-.18.867-.5l5.216-9.043c.276-.478.112-1.09-.367-1.366z"/></g></svg>