<svg xmlns="http://www.w3.org/2000/svg" xml:space="preserve" viewBox="0 0 480 480"><path d="M296 280h-8.8a7.87 7.87 0 0 1-7.408-5.168 130 130 0 0 0-3.152-7.544 7.89 7.89 0 0 1 1.6-8.928l6.272-6.28c9.311-9.393 9.294-24.541-.04-33.912l-22.608-22.608c-9.383-9.328-24.537-9.328-33.92 0l-6.272 6.264a7.92 7.92 0 0 1-8.928 1.6 172 172 0 0 0-7.552-3.2A7.86 7.86 0 0 1 200 192.8V184c0-13.255-10.745-24-24-24h-32c-13.255 0-24 10.745-24 24v8.8a7.87 7.87 0 0 1-5.168 7.408c-2.56.976-5.064 2.024-7.544 3.152a7.91 7.91 0 0 1-8.928-1.6l-6.28-6.272c-9.382-9.322-24.53-9.322-33.912 0l-22.608 22.68c-9.328 9.383-9.328 24.537 0 33.92l6.264 6.272a7.89 7.89 0 0 1 1.6 8.928 134 134 0 0 0-3.16 7.552A7.86 7.86 0 0 1 32.8 280H24c-13.255 0-24 10.745-24 24v32c0 13.255 10.745 24 24 24h8.8a7.87 7.87 0 0 1 7.408 5.168c.976 2.56 2.024 5.064 3.152 7.544a7.89 7.89 0 0 1-1.6 8.928l-6.272 6.28c-9.322 9.382-9.322 24.53 0 33.912l22.608 22.608c9.383 9.328 24.537 9.328 33.92 0l6.272-6.264a7.92 7.92 0 0 1 8.928-1.6 172 172 0 0 0 7.552 3.2A7.865 7.865 0 0 1 120 447.2v8.8c0 13.255 10.745 24 24 24h32c13.255 0 24-10.745 24-24v-8.8a7.87 7.87 0 0 1 5.168-7.408c2.56-.976 5.064-2.024 7.544-3.152a7.91 7.91 0 0 1 8.928 1.6l6.28 6.272c9.395 9.307 24.539 9.289 33.912-.04l22.608-22.608c9.328-9.383 9.328-24.537 0-33.92l-6.264-6.272a7.89 7.89 0 0 1-1.6-8.928 172 172 0 0 0 3.2-7.552A7.86 7.86 0 0 1 287.2 360h8.8c13.255 0 24-10.745 24-24v-32c0-13.255-10.745-24-24-24m8 56a8 8 0 0 1-8 8h-8.8a24.08 24.08 0 0 0-22.4 15.472 111 111 0 0 1-2.752 6.616 24.07 24.07 0 0 0 4.8 26.848l6.256 6.264a8 8 0 0 1 .006 11.314l-.006.006-22.608 22.608a8 8 0 0 1-11.312 0l-6.272-6.264a24.05 24.05 0 0 0-26.848-4.8 116 116 0 0 1-6.6 2.752A24.07 24.07 0 0 0 184 447.2v8.8a8 8 0 0 1-8 8h-32a8 8 0 0 1-8-8v-8.8a24.08 24.08 0 0 0-15.472-22.4 111 111 0 0 1-6.616-2.752 24.08 24.08 0 0 0-26.848 4.8l-6.264 6.256a8 8 0 0 1-11.314.006l-.006-.006-22.608-22.584a8 8 0 0 1 0-11.312l6.264-6.272a24.07 24.07 0 0 0 4.8-26.848 116 116 0 0 1-2.752-6.6A24.07 24.07 0 0 0 32.8 344H24a8 8 0 0 1-8-8v-32a8 8 0 0 1 8-8h8.8a24.08 24.08 0 0 0 22.4-15.472q1.272-3.36 2.752-6.616a24.07 24.07 0 0 0-4.8-26.848l-6.288-6.264a8 8 0 0 1-.006-11.314l.006-.006 22.608-22.608a8 8 0 0 1 11.312 0l6.272 6.264a24.05 24.05 0 0 0 26.848 4.8 116 116 0 0 1 6.6-2.752A24.07 24.07 0 0 0 136 192.8V184a8 8 0 0 1 8-8h32a8 8 0 0 1 8 8v8.8a24.08 24.08 0 0 0 15.472 22.4q3.36 1.272 6.616 2.752a24.05 24.05 0 0 0 26.848-4.8l6.264-6.256a8.05 8.05 0 0 1 11.32 0l22.608 22.608a8 8 0 0 1 0 11.312l-6.264 6.272a24.07 24.07 0 0 0-4.8 26.848 116 116 0 0 1 2.752 6.6A24.07 24.07 0 0 0 287.2 296h8.8a8 8 0 0 1 8 8z"/><path d="M231.84 316.8a72 72 0 0 0-.448-5.736c-.256-2.048-.56-4.08-.984-6.072-.28-1.304-.648-2.592-1-3.888a72 72 0 0 0-1.512-4.872c-.392-1.112-.8-2.216-1.216-3.312a71 71 0 0 0-3.528-7.488c-.104-.184-.168-.384-.272-.568a71 71 0 0 0-7.2-10.488c-.232-.288-.496-.56-.736-.84a67 67 0 0 0-3.432-3.776c-.624-.648-1.28-1.256-1.936-1.88-.8-.744-1.6-1.48-2.4-2.184a76 76 0 0 0-2.968-2.448l-1.312-.976A71.5 71.5 0 0 0 160 248c-.8 0-1.6.12-2.4.152a70 70 0 0 0-5.136.32c-.904.096-1.816.2-2.72.328a73 73 0 0 0-7.752 1.448c-38.521 9.954-61.679 49.252-51.725 87.773a72.04 72.04 0 0 0 51.781 51.739c.128 0 .264.04.4.072a76 76 0 0 0 8.384 1.6c1.864.232 3.728.28 5.6.368 1.248.064 2.4.248 3.704.248 2.28 0 4.648-.152 7.064-.392.256 0 .512-.072.8-.104a69 69 0 0 0 5.92-.904c.8-.152 1.544-.352 2.312-.528a76 76 0 0 0 4.248-1.096c1.12-.336 2.208-.728 3.304-1.112s2.232-.8 3.368-1.232 2.088-.928 3.12-1.408c1.344-.616 2.68-1.224 4-1.944h.048a94.7 94.7 0 0 0 20.504-14.808 25.2 25.2 0 0 0 4.288-5.248 85.4 85.4 0 0 0 12.048-32.88c.224-1.544.424-3.088.544-4.664.112-1.448.192-2.888.224-4.328 0-.456.064-.888.064-1.344.008-1.128-.104-2.168-.152-3.256m-15.944 5.24c0 .664-.056 1.328-.096 1.984a63 63 0 0 1-.72 5.816 56.12 56.12 0 0 1-28.112 39.2 63 63 0 0 1-2.944 1.456l-.664.32a57.8 57.8 0 0 1-14.592 4.416c-.352.056-.712.12-1.072.168-1 .144-1.984.264-2.96.352a57 57 0 0 1-3.904.2h-1.672a56 56 0 0 1-5.664-.352l-.96-.112a59 59 0 0 1-6.536-1.232c-29.962-7.669-48.034-38.175-40.366-68.137a56 56 0 0 1 40.31-40.351v-.008A58 58 0 0 1 160 264a55 55 0 0 1 6.84.464c.608.072 1.208.184 1.808.272 1.728.272 3.44.616 5.128 1.048.552.144 1.104.272 1.648.424a56.5 56.5 0 0 1 12.2 5.136c.616.36 1.216.736 1.824 1.112 1.264.8 2.488 1.6 3.696 2.512.648.472 1.304.936 1.928 1.44a58 58 0 0 1 4.504 4c.568.576 1.088 1.208 1.64 1.808.92 1 1.816 2.024 2.672 3.104a61 61 0 0 1 1.72 2.288c.8 1.152 1.6 2.352 2.32 3.568.4.664.8 1.312 1.208 1.992a55 55 0 0 1 2.752 5.864c.32.8.592 1.6.88 2.4.52 1.472.968 2.96 1.36 4.464.2.8.424 1.512.592 2.288.467 2.162.806 4.35 1.016 6.552.048.584.048 1.176.088 1.76.112 1.84.144 3.688.072 5.544M456 168h-25.16a7.81 7.81 0 0 1-7.456-5.248 167 167 0 0 0-8.984-21.688 7.83 7.83 0 0 1 1.536-9.032l17.84-17.864c9.364-9.371 9.364-24.557 0-33.928L399.76 46.28c-9.371-9.364-24.557-9.364-33.928 0L348 64.104a7.83 7.83 0 0 1-9.024 1.544 166 166 0 0 0-21.696-9.032A7.81 7.81 0 0 1 312 49.16V24c0-13.255-10.745-24-24-24h-48c-13.255 0-24 10.745-24 24v25.16a7.81 7.81 0 0 1-5.248 7.456 167 167 0 0 0-21.688 9.024 7.82 7.82 0 0 1-9.032-1.536l-17.864-17.84c-9.382-9.337-24.546-9.337-33.928 0L94.288 80.216c-9.369 9.372-9.369 24.564 0 33.936l26.232 26.28a8 8 0 0 0 11.328-11.296L105.6 102.864a8 8 0 0 1 0-11.312L139.552 57.6a8 8 0 0 1 11.312 0l17.872 17.84a23.78 23.78 0 0 0 27.488 4.512 151 151 0 0 1 19.608-8.152A23.8 23.8 0 0 0 232 49.16V24a8 8 0 0 1 8-8h48a8 8 0 0 1 8 8v25.16a23.79 23.79 0 0 0 16.168 22.632 151 151 0 0 1 19.616 8.16 23.84 23.84 0 0 0 27.48-4.52L377.136 57.6a8 8 0 0 1 11.312 0L422.4 91.56a8 8 0 0 1 0 11.304l-17.84 17.872a23.81 23.81 0 0 0-4.512 27.488 151 151 0 0 1 8.152 19.608A23.79 23.79 0 0 0 430.84 184H456a8 8 0 0 1 8 8v48a8 8 0 0 1-8 8h-25.16a23.79 23.79 0 0 0-22.632 16.168 151 151 0 0 1-8.16 19.616 23.82 23.82 0 0 0 4.52 27.48l17.84 17.872a8 8 0 0 1 0 11.312L388.44 374.4a8 8 0 0 1-11.304 0l-26.288-26.232a8 8 0 0 0-11.312-.18 8 8 0 0 0 .016 11.508l26.28 26.232c9.371 9.364 24.557 9.364 33.928 0l33.952-33.944c9.369-9.372 9.369-24.564 0-33.936L415.896 300a7.84 7.84 0 0 1-1.544-9.024 166 166 0 0 0 9.032-21.696 7.81 7.81 0 0 1 7.456-5.28H456c13.255 0 24-10.745 24-24v-48c0-13.255-10.745-24-24-24"/><path d="M337.536 142.464c-40.638-40.553-106.434-40.553-147.072 0a8 8 0 0 0 11.312 11.312c34.135-34.596 89.852-34.969 124.448-.834s34.969 89.852.834 124.448q-.414.42-.834.834a8 8 0 0 0-.196 11.312 8 8 0 0 0 11.508 0c40.553-40.638 40.553-106.434 0-147.072"/></svg>