<svg xmlns="http://www.w3.org/2000/svg" width="1.5rem" height="1.5rem" viewBox="0 0 512 512"><path d="M328.301 96.399h-9.1V15c0-8.284-6.716-15-15-15H191.735c-8.284 0-15 6.716-15 15s6.716 15 15 15h1.066v66.399h-9.1c-30.42 0-55.168 24.748-55.168 55.167V497c0 8.284 6.716 15 15 15h224.934c8.284 0 15-6.716 15-15V151.566c0-30.419-24.748-55.167-55.166-55.167m-169.768 94.267h194.934v227.067H158.533zM222.801 30h66.4v66.399h-66.4zm-39.1 96.399h144.6c13.876 0 25.166 11.29 25.166 25.167v9.1H158.533v-9.1c0-13.877 11.291-25.167 25.168-25.167M158.533 482v-34.267h194.934V482z"/><path d="M256 224.933c-34.848 0-63.199 28.352-63.199 63.2s28.351 63.2 63.199 63.2 63.201-28.352 63.201-63.2-28.352-63.2-63.201-63.2m0 96.4c-18.306 0-33.199-14.894-33.199-33.2s14.893-33.2 33.199-33.2c18.307 0 33.201 14.894 33.201 33.2s-14.894 33.2-33.201 33.2"/></svg>