<svg id="Layer_1" enable-background="new 0 0 512 512" height="1.5rem" viewBox="0 0 512 512" width="1.5rem" xmlns="http://www.w3.org/2000/svg"><g><path d="m328.301 96.399h-9.1v-81.399c0-8.284-6.716-15-15-15h-16.066-80.334-16.066c-8.284 0-15 6.716-15 15s6.716 15 15 15h1.066v66.399h-9.1c-30.42 0-55.168 24.748-55.168 55.167v345.434c0 8.284 6.716 15 15 15h224.934c8.284 0 15-6.716 15-15v-345.434c0-30.419-24.748-55.167-55.166-55.167zm-169.768 94.267h194.934v227.067h-194.934zm64.268-160.666h65.334 1.066v66.399h-66.4zm-39.1 96.399h24.1 96.4 24.1c13.876 0 25.166 11.29 25.166 25.167v9.1h-194.934v-9.1c0-13.877 11.291-25.167 25.168-25.167zm-25.168 355.601v-34.267h194.934v34.267z"/><path d="m256 224.933c-34.848 0-63.199 28.352-63.199 63.2s28.351 63.2 63.199 63.2c34.849 0 63.201-28.352 63.201-63.2s-28.352-63.2-63.201-63.2zm0 96.4c-18.306 0-33.199-14.894-33.199-33.2s14.893-33.2 33.199-33.2c18.307 0 33.201 14.894 33.201 33.2s-14.894 33.2-33.201 33.2z"/></g></svg>