<svg xmlns="http://www.w3.org/2000/svg" width="1.5rem" height="1.5rem" viewBox="0 0 511.999 511.999"><path d="M452.19 511.999h-75c-12.406 0-22.5-10.094-22.5-22.5V424.58c-11.96 9.955-24.647 18.744-35.698 25.772-27.767 17.66-59.826 33.214-81.676 39.624a12.84 12.84 0 0 1-7.254 0c-21.848-6.41-53.907-21.964-81.674-39.624-24.117-15.34-56.039-39.067-71.152-64.998-43.076-73.903-58.25-265.528-58.25-301.024 0-5.494 2.657-10.405 6.935-12.816C65.044 49.458 131.797 26.076 224.325 2.021 227.078 1.305 231.612 0 233.691 0s6.612 1.305 9.365 2.021c75.55 19.642 134.349 39.005 174.763 57.551a7.499 7.499 0 1 1-6.256 13.632c-39.617-18.18-97.581-37.245-172.281-56.667a873 873 0 0 1-5.591-1.464c-1.248.335-3.137.826-5.592 1.464C115.424 45.832 60.393 69.431 33.992 84.185a2 2 0 0 0-.006.146c0 33.427 15.309 223.299 56.209 293.472 10.608 18.201 34.135 39.472 66.243 59.894 26.424 16.806 56.649 31.555 77.252 37.712 20.604-6.158 50.83-20.907 77.252-37.712 32.108-20.422 55.634-41.692 66.243-59.894q.232-.399.463-.803h-.458a22.4 22.4 0 0 1-14.061-4.946c-20.819 33.019-88.355 73.14-126.881 86.741a7.5 7.5 0 0 1-1.883.419l-.012.001a8 8 0 0 1-.69.029h-.014a7.5 7.5 0 0 1-2.683-.508c-29.435-10.427-76.986-36.542-107.405-64.554a7.5 7.5 0 0 1 10.16-11.036c24.886 22.916 64.112 45.826 92.464 57.655l.002-198.803H81.01c8.476 48.465 20.146 95.032 35.104 120.696a7.5 7.5 0 0 1-2.703 10.256 7.5 7.5 0 0 1-10.256-2.703C66.137 306.736 51.315 139.32 49.372 97.963a7.5 7.5 0 0 1 4.185-7.083c38.571-18.954 98.485-39.062 178.085-59.765a7.5 7.5 0 0 1 1.862-.281h.018c.111-.002.226-.002.337 0h.016a7.5 7.5 0 0 1 1.868.282c79.599 20.703 139.511 40.81 178.082 59.764a7.5 7.5 0 0 1 4.185 7.084c-.33 7.002-.857 15.195-1.546 24.035h14.944c1.453-18.85 1.987-31.672 1.987-37.669q0-.114-.012-.204a7.502 7.502 0 0 1 8.077-12.613c4.277 2.411 6.935 7.322 6.935 12.816 0 6.157-.526 19.05-1.952 37.773a7.501 7.501 0 0 1-1.252 14.896h-68c-4.136 0-7.5 3.364-7.5 7.5v75c0 4.136 3.364 7.5 7.5 7.5h75c4.136 0 7.5-3.364 7.5-7.5v-53.571l-37.165 37.166a7.5 7.5 0 0 1-10.607 0l-25.031-25.031a7.5 7.5 0 0 1 10.607-10.607l19.728 19.729 62.987-62.988a7.5 7.5 0 0 1 10.607 10.607l-16.126 16.125v68.571c0 12.406-10.094 22.5-22.5 22.5h-20.188a1081 1081 0 0 1-2.617 15h15.805c4.143 0 7.5 3.357 7.5 7.5s-3.357 7.5-7.5 7.5h-68c-4.136 0-7.5 3.364-7.5 7.5 0 0 .039 75.878.113 76.301q.041.184.075.372c.762 3.333 3.751 5.827 7.312 5.827h75c4.136 0 7.5-3.364 7.5-7.5v-53.571l-37.165 37.166a7.5 7.5 0 0 1-10.607 0l-25.031-25.031a7.5 7.5 0 0 1 10.607-10.607l19.728 19.729 62.987-62.988a7.5 7.5 0 0 1 10.607 10.607l-16.126 16.125V354.5c0 12.406-10.094 22.5-22.5 22.5h-57.532a153 153 0 0 1-4.514 8.355 97 97 0 0 1-4.261 6.645h59.307c4.143 0 7.5 3.357 7.5 7.5s-3.357 7.5-7.5 7.5h-68c-4.136 0-7.5 3.364-7.5 7.5v75c0 4.136 3.364 7.5 7.5 7.5h75c4.136 0 7.5-3.364 7.5-7.5v-53.571l-37.165 37.166a7.5 7.5 0 0 1-10.607 0l-25.031-25.031a7.5 7.5 0 0 1 10.607-10.607l19.728 19.729 62.987-62.988a7.5 7.5 0 0 1 10.607 10.607l-16.126 16.125v68.571c-.001 12.404-10.094 22.498-22.501 22.498m-211.002-270-.002 198.833c40.715-16.82 95.226-52.652 110.08-78.138 1.165-2 2.334-4.174 3.488-6.484a23 23 0 0 1-.064-1.711v-75c0-12.406 10.094-22.5 22.5-22.5h6.401a969 969 0 0 0 2.74-15zm157.67 15h15.277c.904-4.895 1.792-9.905 2.656-15h-15.235c-.878 5.097-1.78 10.107-2.698 15m-157.67-30h114.787a22.4 22.4 0 0 1-1.285-7.5v-75c0-12.406 10.094-22.5 22.5-22.5h24.227a865 865 0 0 0 1.353-19.794c-26.253-12.395-74.771-31.164-161.579-54.151zm-162.694 0h147.694l.002-178.945C139.383 71.041 90.862 89.812 64.609 102.206c1.635 29.665 6.235 77.194 13.885 124.793M434.086 84.576l.007.004z"/></svg>