<svg xmlns="http://www.w3.org/2000/svg" width="800" height="800" fill="none" viewBox="0 0 24 24"><path fill="var(--p-text-color)" fill-rule="evenodd" d="m16.529 6-.059-.243c-.264-1.056-.68-2.203-1.357-3.107C14.413 1.718 13.393 1 12 1s-2.414.718-3.113 1.65c-.677.904-1.093 2.051-1.357 3.107L7.47 6h-1.6a3 3 0 0 0-2.993 2.8l-.734 11A3 3 0 0 0 5.138 23h13.724a3 3 0 0 0 2.994-3.2l-.734-11A3 3 0 0 0 18.13 6zM8 11a.98.98 0 0 0 1-1.002 7 7 0 0 1 .007-.306A18 18 0 0 1 9.147 8h5.706A19 19 0 0 1 15 9.927L15 10s0 1 1 1 1-1.001 1-1.001a7 7 0 0 0-.009-.378A20 20 0 0 0 16.868 8h1.26a1 1 0 0 1 .999.933l.733 11A1 1 0 0 1 18.862 21H5.138a1 1 0 0 1-.998-1.067l.733-11A1 1 0 0 1 5.871 8h1.261a21 21 0 0 0-.13 1.893L7 9.997A.98.98 0 0 0 8 11m1.534-5h4.932c-.23-.847-.545-1.605-.953-2.15C13.086 3.282 12.606 3 12 3s-1.086.282-1.512.85c-.409.545-.723 1.303-.954 2.15" clip-rule="evenodd"/></svg>
