<svg xmlns="http://www.w3.org/2000/svg" width="1.5rem" height="1.5rem" viewBox="0 0 64 64"><path d="m54.892 52.606-3.826-26.361c-.613-4.258-4.189-7.349-8.501-7.349h-.417v-7.192c0-5.6-4.556-10.156-10.156-10.156-5.584 0-10.127 4.556-10.127 10.156v7.192h-.417c-4.313 0-7.889 3.091-8.501 7.348L9.119 52.602c-.38 2.537.318 4.912 2.014 6.862 1.667 1.955 3.91 2.988 6.487 2.988h28.743c2.564 0 4.814-1.031 6.509-2.981 1.675-1.927 2.374-4.299 2.02-6.865M23.864 11.704c0-4.498 3.646-8.156 8.127-8.156 4.497 0 8.156 3.659 8.156 8.156v7.192H23.864zM51.362 58.16c-1.322 1.521-3.004 2.292-5 2.292H17.62c-1.974 0-3.69-.79-4.971-2.293-1.325-1.524-1.847-3.294-1.551-5.266l3.827-26.363c.47-3.265 3.213-5.634 6.522-5.634h.417v6.937a1 1 0 0 0 2 0v-6.937h16.283v6.937a1 1 0 0 0 2 0v-6.937h.417c3.309 0 6.052 2.369 6.522 5.635l3.825 26.355c.276 1.999-.245 3.773-1.549 5.274"/></svg>