<svg xmlns="http://www.w3.org/2000/svg" xml:space="preserve" width="1.5rem" height="1.5rem" viewBox="0 0 458.508 458.508"><path d="M110.12 398.508c-5.522 0-10 4.477-10 10v40c0 5.522 4.478 10 10 10s10-4.478 10-10v-40c0-5.523-4.477-10-10-10M193.453 398.508c-5.522 0-10 4.477-10 10v40c0 5.522 4.478 10 10 10s10-4.478 10-10v-40c0-5.523-4.477-10-10-10M276.786 398.508c-5.522 0-10 4.477-10 10v40c0 5.522 4.478 10 10 10s10-4.478 10-10v-40c0-5.523-4.477-10-10-10M68.453 326.508c-5.523 0-10 4.477-10 10v40c0 5.522 4.478 10 10 10s10-4.478 10-10v-40c0-5.523-4.477-10-10-10M151.786 326.508c-5.523 0-10 4.477-10 10v40c0 5.522 4.477 10 10 10s10-4.478 10-10v-40c0-5.523-4.477-10-10-10M235.12 326.508c-5.523 0-10 4.477-10 10v40c0 5.522 4.477 10 10 10s10-4.478 10-10v-40c0-5.523-4.477-10-10-10M318.453 326.508c-5.522 0-10 4.477-10 10v40c0 5.522 4.478 10 10 10s10-4.478 10-10v-40c0-5.523-4.477-10-10-10M419.453 0c-5.522 0-10 4.477-10 10v10h-91c-79.901 0-145.495 62.384-150.661 141h-9.079c-5.522 0-10 4.477-10 10v26.981c-24.004 6.861-46.324 19.285-64.884 36.204a163.5 163.5 0 0 0-41.704 60.322h-3.071c-5.522 0-10 4.477-10 10s4.477 10 10 10h308.797c5.522 0 10-4.478 10-10s-4.478-10-10-10h-3.071a163.5 163.5 0 0 0-41.704-60.322c-18.56-16.919-40.879-29.343-64.884-36.204V171c0-5.523-4.478-10-10-10h-8.237c5.029-49.91 47.284-89 98.498-89h91v10c0 5.522 4.478 10 10 10s10-4.478 10-10V10c0-5.523-4.477-10-10-10M218.192 181v15h-49.479v-15zm104.834 113.508H63.88c18.018-38.659 53.201-68.087 94.785-78.508h69.576c41.584 10.421 76.767 39.849 94.785 78.508M318.453 52c-62.249 0-113.48 48.045-118.576 109h-12.045c5.125-67.58 61.752-121 130.621-121h91v12z"/></svg>