<svg id="Layer_1" enable-background="new 0 0 512 512" height="512" viewBox="0 0 512 512" width="512" xmlns="http://www.w3.org/2000/svg"><g><path d="m464.454 112.544c0-12.589-4.902-24.425-13.804-33.327-8.902-8.904-20.738-13.807-33.328-13.807-7.625 0-14.969 1.81-21.557 5.207-24.247-20.13-54.468-31.09-86.375-31.09-19.846 0-39.037 4.247-56.547 12.295l-37.998-37.998c-8.904-8.915-20.745-13.824-33.345-13.824h-128.533c-25.989 0-47.133 21.144-47.133 47.134v449.866c0 8.284 6.716 15 15 15h64.268c8.284 0 15-6.716 15-15v-402.733h61.875l24.213 24.212c-8.049 17.51-12.296 36.702-12.296 56.548 0 31.913 10.964 62.138 31.1 86.385-9.093 17.726-6.235 40.048 8.588 54.872 8.902 8.902 20.738 13.805 33.328 13.805s24.426-4.902 33.33-13.805l170.409-170.412c8.903-8.901 13.805-20.737 13.805-33.328zm-285.658-43.884c-2.813-2.813-6.628-4.394-10.606-4.394h-83.088c-8.284 0-15 6.716-15 15v402.734h-34.268v-434.866c0-9.448 7.686-17.134 17.133-17.134h128.533c4.579 0 8.884 1.784 12.126 5.03l32.825 32.825c-4.487 3.487-8.787 7.275-12.87 11.358-4.084 4.084-7.872 8.384-11.359 12.872zm38.617 54.604c.151-.254.308-.506.442-.767 4.591-7.971 10.259-15.391 16.938-22.071 6.685-6.685 14.11-12.356 22.088-16.949.234-.122.46-.264.688-.398 15.637-8.845 33.367-13.552 51.82-13.552 23.117 0 45.1 7.385 63.254 21.04l-147.714 147.71c-13.653-18.152-21.037-40.133-21.037-63.25.002-18.431 4.698-36.14 13.521-51.763zm212.024 1.394-170.41 170.412c-3.237 3.237-7.541 5.019-12.118 5.019-4.576 0-8.879-1.782-12.115-5.018-6.68-6.68-6.679-17.55 0-24.231l170.414-170.41.001-.001c3.236-3.237 7.538-5.019 12.113-5.019s8.877 1.782 12.114 5.02c3.236 3.236 5.018 7.539 5.018 12.115s-1.781 8.877-5.017 12.113z"/><path d="m385.281 265.916c0 8.284 6.716 15 15 15s15-6.716 15-15v-.003c0-8.284-6.716-14.999-15-14.999s-15 6.718-15 15.002z"/><path d="m435.109 209.86c-2.79 2.8-4.39 6.66-4.39 10.61s1.6 7.82 4.39 10.61c2.801 2.79 6.66 4.39 10.61 4.39s7.82-1.6 10.61-4.39 4.39-6.66 4.39-10.61-1.6-7.81-4.39-10.61c-2.79-2.79-6.66-4.39-10.61-4.39s-7.809 1.6-10.61 4.39z"/><path d="m369.84 311.36c0-3.95-1.6-7.82-4.4-10.61-2.79-2.79-6.649-4.39-10.6-4.39s-7.82 1.6-10.61 4.39-4.39 6.66-4.39 10.61 1.6 7.81 4.39 10.6c2.79 2.8 6.66 4.4 10.61 4.4s7.81-1.6 10.6-4.4c2.8-2.79 4.4-6.66 4.4-10.6z"/><path d="m438 334.08c0-3.95-1.601-7.81-4.391-10.61-2.8-2.79-6.659-4.39-10.609-4.39s-7.811 1.6-10.61 4.39c-2.79 2.8-4.39 6.66-4.39 10.61s1.6 7.81 4.39 10.61c2.8 2.79 6.67 4.39 10.61 4.39 3.95 0 7.81-1.6 10.609-4.39 2.79-2.8 4.391-6.66 4.391-10.61z"/><path d="m483.45 288.64c0-3.95-1.61-7.82-4.4-10.61s-6.66-4.39-10.61-4.39c-3.939 0-7.81 1.6-10.6 4.39s-4.4 6.66-4.4 10.61c0 3.94 1.61 7.81 4.4 10.6 2.79 2.8 6.66 4.4 10.6 4.4 3.95 0 7.82-1.6 10.61-4.4 2.79-2.79 4.4-6.66 4.4-10.6z"/><path d="m390.977 372.817-.002-.004c-3.704-7.409-12.712-10.411-20.123-6.707-7.41 3.705-10.412 12.717-6.707 20.126 2.628 5.257 7.925 8.295 13.428 8.295 2.254 0 4.543-.51 6.696-1.587 7.41-3.703 10.413-12.713 6.708-20.123z"/><path d="m445.72 387.24c-3.95 0-7.81 1.61-10.61 4.4-2.79 2.79-4.39 6.66-4.39 10.6 0 3.95 1.6 7.82 4.39 10.61 2.801 2.79 6.66 4.39 10.61 4.39s7.82-1.6 10.61-4.39 4.39-6.66 4.39-10.61c0-3.94-1.6-7.81-4.39-10.6s-6.66-4.4-10.61-4.4z"/><path d="m491.166 341.801c-8.284 0-15 6.717-15 15.001s6.716 15 15 15 15-6.716 15-15v-.002c0-8.284-6.716-14.999-15-14.999z"/><path d="m400.28 432.69c-3.95 0-7.811 1.6-10.601 4.39-2.8 2.79-4.399 6.66-4.399 10.61s1.6 7.82 4.399 10.6c2.79 2.8 6.65 4.4 10.601 4.4 3.949 0 7.819-1.6 10.609-4.4 2.79-2.79 4.391-6.65 4.391-10.6s-1.601-7.81-4.391-10.61c-2.799-2.79-6.66-4.39-10.609-4.39z"/></g></svg>