<svg xmlns="http://www.w3.org/2000/svg" width="1.5rem" height="1.5rem" viewBox="0 0 60 60"><path d="M13.02 6a1 1 0 1 0 0-2 1 1 0 0 0 0 2M9.02 6a1 1 0 1 0 0-2 1 1 0 0 0 0 2M5.02 6a1 1 0 1 0 0-2 1 1 0 0 0 0 2"/><path d="M55 0H5a5.006 5.006 0 0 0-5 5v50a5.006 5.006 0 0 0 5 5h50a5.006 5.006 0 0 0 5-5V5a5.006 5.006 0 0 0-5-5M5 2h50a3 3 0 0 1 3 3v3H2V5a3 3 0 0 1 3-3m50 56H5a3 3 0 0 1-3-3V10h56v45a3 3 0 0 1-3 3"/><path d="M53 6a1 1 0 0 0 2 0 1 1 0 0 0 0-2 1 1 0 0 0-2 0 1 1 0 0 0 0 2M47 6h2a1 1 0 0 0 0-2h-2a1 1 0 0 0 0 2M7 21h28a2 2 0 0 0 2-2v-4a2 2 0 0 0-2-2H7a2 2 0 0 0-2 2v4a2 2 0 0 0 2 2m0-6h28v4H7zM37 24a1 1 0 0 0-1-1H7a1 1 0 0 0 0 2h29a1 1 0 0 0 1-1M34 28a1 1 0 0 0-1-1H7a1 1 0 0 0 0 2h26a1 1 0 0 0 1-1M32 32a1 1 0 0 0-1-1H7a1 1 0 0 0 0 2h24a1 1 0 0 0 1-1M7 35a1 1 0 0 0 0 2h22a1 1 0 0 0 0-2z"/><path d="M53 40h-9.155c14.94-28.222 9.139-17.262 10.69-20.192a4.005 4.005 0 0 0-1.664-5.408l-1.771-.935a4 4 0 0 0-5.4 1.664C29.829 45.112 33.192 38.75 32.53 40H7a2 2 0 0 0-2 2v12a2 2 0 0 0 2 2h46a2 2 0 0 0 2-2V42a2 2 0 0 0-2-2m-9.279-16.865 1.768.936-9.395 17.747a9.3 9.3 0 0 0-2.016-.465zm1.872-3.535 5.3 2.807-.936 1.768-5.3-2.807zM33.426 43.272a7.6 7.6 0 0 1 2.655.711 7.6 7.6 0 0 1 2.078 1.794l-5.5 4.663zm5.954.888a9.3 9.3 0 0 0-1.519-1.406l9.4-17.747 1.768.935C47.7 28.435 40.7 41.666 39.38 44.16m10.787-28.927 1.768.936a2 2 0 0 1 .832 2.7l-.936 1.768-5.3-2.807.935-1.768a2 2 0 0 1 2.701-.829M53 54H7V42h24.552l-.88 8.229a2 2 0 0 0 3.283 1.737c4.987-4.225 6.434-5.47 6.325-5.373.154-.137-.1.337 2.506-4.593H53z"/><path d="M11 50H9a1 1 0 0 0 0 2h2a1 1 0 0 0 0-2M17 50h-2a1 1 0 0 0 0 2h2a1 1 0 0 0 0-2M23 50h-2a1 1 0 0 0 0 2h2a1 1 0 0 0 0-2M28 50h-1a1 1 0 0 0 0 2h1a1 1 0 0 0 0-2M39 50h-1a1 1 0 0 0 0 2h1a1 1 0 0 0 0-2M42 51a1 1 0 0 0 1 1h2a1 1 0 0 0 0-2h-2a1 1 0 0 0-1 1M49 52h2a1 1 0 0 0 0-2h-2a1 1 0 0 0 0 2"/></svg>