<svg xmlns="http://www.w3.org/2000/svg" width="1.5rem" height="1.5rem" viewBox="0 0 64 64"><path d="M51.794 41.089V27.691c0-4.16-1.396-7.99-3.72-11.085l4.674-4.677c.39-.391.39-1.024 0-1.415a1 1 0 0 0-1.415 0l-4.548 4.551a18.53 18.53 0 0 0-8.087-5.079V8.444c0-3.005-2.433-5.451-5.423-5.451s-5.422 2.445-5.422 5.451v1.545c-7.557 2.327-13.067 9.38-13.067 17.702v13.394a6.13 6.13 0 0 0-5.357 6.081 6.07 6.07 0 0 0 1.398 3.882l-3.686 3.688a1.002 1.002 0 0 0 .707 1.707c.256 0 .512-.098.708-.293l3.788-3.79a6.06 6.06 0 0 0 3.188.908h9.096c.497 4.349 4.183 7.739 8.648 7.739 4.48 0 8.179-3.39 8.678-7.739h9.067c3.38 0 6.131-2.737 6.131-6.102-.001-3.118-2.342-5.695-5.358-6.077m-2-13.398v13.343H23.661l22.987-23.001a16.4 16.4 0 0 1 3.146 9.658M29.854 8.444c0-1.903 1.535-3.451 3.422-3.451s3.423 1.548 3.423 3.451v1.059c-1.111-.208-2.252-.33-3.423-.33s-2.312.122-3.422.331zm3.421 2.729c4.779 0 9.078 2.052 12.097 5.307L20.833 41.035h-4.047V27.691c0-9.108 7.397-16.518 16.489-16.518M11.429 47.166c0-2.278 1.84-4.131 4.103-4.131h3.303l-6.575 6.579a4.06 4.06 0 0 1-.831-2.448m21.846 11.84c-3.36 0-6.144-2.497-6.628-5.739h13.285c-.486 3.243-3.282 5.739-6.657 5.739m17.746-7.738h-35.49a4.06 4.06 0 0 1-1.711-.386l7.842-7.847H51.02a4.135 4.135 0 0 1 4.131 4.131c0 2.261-1.853 4.102-4.13 4.102"/></svg>