<svg id="Line" height="1.5rem" viewBox="0 0 64 64" width="1.5rem" xmlns="http://www.w3.org/2000/svg"><path d="m51.794 41.089v-13.398c0-4.16-1.396-7.99-3.72-11.085l4.674-4.677c.39-.391.39-1.024 0-1.415-.391-.39-1.024-.39-1.415 0l-4.548 4.551c-2.185-2.336-4.954-4.118-8.087-5.079v-1.542c0-3.005-2.433-5.451-5.423-5.451s-5.422 2.445-5.422 5.451v1.545c-7.557 2.327-13.067 9.38-13.067 17.702v13.394c-3.014.371-5.357 2.954-5.357 6.081 0 1.474.525 2.827 1.398 3.882l-3.686 3.688c-.39.391-.39 1.024 0 1.415.195.195.451.292.707.292s.512-.098.708-.293l3.788-3.79c.929.572 2.019.908 3.188.908h9.096c.497 4.349 4.183 7.739 8.648 7.739 4.48 0 8.179-3.39 8.678-7.739h9.067c3.38 0 6.131-2.737 6.131-6.102-.001-3.118-2.342-5.695-5.358-6.077zm-2-13.398v13.343h-26.133l22.987-23.001c1.97 2.72 3.146 6.051 3.146 9.658zm-19.94-19.247c0-1.903 1.535-3.451 3.422-3.451s3.423 1.548 3.423 3.451v1.059c-1.111-.208-2.252-.33-3.423-.33s-2.312.122-3.422.331zm3.421 2.729c4.779 0 9.078 2.052 12.097 5.307l-24.539 24.555h-4.047v-13.344c0-9.108 7.397-16.518 16.489-16.518zm-21.846 35.993c0-2.278 1.84-4.131 4.103-4.131h3.303l-6.575 6.579c-.515-.686-.831-1.528-.831-2.448zm21.846 11.84c-3.36 0-6.144-2.497-6.628-5.739h13.285c-.486 3.243-3.282 5.739-6.657 5.739zm17.746-7.738h-35.49c-.612 0-1.188-.144-1.711-.386l7.842-7.847h29.358c2.278 0 4.131 1.853 4.131 4.131 0 2.261-1.853 4.102-4.13 4.102z"/></svg>