<svg xmlns="http://www.w3.org/2000/svg" width="1.5rem" height="1.5rem" viewBox="0 0 64 64"><path d="M54.152 8.82a1 1 0 0 0-1.415 0l-4.614 4.611v-.957c0-1.682-.903-3.148-2.398-3.914a4.35 4.35 0 0 0-4.598.323l-15.5 11.095h-8.239c-4.318 0-7.832 3.526-7.832 7.861v8.334c0 4.317 3.514 7.83 7.832 7.83h.141l-5.469 5.465a.999.999 0 0 0 .708 1.707 1 1 0 0 0 .707-.293l6.884-6.879h5.269l15.493 11.118a4.3 4.3 0 0 0 2.548.838c.695 0 1.401-.173 2.041-.5 1.512-.774 2.415-2.252 2.415-3.952V16.259l6.028-6.024a1.003 1.003 0 0 0-.001-1.415m-11.853 1.685a2.29 2.29 0 0 1 2.497-.174c.831.426 1.327 1.228 1.327 2.144v2.955L26.948 34.591V21.492zM17.388 42.004a5.837 5.837 0 0 1-5.832-5.83V27.84c0-3.232 2.616-5.861 5.832-5.861h7.561V36.59l-5.418 5.414zm7.56-2.588v2.588h-2.589zm21.175 12.092c0 .948-.484 1.74-1.326 2.172-.825.423-1.767.361-2.505-.178L26.948 42.49v-5.072l19.175-19.161z"/></svg>