<svg id="Line" height="512" viewBox="0 0 64 64" width="512" xmlns="http://www.w3.org/2000/svg"><path d="m54.152 8.82c-.391-.391-1.024-.391-1.415 0l-4.614 4.611v-.957c0-1.682-.903-3.148-2.398-3.914-1.462-.785-3.264-.65-4.598.323l-15.5 11.095h-8.239c-4.318 0-7.832 3.526-7.832 7.861v8.334c0 4.317 3.514 7.83 7.832 7.83h.141l-5.469 5.465c-.391.39-.391 1.023 0 1.414.195.195.452.293.708.293s.512-.098.707-.293l6.884-6.879h5.269l15.493 11.118c.751.548 1.632.838 2.548.838.695 0 1.401-.173 2.041-.5 1.512-.774 2.415-2.252 2.415-3.952v-35.248l6.028-6.024c.389-.39.389-1.024-.001-1.415zm-11.853 1.685c.741-.541 1.658-.622 2.497-.174.831.426 1.327 1.228 1.327 2.144v2.955l-19.175 19.161v-13.099zm-24.911 31.499c-3.216 0-5.832-2.615-5.832-5.83v-8.334c0-3.232 2.616-5.861 5.832-5.861h7.561v14.611l-5.418 5.414zm7.56-2.588v2.588h-2.589zm21.175 12.092c0 .948-.484 1.74-1.326 2.172-.825.423-1.767.361-2.505-.178l-15.344-11.012v-5.072l19.175-19.161z"/></svg>