<svg xmlns="http://www.w3.org/2000/svg" width="1.5rem" height="1.5rem" viewBox="0 0 64 64"><path d="M32.013 5.229c-14.77 0-26.785 12.016-26.785 26.785 0 14.754 12.016 26.758 26.785 26.758 14.755 0 26.759-12.004 26.759-26.758 0-14.77-12.004-26.785-26.759-26.785m0 2c13.652 0 24.759 11.118 24.759 24.785 0 3.947-.933 7.678-2.583 10.992-2.215-3.435-6.027-5.572-10.17-5.572H20.008a12.15 12.15 0 0 0-10.195 5.57 24.6 24.6 0 0 1-2.584-10.99C7.228 18.347 18.347 7.229 32.013 7.229m0 49.542c-8.876 0-16.673-4.688-21.052-11.712 1.72-3.425 5.203-5.626 9.046-5.626h24.011c3.83 0 7.304 2.202 9.021 5.63-4.373 7.023-12.161 11.708-21.026 11.708"/><path d="M32.013 33.379c5.113 0 9.273-4.172 9.273-9.299 0-5.129-4.16-9.301-9.273-9.301-5.127 0-9.299 4.172-9.299 9.301 0 5.127 4.172 9.299 9.299 9.299m0-16.6c4.01 0 7.273 3.275 7.273 7.301 0 4.024-3.263 7.299-7.273 7.299-4.025 0-7.299-3.274-7.299-7.299s3.274-7.301 7.299-7.301"/></svg>