<svg xmlns="http://www.w3.org/2000/svg" xml:space="preserve" width="1.5rem" height="1.5rem" viewBox="-5.99 0 122.88 122.88"><path d="m39.99 37.79 16.32-11.94-16.95-10.99a3.425 3.425 0 0 1-1.01-4.74 3.425 3.425 0 0 1 4.74-1.01l19.14 12.41 3.74-2.74c3.05-1.9 6.34-3.18 8.99-2.83 2.21.3 4.25 1.5 6.1 3.84 4.31 5.38 6.96 12.29 9.36 20l9.89 6.41 3.25-.38c4.48-.2 6.6 4.45 5.08 7.55a3.425 3.425 0 0 1-5.29 2.97l-.27-.18-9.34 1.03c-5.04.57-8.72 1.96-11.46-3.72L76.47 38.9l-.76-.49-17.19 11.97c-1.09 1.14-1.25 2.26-.16 3.4l13.23 9.62c1.74 1.17 3.21 2 3.57 4.34.49 3.15-10.32 22.66-14.43 29.9l23.12 11.7c3.87 1.68 7.09 2.38 9.6 2.03 1.93-.26 3.53-1.33 4.77-3.24a5.72 5.72 0 0 1 7.9-1.68 5.713 5.713 0 0 1 1.68 7.9c-3.16 4.87-7.46 7.61-12.82 8.34-4.61.63-9.85-.37-15.7-2.91-.22-.08-.43-.17-.64-.28L3.14 81.29a5.71 5.71 0 0 1-2.53-7.67 5.71 5.71 0 0 1 7.67-2.53l39.79 20.14L58.7 72.21c-2.99-1.78-5.89-3.56-8.68-5.34-9.31-5.91-21.7-19.46-10.03-29.08M98.62 0c6.78 0 12.28 5.5 12.28 12.28s-5.5 12.28-12.28 12.28-12.28-5.5-12.28-12.28S91.84 0 98.62 0" style="fill-rule:evenodd;clip-rule:evenodd"/></svg>