<svg id="Layer_1" enable-background="new 0 0 512 512" height="512" viewBox="0 0 512 512" width="512" xmlns="http://www.w3.org/2000/svg"><g><path d="m119.434 0c-65.856 0-119.434 53.578-119.434 119.434v168.7c0 5.768 3.26 10.768 8.033 13.278v99.188c.001 61.426 49.975 111.4 111.401 111.4 61.425 0 111.398-49.974 111.398-111.399v-99.188c4.773-2.511 8.033-7.511 8.033-13.278v-168.7c.001-65.857-53.576-119.435-119.431-119.435zm89.432 273.134h-178.866v-34.267h178.865v34.267zm-8.033 127.467c0 44.884-36.515 81.399-81.398 81.399-44.884 0-81.4-36.516-81.4-81.399v-97.467h162.799v97.467zm8.033-191.734h-178.866v-89.434c0-49.313 40.12-89.433 89.434-89.433 49.313 0 89.432 40.12 89.432 89.434z"/><path d="m392.565 0c-65.855 0-119.433 53.578-119.433 119.434v168.7c0 5.768 3.26 10.768 8.033 13.278v99.188c0 61.426 49.974 111.399 111.4 111.399s111.4-49.974 111.4-111.399v-99.188c4.773-2.511 8.033-7.511 8.033-13.278v-168.7c.001-65.856-53.577-119.434-119.433-119.434zm-89.433 238.867h178.867v34.267h-178.867zm89.433-208.867c49.313 0 89.434 40.12 89.434 89.434v89.434h-178.867v-89.434c0-49.314 40.12-89.434 89.433-89.434zm81.401 370.601c0 44.884-36.516 81.399-81.4 81.399s-81.4-36.516-81.4-81.399v-97.467h162.801v97.467z"/></g></svg>