<svg xmlns="http://www.w3.org/2000/svg" width="1.5rem" height="1.5rem" viewBox="0 0 512 512"><path d="M119.434 0C53.578 0 0 53.578 0 119.434v168.7c0 5.768 3.26 10.768 8.033 13.278V400.6C8.034 462.026 58.008 512 119.434 512s111.398-49.974 111.398-111.399v-99.188c4.773-2.511 8.033-7.511 8.033-13.278v-168.7C238.866 53.578 185.289 0 119.434 0m89.432 273.134H30v-34.267h178.865v34.267zm-8.033 127.467c0 44.884-36.515 81.399-81.398 81.399-44.884 0-81.4-36.516-81.4-81.399v-97.467h162.799v97.467zm8.033-191.734H30v-89.434C30 70.12 70.12 30 119.434 30s89.432 40.12 89.432 89.434zM392.565 0C326.71 0 273.132 53.578 273.132 119.434v168.7c0 5.768 3.26 10.768 8.033 13.278V400.6c0 61.426 49.974 111.399 111.4 111.399s111.4-49.974 111.4-111.399v-99.188c4.773-2.511 8.033-7.511 8.033-13.278v-168.7C511.999 53.578 458.421 0 392.565 0m-89.433 238.867h178.867v34.267H303.132zM392.565 30c49.313 0 89.434 40.12 89.434 89.434v89.434H303.132v-89.434c0-49.314 40.12-89.434 89.433-89.434m81.401 370.601c0 44.884-36.516 81.399-81.4 81.399s-81.4-36.516-81.4-81.399v-97.467h162.801v97.467z"/></svg>