<svg id="Line" height="512" viewBox="0 0 64 64" width="512" xmlns="http://www.w3.org/2000/svg"><g><path d="m42.247 3.008h-20.522c-5.068 0-9.192 4.124-9.192 9.192v39.6c0 5.068 4.124 9.192 9.192 9.192h20.522c5.084 0 9.221-4.124 9.221-9.192v-39.6c0-5.068-4.137-9.192-9.221-9.192zm-20.522 2h20.522c3.981 0 7.221 3.227 7.221 7.192v33.299h-34.936v-33.299c0-3.966 3.227-7.192 7.193-7.192zm20.522 53.984h-20.522c-3.966 0-7.192-3.227-7.192-7.192v-4.301h34.936v4.301c-.001 3.966-3.24 7.192-7.222 7.192z"/><path d="m26.005 10.678h11.962c.553 0 1-.447 1-1s-.447-1-1-1h-11.962c-.553 0-1 .447-1 1s.447 1 1 1z"/></g></svg>