<svg xmlns="http://www.w3.org/2000/svg" width="1.5rem" height="1.5rem" viewBox="0 0 64 64"><path d="M42.247 3.008H21.725c-5.068 0-9.192 4.124-9.192 9.192v39.6c0 5.068 4.124 9.192 9.192 9.192h20.522c5.084 0 9.221-4.124 9.221-9.192V12.2c0-5.068-4.137-9.192-9.221-9.192m-20.522 2h20.522c3.981 0 7.221 3.227 7.221 7.192v33.299H14.532V12.2c0-3.966 3.227-7.192 7.193-7.192m20.522 53.984H21.725c-3.966 0-7.192-3.227-7.192-7.192v-4.301h34.936V51.8c-.001 3.966-3.24 7.192-7.222 7.192"/><path d="M26.005 10.678h11.962a1 1 0 1 0 0-2H26.005a1 1 0 1 0 0 2"/></svg>