<svg id="Layer_1" enable-background="new 0 0 512 512" height="512" viewBox="0 0 512 512" width="512" xmlns="http://www.w3.org/2000/svg"><g><path d="m416.668 80.333h-321.334c-52.567 0-95.334 42.767-95.334 95.334v160.667c0 52.567 42.767 95.333 95.334 95.333h321.334c52.566 0 95.332-42.766 95.332-95.333v-160.667c0-52.567-42.766-95.334-95.332-95.334zm65.332 256c0 36.025-29.308 65.333-65.332 65.333h-321.334c-36.025.001-65.334-29.308-65.334-65.333v-160.666c0-36.025 29.309-65.333 65.334-65.333h321.334c36.024 0 65.332 29.308 65.332 65.333z"/><path d="m360.434 176.734h-208.866c-30.42 0-55.168 24.748-55.168 55.166v48.2c0 30.419 24.748 55.167 55.168 55.167h208.865c30.42 0 55.168-24.748 55.168-55.167v-48.2c.001-30.419-24.747-55.166-55.167-55.166zm25.168 103.366c0 13.877-11.291 25.167-25.168 25.167h-208.866c-13.877 0-25.168-11.29-25.168-25.167v-48.2c0-13.876 11.291-25.166 25.168-25.166h208.865c13.877 0 25.168 11.29 25.168 25.166v48.2z"/></g></svg>