<svg xmlns="http://www.w3.org/2000/svg" width="1.5rem" height="1.5rem" viewBox="0 0 64 64"><path d="M39.942 8.562a4.35 4.35 0 0 0-4.598.322l-15.5 11.096h-8.239c-4.318 0-7.831 3.525-7.831 7.859v8.334c0 4.318 3.513 7.832 7.831 7.832h8.239l15.493 11.117a4.3 4.3 0 0 0 2.548.839 4.5 4.5 0 0 0 2.041-.501 4.37 4.37 0 0 0 2.415-3.951V12.476a4.33 4.33 0 0 0-2.399-3.914M5.773 36.173v-8.334c0-3.23 2.616-5.859 5.831-5.859h7.561v20.025h-7.561a5.84 5.84 0 0 1-5.831-5.832M40.34 51.509a2.37 2.37 0 0 1-1.327 2.171c-.826.422-1.766.361-2.504-.178L21.165 42.491V21.493l15.351-10.988c.741-.542 1.656-.625 2.498-.172.831.425 1.327 1.226 1.327 2.143zM55.172 19.762a.999.999 0 1 0-1.414 1.414c2.882 2.883 4.469 6.729 4.469 10.83s-1.587 7.947-4.469 10.83a.999.999 0 1 0 1.414 1.414c3.26-3.261 5.055-7.609 5.055-12.244s-1.795-8.984-5.055-12.244M47.351 26.14a1 1 0 0 0 0 1.414 6.26 6.26 0 0 1 1.862 4.452 6.13 6.13 0 0 1-1.854 4.416 1 1 0 1 0 1.398 1.43 8.11 8.11 0 0 0 2.456-5.846c0-2.204-.87-4.287-2.448-5.866a1 1 0 0 0-1.414 0"/></svg>