<svg id="Line" height="512" viewBox="0 0 64 64" width="512" xmlns="http://www.w3.org/2000/svg"><g><path d="m39.942 8.562c-1.462-.786-3.264-.65-4.598.322l-15.5 11.096h-8.239c-4.318 0-7.831 3.525-7.831 7.859v8.334c0 4.318 3.513 7.832 7.831 7.832h8.239l15.493 11.117c.751.549 1.633.839 2.548.839.695 0 1.401-.173 2.041-.501 1.512-.774 2.415-2.252 2.415-3.951v-39.033c-.001-1.683-.904-3.15-2.399-3.914zm-34.169 27.611v-8.334c0-3.23 2.616-5.859 5.831-5.859h7.561v20.025h-7.561c-3.215 0-5.831-2.616-5.831-5.832zm34.567 15.336c0 .947-.484 1.739-1.327 2.171-.826.422-1.766.361-2.504-.178l-15.344-11.011v-20.998l15.351-10.988c.741-.542 1.656-.625 2.498-.172.831.425 1.327 1.226 1.327 2.143v39.033z"/><path d="m55.172 19.762c-.391-.391-1.023-.391-1.414 0s-.391 1.023 0 1.414c2.882 2.883 4.469 6.729 4.469 10.83s-1.587 7.947-4.469 10.83c-.391.391-.391 1.023 0 1.414.195.195.451.293.707.293s.512-.098.707-.293c3.26-3.261 5.055-7.609 5.055-12.244s-1.795-8.984-5.055-12.244z"/><path d="m47.351 26.14c-.391.391-.391 1.023 0 1.414 1.201 1.201 1.862 2.782 1.862 4.452 0 1.678-.659 3.246-1.854 4.416-.395.386-.402 1.02-.016 1.414.196.2.455.301.715.301.252 0 .505-.095.699-.285 1.584-1.549 2.456-3.625 2.456-5.846 0-2.204-.87-4.287-2.448-5.866-.391-.391-1.024-.391-1.414 0z"/></g></svg>