<svg xmlns="http://www.w3.org/2000/svg" xml:space="preserve" width="1.5rem" height="1.5rem" viewBox="0 0 512 512"><path d="M145.723 122.782c3.167 5.122 8.646 7.94 14.257 7.94 3.004 0 6.047-.809 8.789-2.505 7.865-4.864 10.3-15.182 5.435-23.047-3.651-5.904-1.881-14.19 1.468-27.134 3.599-13.908 8.077-31.218-1.306-47.048-4.714-7.954-14.981-10.581-22.941-5.867-7.954 4.715-10.581 14.986-5.866 22.941 2.282 3.85-.051 12.866-2.306 21.586-3.993 15.436-8.963 34.646 2.47 53.134M199.329 122.782c3.168 5.122 8.648 7.941 14.258 7.941 3.004 0 6.046-.808 8.789-2.505 7.865-4.862 10.3-15.181 5.436-23.046-3.651-5.905-1.882-14.19 1.467-27.135 3.599-13.909 8.076-31.217-1.305-47.047-4.715-7.956-14.988-10.581-22.941-5.867-7.956 4.715-10.582 14.986-5.868 22.94 2.283 3.85-.05 12.867-2.306 21.586-3.991 15.435-8.961 34.645 2.47 53.133M508.918 165.908c-5.345-7.546-15.795-9.328-23.342-3.984-3.474 2.462-83.264 60.714-112.363 227.314h-43.576l7.047-46.256c18.465-.403 33.365-15.537 33.365-34.096v-34.415c0-13.115-7.442-24.517-18.322-30.226l10.075-66.137a16.746 16.746 0 0 0-16.553-19.266H24.799a16.746 16.746 0 0 0-16.553 19.266l10.076 66.138C7.442 249.955 0 261.358 0 274.471v34.415c0 18.558 14.9 33.692 33.364 34.096l12.371 81.199c.724 35.986 30.224 65.037 66.381 65.037h5.841l.023.001.026-.001h134.038l.026.001.023-.001h5.84c8.99 0 17.568-1.799 25.395-5.051a109 109 0 0 0 17.632 1.441c46.692 0 87.742-29.746 102.285-74.063.372-1.058.641-2.163.796-3.306 4.016-26.436 9.387-49.981 15.489-70.819 13.464-45.978 30.494-78.768 44.41-100.293a277 277 0 0 1 8-11.714c18.284-25.33 32.895-36.089 32.993-36.163 7.546-5.345 9.33-15.796 3.985-23.342m-216.653 26.423h33.496l-7.316 48.023h-30.193zm-90.497 0h56.893l-4.013 48.023h-52.88zm-33.488 0v48.023h-52.879l-4.013-48.023zm-90.498 0 4.014 48.023H51.602l-7.316-48.023zm1.426 230.493q-.001-1.268-.191-2.522l-11.776-77.3h23.135l9.214 110.246c-11.95-4.937-20.382-16.713-20.382-30.424m-45.09-113.31a.63.63 0 0 1-.631-.627v-34.415a.63.63 0 0 1 .631-.628h301.813a.63.63 0 0 1 .63.628v34.415a.63.63 0 0 1-.63.627zm268.69 33.487-7.044 46.237H275.81l3.864-46.237zM168.28 455.731h-34.878l-9.421-112.73h44.299zm33.488-112.73h44.302l-3.864 46.237h-27.734c-4.914 0-9.537 2.176-12.703 5.877zm0 112.73v-35.927a107.4 107.4 0 0 0 24.687 35.927zm99.192-3.61c-23.792 0-45.457-11.207-59.181-29.395h118.36c-13.722 18.188-35.386 29.395-59.179 29.395"/></svg>