<svg xmlns="http://www.w3.org/2000/svg" width="1.5rem" height="1.5rem" viewBox="0 0 64 64"><path d="M60.992 28.103a1 1 0 0 0-.078-.387L52.862 8.55c-1.347-3.173-4.317-5.145-7.752-5.145H18.89c-3.436 0-6.406 1.972-7.753 5.148l-8.05 19.162a1 1 0 0 0-.078.387c0 4.252 2.572 7.911 6.236 9.503v14.563c0 4.646 3.78 8.427 8.427 8.427H46.33c4.631 0 8.398-3.78 8.398-8.427V37.619c3.679-1.585 6.264-5.253 6.264-9.516M38.895 58.595h-13.79V46.329c0-1.701 1.438-3.139 3.139-3.139h7.512c1.701 0 3.139 1.438 3.139 3.139zm13.833-6.427c0 3.544-2.87 6.427-6.398 6.427h-5.435V46.329a5.145 5.145 0 0 0-5.139-5.139h-7.512a5.145 5.145 0 0 0-5.139 5.139v12.266H17.67a6.434 6.434 0 0 1-6.427-6.427V38.243q1.014.212 2.09.214c4.108 0 7.665-2.418 9.326-5.911 1.662 3.492 5.217 5.911 9.326 5.911 4.121 0 7.688-2.42 9.353-5.914 1.661 3.494 5.218 5.914 9.328 5.914.706 0 1.395-.072 2.062-.208zm-2.062-15.711c-4.591 0-8.326-3.748-8.326-8.354a1 1 0 0 0-2 0c0 4.606-3.748 8.354-8.354 8.354-4.591 0-8.326-3.748-8.326-8.354a1 1 0 0 0-2 0c0 4.606-3.735 8.354-8.326 8.354-4.526 0-8.22-3.642-8.324-8.158l7.968-18.968c1.027-2.422 3.292-3.926 5.911-3.926H45.11c2.619 0 4.883 1.504 5.91 3.923l7.97 18.971c-.104 4.516-3.798 8.158-8.324 8.158"/></svg>