<svg fill="none" height="1.5rem" viewBox="0 0 97 96" width="1.5rem" xmlns="http://www.w3.org/2000/svg"><g fill="rgb(0,0,0)"><path fill="var(--color-white)" d="m37.7218 83.7942c-5.8542 0-10.6-4.7458-10.6-10.6v-50.3877c0-5.8542 4.7458-10.6 10.6-10.6h23.6617c1.4359 0 2.6 1.1641 2.6 2.6s-1.1641 2.6-2.6 2.6h-23.6617c-2.9823 0-5.4 2.4177-5.4 5.4v50.3877c0 2.9823 2.4177 5.4 5.4 5.4h36.9284c2.9823 0 5.4-2.4177 5.4-5.4v-36.4629c0-1.436 1.164-2.6 2.6-2.6 1.4359 0 2.6 1.164 2.6 2.6v36.4629c0 5.8542-4.7458 10.6-10.6 10.6z"/><path fill="var(--color-white)" d="m15.8705 31.0069c-3.6451 0-6.59998 2.9549-6.59998 6.6l-.00001 32.0427c0 3.6451 2.95489 6.6 6.59999 6.6h3.678c1.4359 0 2.6-1.164 2.6-2.6 0-1.4359-1.1641-2.6-2.6-2.6h-3.678c-.7732 0-1.4-.6268-1.4-1.4v-32.0427c0-.7732.6268-1.4 1.4-1.4h3.678c1.4359 0 2.6-1.1641 2.6-2.6 0-1.436-1.1641-2.6-2.6-2.6z"/><path fill="var(--color-white)" d="m76.051 12.541c.4045-1.0001 1.8205-1.0001 2.2249 0l1.7015 4.2072c.1719.4251.571.715 1.0284.7471l4.527.3181c1.0762.0756 1.5138 1.4223.6876 2.1161l-3.4755 2.9182c-.3512.2949-.5036.764-.3928 1.2089l1.0964 4.4038c.2606 1.0469-.8849 1.8792-1.8 1.3078l-3.8495-2.4036c-.3889-.2428-.8822-.2428-1.2711 0l-3.8494 2.4036c-.9151.5714-2.0607-.2609-1.8-1.3078l1.0964-4.4038c.1108-.4449-.0417-.914-.3928-1.2089l-3.4755-2.9182c-.8262-.6938-.3886-2.0405.6875-2.1161l4.5271-.3181c.4574-.0321.8565-.322 1.0284-.7471z"/><path fill="var(--color-white)" d="m64.4021 34.1409c-1.6784-1.3702-3.5654-2.2448-5.4716-2.6644v-2.8191c0-1.4359-1.164-2.6-2.6-2.6-1.4359 0-2.6 1.1641-2.6 2.6v2.7942c-2.7655.6081-5.3169 2.262-6.6026 4.9866-1.3241 2.806-1.248 5.7033.4157 8.2727 1.5422 2.3819 4.2627 4.1936 7.6182 5.5856 3.0614 1.2701 4.7015 2.6207 5.4632 3.7915.6713 1.0319.801 2.1282.2842 3.5171-.4639 1.2471-1.8459 2.2103-4.1986 2.2938-2.3259.0825-4.8403-.7846-6.4135-2.2885-1.0379-.9923-2.6838-.9552-3.676.0827-.9923 1.038-.9552 2.6838.0827 3.6761 1.9221 1.8374 4.4556 3.0034 7.0267 3.4835v2.4905c0 1.4359 1.1641 2.6 2.6 2.6 1.436 0 2.6-1.1641 2.6-2.6v-2.4846c2.8771-.5775 5.6555-2.2234 6.8524-5.4403 1.0298-2.768.862-5.6125-.7991-8.1659-1.5707-2.4145-4.2978-4.2938-7.8294-5.7589-2.9347-1.2175-4.532-2.5061-5.2459-3.6087-.5924-.915-.7106-1.8866-.0779-3.2274.5123-1.0856 1.7537-1.9956 3.5774-2.2235 1.7915-.2239 3.9089.2683 5.7056 1.7351 1.1123.9081 2.7502.7426 3.6583-.3698.9081-1.1123.7425-2.7502-.3698-3.6583z"/></g></svg>
