<svg xmlns="http://www.w3.org/2000/svg" width="1.5rem" height="1.5rem" fill="none" viewBox="0 0 97 96"><g fill="var(--color-white)"><path d="M37.722 83.794c-5.854 0-10.6-4.746-10.6-10.6V22.807c0-5.855 4.746-10.6 10.6-10.6h23.662a2.6 2.6 0 0 1 0 5.2H37.722a5.4 5.4 0 0 0-5.4 5.4v50.387a5.4 5.4 0 0 0 5.4 5.4H74.65a5.4 5.4 0 0 0 5.4-5.4V36.731a2.6 2.6 0 1 1 5.2 0v36.463c0 5.854-4.746 10.6-10.6 10.6zM15.87 31.007a6.6 6.6 0 0 0-6.6 6.6V69.65a6.6 6.6 0 0 0 6.6 6.6h3.679a2.6 2.6 0 1 0 0-5.2H15.87a1.4 1.4 0 0 1-1.4-1.4V37.607a1.4 1.4 0 0 1 1.4-1.4h3.677a2.6 2.6 0 0 0 0-5.2z"/><path d="M76.051 12.541c.405-1 1.82-1 2.225 0l1.701 4.207a1.2 1.2 0 0 0 1.029.747l4.527.318c1.076.076 1.514 1.423.687 2.117l-3.475 2.918a1.2 1.2 0 0 0-.393 1.209l1.097 4.403c.26 1.047-.885 1.88-1.8 1.308l-3.85-2.403a1.2 1.2 0 0 0-1.271 0l-3.85 2.403c-.915.572-2.06-.26-1.8-1.308l1.097-4.403a1.2 1.2 0 0 0-.393-1.21l-3.475-2.918c-.827-.693-.389-2.04.687-2.116l4.527-.318a1.2 1.2 0 0 0 1.029-.747zM64.402 34.14a13.1 13.1 0 0 0-5.471-2.663v-2.82a2.6 2.6 0 1 0-5.2 0v2.795c-2.766.608-5.317 2.262-6.603 4.986-1.324 2.806-1.248 5.703.416 8.273 1.542 2.382 4.262 4.194 7.618 5.586 3.061 1.27 4.701 2.62 5.463 3.791.671 1.032.801 2.128.284 3.517-.464 1.247-1.846 2.21-4.198 2.294-2.326.082-4.84-.785-6.414-2.289a2.6 2.6 0 1 0-3.593 3.76c1.922 1.837 4.455 3.003 7.027 3.483v2.49a2.6 2.6 0 0 0 5.2 0V64.86c2.877-.578 5.655-2.224 6.852-5.44 1.03-2.769.862-5.613-.8-8.167-1.57-2.414-4.297-4.293-7.829-5.759-2.934-1.217-4.532-2.506-5.246-3.608-.592-.915-.71-1.887-.077-3.228.512-1.085 1.753-1.995 3.577-2.223 1.792-.224 3.909.268 5.706 1.735a2.6 2.6 0 1 0 3.288-4.028"/></g></svg>