<svg id="Layer_1" enable-background="new 0 0 512 512" height="1.5rem" viewBox="0 0 512 512" width="1.5rem" xmlns="http://www.w3.org/2000/svg"><g><path d="m503.12 194.104c-5.4-2.416-11.718-1.428-16.125 2.519-10.517 9.415-24.081 14.6-38.194 14.6-14.115 0-27.68-5.185-38.196-14.6-5.695-5.1-14.315-5.099-20.011.001-10.514 9.414-24.078 14.599-38.193 14.599s-27.679-5.185-38.193-14.599c-5.695-5.102-14.315-5.1-20.011-.001-10.517 9.415-24.082 14.6-38.198 14.6-14.115 0-27.679-5.185-38.19-14.598-5.695-5.102-14.316-5.103-20.012-.002-10.517 9.415-24.082 14.6-38.198 14.6-11.97 0-23.539-3.744-33.197-10.624v-89.199-48.201c-.002-18.305 14.892-33.199 33.198-33.199 18.308 0 33.201 14.894 33.201 33.199 0 8.284 6.716 15 15 15s15-6.716 15-15c0-34.848-28.352-63.199-63.201-63.199-19.301 0-36.598 8.706-48.199 22.387-11.602-13.681-28.899-22.387-48.2-22.387-34.849 0-63.201 28.351-63.201 63.199v48.201 96.398 249.033c0 30.421 24.748 55.169 55.168 55.169h401.666c30.419 0 55.166-24.748 55.166-55.168v-249.033c0-5.917-3.478-11.28-8.88-13.695zm-473.12-67.704h66.4v74.2c-9.657 6.88-21.227 10.623-33.199 10.623s-23.543-3.744-33.201-10.624zm33.201-96.4c18.306 0 33.199 14.894 33.199 33.199v33.201h-66.4v-33.201c0-18.305 14.894-33.199 33.201-33.199zm418.799 426.832c0 13.878-11.289 25.168-25.166 25.168h-401.666c-13.878 0-25.168-11.29-25.168-25.168v-222.164c10.44 4.296 21.701 6.555 33.201 6.555 17.263 0 33.984-5.089 48.199-14.517 14.216 9.428 30.938 14.517 48.197 14.517 17.264 0 33.987-5.09 48.202-14.516 14.212 9.427 30.934 14.516 48.198 14.516s33.988-5.09 48.202-14.516c14.214 9.426 30.937 14.516 48.2 14.516s33.986-5.09 48.2-14.516c14.214 9.426 30.938 14.516 48.2 14.516 11.5 0 22.761-2.259 33.199-6.554v222.163z"/><path d="m390.594 293.024c-10.515 9.414-24.078 14.599-38.193 14.599s-27.679-5.185-38.193-14.599c-5.695-5.102-14.315-5.1-20.011-.001-10.517 9.415-24.082 14.6-38.198 14.6-14.115 0-27.679-5.185-38.19-14.598-5.695-5.102-14.316-5.103-20.012-.002-10.517 9.415-24.082 14.6-38.198 14.6-14.11 0-27.675-5.186-38.193-14.601-6.171-5.524-15.654-5.001-21.181 1.173-5.525 6.172-5 15.655 1.173 21.181 16.027 14.346 36.697 22.247 58.201 22.247 17.264 0 33.987-5.09 48.202-14.516 14.212 9.427 30.934 14.516 48.198 14.516s33.987-5.09 48.202-14.516c14.214 9.426 30.937 14.516 48.2 14.516 21.511 0 42.182-7.901 58.205-22.249 6.172-5.526 6.695-15.009 1.169-21.181-5.527-6.171-15.01-6.694-21.181-1.169z"/><path d="m390.594 389.425c-10.515 9.414-24.078 14.599-38.193 14.599s-27.679-5.185-38.193-14.599c-5.695-5.102-14.315-5.1-20.011-.001-10.517 9.415-24.082 14.6-38.198 14.6-14.115 0-27.679-5.185-38.19-14.598-5.695-5.102-14.316-5.103-20.012-.002-10.517 9.415-24.082 14.6-38.198 14.6-14.11 0-27.675-5.186-38.193-14.601-6.171-5.524-15.654-5.002-21.181 1.173-5.525 6.172-5 15.655 1.173 21.181 16.027 14.346 36.697 22.247 58.201 22.247 17.264 0 33.987-5.09 48.202-14.516 14.212 9.427 30.934 14.516 48.198 14.516s33.987-5.09 48.202-14.516c14.214 9.426 30.937 14.516 48.2 14.516 21.511 0 42.182-7.901 58.205-22.249 6.172-5.526 6.695-15.009 1.169-21.181-5.527-6.171-15.01-6.695-21.181-1.169z"/></g></svg>