<svg xmlns="http://www.w3.org/2000/svg" width="1.5rem" height="1.5rem" viewBox="0 0 512 512"><path d="M503.12 194.104a14.99 14.99 0 0 0-16.125 2.519 57.2 57.2 0 0 1-38.194 14.6 57.2 57.2 0 0 1-38.196-14.6c-5.695-5.1-14.315-5.099-20.011.001-10.514 9.414-24.078 14.599-38.193 14.599s-27.679-5.185-38.193-14.599c-5.695-5.102-14.315-5.1-20.011-.001a57.2 57.2 0 0 1-38.198 14.6 57.17 57.17 0 0 1-38.19-14.598c-5.695-5.102-14.316-5.103-20.012-.002a57.2 57.2 0 0 1-38.198 14.6 57.16 57.16 0 0 1-33.197-10.624v-137.4C126.4 44.894 141.294 30 159.6 30c18.308 0 33.201 14.894 33.201 33.199 0 8.284 6.716 15 15 15s15-6.716 15-15C222.801 28.351 194.449 0 159.6 0c-19.301 0-36.598 8.706-48.199 22.387C99.799 8.706 82.502 0 63.201 0 28.352 0 0 28.351 0 63.199v393.632C0 487.252 24.748 512 55.168 512h401.666C487.253 512 512 487.252 512 456.832V207.799c0-5.917-3.478-11.28-8.88-13.695M30 126.4h66.4v74.2c-9.657 6.88-21.227 10.623-33.199 10.623S39.658 207.479 30 200.599zM63.201 30C81.507 30 96.4 44.894 96.4 63.199V96.4H30V63.199C30 44.894 44.894 30 63.201 30M482 456.832C482 470.71 470.711 482 456.834 482H55.168C41.29 482 30 470.71 30 456.832V234.668a87.2 87.2 0 0 0 33.201 6.555 87.1 87.1 0 0 0 48.199-14.517 87.12 87.12 0 0 0 48.197 14.517 87.14 87.14 0 0 0 48.202-14.516c14.212 9.427 30.934 14.516 48.198 14.516s33.988-5.09 48.202-14.516c14.214 9.426 30.937 14.516 48.2 14.516s33.986-5.09 48.2-14.516a87.14 87.14 0 0 0 48.2 14.516c11.5 0 22.761-2.259 33.199-6.554v222.163z"/><path d="M390.594 293.024c-10.515 9.414-24.078 14.599-38.193 14.599s-27.679-5.185-38.193-14.599c-5.695-5.102-14.315-5.1-20.011-.001a57.2 57.2 0 0 1-38.198 14.6 57.17 57.17 0 0 1-38.19-14.598c-5.695-5.102-14.316-5.103-20.012-.002a57.2 57.2 0 0 1-38.198 14.6 57.2 57.2 0 0 1-38.193-14.601c-6.171-5.524-15.654-5.001-21.181 1.173-5.525 6.172-5 15.655 1.173 21.181a87.15 87.15 0 0 0 58.201 22.247 87.14 87.14 0 0 0 48.202-14.516c14.212 9.427 30.934 14.516 48.198 14.516s33.987-5.09 48.202-14.516a87.13 87.13 0 0 0 48.2 14.516 87.13 87.13 0 0 0 58.205-22.249c6.172-5.526 6.695-15.009 1.169-21.181-5.527-6.171-15.01-6.694-21.181-1.169M390.594 389.425c-10.515 9.414-24.078 14.599-38.193 14.599s-27.679-5.185-38.193-14.599c-5.695-5.102-14.315-5.1-20.011-.001a57.2 57.2 0 0 1-38.198 14.6 57.17 57.17 0 0 1-38.19-14.598c-5.695-5.102-14.316-5.103-20.012-.002a57.2 57.2 0 0 1-38.198 14.6 57.2 57.2 0 0 1-38.193-14.601c-6.171-5.524-15.654-5.002-21.181 1.173-5.525 6.172-5 15.655 1.173 21.181a87.15 87.15 0 0 0 58.201 22.247 87.14 87.14 0 0 0 48.202-14.516c14.212 9.427 30.934 14.516 48.198 14.516s33.987-5.09 48.202-14.516a87.13 87.13 0 0 0 48.2 14.516 87.13 87.13 0 0 0 58.205-22.249c6.172-5.526 6.695-15.009 1.169-21.181-5.527-6.171-15.01-6.695-21.181-1.169"/></svg>