<svg xmlns="http://www.w3.org/2000/svg" width="1.5rem" height="1.5rem" viewBox="0 0 60 60"><path d="m58.438 25.854-4.42-.986a.96.96 0 0 1-.731-.677 24 24 0 0 0-2.72-6.563.93.93 0 0 1 .036-.97l2.437-3.825a1.99 1.99 0 0 0-.273-2.49l-3.11-3.11a1.99 1.99 0 0 0-2.49-.273L43.342 9.4a.93.93 0 0 1-.97.036 24 24 0 0 0-6.563-2.72.96.96 0 0 1-.677-.732l-.986-4.422A1.984 1.984 0 0 0 32.2 0h-4.4a1.986 1.986 0 0 0-1.949 1.562l-.986 4.42a.96.96 0 0 1-.677.731 24 24 0 0 0-6.563 2.72.93.93 0 0 1-.97-.036l-3.831-2.44a1.98 1.98 0 0 0-2.479.271l-3.12 3.12a1.98 1.98 0 0 0-.271 2.48l2.44 3.83c.194.29.208.666.036.97a24 24 0 0 0-2.72 6.563.96.96 0 0 1-.732.677l-4.422.986A1.984 1.984 0 0 0 0 27.8v4.4a1.984 1.984 0 0 0 1.559 1.946l4.423.986c.351.07.634.332.731.677a24 24 0 0 0 2.72 6.563.93.93 0 0 1-.036.97L6.96 47.167a1.99 1.99 0 0 0 .273 2.49l3.11 3.11c.662.667 1.7.78 2.49.273l3.825-2.44a.93.93 0 0 1 .97-.036 24 24 0 0 0 6.563 2.72c.345.097.607.38.677.732l.986 4.419A1.986 1.986 0 0 0 27.8 60h4.4a1.986 1.986 0 0 0 1.949-1.562L35.135 54c.278-1.247 2.068-.394 7.031-3.338l5.553 5.549a6 6 0 1 0 8.48-8.484l-5.546-5.544c2.979-5.032 2.1-6.771 3.349-7.05l4.439-.989A1.984 1.984 0 0 0 60 32.2v-4.4a1.986 1.986 0 0 0-1.562-1.946m-2.48 26.117a4 4 0 0 1-6.825 2.829c-15.9-15.89-15.147-15.3-15.71-15.32a1 1 0 0 0-.211.024 1 1 0 0 0-.14.016A9.988 9.988 0 0 1 20.1 28.6l5.516 5.507a1 1 0 0 0 .921.269l5.79-1.27a1 1 0 0 0 .762-.761l1.281-5.8a1 1 0 0 0-.27-.922l-5.51-5.51A10 10 0 0 1 39.508 33.1c-.272.844-.406.37 15.278 16.041a3.97 3.97 0 0 1 1.172 2.83M44.722 36.257l-3.14-3.139A12 12 0 0 0 26.3 18.6a1 1 0 0 0-.4 1.658l6.4 6.392-1.024 4.64-4.636 1.016-6.4-6.393a1 1 0 0 0-1.658.4A11.985 11.985 0 0 0 33.086 41.59l3.144 3.142a16 16 0 1 1 8.492-8.475m8.845-3.074a2.99 2.99 0 0 0-2.238 2.217 21.8 21.8 0 0 1-2.129 5.335l-2.968-2.967a18 18 0 1 0-8.5 8.475c1.87 1.865 1.186 1.183 2.976 2.971a21.7 21.7 0 0 1-5.308 2.115 2.99 2.99 0 0 0-2.216 2.237L32.2 58h-4.394l-.986-4.418a2.97 2.97 0 0 0-2.145-2.236 22 22 0 0 1-6.015-2.494 2.94 2.94 0 0 0-3.077.063l-3.826 2.437-3.11-3.111 2.437-3.825a2.94 2.94 0 0 0 .063-3.077 22 22 0 0 1-2.494-6.015 2.97 2.97 0 0 0-2.236-2.144L2 32.2v-4.393l4.42-.987a2.97 2.97 0 0 0 2.236-2.145 22 22 0 0 1 2.494-6.015 2.94 2.94 0 0 0-.063-3.077l-2.445-3.821 3.11-3.119 3.831 2.441a2.94 2.94 0 0 0 3.077.063 22 22 0 0 1 6.015-2.494 2.97 2.97 0 0 0 2.145-2.236L27.8 2h4.39l.987 4.42a2.97 2.97 0 0 0 2.145 2.236 22 22 0 0 1 6.015 2.494 2.94 2.94 0 0 0 3.077-.063L48.24 8.65l3.11 3.111-2.437 3.825a2.94 2.94 0 0 0-.063 3.077 22 22 0 0 1 2.494 6.015 2.97 2.97 0 0 0 2.236 2.145L58 27.8v4.39z"/><path d="M31 7h-2a1 1 0 0 0 0 2h2a1 1 0 0 0 0-2M29 53h2a1 1 0 0 0 0-2h-2a1 1 0 0 0 0 2M14.444 13.029l-1.415 1.415a1 1 0 0 0 1.414 1.414l1.415-1.415a1 1 0 0 0-1.414-1.414M8 28a1 1 0 0 0-1 1v2a1 1 0 0 0 2 0v-2a1 1 0 0 0-1-1M52 28a1 1 0 0 0-1 1v2a1 1 0 0 0 2 0v-2a1 1 0 0 0-1-1M14.444 46.971a1 1 0 0 0 1.414-1.414l-1.415-1.415a1 1 0 0 0-1.414 1.414zM45.556 13.029a1 1 0 0 0-1.414 1.414c1.538 1.538 1.595 1.708 2.122 1.708a1 1 0 0 0 .707-1.707zM52 55a3 3 0 1 0 0-6 3 3 0 0 0 0 6m0-4a1 1 0 1 1 0 2 1 1 0 0 1 0-2M37.707 36.293a1 1 0 0 0-1.414 1.414l11 11a1 1 0 1 0 1.414-1.414z"/></svg>