<svg id="Line" height="512" viewBox="0 0 64 64" width="512" xmlns="http://www.w3.org/2000/svg"><path d="m53.835 28.721-7.283-21.765c-.787-2.398-2.93-3.948-5.457-3.948h-18.17c-2.545 0-4.698 1.55-5.483 3.943l-7.255 21.765c-.612 1.8-.334 3.652.791 5.222 1.132 1.543 2.798 2.393 4.69 2.393h15.328v15.745h-8.043c-2.474 0-4.486 2-4.486 4.458s2.013 4.458 4.486 4.458h18.113c2.458 0 4.458-2 4.458-4.458s-2-4.458-4.458-4.458h-8.07v-15.745h9.338v5.949c-1.549.436-2.692 1.836-2.692 3.511 0 2.036 1.656 3.693 3.692 3.693s3.693-1.657 3.693-3.693c0-1.674-1.145-3.075-2.693-3.511v-5.949h4.018c1.909 0 3.567-.854 4.668-2.401 1.108-1.546 1.399-3.391.815-5.209zm-10.311 27.813c0 1.355-1.103 2.458-2.458 2.458h-18.113c-1.371 0-2.486-1.103-2.486-2.458s1.115-2.458 2.486-2.458h18.113c1.356 0 2.458 1.102 2.458 2.458zm1.503-10.743c0 .934-.76 1.693-1.693 1.693s-1.692-.759-1.692-1.693c0-.918.759-1.665 1.692-1.665s1.693.747 1.693 1.665zm6.366-13.024c-.728 1.023-1.779 1.563-3.041 1.563h-32.684c-1.257 0-2.321-.545-3.071-1.566-.743-1.037-.922-2.214-.516-3.41l7.259-21.774c.513-1.563 1.92-2.572 3.585-2.572h18.17c1.673 0 3.036.985 3.559 2.577l7.281 21.759c.386 1.205.2 2.387-.542 3.423z"/></svg>