<svg xmlns="http://www.w3.org/2000/svg" width="1.5rem" height="1.5rem" viewBox="0 0 64 64"><path d="M32 23.232c-4.819 0-8.739 3.934-8.739 8.768 0 4.818 3.92 8.738 8.739 8.738 4.834 0 8.767-3.92 8.767-8.738 0-4.834-3.933-8.768-8.767-8.768m0 15.506A6.746 6.746 0 0 1 25.261 32c0-3.731 3.023-6.768 6.739-6.768A6.775 6.775 0 0 1 38.767 32c0 3.716-3.036 6.738-6.767 6.738"/><path d="M59.156 31H55.34C54.828 18.911 45.089 9.172 33 8.66V4.844a1 1 0 1 0-2 0V8.66C18.911 9.172 9.172 18.911 8.66 31H4.844a1 1 0 1 0 0 2H8.66C9.172 45.089 18.911 54.828 31 55.34v3.816a1 1 0 1 0 2 0V55.34C45.089 54.828 54.828 45.089 55.34 33h3.816a1 1 0 1 0 0-2M33 53.314v-3.74a1 1 0 1 0-2 0v3.74C20.019 52.803 11.197 43.981 10.686 33h3.739a1 1 0 1 0 0-2h-3.739C11.197 20.019 20.019 11.197 31 10.686v3.711a1 1 0 1 0 2 0v-3.711c10.981.511 19.803 9.333 20.314 20.314h-3.711a1 1 0 1 0 0 2h3.711C52.803 43.981 43.981 52.803 33 53.314"/></svg>