<svg id="Layer_1" enable-background="new 0 0 512 512" height="512" viewBox="0 0 512 512" width="512" xmlns="http://www.w3.org/2000/svg"><path d="m456.834 32.133h-401.666c-30.42 0-55.168 24.748-55.168 55.167v273.133c0 30.42 24.748 55.167 55.168 55.167h137.633v34.267h-81.4c-8.284 0-15 6.716-15 15s6.716 15 15 15h96.4 96.401 96.398c8.284 0 15-6.716 15-15s-6.716-15-15-15h-81.398v-34.267h137.633c30.419 0 55.166-24.748 55.166-55.167v-273.133c-.001-30.419-24.748-55.167-55.167-55.167zm-167.632 417.734h-66.401v-34.267h66.401zm192.798-89.434c0 13.877-11.289 25.167-25.166 25.167h-152.632-96.401-152.633c-13.877 0-25.168-11.29-25.168-25.167v-273.133c0-13.877 11.291-25.167 25.168-25.167h401.667c13.876 0 25.165 11.29 25.165 25.167z"/></svg>