<svg xmlns="http://www.w3.org/2000/svg" xml:space="preserve" width="1.5rem" height="1.5rem" viewBox="0 0 322.395 322.395"><path d="m222.805 147.505 24.302 14.082c.337.087 1.142.239 2.284.239 1.017 0 1.735-.125 2.04-.196l.321-.179c.484-1.545.821-3.155.821-4.863V19.573c0-9.013-7.305-16.317-16.317-16.317s-16.317 7.305-16.317 16.317v21.756H94.84V19.573c0-9.013-7.305-16.317-16.317-16.317S62.206 10.56 62.206 19.573v122.482c4.863-1.256 9.997-1.974 15.3-1.974 5.978 0 11.835.892 17.334 2.469v-8.757h125.098v12.325c.947.473 1.97.865 2.867 1.387M94.84 101.159V73.963h125.098v27.195H94.84zM298.163 202.516l-41.935 23.23c-3.367 1.866-10.731 1.8-14.065-.125l-24.606-14.261c-13.081-7.587-32.428-8.18-46.009-1.447L139 226.072c-3.568 1.762-11.145 1.463-14.49-.609l-21.903-13.489c-13.021-8.028-32.428-8.844-46.145-1.953L9.001 233.845c-8.055 4.047-11.308 13.853-7.261 21.903 2.861 5.706 8.615 9.002 14.598 9.002 2.458 0 4.96-.566 7.305-1.735l47.467-23.829c3.535-1.768 11.052-1.479 14.381.571l21.909 13.489c12.994 8.012 32.401 8.882 46.118 2.056l32.547-16.159c3.688-1.828 11.607-1.588 15.131.451l24.606 14.261c13.315 7.723 32.77 7.908 46.248.435l41.93-23.23c7.881-4.368 10.737-14.294 6.369-22.18-4.373-7.887-14.299-10.737-22.186-6.364" style="fill:#010002"/><path d="m298.163 256.906-41.935 23.23c-3.367 1.866-10.731 1.806-14.065-.125l-24.606-14.261c-13.081-7.587-32.428-8.186-46.009-1.447L139 280.463c-3.568 1.762-11.145 1.458-14.49-.609l-21.903-13.489c-13.021-8.028-32.428-8.844-46.145-1.953L9.001 288.235c-8.055 4.047-11.308 13.853-7.261 21.903 2.861 5.706 8.615 9.002 14.598 9.002 2.458 0 4.96-.566 7.305-1.735l47.467-23.829c3.535-1.768 11.052-1.479 14.381.571l21.909 13.489c12.994 8.012 32.401 8.882 46.118 2.056l32.547-16.159c3.688-1.828 11.607-1.583 15.131.451l24.606 14.261c13.315 7.723 32.77 7.903 46.248.435l41.93-23.23c7.881-4.368 10.737-14.294 6.369-22.18-4.373-7.881-14.299-10.737-22.186-6.364M1.898 201.265c2.807 5.749 8.507 9.083 14.43 9.083 2.399 0 4.835-.549 7.131-1.697l47.467-23.823c1.61-.81 4.025-1.197 6.511-1.197 3.122 0 6.358.609 8.251 1.779l21.914 13.505c7.076 4.357 16.062 6.581 24.976 6.581 7.326 0 14.609-1.501 20.75-4.547l32.542-16.159c1.719-.854 4.34-1.273 7.027-1.273 3.214 0 6.516.593 8.49 1.735l24.606 14.261c6.744 3.905 15.066 5.863 23.377 5.863 7.974 0 15.936-1.806 22.474-5.434l41.935-23.225c7.8-4.319 10.671-14.229 6.413-22.137-2.921-5.428-8.436-8.501-14.131-8.501-2.605 0-5.249.642-7.696 2.002l-41.941 23.225c-1.692.941-4.346 1.403-7.027 1.403-2.448 0-4.863-.408-6.619-1.169-.277-.12-.577-.223-.816-.359l-21.827-12.646-2.779-1.61c-6.951-4.036-15.692-6.075-24.378-6.075-7.522 0-15.006 1.534-21.25 4.64l-32.542 16.159c-1.61.8-4.025 1.18-6.511 1.18-3.16 0-6.445-.62-8.365-1.795l-21.914-13.505c-2.322-1.43-4.89-2.54-7.549-3.503a51.2 51.2 0 0 0-17.334-3.051c-5.265 0-10.492.816-15.3 2.382-1.925.631-3.802 1.349-5.564 2.235L9.186 179.416c-7.968 3.981-11.232 13.772-7.288 21.849" style="fill:#010002"/></svg>