<svg xmlns="http://www.w3.org/2000/svg" width="1.5rem" height="1.5rem" viewBox="0 0 60 60"><path d="M30 8C17.85 8 8 17.85 8 30s9.85 22 22 22 22-9.85 22-22c-.014-12.145-9.855-21.986-22-22m0 42c-11.046 0-20-8.954-20-20s8.954-20 20-20 20 8.954 20 20c-.013 11.04-8.96 19.987-20 20"/><path d="m58.743 25.822-3.338-1.342a25.8 25.8 0 0 0-3.544-8.527l1.422-3.327a2 2 0 0 0-.426-2.193l-3.29-3.29a1.99 1.99 0 0 0-2.2-.422l-3.319 1.418A25.8 25.8 0 0 0 35.52 4.6l-1.34-3.338A1.99 1.99 0 0 0 32.32 0h-4.64a1.99 1.99 0 0 0-1.858 1.257L24.48 4.6a25.8 25.8 0 0 0-8.528 3.543l-3.323-1.42a1.99 1.99 0 0 0-2.2.424l-3.29 3.29a2 2 0 0 0-.423 2.2l1.419 3.32A25.8 25.8 0 0 0 4.6 24.48l-3.337 1.34A1.99 1.99 0 0 0 0 27.68v4.64a1.99 1.99 0 0 0 1.257 1.858L4.6 35.52a25.8 25.8 0 0 0 3.544 8.527l-1.427 3.327a2 2 0 0 0 .426 2.193l3.29 3.29c.373.374.88.585 1.408.584.566 0 .551-.059 4.111-1.58A25.8 25.8 0 0 0 24.48 55.4l1.34 3.334A1.99 1.99 0 0 0 27.68 60h4.64a1.99 1.99 0 0 0 1.858-1.257L35.52 55.4a25.8 25.8 0 0 0 8.528-3.543l3.323 1.42c.75.323 1.623.155 2.2-.424l3.29-3.29a2 2 0 0 0 .423-2.2l-1.419-3.32a25.8 25.8 0 0 0 3.544-8.527l3.332-1.34A1.99 1.99 0 0 0 60 32.32v-4.64a1.99 1.99 0 0 0-1.257-1.858M30 54C16.745 54 6 43.255 6 30S16.745 6 30 6s24 10.745 24 24c-.015 13.248-10.752 23.985-24 24M48.153 8.557l3.287 3.29-.94 2.193a26.2 26.2 0 0 0-4.541-4.54zM27.68 2h4.642l.886 2.2a25.2 25.2 0 0 0-6.415 0zM8.557 11.847l3.291-3.287 2.193.937A26.2 26.2 0 0 0 9.5 14.041zM2 32.32v-4.642l2.2-.886a25.2 25.2 0 0 0 0 6.415zm9.846 19.123-3.286-3.29.94-2.193a26.2 26.2 0 0 0 4.541 4.54zM32.32 58h-4.642l-.886-2.2c2.13.273 4.285.273 6.415 0zm19.123-9.846-3.291 3.286-2.193-.94a26.2 26.2 0 0 0 4.541-4.541zM58 32.322l-2.2.886c.273-2.13.273-4.285 0-6.415l2.2.887z"/><path d="M30 15a1 1 0 0 0 1-1v-2a1 1 0 0 0-2 0v2a1 1 0 0 0 1 1M20.634 15.777a1 1 0 1 0 1.732-1l-.5-.865a1 1 0 1 0-1.732 1zM39.366 44.223a1 1 0 1 0-1.732 1l.5.865a1 1 0 1 0 1.732-1zM15.777 20.634l-.866-.5a1 1 0 0 0-1 1.732l.866.5a1 1 0 1 0 1-1.732M46.089 38.134l-.866-.5a1 1 0 1 0-1 1.732l.866.5a1 1 0 1 0 1-1.732M14.777 37.634l-.866.5a1 1 0 0 0 1 1.732l.866-.5a1 1 0 1 0-1-1.732M44.724 22.5c.37 0 .552-.165 1.365-.634a1 1 0 0 0-1-1.732l-.866.5a1 1 0 0 0 .501 1.866M22 43.857a1 1 0 0 0-1.366.366l-.5.865a1 1 0 1 0 1.732 1l.5-.865A1 1 0 0 0 22 43.857M38 16.143a1 1 0 0 0 1.366-.366l.5-.865a1 1 0 0 0-1.732-1l-.5.865A1 1 0 0 0 38 16.143M30 45a1 1 0 0 0-1 1v2a1 1 0 0 0 2 0v-2a1 1 0 0 0-1-1M48 29h-2a1 1 0 0 0 0 2h2a1 1 0 0 0 0-2M15 30a1 1 0 0 0-1-1h-2a1 1 0 0 0 0 2h2a1 1 0 0 0 1-1M33.527 31.847A3.96 3.96 0 0 0 31 26.142V18a1 1 0 0 0-2 0v8.142a3.964 3.964 0 0 0-2.433 5.877l-4.274 4.274a1 1 0 0 0 1.414 1.414l4.274-4.274a3.92 3.92 0 0 0 4.213-.095l8.133 7.4a1 1 0 0 0 1.346-1.48zm-4.939-.432a2 2 0 1 1 2.824-2.833 2 2 0 0 1-2.824 2.833"/></svg>