<svg xmlns="http://www.w3.org/2000/svg" width="1.5rem" height="1.5rem" viewBox="0 0 52 60"><path d="M35 0a16.96 16.96 0 0 0-12.938 6H3a3 3 0 0 0-3 3v48a3 3 0 0 0 3 3h38a3 3 0 0 0 3-3V31.4A16.983 16.983 0 0 0 35 0m7 57a1 1 0 0 1-1 1H3a1 1 0 0 1-1-1V9a1 1 0 0 1 1-1h17.6A16.967 16.967 0 0 0 42 32.474zm-7-25c-8.284 0-15-6.716-15-15S26.716 2 35 2s15 6.716 15 15c-.01 8.28-6.72 14.99-15 15"/><path d="M35 28c-6.072-.007-10.993-4.928-11-11a1 1 0 0 0-2 0c.008 7.176 5.824 12.992 13 13a1 1 0 0 0 0-2M35 13a4 4 0 1 0 0 8 4 4 0 0 0 0-8m0 6a2 2 0 1 1 0-4 2 2 0 0 1 0 4M5 27h8a1 1 0 0 0 1-1v-3a5 5 0 0 0-2.207-4.145 4 4 0 1 0-5.586 0A5 5 0 0 0 4 23v3a1 1 0 0 0 1 1m2-11a2 2 0 1 1 4 0 2 2 0 0 1-4 0m-1 7a3 3 0 0 1 6 0v2H6zM5 32h5a1 1 0 0 0 0-2H5a1 1 0 0 0 0 2M13 31a1 1 0 0 0 1 1h5a1 1 0 0 0 0-2h-5a1 1 0 0 0-1 1M5 36h17a1 1 0 0 0 0-2H5a1 1 0 0 0 0 2M4 40v14a2 2 0 0 0 2 2h32a2 2 0 0 0 2-2V40a2 2 0 0 0-2-2H6a2 2 0 0 0-2 2m34 14H6V40h32zM35 12a1 1 0 0 0 1-1V6a1 1 0 0 0-2 0v5a1 1 0 0 0 1 1M40.707 21.293a1 1 0 0 0-1.414 1.414l4 4a1 1 0 1 0 1.414-1.414z"/><path d="M11 44h2a1 1 0 0 0 0-2h-2a1 1 0 0 0 0 2M13 50h-2a1 1 0 0 0 0 2h2a1 1 0 0 0 0-2M9 50a1 1 0 0 0 1-1v-4a1 1 0 0 0-2 0v4a1 1 0 0 0 1 1M14 49a1 1 0 0 0 2 0v-4a1 1 0 0 0-2 0zM21 44h2a1 1 0 0 0 0-2h-2a1 1 0 0 0 0 2M23 50h-2a1 1 0 0 0 0 2h2a1 1 0 0 0 0-2M19 50a1 1 0 0 0 1-1v-4a1 1 0 0 0-2 0v4a1 1 0 0 0 1 1M24 49a1 1 0 0 0 2 0v-4a1 1 0 0 0-2 0zM31 44h2a1 1 0 0 0 0-2h-2a1 1 0 0 0 0 2M33 50h-2a1 1 0 0 0 0 2h2a1 1 0 0 0 0-2M29 50a1 1 0 0 0 1-1v-4a1 1 0 0 0-2 0v4a1 1 0 0 0 1 1M34 49a1 1 0 0 0 2 0v-4a1 1 0 0 0-2 0zM17.02 53.006a1 1 0 1 0 0-2 1 1 0 0 0 0 2M27.02 53a1 1 0 1 0-.01-2 1 1 0 0 0 .01 2"/></svg>