<svg xmlns="http://www.w3.org/2000/svg" width="1.5rem" height="1.5rem" viewBox="0 0 60 60"><path d="M56.946 26.994a1 1 0 0 0 .889-1.1C56.205 10.769 43.165-.526 27.963.02 12.76.565.563 12.765.02 27.967s10.755 28.24 25.88 29.868a1 1 0 1 0 .21-1.988C12.03 54.33 1.514 42.191 2.02 28.037 2.526 13.886 13.881 2.528 28.034 2.02c14.153-.508 26.294 10.006 27.813 24.086a1 1 0 0 0 1.099.888"/><path d="M46.32 19a1 1 0 0 0 1.367.366l1.7-.983a23 23 0 0 1 1.884 4.867 1 1 0 0 0 1.936-.5 25 25 0 1 0-36.753 27.86c1.073.712 5.437 2.631 6.547 2.631a1 1 0 0 0 .249-1.969 23 23 0 0 1-4.867-1.883l.983-1.7a1 1 0 1 0-1.732-1l-.984 1.7a23 23 0 0 1-7.043-7.039l1.706-.986a1 1 0 1 0-1-1.732l-1.7.984A22.94 22.94 0 0 1 6.042 30H8a1 1 0 0 0 0-2H6.025a22.8 22.8 0 0 1 2.583-9.619c1.916 1.107 1.863 1.119 2.2 1.119a1 1 0 0 0 .5-1.866l-1.7-.983a23.2 23.2 0 0 1 7.04-7.04l.983 1.7a1 1 0 1 0 1.732-1l-.985-1.7A22.8 22.8 0 0 1 28 6.025V8a1 1 0 0 0 2 0V6.042a22.94 22.94 0 0 1 9.618 2.567l-.984 1.7a1 1 0 1 0 1.732 1l.986-1.706a23 23 0 0 1 7.039 7.042l-1.7.985A1 1 0 0 0 46.32 19M40 51a1 1 0 0 0 1 1c6.072-.007 10.993-4.928 11-11a1 1 0 0 0-2 0 9.01 9.01 0 0 1-9 9 1 1 0 0 0-1 1"/><path d="M42 31a1 1 0 0 0-1-1c-6.072.007-10.993 4.928-11 11a1 1 0 0 0 2 0 9.01 9.01 0 0 1 9-9 1 1 0 0 0 1-1M41 36a5 5 0 1 0 0 10 5 5 0 0 0 0-10m0 8a3 3 0 1 1 0-6 3 3 0 0 1 0 6"/><path d="m57.586 36.7-2.39-.479a14.4 14.4 0 0 0-.779-1.88l1.354-2.03a3.01 3.01 0 0 0-.375-3.784L53.474 26.6a3.01 3.01 0 0 0-3.786-.373l-2.018 1.348a11.6 11.6 0 0 0-1.894-.784l-.475-2.38A3.01 3.01 0 0 0 42.36 22h-2.72a3.01 3.01 0 0 0-2.94 2.414l-.478 2.391q-.968.323-1.88.778l-2.03-1.353a3.01 3.01 0 0 0-3.785.374L26.6 28.526a3.01 3.01 0 0 0-.374 3.787l1.353 2.028a14 14 0 0 0-.779 1.88l-2.392.479A3.01 3.01 0 0 0 22 39.64v2.72a3.01 3.01 0 0 0 2.414 2.94l2.389.478q.296.983.771 1.894l-1.345 2.017a3.01 3.01 0 0 0 .375 3.784l1.922 1.927a3.01 3.01 0 0 0 3.786.373l2.029-1.352q.912.456 1.88.779l.478 2.393A3.01 3.01 0 0 0 39.64 60h2.72a3.01 3.01 0 0 0 2.94-2.414l.478-2.391a14 14 0 0 0 1.88-.778l2.03 1.353a3.01 3.01 0 0 0 3.785-.374l1.927-1.922a3.01 3.01 0 0 0 .374-3.787l-1.353-2.028q.456-.912.779-1.88l2.392-.479A3.01 3.01 0 0 0 60 42.36v-2.72a3.01 3.01 0 0 0-2.414-2.94M50.8 27.9a1.01 1.01 0 0 1 1.265.122l1.922 1.923a1 1 0 0 1 .123 1.263l-.812 1.218a14.9 14.9 0 0 0-3.714-3.716zm-3.536 1.71c6.293 3.456 8.593 11.359 5.137 17.652S41.043 55.855 34.75 52.4c-6.294-3.455-8.595-11.358-5.14-17.651 3.454-6.293 11.355-8.596 17.649-5.143zM39.64 24h2.72c.476.003.885.34.98.806l.287 1.436a15.2 15.2 0 0 0-5.253 0l.286-1.432c.093-.468.503-.806.98-.81m-11.622 5.941 1.922-1.923c.34-.331.865-.38 1.26-.118l1.218.812a14.9 14.9 0 0 0-3.715 3.714l-.81-1.215c-.266-.4-.214-.93.125-1.27M24 42.36v-2.72a1 1 0 0 1 .807-.979l1.432-.287a14.6 14.6 0 0 0 0 5.252l-1.43-.286a1.01 1.01 0 0 1-.809-.98m7.2 11.744a1.01 1.01 0 0 1-1.265-.122l-1.922-1.923A1 1 0 0 1 27.9 50.8l.811-1.216a14.9 14.9 0 0 0 3.715 3.714zM42.36 58h-2.72a1.01 1.01 0 0 1-.98-.806l-.286-1.433c1.736.319 3.516.319 5.252 0l-.286 1.43a1.01 1.01 0 0 1-.98.809m11.622-5.941-1.922 1.923a1.01 1.01 0 0 1-1.263.123l-1.218-.812a15 15 0 0 0 3.714-3.715l.811 1.216c.264.397.213.925-.122 1.265M58 42.36a1 1 0 0 1-.807.979l-1.432.287a14.6 14.6 0 0 0 0-5.252l1.43.286c.468.094.806.503.809.98zM29 11a1 1 0 0 0-1 1v11a1 1 0 0 0 2 0V12a1 1 0 0 0-1-1M12 28a1 1 0 0 0 0 2h11a1 1 0 0 0 0-2z"/></svg>