<svg height="512" viewBox="0 0 60 60" width="512" xmlns="http://www.w3.org/2000/svg"><g id="028---Time-Prefs"><path id="Shape" d="m56.946 26.994c.2637665-.0279599.5056194-.1595661.6723433-.3658612.166724-.2062951.2446589-.4703768.2166567-.7341388-1.6300091-15.124694-14.6699171-26.41920887-29.8724182-25.87399157-15.202501.5452173-27.39982358 12.74483157-27.94218487 27.94743477s10.75460307 28.2403891 25.87960307 29.8675568c.3612143.0493903.7206842-.101712.9381314-.3943412s.2584098-.6804082.1069026-1.0120114c-.1515072-.3316033-.4714726-.5544769-.835034-.5816474-14.0805856-1.5173414-24.59596492-13.6562286-24.08995445-27.8092908.50601046-14.1530622 11.86142975-25.51000889 26.01442375-26.01792299 14.152994-.50791409 26.2932955 10.00583239 27.8125307 24.08621379.0587452.5484339.5504596.9457428 1.099.888z"/><path id="Shape" d="m46.32 19c.1326158.2299444.3512138.3977275.607628.4663798.2564142.0686522.5296031.0325399.759372-.1003798l1.7-.983c.8111547 1.5453573 1.4432467 3.1782616 1.884 4.867.1474328.5234152.6860966.8330843 1.2126039.6971062.5265072-.1359781.8478548-.6677576.7233961-1.1971062-2.8276185-10.9810983-12.6918338-18.68388247-24.0308516-18.76524994s-21.31276007 7.47906184-24.29767747 18.41845004c-2.98491741 10.9393882 1.76662082 22.5177521 11.57552907 28.2067999 1.073.712 5.437 2.631 6.547 2.631.5045164.0009821.9307481-.3740063.9940453-.8745372s-.256167-.9698201-.7450453-1.0944628c-1.6886479-.4405836-3.3215341-1.0723331-4.867-1.883l.983-1.7c.1814844-.3095704.1831833-.6926495.0044519-1.0038174-.1787315-.311168-.5104885-.5027136-.8693336-.5019247s-.6897567.1937913-.8671183.5057421l-.984 1.7c-2.8331519-1.8043263-5.2370644-4.2068736-7.043-7.039l1.706-.986c.3119508-.1773616.5049532-.5082732.5057421-.8671183s-.1907567-.6906021-.5019247-.8693336c-.3111679-.1787314-.694247-.1770325-1.0038174.0044519l-1.7.984c-1.55036507-2.9785679-2.42801738-6.2611446-2.571-9.616h1.958c.55228475 0 1-.4477153 1-1s-.44771525-1-1-1h-1.975c.14262218-3.3573514 1.02460589-6.6418273 2.583-9.619 1.916 1.107 1.863 1.119 2.2 1.119.4525881-.0000199.8487411-.3040116.9658809-.7411777.1171399-.4371661-.0739396-.8985084-.4658809-1.1248223l-1.7-.983c1.8089591-2.8289556 4.2110444-5.2310409 7.04-7.04l.983 1.7c.1773616.3119508.5082732.5049532.8671183.5057421s.6906021-.1907567.8693336-.5019247c.1787314-.3111679.1770325-.694247-.0044519-1.0038174l-.985-1.7c2.9778382-1.55986253 6.2633976-2.44288651 9.622-2.586v1.975c0 .55228475.4477153 1 1 1s1-.44771525 1-1v-1.958c3.3552316.1414519 6.6385053 1.01774257 9.618 2.567l-.984 1.7c-.1814844.3095704-.1831833.6926495-.0044519 1.0038174.1787315.311168.5104885.5027136.8693336.5019247s.6897567-.1937913.8671183-.5057421l.986-1.706c2.8318573 1.8058505 5.2343564 4.2093735 7.039 7.042l-1.7.985c-.2316096.1317826-.4010423.350556-.4706961.6077681-.0696538.257212-.033767.5315865.0996961.7622319z"/><path id="Shape" d="m40 51c0 .5522847.4477153 1 1 1 6.0721626-.0071635 10.9928365-4.9278374 11-11 0-.5522847-.4477153-1-1-1s-1 .4477153-1 1c-.0055111 4.9682782-4.0317218 8.9944889-9 9-.5522847 0-1 .4477153-1 1z"/><path id="Shape" d="m42 31c0-.5522847-.4477153-1-1-1-6.0721626.0071635-10.9928365 4.9278374-11 11 0 .5522847.4477153 1 1 1s1-.4477153 1-1c.0055111-4.9682782 4.0317218-8.9944889 9-9 .2652165 0 .5195704-.1053568.7071068-.2928932s.2928932-.4418903.2928932-.7071068z"/><path id="Shape" d="m41 36c-2.7614237 0-5 2.2385763-5 5s2.2385763 5 5 5 5-2.2385763 5-5c-.0033061-2.7600532-2.2399468-4.9966939-5-5zm0 8c-1.6568542 0-3-1.3431458-3-3s1.3431458-3 3-3 3 1.3431458 3 3-1.3431458 3-3 3z"/><path id="Shape" d="m57.586 36.7-2.39-.479c-.2149685-.6442675-.4752861-1.2725051-.779-1.88l1.354-2.03c.7880137-1.1906996.6313908-2.7711285-.375-3.784l-1.922-1.927c-1.0138546-1.0064386-2.5952338-1.1622374-3.786-.373l-2.018 1.348c-.6069608-.3167125-1.2407681-.5790699-1.894-.784l-.475-2.38c-.2852589-1.398979-1.5132442-2.4056682-2.941-2.411h-2.72c-1.4282996.0060978-2.6560571 1.0141953-2.94 2.414l-.478 2.391c-.6442771.2145467-1.2725209.4745327-1.88.778l-2.03-1.353c-1.1906835-.7888245-2.7717243-.6326001-3.785.374l-1.927 1.922c-1.006917 1.0139321-1.1631299 2.5956922-.374 3.787l1.353 2.028c-.3037596.607474-.5640786 1.2357149-.779 1.88l-2.392.479c-1.3976318.2860703-2.4028742 1.513401-2.408 2.94v2.72c.0057123 1.4284384 1.013984 2.6564082 2.414 2.94l2.389.478c.1967944.6542.4549409 1.2883496.771 1.894l-1.345 2.017c-.7880137 1.1906996-.6313908 2.7711285.375 3.784l1.922 1.927c1.0138546 1.0064386 2.5952338 1.1622374 3.786.373l2.029-1.352c.6073618.3040052 1.2356205.5643315 1.88.779l.478 2.393c.2869091 1.3973896 1.5144692 2.4020605 2.941 2.407h2.72c1.4282996-.0060978 2.6560571-1.0141953 2.94-2.414l.478-2.391c.6442771-.2145467 1.2725209-.4745327 1.88-.778l2.03 1.353c1.1906835.7888245 2.7717243.6326001 3.785-.374l1.927-1.922c1.006917-1.0139321 1.1631299-2.5956922.374-3.787l-1.353-2.028c.3037596-.607474.5640786-1.2357149.779-1.88l2.392-.479c1.3976318-.2860703 2.4028742-1.513401 2.408-2.94v-2.72c-.0057123-1.4284384-1.013984-2.6564082-2.414-2.94zm-6.786-8.8c.397521-.2633549.9251349-.2124704 1.265.122l1.922 1.923c.3370793.3377351.3885814.8665735.123 1.263l-.812 1.218c-1.0081241-1.4488739-2.2656691-2.707096-3.714-3.716zm-3.536 1.71c6.2927393 3.4560524 8.5925875 11.358839 5.1369884 17.6518272-3.4555992 6.2929883-11.3582201 8.5934057-17.6514572 5.1382598-6.2932371-3.4551458-8.5942238-11.357601-5.1395312-17.651087 3.4538851-6.293278 11.3550849-8.5957241 17.649-5.143zm-7.624-5.61h2.72c.4761387.0031872.8849699.3394301.98.806l.287 1.436c-1.7378047-.304006-3.5151953-.304006-5.253 0l.286-1.432c.0933767-.4681587.5026333-.8064218.98-.81zm-11.622 5.941 1.922-1.923c.3397363-.3312951.8646585-.3804545 1.26-.118l1.218.812c-1.4480794 1.0087376-2.7058726 2.2661922-3.715 3.714l-.81-1.215c-.2661239-.3990749-.2138216-.930467.125-1.27zm-4.018 12.419v-2.72c.0010491-.4770483.3389194-.8869306.807-.979l1.432-.287c-.3185112 1.7361794-.3185112 3.5158206 0 5.252l-1.43-.286c-.4677615-.0937909-.805519-.5029409-.809-.98zm7.2 11.744c-.3973233.2641461-.9254801.2132092-1.265-.122l-1.922-1.923c-.3317645-.3396294-.3789832-.8657205-.113-1.259l.811-1.216c1.0091274 1.4478078 2.2669206 2.7052624 3.715 3.714zm11.16 3.896h-2.72c-.4761387-.0031872-.8849699-.3394301-.98-.806l-.286-1.433c1.7361754.3185558 3.5158246.3185558 5.252 0l-.286 1.43c-.0937909.4677615-.5029409.805519-.98.809zm11.622-5.941-1.922 1.923c-.3389604.3344721-.8658743.3857867-1.263.123l-1.218-.812c1.4475766-1.0094034 2.7049864-2.2671517 3.714-3.715l.811 1.216c.2641461.3973233.2132092.9254801-.122 1.265zm4.018-9.699c-.0010491.4770483-.3389194.8869306-.807.979l-1.432.287c.3185112-1.7361794.3185112-3.5158206 0-5.252l1.43.286c.4677615.0937909.805519.5029409.809.98z"/><path id="Shape" d="m29 11c-.5522847 0-1 .4477153-1 1v11c0 .5522847.4477153 1 1 1s1-.4477153 1-1v-11c0-.5522847-.4477153-1-1-1z"/><path id="Shape" d="m12 28c-.5522847 0-1 .4477153-1 1s.4477153 1 1 1h11c.5522847 0 1-.4477153 1-1s-.4477153-1-1-1z"/></g></svg>