<svg height="512" viewBox="0 0 60 60" width="512" xmlns="http://www.w3.org/2000/svg"><g id="019---Time-Management"><path id="Shape" d="m30 8c-12.1502645 0-22 9.8497355-22 22s9.8497355 22 22 22 22-9.8497355 22-22c-.0137772-12.1445532-9.8554468-21.98622284-22-22zm0 42c-11.045695 0-20-8.954305-20-20s8.954305-20 20-20 20 8.954305 20 20c-.0126747 11.0404407-8.9595593 19.9873253-20 20z"/><path id="Shape" d="m58.743 25.822-3.338-1.342c-.6597645-3.0320697-1.8602628-5.9205148-3.544-8.527l1.422-3.327c.317542-.7495745.1490756-1.6168204-.426-2.193l-3.29-3.29c-.5775593-.57822023-1.44948-.74547048-2.2-.422l-3.319 1.418c-2.6070528-1.68226468-5.4958592-2.88107869-8.528-3.539l-1.34-3.338c-.3000966-.7642475-1.0389522-1.26555707-1.86-1.262h-4.64c-.8192459-.00410062-1.5570253.49503217-1.858 1.257l-1.342 3.343c-3.0324092.65915411-5.9212312 1.85932957-8.528 3.543l-3.323-1.42c-.7509193-.32296412-1.6228965-.15491033-2.2.424l-3.29 3.29c-.5770282.5781467-.74448746 1.4490932-.423 2.2l1.419 3.32c-1.68013393 2.6059062-2.87755355 5.4929239-3.535 8.523l-3.337 1.34c-.76482564.2995436-1.26667986 1.0386163-1.263 1.86v4.64c-.00410062.8192459.49503217 1.5570253 1.257 1.858l3.343 1.342c.65976446 3.0320697 1.86026281 5.9205148 3.544 8.527l-1.427 3.327c-.31754197.7495745-.1490756 1.6168204.426 2.193l3.29 3.29c.3727814.3744819.8796041.5846981 1.408.584.566 0 .551-.059 4.111-1.58 2.6070528 1.6822647 5.4958592 2.8810787 8.528 3.539l1.34 3.334c.2988098.7658204 1.0379539 1.2689153 1.86 1.266h4.64c.8192459.0041006 1.5570253-.4950322 1.858-1.257l1.342-3.343c3.0324092-.6591541 5.9212312-1.8593296 8.528-3.543l3.323 1.42c.7509193.3229641 1.6228965.1549103 2.2-.424l3.29-3.29c.5770282-.5781467.7444875-1.4490932.423-2.2l-1.419-3.32c1.6837372-2.6064852 2.8842355-5.4949303 3.544-8.527l3.332-1.34c.761887-.3002985 1.26167-1.0370715 1.259-1.856v-4.64c.0041006-.8192459-.4950322-1.5570253-1.257-1.858zm-28.743 28.178c-13.254834 0-24-10.745166-24-24s10.745166-24 24-24 24 10.745166 24 24c-.0154295 13.2484376-10.7515624 23.9845705-24 24zm18.153-45.443 3.287 3.29-.94 2.193c-1.3220117-1.6936047-2.8471042-3.2183613-4.541-4.54zm-20.473-6.557h4.642l.886 2.2c-2.1296193-.27300909-4.2853807-.27300909-6.415 0zm-19.123 9.847 3.291-3.287 2.193.937c-1.6943321 1.3226591-3.2194602 2.8487948-4.541 4.544zm-6.557 20.473v-4.642l2.2-.886c-.27302001 2.1296186-.27302001 4.2853814 0 6.415zm9.846 19.123-3.286-3.29.94-2.193c1.3220117 1.6936047 2.8471042 3.2183613 4.541 4.54zm20.474 6.557h-4.642l-.886-2.2c2.1296193.2730091 4.2853807.2730091 6.415 0zm19.123-9.846-3.291 3.286-2.193-.94c1.6941508-1.3217287 3.2192713-2.8468492 4.541-4.541zm6.557-15.832-2.2.886c.27302-2.1296186.27302-4.2853814 0-6.415l2.2.887z"/><path id="Shape" d="m30 15c.5522847 0 1-.4477153 1-1v-2c0-.5522847-.4477153-1-1-1s-1 .4477153-1 1v2c0 .5522847.4477153 1 1 1z"/><path id="Shape" d="m20.634 15.777c.1773616.3119508.5082732.5049532.8671183.5057421s.6906021-.1907567.8693336-.5019247c.1787314-.3111679.1770325-.694247-.0044519-1.0038174l-.5-.865c-.1773616-.3119508-.5082732-.5049532-.8671183-.5057421s-.6906021.1907567-.8693336.5019247c-.1787314.3111679-.1770325.694247.0044519 1.0038174z"/><path id="Shape" d="m39.366 44.223c-.1773616-.3119508-.5082732-.5049532-.8671183-.5057421s-.6906021.1907567-.8693336.5019247c-.1787314.3111679-.1770325.694247.0044519 1.0038174l.5.865c.1773616.3119508.5082732.5049532.8671183.5057421s.6906021-.1907567.8693336-.5019247c.1787314-.3111679.1770325-.694247-.0044519-1.0038174z"/><path id="Shape" d="m15.777 20.634-.866-.5c-.47786-.2716903-1.0854205-.1067416-1.3602745.3693057-.2748541.4760473-.1139391 1.0846885.3602745 1.3626943l.866.5c.3095704.1814844.6926495.1831833 1.0038174.0044519.311168-.1787315.5027136-.5104885.5019247-.8693336s-.1937913-.6897567-.5057421-.8671183z"/><path id="Shape" d="m46.089 38.134-.866-.5c-.3095704-.1814844-.6926495-.1831833-1.0038174-.0044519-.311168.1787315-.5027136.5104885-.5019247.8693336s.1937913.6897567.5057421.8671183l.866.5c.3095704.1814844.6926495.1831833 1.0038174.0044519.311168-.1787315.5027136-.5104885.5019247-.8693336s-.1937913-.6897567-.5057421-.8671183z"/><path id="Shape" d="m14.777 37.634-.866.5c-.4742136.2780058-.6351286.886647-.3602745 1.3626943.274854.4760473.8824145.640996 1.3602745.3693057l.866-.5c.3119508-.1773616.5049532-.5082732.5057421-.8671183s-.1907567-.6906021-.5019247-.8693336c-.3111679-.1787314-.694247-.1770325-1.0038174.0044519z"/><path id="Shape" d="m44.724 22.5c.37 0 .552-.165 1.365-.634.4742136-.2780058.6351286-.886647.3602745-1.3626943-.274854-.4760473-.8824145-.640996-1.3602745-.3693057l-.866.5c-.3921027.2264067-.5831589.6880184-.4657522 1.1253057s.5139782.7411275.9667522.7406943z"/><path id="Shape" d="m22 43.857c-.4782803-.2761293-1.0898496-.1122682-1.366.366l-.5.865c-.1814844.3095704-.1831833.6926495-.0044519 1.0038174.1787315.311168.5104885.5027136.8693336.5019247s.6897567-.1937913.8671183-.5057421l.5-.865c.2761293-.4782803.1122682-1.0898496-.366-1.366z"/><path id="Shape" d="m38 16.143c.4782803.2761293 1.0898496.1122682 1.366-.366l.5-.865c.2716903-.47786.1067416-1.0854205-.3693057-1.3602745-.4760473-.2748541-1.0846885-.1139391-1.3626943.3602745l-.5.865c-.2761293.4782803-.1122682 1.0898496.366 1.366z"/><path id="Shape" d="m30 45c-.5522847 0-1 .4477153-1 1v2c0 .5522847.4477153 1 1 1s1-.4477153 1-1v-2c0-.5522847-.4477153-1-1-1z"/><path id="Shape" d="m48 29h-2c-.5522847 0-1 .4477153-1 1s.4477153 1 1 1h2c.5522847 0 1-.4477153 1-1s-.4477153-1-1-1z"/><path id="Shape" d="m15 30c0-.5522847-.4477153-1-1-1h-2c-.5522847 0-1 .4477153-1 1s.4477153 1 1 1h2c.5522847 0 1-.4477153 1-1z"/><path id="Shape" d="m33.527 31.847c.573822-1.0750136.620753-2.3543528.1272383-3.4685203s-1.4725117-1.9390772-2.6542383-2.2364797v-8.142c0-.5522847-.4477153-1-1-1s-1 .4477153-1 1v8.142c-1.2150097.3065399-2.2135344 1.1695233-2.692844 2.3273132-.4793097 1.1577899-.3829578 2.4740377.259844 3.5496868l-4.274 4.274c-.3789722.3923789-.3735524 1.0160848.0121814 1.4018186s1.0094397.3911536 1.4018186.0121814l4.274-4.274c1.3036501.7890599 2.9462423.7520207 4.213-.095l8.133 7.4c.4086907.3716876 1.0413123.3416907 1.413-.067.3716876-.4086907.3416907-1.0413124-.067-1.413zm-4.939-.432c-.6414805-.6394776-.7731108-1.6302393-.320855-2.4150281.4522559-.7847888 1.3754804-1.1676619 2.2504031-.933271.8749227.234391 1.4830964 1.0275241 1.4824519 1.9332991-.000575.8080962-.4873936 1.5364465-1.2338455 1.8460097-.7464519.3095631-1.6058513.1395065-2.1781545-.4310097z"/></g></svg>