<svg height="1.5rem" viewBox="0 0 52 60" width="1.5rem" xmlns="http://www.w3.org/2000/svg"><g id="002---Timesheet"><path id="Shape" d="m35 0c-4.9849755.00091067-9.7169932 2.19538477-12.938 6h-19.062c-.79564947 0-1.55871121.31607052-2.12132034.87867966-.56260914.56260913-.87867966 1.32567087-.87867966 2.12132034v48c0 1.6568542 1.34314575 3 3 3h38c1.6568542 0 3-1.3431458 3-3v-25.6c6.4399141-4.0095583 9.4396437-11.8038676 7.3494453-19.0963378-2.0901985-7.29247024-8.7633436-12.31429955-16.3494453-12.3036622zm7 57c0 .5522847-.4477153 1-1 1h-38c-.55228475 0-1-.4477153-1-1v-48c0-.55228475.44771525-1 1-1h17.6c-3.9930994 6.3459408-3.3475635 14.5603946 1.5877928 20.2046895 4.9353564 5.644295 12.9902418 7.3800333 19.8122072 4.2693105zm-7-25c-8.2842712 0-15-6.7157288-15-15 0-8.28427125 6.7157288-15 15-15s15 6.71572875 15 15c-.0093685 8.2803876-6.7196124 14.9906315-15 15z"/><path id="Shape" d="m35 28c-6.0721626-.0071635-10.9928365-4.9278374-11-11 0-.5522847-.4477153-1-1-1s-1 .4477153-1 1c.008266 7.1762751 5.8237249 12.991734 13 13 .5522847 0 1-.4477153 1-1s-.4477153-1-1-1z"/><path id="Shape" d="m35 13c-2.209139 0-4 1.790861-4 4s1.790861 4 4 4 4-1.790861 4-4-1.790861-4-4-4zm0 6c-1.1045695 0-2-.8954305-2-2s.8954305-2 2-2 2 .8954305 2 2-.8954305 2-2 2z"/><path id="Shape" d="m5 27h8c.5522847 0 1-.4477153 1-1v-3c-.000727-1.6626784-.8279124-3.2162279-2.207-4.145 1.1646341-1.1359939 1.5252003-2.8641988.9119739-4.3711189s-2.0780582-2.4922971-3.7049739-2.4922971c-1.62691573 0-3.09174755.985377-3.70497395 2.4922971-.61322639 1.5069201-.25266017 3.235125.91197395 4.3711189-1.37908756.9287721-2.206273 2.4823216-2.207 4.145v3c0 .5522847.44771525 1 1 1zm2-11c0-1.1045695.8954305-2 2-2s2 .8954305 2 2-.8954305 2-2 2-2-.8954305-2-2zm-1 7c0-1.6568542 1.34314575-3 3-3 1.6568542 0 3 1.3431458 3 3v2h-6z"/><path id="Shape" d="m5 32h5c.5522847 0 1-.4477153 1-1s-.4477153-1-1-1h-5c-.55228475 0-1 .4477153-1 1s.44771525 1 1 1z"/><path id="Shape" d="m13 31c0 .5522847.4477153 1 1 1h5c.5522847 0 1-.4477153 1-1s-.4477153-1-1-1h-5c-.5522847 0-1 .4477153-1 1z"/><path id="Shape" d="m5 36h17c.5522847 0 1-.4477153 1-1s-.4477153-1-1-1h-17c-.55228475 0-1 .4477153-1 1s.44771525 1 1 1z"/><path id="Shape" d="m4 40v14c0 1.1045695.8954305 2 2 2h32c1.1045695 0 2-.8954305 2-2v-14c0-1.1045695-.8954305-2-2-2h-32c-1.1045695 0-2 .8954305-2 2zm34 14h-32v-14h32z"/><path id="Shape" d="m35 12c.5522847 0 1-.4477153 1-1v-5c0-.55228475-.4477153-1-1-1s-1 .44771525-1 1v5c0 .5522847.4477153 1 1 1z"/><path id="Shape" d="m40.707 21.293c-.3923789-.3789722-1.0160848-.3735524-1.4018186.0121814s-.3911536 1.0094397-.0121814 1.4018186l4 4c.2510745.2599566.6228779.3642126.9725073.2726972.3496295-.0915155.6226744-.3645604.7141899-.7141899.0915154-.3496294-.0127406-.7214328-.2726972-.9725073z"/><path id="Shape" d="m11 44h2c.5522847 0 1-.4477153 1-1s-.4477153-1-1-1h-2c-.5522847 0-1 .4477153-1 1s.4477153 1 1 1z"/><path id="Shape" d="m13 50h-2c-.5522847 0-1 .4477153-1 1s.4477153 1 1 1h2c.5522847 0 1-.4477153 1-1s-.4477153-1-1-1z"/><path id="Shape" d="m9 50c.55228475 0 1-.4477153 1-1v-4c0-.5522847-.44771525-1-1-1s-1 .4477153-1 1v4c0 .5522847.44771525 1 1 1z"/><path id="Shape" d="m14 49c0 .5522847.4477153 1 1 1s1-.4477153 1-1v-4c0-.5522847-.4477153-1-1-1s-1 .4477153-1 1z"/><path id="Shape" d="m21 44h2c.5522847 0 1-.4477153 1-1s-.4477153-1-1-1h-2c-.5522847 0-1 .4477153-1 1s.4477153 1 1 1z"/><path id="Shape" d="m23 50h-2c-.5522847 0-1 .4477153-1 1s.4477153 1 1 1h2c.5522847 0 1-.4477153 1-1s-.4477153-1-1-1z"/><path id="Shape" d="m19 50c.5522847 0 1-.4477153 1-1v-4c0-.5522847-.4477153-1-1-1s-1 .4477153-1 1v4c0 .5522847.4477153 1 1 1z"/><path id="Shape" d="m24 49c0 .5522847.4477153 1 1 1s1-.4477153 1-1v-4c0-.5522847-.4477153-1-1-1s-1 .4477153-1 1z"/><path id="Shape" d="m31 44h2c.5522847 0 1-.4477153 1-1s-.4477153-1-1-1h-2c-.5522847 0-1 .4477153-1 1s.4477153 1 1 1z"/><path id="Shape" d="m33 50h-2c-.5522847 0-1 .4477153-1 1s.4477153 1 1 1h2c.5522847 0 1-.4477153 1-1s-.4477153-1-1-1z"/><path id="Shape" d="m29 50c.5522847 0 1-.4477153 1-1v-4c0-.5522847-.4477153-1-1-1s-1 .4477153-1 1v4c0 .5522847.4477153 1 1 1z"/><path id="Shape" d="m34 49c0 .5522847.4477153 1 1 1s1-.4477153 1-1v-4c0-.5522847-.4477153-1-1-1s-1 .4477153-1 1z"/><path id="Shape" d="m17.02 53.006c.5522847 0 1-.4477153 1-1s-.4477153-1-1-1-1 .4477153-1 1 .4477153 1 1 1z"/><path id="Shape" d="m27.02 53c.5516255-.0027582.9968309-.4516874.9949945-1.0033167-.0018365-.5516293-.4500212-.9975842-1.0016528-.9966694s-.9983348.4483537-.9983417.9999861c-.0000033.2660851.1060396.5211997.2946588.7088804.1886191.1876808.4442595.29245.7103412.2911196z"/></g></svg>