<svg xmlns="http://www.w3.org/2000/svg" width="1.5rem" height="1.5rem" viewBox="0 0 512 512"><path d="M400.602 0H111.4C48.933 0 0 84.22 0 191.733s48.933 191.733 111.4 191.733h81.4v73.367c0 30.419 24.747 55.166 55.166 55.166h208.867C487.253 512 512 487.253 512 456.834V191.733C512 84.22 463.068 0 400.602 0m54.996 73.946C472.623 105.161 482 146.992 482 191.733s-9.377 86.571-26.402 117.786c-15.458 28.34-34.989 43.947-54.996 43.947s-39.539-15.607-54.997-43.947c-17.026-31.216-26.403-73.046-26.403-117.786 0-44.741 9.377-86.572 26.403-117.787C361.063 45.607 380.595 30 400.602 30s39.538 15.607 54.996 43.946M56.403 309.52c-15.107-27.698-24.187-63.756-26.042-102.786h32.84c8.284 0 15-6.716 15-15s-6.716-15-15-15h-32.84c1.855-39.031 10.935-75.09 26.042-102.787C71.861 45.607 91.393 30 111.4 30h228.564c-28.496 31.289-47.764 84.42-50.443 146.733h-33.52c-8.284 0-15 6.716-15 15s6.716 15 15 15h33.52c2.68 62.313 21.947 115.444 50.443 146.733H111.4c-20.006.001-39.539-15.607-54.997-43.946M482 456.834C482 470.711 470.711 482 456.834 482H247.967c-13.877 0-25.166-11.289-25.166-25.166v-73.367h177.801c32.436 0 61.217-22.713 81.398-59.597z"/><path d="M353.467 191.733c0 49.785 14.75 103.367 47.135 103.367s47.133-53.582 47.133-103.367c0-49.784-14.749-103.366-47.133-103.366s-47.135 53.582-47.135 103.366m64.267 0c0 43.183-11.521 68.232-17.134 72.91-5.612-4.677-17.134-29.725-17.134-72.91s11.521-68.233 17.134-72.909c5.613 4.678 17.134 29.727 17.134 72.909M183.699 176.733H135.5c-8.284 0-15 6.716-15 15s6.716 15 15 15h48.199c8.284 0 15-6.716 15-15s-6.716-15-15-15"/></svg>