<svg id="Layer_1" enable-background="new 0 0 512 512" height="1.5rem" viewBox="0 0 512 512" width="1.5rem" xmlns="http://www.w3.org/2000/svg"><g><path d="m400.602 0h-289.202c-62.467 0-111.4 84.22-111.4 191.733s48.933 191.733 111.4 191.733h81.4v73.367c0 30.419 24.747 55.166 55.166 55.166h208.867c30.42.001 55.167-24.746 55.167-55.165v-265.101c0-107.513-48.932-191.733-111.398-191.733zm54.996 73.946c17.025 31.215 26.402 73.046 26.402 117.787 0 44.74-9.377 86.571-26.402 117.786-15.458 28.34-34.989 43.947-54.996 43.947s-39.539-15.607-54.997-43.947c-17.026-31.216-26.403-73.046-26.403-117.786 0-44.741 9.377-86.572 26.403-117.787 15.458-28.339 34.99-43.946 54.997-43.946s39.538 15.607 54.996 43.946zm-399.195 235.574c-15.107-27.698-24.187-63.756-26.042-102.786h32.84c8.284 0 15-6.716 15-15s-6.716-15-15-15h-32.84c1.855-39.031 10.935-75.09 26.042-102.787 15.458-28.34 34.99-43.947 54.997-43.947h228.564c-28.496 31.289-47.764 84.42-50.443 146.733h-33.52c-8.284 0-15 6.716-15 15s6.716 15 15 15h33.52c2.68 62.313 21.947 115.444 50.443 146.733h-228.564c-20.006.001-39.539-15.607-54.997-43.946zm425.597 147.314c0 13.877-11.289 25.166-25.166 25.166h-208.867c-13.877 0-25.166-11.289-25.166-25.166v-73.367h177.801c32.436 0 61.217-22.713 81.398-59.597z"/><path d="m353.467 191.733c0 49.785 14.75 103.367 47.135 103.367 32.384 0 47.133-53.582 47.133-103.367 0-49.784-14.749-103.366-47.133-103.366-32.385 0-47.135 53.582-47.135 103.366zm64.267 0c0 43.183-11.521 68.232-17.134 72.91-5.612-4.677-17.134-29.725-17.134-72.91s11.521-68.233 17.134-72.909c5.613 4.678 17.134 29.727 17.134 72.909z"/><path d="m183.699 176.733h-48.199c-8.284 0-15 6.716-15 15s6.716 15 15 15h48.199c8.284 0 15-6.716 15-15s-6.716-15-15-15z"/></g></svg>