<svg xmlns="http://www.w3.org/2000/svg" width="1.5rem" height="1.5rem" viewBox="0 0 512 512"><path d="M464.866 64.268h-17.133V47.134C447.733 21.144 426.59 0 400.601 0H111.399C85.41 0 64.267 21.144 64.267 47.134v17.134H47.134C21.145 64.268.001 85.412.001 111.401s21.144 47.133 47.133 47.133h17.133v298.301c0 30.418 24.747 55.166 55.166 55.166H328.3c30.419 0 55.166-24.748 55.166-55.166v-9.101h9.102c30.419 0 55.166-24.748 55.166-55.167V158.533h17.133c25.989 0 47.133-21.144 47.133-47.133s-21.145-47.132-47.134-47.132m-47.133 0h-34.268V47.134c0-9.448 7.687-17.134 17.135-17.134 9.447 0 17.133 7.686 17.133 17.134zM94.267 319.2h259.199v34.267H94.267zM111.399 30h245.304a46.9 46.9 0 0 0-3.237 17.134v32.095l-.002.039.002.039v64.188l-.002.039.002.039V289.2H94.267V47.134c0-9.448 7.685-17.134 17.132-17.134m-64.265 98.533c-9.447 0-17.133-7.686-17.133-17.133s7.686-17.133 17.133-17.133h17.133v34.266zm306.332 328.301c0 13.876-11.289 25.166-25.166 25.166H119.433c-13.877 0-25.166-11.29-25.166-25.166v-73.367h259.199v49.267zm64.267-64.268c0 13.877-11.289 25.167-25.166 25.167h-9.102v-259.2h34.268zm47.133-264.033h-81.4V94.268h81.4c9.447 0 17.133 7.686 17.133 17.133s-7.686 17.132-17.133 17.132"/></svg>