<svg id="Line" height="512" viewBox="0 0 64 64" width="512" xmlns="http://www.w3.org/2000/svg"><g><path d="m57.236 18.365c0-3.396-2.75-6.159-6.131-6.159h-6.55c-.383-4.939-4.516-8.844-9.551-8.844h-5.981c-5.035 0-9.168 3.905-9.551 8.844h-6.55c-3.396 0-6.159 2.763-6.159 6.159 0 3.331 2.684 6.044 6.012 6.124l2.979 29.354c.394 3.874 3.637 6.794 7.543 6.794h17.433c3.89 0 7.121-2.921 7.516-6.794l3.003-29.355c3.314-.076 5.987-2.791 5.987-6.123zm-28.213-13.003h5.981c3.933 0 7.176 3.008 7.551 6.844h-21.082c.375-3.836 3.618-6.844 7.55-6.844zm17.233 48.279c-.29 2.849-2.665 4.997-5.525 4.997h-17.433c-2.876 0-5.264-2.148-5.553-4.997l-2.959-29.145h34.451zm4.849-31.145h-38.182c-2.293 0-4.159-1.853-4.159-4.131 0-2.293 1.866-4.159 4.159-4.159h38.183c2.277 0 4.131 1.866 4.131 4.159-.001 2.278-1.854 4.131-4.132 4.131z"/><path d="m24.743 33.523c-.553 0-1 .448-1 1v12.585c0 .552.447 1 1 1s1-.448 1-1v-12.585c0-.552-.447-1-1-1z"/><path d="m32 33.523c-.553 0-1 .448-1 1v12.585c0 .552.447 1 1 1s1-.448 1-1v-12.585c0-.552-.447-1-1-1z"/><path d="m39.257 33.523c-.553 0-1 .448-1 1v12.585c0 .552.447 1 1 1s1-.448 1-1v-12.585c0-.552-.447-1-1-1z"/></g></svg>