<svg xmlns="http://www.w3.org/2000/svg" width="1.5rem" height="1.5rem" viewBox="0 0 64 64"><path d="M57.236 18.365c0-3.396-2.75-6.159-6.131-6.159h-6.55c-.383-4.939-4.516-8.844-9.551-8.844h-5.981c-5.035 0-9.168 3.905-9.551 8.844h-6.55a6.166 6.166 0 0 0-6.159 6.159c0 3.331 2.684 6.044 6.012 6.124l2.979 29.354a7.55 7.55 0 0 0 7.543 6.794H40.73a7.537 7.537 0 0 0 7.516-6.794l3.003-29.355c3.314-.076 5.987-2.791 5.987-6.123M29.023 5.362h5.981c3.933 0 7.176 3.008 7.551 6.844H21.473c.375-3.836 3.618-6.844 7.55-6.844m17.233 48.279a5.54 5.54 0 0 1-5.525 4.997H23.298a5.555 5.555 0 0 1-5.553-4.997l-2.959-29.145h34.451zm4.849-31.145H12.923c-2.293 0-4.159-1.853-4.159-4.131a4.164 4.164 0 0 1 4.159-4.159h38.183c2.277 0 4.131 1.866 4.131 4.159a4.137 4.137 0 0 1-4.132 4.131"/><path d="M24.743 33.523a1 1 0 0 0-1 1v12.585a1 1 0 1 0 2 0V34.523a1 1 0 0 0-1-1M32 33.523a1 1 0 0 0-1 1v12.585a1 1 0 1 0 2 0V34.523a1 1 0 0 0-1-1M39.257 33.523a1 1 0 0 0-1 1v12.585a1 1 0 1 0 2 0V34.523a1 1 0 0 0-1-1"/></svg>