<svg height="512" viewBox="0 0 60 60" width="512" xmlns="http://www.w3.org/2000/svg"><g id="016---Travel-Expenses"><path id="Shape" d="m55.771 10.078c-1.0988539-2.90818051-4.004298-4.72469691-7.1-4.439-2.2822773.41803912-4.3143944 1.70266966-5.671 3.585v-4.224c-.0033061-2.76005315-2.2399468-4.99669388-5-5h-16c-2.7600532.00330612-4.9966939 2.23994685-5 5v5h-12c-2.76005315.0033061-4.99669388 2.2399468-5 5v36c.00330612 2.7600532 2.23994685 4.9966939 5 5v1c0 1.6568542 1.34314575 3 3 3h6c1.6568542 0 3-1.3431458 3-3v-1h26v1c0 1.6568542 1.3431458 3 3 3h6c1.6568542 0 3-1.3431458 3-3v-1c2.7600532-.0033061 4.9966939-2.2399468 5-5v-36c-.0064285-2.4577862-1.8002117-4.545514-4.229-4.922zm-44.771 14.811c1.1314436 1.0376635 2.8685564 1.0376635 4 0v29.111h-4zm6-12.889h25v2.569c-1.4.067-2.1-.028-2.778.653l-16.7 16.7c-2.7279468 2.7362353-2.7279468 7.1637647 0 9.9l5.658 5.657c1.3127752 1.3129091 3.0933608 2.0505051 4.95 2.0505051s3.6372248-.737596 4.95-2.0505051l3.92-3.923v10.444h-25zm20-2h-14v-4h14zm17.144 2c.0731621.6786929-.0194898 1.3650028-.27 2l-3.874.188v-2.188zm-6.144 2.283-4 .191v-2.474h4zm-4 27.273 4-4v16.444h-4zm-7.334 4.506c-1.9524993 1.9519097-5.1175007 1.9519097-7.07 0l-5.658-5.657c-1.9488348-1.9545523-1.9488348-5.1174477 0-7.072l16.7-16.7 12.182-.581c-.5261638.7475907-1.1454897 1.425052-1.843 2.016-1.1866315-.7058222-2.6976979-.5375629-3.7.412-1.0536773 1.0447773-1.185258 2.702904-.3095473 3.900788s2.4955946 1.575606 3.8108207.8886012c1.3152261-.6870049 1.9306182-2.2323172 1.4477266-3.6353892.6122151-.521455 1.1767781-1.0963923 1.687-1.718l-.546 11.444zm13.434-24.749c-.3960219.3777784-1.0189781.3777784-1.415 0-.3902047-.390639-.3899699-1.0236017.0005243-1.4139512.3904943-.3903495 1.0234571-.3903495 1.4139514 0 .3904942.3903495.390729 1.0233122.0005243 1.4139512zm3.4-11.313h-8.56c2.966-3.368 6.637-3.053 8.56 0zm-34.5-5c0-1.65685425 1.3431458-3 3-3h16c1.6568542 0 3 1.34314575 3 3v5h-2v-4c0-1.1045695-.8954305-2-2-2h-14c-1.1045695 0-2 .8954305-2 2v4h-2zm-4 7v9.667l-1.2 1.6c-.1955736.241163-.4895026.3812319-.8.3812319s-.6044264-.1400689-.8-.3812319l-1.2-1.6v-9.667zm-13 39v-36c0-1.6568542 1.34314575-3 3-3h4v42h-4c-1.65685425 0-3-1.3431458-3-3zm13 6c0 .5522847-.4477153 1-1 1h-6c-.55228475 0-1-.4477153-1-1v-1h8zm38 0c0 .5522847-.4477153 1-1 1h-6c-.5522847 0-1-.4477153-1-1v-1h8zm5-6c0 1.6568542-1.3431458 3-3 3h-5v-18.444l4.775-4.776c.3545414-.3509479.5637822-.8226322.586-1.321l.639-13.359c.0194563-.4192925-.0931691-.8341177-.322-1.186.3373425-.8494131.5071301-1.756079.5-2.67 1.1040443.4713817 1.8207822 1.5555363 1.822 2.756z"/><path id="Shape" d="m45.811 25.6.754-.755c.2599566-.2510745.3642126-.6228779.2726972-.9725073-.0915155-.3496295-.3645604-.6226744-.7141899-.7141899-.3496294-.0915154-.7214328.0127406-.9725073.2726972l-.755.756c-2.689-2.1-6.3-2.182-8.437-.049s-2.05 5.747.049 8.437l-5.649 5.649c-1.254-1.74-1.5-4.155-.056-5.6.2599566-.2510745.3642126-.6228779.2726972-.9725073-.0915155-.3496295-.3645604-.6226744-.7141899-.7141899-.3496294-.0915154-.7214328.0127406-.9725073.2726972-2.216 2.215-2 5.825.047 8.438l-.754.755c-.2859079.2859943-.3714219.7160366-.216678 1.0896546.1547439.3736179.5192821.6172591.923678.6173454.5 0 .643-.23 1.462-1.049 2.636 2.057 6.254 2.231 8.437.049 2.133-2.134 2.05-5.747-.049-8.437l5.649-5.649c1.254 1.74 1.5 4.154.056 5.6-.2527654.2525868-.3515768.6208353-.259213.96603.0923639.3451946.3618708.6148921.707.7075.3451293.0926078.7134476-.0059432.966213-.25853 2.216-2.214 1.998-5.823-.047-8.439zm-8.438-.048c1.366-1.364 3.725-1.291 5.6.058l-5.542 5.542c-1.35-1.871-1.424-4.231-.058-5.597zm0 14.143c-1.368 1.366-3.726 1.291-5.6-.057l5.543-5.538c1.35 1.873 1.424 4.231.058 5.6z"/></g></svg>