<svg xmlns="http://www.w3.org/2000/svg" width="1.5rem" height="1.5rem" viewBox="0 0 60 60"><path d="M55.771 10.078a6.91 6.91 0 0 0-7.1-4.439A8.99 8.99 0 0 0 43 9.224V5a5.006 5.006 0 0 0-5-5H22a5.006 5.006 0 0 0-5 5v5H5a5.006 5.006 0 0 0-5 5v36a5.006 5.006 0 0 0 5 5v1a3 3 0 0 0 3 3h6a3 3 0 0 0 3-3v-1h26v1a3 3 0 0 0 3 3h6a3 3 0 0 0 3-3v-1a5.006 5.006 0 0 0 5-5V15a4.994 4.994 0 0 0-4.229-4.922M11 24.889a2.96 2.96 0 0 0 4 0V54h-4zM17 12h25v2.569c-1.4.067-2.1-.028-2.778.653l-16.7 16.7a7.01 7.01 0 0 0 0 9.9l5.658 5.657a7 7 0 0 0 9.9 0L42 43.556V54H17zm20-2H23V6h14zm17.144 2a4.2 4.2 0 0 1-.27 2L50 14.188V12zM48 14.283l-4 .191V12h4zm-4 27.273 4-4V54h-4zm-7.334 4.506a5 5 0 0 1-7.07 0l-5.658-5.657a5.01 5.01 0 0 1 0-7.072l16.7-16.7 12.182-.581a10.8 10.8 0 0 1-1.843 2.016 3.086 3.086 0 0 0-3.7.412 3 3 0 1 0 4.949 1.154 13.6 13.6 0 0 0 1.687-1.718l-.546 11.444zM50.1 21.313a1.025 1.025 0 0 1-1.415 0 1 1 0 1 1 1.415 0M53.5 10h-8.56c2.966-3.368 6.637-3.053 8.56 0M19 5a3 3 0 0 1 3-3h16a3 3 0 0 1 3 3v5h-2V6a2 2 0 0 0-2-2H23a2 2 0 0 0-2 2v4h-2zm-4 7v9.667l-1.2 1.6a1.03 1.03 0 0 1-1.6 0l-1.2-1.6V12zM2 51V15a3 3 0 0 1 3-3h4v42H5a3 3 0 0 1-3-3m13 6a1 1 0 0 1-1 1H8a1 1 0 0 1-1-1v-1h8zm38 0a1 1 0 0 1-1 1h-6a1 1 0 0 1-1-1v-1h8zm5-6a3 3 0 0 1-3 3h-5V35.556l4.775-4.776c.355-.35.564-.823.586-1.321L56 16.1c.02-.42-.093-.834-.322-1.186.337-.85.507-1.756.5-2.67A3 3 0 0 1 58 15z"/><path d="m45.811 25.6.754-.755a1 1 0 1 0-1.414-1.414l-.755.756c-2.689-2.1-6.3-2.182-8.437-.049s-2.05 5.747.049 8.437l-5.649 5.649c-1.254-1.74-1.5-4.155-.056-5.6a1 1 0 1 0-1.414-1.414c-2.216 2.215-2 5.825.047 8.438l-.754.755a1 1 0 0 0 .707 1.707c.5 0 .643-.23 1.462-1.049 2.636 2.057 6.254 2.231 8.437.049 2.133-2.134 2.05-5.747-.049-8.437l5.649-5.649c1.254 1.74 1.5 4.154.056 5.6a1 1 0 0 0 1.414 1.415c2.216-2.214 1.998-5.823-.047-8.439m-8.438-.048c1.366-1.364 3.725-1.291 5.6.058l-5.542 5.542c-1.35-1.871-1.424-4.231-.058-5.597zm0 14.143c-1.368 1.366-3.726 1.291-5.6-.057l5.543-5.538c1.35 1.873 1.424 4.231.058 5.6z"/></svg>