<svg xmlns="http://www.w3.org/2000/svg" width="1.5rem" height="1.5rem" viewBox="0 0 60 60"><path d="M41.586 4.5C44.227 5.7 44.411 6.176 45 6.176a1 1 0 0 0 .519-1.856c-1-.606-2.036-1.153-3.1-1.639a1 1 0 1 0-.828 1.82zM49.548 7.242a1 1 0 1 0-1.3 1.516A28 28 0 1 1 2.066 31.932a1.002 1.002 0 0 0-2 .136c.94 13.569 10.892 24.807 24.247 27.383s26.773-4.156 32.692-16.402 2.858-26.942-7.457-35.807"/><path d="m.737 26.713 6.239 1.7a1.983 1.983 0 0 0 2.667 2.649l1.706 6.263a1 1 0 0 0 1.672.445c2.29-2.3 2.375-2.266 2.411-2.753l.635-8.369c3.569-2.484 3.162-2.184 3.361-2.364s-.87.877 4.2-4.192c4.644 4.639 1.79 1.5 11.969 13.379a1 1 0 0 0 1.739-.455l.707-3.536c.095-.471.6.781-7.551-16.252 4.929-4.928 3.288-3.037 6.339-7.308a3.361 3.361 0 0 0-4.687-4.689c-4.273 3.053-2.4 1.429-7.308 6.34C7.8-.576 9.052-.073 8.582.02L5.046.727a1 1 0 0 0-.454 1.739c11.814 10.116 8.665 7.255 13.38 11.97-4.715 4.716-4.217 4.2-4.35 4.386L11.415 22l-8.37.635c-.488.037-.442.1-2.752 2.412a1 1 0 0 0 .444 1.666M13.466 34.5l-.641.64L11.4 29.9l2.552-1.776zm22.551-5.081-.24 1.2c-8.64-10.076-6.283-7.48-10.735-11.932l3.95-3.95zM7.453 2.285l1.194-.239 14.689 7.025-3.951 3.951C14.863 8.5 17.464 10.865 7.453 2.285M15.239 20C30.877 4.356 30.016 5.208 30.117 5.136l3.189-2.278a1.362 1.362 0 0 1 1.9 1.9l-2.278 3.185c-.078.108.8-.775-14.821 14.838-10.421 7.264-9.2 6.473-9.3 6.473-.107.046.385-.562 6.432-9.254M3.566 24.6l6.376-.485-1.776 2.549-5.24-1.427z"/><path d="m15.693 43.113-.214.416c-.243.454-1.447.821-3.574.681a22.9 22.9 0 0 1-4.587-10.376 1 1 0 0 0-1.972.332C8.5 52.961 30.874 61.607 45.352 49.709a24.99 24.99 0 0 0-3.893-41.934 1 1 0 0 0-.918 1.777 23.1 23.1 0 0 1 7.172 5.768 6.17 6.17 0 0 1-2.619 3.18c-4.818 3.059-4.682 5.891-3.719 7.731.725 1.375 2.972 5.1 2.377 6.593a.91.91 0 0 1-.664.536 6.66 6.66 0 0 0-4.188 6.474c.179 1.768 1.493 4.734 7.891 5.865a23 23 0 0 1-2.368 2.2c-1.481-.243-6.347-1.062-9.8-1.874-3.857-.91-5.115-3.94-10.476-5.963-5.78-2.172-7.454 1.097-8.454 3.051m25.193-3.48a4.7 4.7 0 0 1 2.807-4.37 2.9 2.9 0 0 0 1.916-1.7c.967-2.418-1.3-6.059-2.463-8.266-.311-.593-1.255-2.4 3.02-5.112a8.4 8.4 0 0 0 2.9-3.046 22.97 22.97 0 0 1-.766 26.77c-4.561-.57-7.192-2.078-7.414-4.276m-17.449 2.3c5.11 1.929 6.207 4.971 10.724 6.038 2.52.592 5.764 1.186 7.953 1.566a23.03 23.03 0 0 1-28.466-3.328c1.834-.132 3.045-.71 3.6-1.744l.23-.444c.995-1.947 1.859-3.631 5.959-2.085z"/><path d="M22.077 33.724c.483 1.762 1.279 2.262 2.916 2.733.555.16.252.066 2.925 1.024 2.031.728 3.22-.314 3.1-1.665-.106-1.234-1.415-2.717-2.251-3.649C27.82 31.109 27 30.2 27 29c0-3.324-4.69-3.264-5.392.88a8.9 8.9 0 0 0 .469 3.844m1.5-3.512c.223-1.334 1.134-1.7 1.3-1.591A.48.48 0 0 1 25 29c0 3.095 3.023 4.7 3.936 6.688-.345-.059-2.462-.885-3.39-1.153-1.125-.324-1.284-.409-1.543-1.348a8 8 0 0 1-.422-2.975z"/></svg>