<svg enable-background="new 0 0 32 32" height="512" viewBox="0 0 32 32" width="512" xmlns="http://www.w3.org/2000/svg"><g id="_x30_1"><path d="m23.15 11.27h-11.86v-2.52c0-2.62 2.13-4.75 4.75-4.75 1.92 0 3.63 1.14 4.38 2.9.22.51.8.75 1.31.53.51-.21.75-.8.53-1.31-1.06-2.5-3.5-4.12-6.22-4.12-3.72 0-6.75 3.03-6.75 6.75v2.52h-.44c-2.21 0-4 1.79-4 4v10.73c0 2.21 1.79 4 4 4h14.3c2.21 0 4-1.79 4-4v-10.73c0-2.2-1.79-4-4-4zm2 14.73c0 1.1-.9 2-2 2h-14.3c-1.1 0-2-.9-2-2v-10.73c0-1.1.9-2 2-2h14.3c1.1 0 2 .9 2 2zm-7.35-5.65c0 .62-.32 1.18-.8 1.5v2.45c0 .55-.45 1-1 1s-1-.45-1-1v-2.45c-.48-.32-.8-.88-.8-1.5 0-.99.81-1.8 1.8-1.8s1.8.8 1.8 1.8z"/></g></svg>