<svg id="Line" height="1.5rem" viewBox="0 0 64 64" width="1.5rem" xmlns="http://www.w3.org/2000/svg"><g><path d="m50.362 58.343c-.661 0-1.319-.116-1.956-.345l-16.414-5.832-16.417 5.833c-2.147.771-4.528.186-6.089-1.513-1.581-1.717-1.975-4.09-1.026-6.19l18.31-41.238c.962-2.131 2.913-3.4 5.223-3.4 2.308 0 4.31 1.306 5.226 3.407l18.337 41.236c.925 2.124.53 4.491-1.027 6.186-1.103 1.197-2.583 1.856-4.167 1.856zm-18.37-8.239c.113 0 .227.02.335.058l16.752 5.952c1.426.514 2.955.128 3.976-.981 1.029-1.12 1.279-2.625.669-4.026l-18.337-41.237c-.604-1.389-1.872-2.213-3.395-2.213-1.501 0-2.771.829-3.397 2.218l-18.31 41.238c-.624 1.384-.372 2.884.673 4.019 1.021 1.112 2.534 1.49 3.944.983l16.755-5.953c.109-.038.222-.058.335-.058z"/></g></svg>