<svg xmlns="http://www.w3.org/2000/svg" width="1.5rem" height="1.5rem" viewBox="0 0 64 64"><path d="M50.362 58.343a5.8 5.8 0 0 1-1.956-.345l-16.414-5.832-16.417 5.833a5.645 5.645 0 0 1-6.089-1.513c-1.581-1.717-1.975-4.09-1.026-6.19L26.77 9.058c.962-2.131 2.913-3.4 5.223-3.4 2.308 0 4.31 1.306 5.226 3.407l18.337 41.236c.925 2.124.53 4.491-1.027 6.186-1.103 1.197-2.583 1.856-4.167 1.856m-18.37-8.239q.171 0 .335.058l16.752 5.952a3.66 3.66 0 0 0 3.976-.981c1.029-1.12 1.279-2.625.669-4.026L35.387 9.87c-.604-1.389-1.872-2.213-3.395-2.213-1.501 0-2.771.829-3.397 2.218l-18.31 41.238c-.624 1.384-.372 2.884.673 4.019 1.021 1.112 2.534 1.49 3.944.983l16.755-5.953q.165-.057.335-.058"/></svg>