<svg id="Layer_1" enable-background="new 0 0 512 512" height="1.5rem" viewBox="0 0 512 512" width="1.5rem" xmlns="http://www.w3.org/2000/svg"><g><path d="m424.7 64.267h-57.301v-49.267c0-8.284-6.716-15-15-15h-192.798c-8.284 0-15 6.716-15 15v49.267h-57.301c-30.419 0-55.166 24.748-55.166 55.167v377.566c0 8.284 6.716 15 15 15h176.732 64.268 176.732c8.284 0 15-6.716 15-15v-377.566c0-30.42-24.747-55.167-55.166-55.167zm-250.099-34.267h162.799v49.189c0 .026-.004.051-.004.077s.004.051.004.077v113.457h-162.799zm64.265 452v-66.4h34.268v66.4zm211 0h-146.732v-81.4c0-8.284-6.716-15-15-15h-64.268c-8.284 0-15 6.716-15 15v81.4h-146.732v-362.566c0-13.877 11.289-25.167 25.166-25.167h57.301v113.533c0 8.284 6.716 15 15 15h192.799c8.284 0 15-6.716 15-15v-113.533h57.3c13.877 0 25.166 11.29 25.166 25.167z"/><path d="m288.134 64.267c-8.284 0-15 6.716-15 15v17.133h-34.268v-17.133c0-8.284-6.716-15-15-15s-15 6.716-15 15v64.267c0 8.284 6.716 15 15 15s15-6.716 15-15v-17.134h34.268v17.133c0 8.284 6.716 15 15 15s15-6.716 15-15v-64.266c0-8.285-6.716-15-15-15z"/><path d="m221.108 266.707h-49.36c-.607-5.377-4.085-10.066-9.165-12.171-5.605-2.32-12.057-1.039-16.347 3.252l-45.443 45.445c-5.858 5.858-5.858 15.355 0 21.213l45.443 45.443c2.869 2.87 6.706 4.394 10.609 4.394 1.933 0 3.882-.374 5.737-1.142 5.079-2.104 8.557-6.793 9.165-12.169h49.36c8.284 0 15-6.716 15-15v-64.266c.001-8.283-6.714-14.999-14.999-14.999zm-15 64.266h-49.266c-2.093 0-4.085.428-5.895 1.203l-18.336-18.335 18.335-18.336c1.81.774 3.803 1.203 5.896 1.203h49.266z"/><path d="m352.399 257.066h-64.266c-8.284 0-15 6.716-15 15v64.267c0 8.284 6.716 15 15 15h64.266c8.284 0 15-6.716 15-15v-64.267c0-8.284-6.715-15-15-15zm-15 64.267h-34.266v-34.267h34.266z"/></g></svg>