<svg xmlns="http://www.w3.org/2000/svg" width="1.5rem" height="1.5rem" viewBox="0 0 512 512"><path d="M424.7 64.267h-57.301V15c0-8.284-6.716-15-15-15H159.601c-8.284 0-15 6.716-15 15v49.267H87.3c-30.419 0-55.166 24.748-55.166 55.167V497c0 8.284 6.716 15 15 15h417.732c8.284 0 15-6.716 15-15V119.434c0-30.42-24.747-55.167-55.166-55.167M174.601 30H337.4v49.189c0 .026-.004.051-.004.077s.004.051.004.077V192.8H174.601zm64.265 452v-66.4h34.268V482zm211 0H303.134v-81.4c0-8.284-6.716-15-15-15h-64.268c-8.284 0-15 6.716-15 15V482H62.134V119.434c0-13.877 11.289-25.167 25.166-25.167h57.301V207.8c0 8.284 6.716 15 15 15H352.4c8.284 0 15-6.716 15-15V94.267h57.3c13.877 0 25.166 11.29 25.166 25.167z"/><path d="M288.134 64.267c-8.284 0-15 6.716-15 15V96.4h-34.268V79.267c0-8.284-6.716-15-15-15s-15 6.716-15 15v64.267c0 8.284 6.716 15 15 15s15-6.716 15-15V126.4h34.268v17.133c0 8.284 6.716 15 15 15s15-6.716 15-15V79.267c0-8.285-6.716-15-15-15M221.108 266.707h-49.36a15.002 15.002 0 0 0-25.512-8.919l-45.443 45.445c-5.858 5.858-5.858 15.355 0 21.213l45.443 45.443a14.99 14.99 0 0 0 16.346 3.252 15 15 0 0 0 9.165-12.169h49.36c8.284 0 15-6.716 15-15v-64.266c.001-8.283-6.714-14.999-14.999-14.999m-15 64.266h-49.266c-2.093 0-4.085.428-5.895 1.203l-18.336-18.335 18.335-18.336a15 15 0 0 0 5.896 1.203h49.266zM352.399 257.066h-64.266c-8.284 0-15 6.716-15 15v64.267c0 8.284 6.716 15 15 15h64.266c8.284 0 15-6.716 15-15v-64.267c0-8.284-6.715-15-15-15m-15 64.267h-34.266v-34.267h34.266z"/></svg>