<svg id="Line" height="1.5rem" viewBox="0 0 64 64" width="1.5rem" xmlns="http://www.w3.org/2000/svg"><g><path d="m29.456 33.379c5.127 0 9.299-4.172 9.299-9.3 0-5.113-4.172-9.273-9.299-9.273s-9.299 4.16-9.299 9.273c-.001 5.128 4.171 9.3 9.299 9.3zm0-16.573c4.025 0 7.299 3.263 7.299 7.273 0 4.025-3.274 7.3-7.299 7.3s-7.299-3.275-7.299-7.3c-.001-4.011 3.274-7.273 7.299-7.273z"/><path d="m56.075 34.878c.102-.95.166-1.91.166-2.866 0-14.77-12.016-26.785-26.785-26.785s-26.786 12.016-26.786 26.786c0 14.755 12.016 26.76 26.785 26.76 3.831 0 7.523-.804 10.989-2.372 2.151 1.492 4.757 2.372 7.567 2.372 7.344 0 13.318-5.975 13.318-13.318.001-4.312-2.068-8.141-5.254-10.577zm-26.619-27.65c13.667 0 24.785 11.119 24.785 24.785 0 .549-.02 1.101-.056 1.65-1.848-.971-3.945-1.528-6.173-1.528-4.331 0-8.173 2.087-10.607 5.299h-19.955c-4.152 0-7.971 2.146-10.184 5.592-1.658-3.32-2.596-7.058-2.596-11.013 0-13.667 11.119-24.785 24.786-24.785zm0 49.544c-8.867 0-16.656-4.678-21.038-11.69 1.715-3.439 5.196-5.648 9.032-5.648h18.697c-.923 1.811-1.454 3.853-1.454 6.021 0 3.728 1.544 7.099 4.021 9.519-2.94 1.191-6.047 1.798-9.258 1.798zm18.555 0c-6.241 0-11.318-5.078-11.318-11.318 0-6.242 5.077-11.319 11.318-11.319s11.319 5.077 11.319 11.319c0 6.241-5.078 11.318-11.319 11.318z"/><path d="m52.866 44.454h-3.854v-3.854c0-.552-.448-1-1-1s-1 .448-1 1v3.854h-3.854c-.552 0-1 .448-1 1s.448 1 1 1h3.854v3.854c0 .552.448 1 1 1s1-.448 1-1v-3.854h3.854c.552 0 1-.448 1-1s-.448-1-1-1z"/></g></svg>