<svg id="Line" height="1.5rem" viewBox="0 0 64 64" width="1.5rem" xmlns="http://www.w3.org/2000/svg"><g><path d="m29.456 33.379c5.128 0 9.3-4.172 9.3-9.3 0-5.127-4.172-9.299-9.3-9.299s-9.3 4.171-9.3 9.299 4.172 9.3 9.3 9.3zm0-16.599c4.025 0 7.3 3.274 7.3 7.299s-3.275 7.3-7.3 7.3-7.3-3.275-7.3-7.3c0-4.024 3.275-7.299 7.3-7.299z"/><path d="m56.052 34.86c.1-.942.163-1.896.163-2.848 0-14.77-12.004-26.785-26.759-26.785-14.77 0-26.786 12.016-26.786 26.785 0 14.755 12.016 26.76 26.786 26.76 3.83 0 7.517-.803 10.978-2.37 2.154 1.49 4.764 2.37 7.578 2.37 7.344 0 13.318-5.975 13.318-13.319 0-4.322-2.079-8.158-5.278-10.593zm-26.596-27.632c13.652 0 24.759 11.119 24.759 24.785 0 .546-.02 1.093-.055 1.638-1.842-.963-3.931-1.516-6.148-1.516-4.339 0-8.189 2.087-10.628 5.299h-19.933c-4.157 0-7.979 2.137-10.196 5.57-1.651-3.314-2.585-7.045-2.585-10.991 0-13.667 11.119-24.785 24.786-24.785zm0 49.544c-8.876 0-16.673-4.688-21.052-11.712 1.72-3.426 5.204-5.626 9.047-5.626h18.674c-.925 1.811-1.457 3.852-1.457 6.02 0 3.73 1.549 7.103 4.033 9.523-2.934 1.189-6.036 1.795-9.245 1.795zm18.556 0c-6.255 0-11.344-5.078-11.344-11.319s5.089-11.318 11.344-11.318c6.241 0 11.318 5.078 11.318 11.318 0 6.242-5.077 11.319-11.318 11.319z"/><path d="m52.865 44.453h-9.708c-.553 0-1 .448-1 1s.447 1 1 1h9.708c.553 0 1-.448 1-1s-.447-1-1-1z"/></g></svg>