<svg id="Layer_1" enable-background="new 0 0 512 512" height="1.5rem" viewBox="0 0 512 512" width="1.5rem" xmlns="http://www.w3.org/2000/svg"><g><path d="m424.7 64.267h-57.299v-49.267c0-8.284-6.716-15-15-15h-192.8c-8.284 0-15 6.716-15 15v49.267h-57.301c-30.419 0-55.166 24.748-55.166 55.167v377.566c0 8.284 6.716 15 15 15h176.732 64.268 176.732c8.284 0 15-6.716 15-15v-377.566c0-30.42-24.747-55.167-55.166-55.167zm-250.099-34.267h162.801v49.15c0 .039-.006.077-.006.116s.006.077.006.116v113.418h-162.801zm64.265 452v-66.4h34.268v66.4zm211 0h-146.732v-81.4c0-8.284-6.716-15-15-15h-64.268c-8.284 0-15 6.716-15 15v81.4h-146.732v-362.566c0-13.877 11.289-25.167 25.166-25.167h57.301v113.533c0 8.284 6.716 15 15 15h192.801c8.284 0 15-6.716 15-15v-113.533h57.298c13.877 0 25.166 11.29 25.166 25.167z"/><path d="m288.134 64.267c-8.284 0-15 6.716-15 15v17.133h-34.268v-17.133c0-8.284-6.716-15-15-15s-15 6.716-15 15v64.267c0 8.284 6.716 15 15 15s15-6.716 15-15v-17.134h34.268v17.133c0 8.284 6.716 15 15 15s15-6.716 15-15v-64.266c0-8.285-6.716-15-15-15z"/><path d="m186.274 257.789c-4.291-4.291-10.743-5.573-16.348-3.252-5.08 2.104-8.558 6.794-9.165 12.171h-49.36c-8.284 0-15 6.716-15 15v64.266c0 8.284 6.716 15 15 15h49.356c.608 5.376 4.086 10.065 9.165 12.169 1.856.769 3.804 1.142 5.737 1.142 3.902 0 7.74-1.524 10.609-4.394l45.445-45.443c5.857-5.858 5.858-15.355.001-21.213zm-4.715 74.386c-1.81-.774-3.803-1.203-5.896-1.203h-49.262v-34.266h49.266c2.093 0 4.086-.429 5.896-1.203l18.333 18.335z"/><path d="m352.401 257.066h-64.268c-8.284 0-15 6.716-15 15v64.267c0 8.284 6.716 15 15 15h64.268c8.284 0 15-6.716 15-15v-64.267c0-8.284-6.715-15-15-15zm-15 64.267h-34.268v-34.267h34.268z"/></g></svg>