<svg xmlns="http://www.w3.org/2000/svg" width="1.5rem" height="1.5rem" viewBox="0 0 512 512"><path d="M424.7 64.267h-57.299V15c0-8.284-6.716-15-15-15h-192.8c-8.284 0-15 6.716-15 15v49.267H87.3c-30.419 0-55.166 24.748-55.166 55.167V497c0 8.284 6.716 15 15 15h417.732c8.284 0 15-6.716 15-15V119.434c0-30.42-24.747-55.167-55.166-55.167M174.601 30h162.801v49.15c0 .039-.006.077-.006.116s.006.077.006.116V192.8H174.601zm64.265 452v-66.4h34.268V482zm211 0H303.134v-81.4c0-8.284-6.716-15-15-15h-64.268c-8.284 0-15 6.716-15 15V482H62.134V119.434c0-13.877 11.289-25.167 25.166-25.167h57.301V207.8c0 8.284 6.716 15 15 15h192.801c8.284 0 15-6.716 15-15V94.267H424.7c13.877 0 25.166 11.29 25.166 25.167z"/><path d="M288.134 64.267c-8.284 0-15 6.716-15 15V96.4h-34.268V79.267c0-8.284-6.716-15-15-15s-15 6.716-15 15v64.267c0 8.284 6.716 15 15 15s15-6.716 15-15V126.4h34.268v17.133c0 8.284 6.716 15 15 15s15-6.716 15-15V79.267c0-8.285-6.716-15-15-15M186.274 257.789a15.002 15.002 0 0 0-25.513 8.919h-49.36c-8.284 0-15 6.716-15 15v64.266c0 8.284 6.716 15 15 15h49.356a15.003 15.003 0 0 0 14.902 13.311c3.902 0 7.74-1.524 10.609-4.394l45.445-45.443c5.857-5.858 5.858-15.355.001-21.213zm-4.715 74.386a15 15 0 0 0-5.896-1.203h-49.262v-34.266h49.266a15 15 0 0 0 5.896-1.203l18.333 18.335zM352.401 257.066h-64.268c-8.284 0-15 6.716-15 15v64.267c0 8.284 6.716 15 15 15h64.268c8.284 0 15-6.716 15-15v-64.267c0-8.284-6.715-15-15-15m-15 64.267h-34.268v-34.267h34.268z"/></svg>