<svg xmlns="http://www.w3.org/2000/svg" width="1.5rem" height="1.5rem" viewBox="0 0 64 64"><path d="M57.03 22.164h-7.34a3.53 3.53 0 0 0-2.055-3.028 3.54 3.54 0 0 0-3.783.518l-.818.697v-3.904a6.11 6.11 0 0 0-6.102-6.103h-6.796v-3.28c0-1.343-.6-2.516-1.702-3.314-1.083-.758-2.332-.96-3.681-.521L7.627 9.211c-2.47.879-4.066 3.141-4.066 5.761v34.072c0 2.637 1.601 4.889 4.072 5.734l17.118 5.98c.448.158.905.238 1.358.238.812 0 1.616-.262 2.32-.755 1.085-.748 1.708-1.947 1.708-3.29v-3.309h6.796c3.364 0 6.102-2.725 6.102-6.074v-5.35l.818.697c.652.556 1.44.85 2.278.85a3.6 3.6 0 0 0 1.516-.337 3.51 3.51 0 0 0 2.046-3.023h7.338c1.88 0 3.409-1.53 3.409-3.41V25.573a3.414 3.414 0 0 0-3.41-3.409M28.137 56.953c0 .695-.292 1.263-.849 1.647q-.882.618-1.875.272L8.286 52.888c-1.656-.567-2.726-2.076-2.726-3.844V14.972c0-1.79 1.049-3.275 2.731-3.875L25.39 5.123q.372-.12.723-.12c.415 0 .81.129 1.162.375.564.408.862.991.862 1.685zm12.897-9.383c0 2.247-1.84 4.074-4.102 4.074h-6.796V12.343h6.796a4.107 4.107 0 0 1 4.102 4.103v5.608l-6.767 5.766c-1.043.899-1.595 2.102-1.595 3.479 0 1.375.571 2.605 1.599 3.454l6.763 5.762zm17.405-10.573c0 .777-.632 1.41-1.409 1.41h-8.334a1 1 0 0 0-1 1v.822c0 .598-.345 1.13-.889 1.386-.573.26-1.189.178-1.658-.22l-9.592-8.173c-.587-.485-.885-1.132-.885-1.922 0-.8.294-1.442.896-1.96l9.581-8.164c.286-.243.625-.372.982-.372.226 0 .454.051.665.147.563.264.899.794.899 1.419v.793a1 1 0 0 0 1 1h8.334a1.41 1.41 0 0 1 1.409 1.41v11.424z"/><path d="M23.411 26.586a1 1 0 0 0-1 1v8.844a1 1 0 0 0 2 0v-8.844a1 1 0 0 0-1-1"/></svg>