<svg xmlns="http://www.w3.org/2000/svg" width="1.5rem" height="1.5rem" viewBox="0 0 64 64"><path d="M29.456 33.392c5.127 0 9.299-4.172 9.299-9.3 0-5.127-4.172-9.299-9.299-9.299s-9.299 4.172-9.299 9.299c-.001 5.128 4.171 9.3 9.299 9.3m0-16.599c4.025 0 7.299 3.274 7.299 7.299s-3.274 7.3-7.299 7.3-7.299-3.274-7.299-7.3c-.001-4.025 3.274-7.299 7.299-7.299"/><path d="M56.07 34.862c.102-.95.17-1.906.17-2.863 0-14.769-12.016-26.784-26.785-26.784S2.67 17.23 2.67 31.999c0 14.77 12.016 26.786 26.785 26.786 3.832 0 7.523-.806 10.989-2.376a13.22 13.22 0 0 0 7.567 2.376c7.344 0 13.318-5.986 13.318-13.345.001-4.313-2.07-8.142-5.259-10.578M29.456 7.215c13.667 0 24.785 11.118 24.785 24.784q-.002.826-.059 1.649a13.2 13.2 0 0 0-6.17-1.526c-4.342 0-8.194 2.099-10.627 5.324H17.45c-4.142 0-7.964 2.133-10.194 5.559A24.6 24.6 0 0 1 4.67 31.999c0-13.666 11.119-24.784 24.786-24.784m0 49.57c-8.877 0-16.675-4.694-21.054-11.729 1.736-3.416 5.221-5.61 9.048-5.61h18.684a13.2 13.2 0 0 0-1.441 5.994c0 3.737 1.546 7.115 4.024 9.54a24.4 24.4 0 0 1-9.261 1.805m18.555 0c-6.241 0-11.318-5.089-11.318-11.345 0-6.241 5.078-11.318 11.318-11.318S59.33 39.199 59.33 45.44c0 6.256-5.078 11.345-11.319 11.345"/><path d="m52.889 41.341-6.104 6.104-3.651-3.651a.999.999 0 1 0-1.414 1.414l4.358 4.358a.997.997 0 0 0 1.414 0l6.812-6.812a.999.999 0 1 0-1.415-1.413"/></svg>