<svg xmlns="http://www.w3.org/2000/svg" width="1.5rem" height="1.5rem" viewBox="0 0 64 64"><path d="M29.456 33.379c5.127 0 9.299-4.172 9.299-9.3 0-5.113-4.172-9.273-9.299-9.273s-9.299 4.16-9.299 9.273c-.001 5.128 4.171 9.3 9.299 9.3m0-16.573c4.025 0 7.299 3.263 7.299 7.273 0 4.025-3.274 7.3-7.299 7.3s-7.299-3.275-7.299-7.3c-.001-4.011 3.274-7.273 7.299-7.273"/><path d="M56.075 34.878c.102-.95.166-1.91.166-2.866 0-14.77-12.016-26.785-26.785-26.785S2.67 17.243 2.67 32.013c0 14.755 12.016 26.76 26.785 26.76 3.831 0 7.523-.804 10.989-2.372a13.23 13.23 0 0 0 7.567 2.372c7.344 0 13.318-5.975 13.318-13.318.001-4.312-2.068-8.141-5.254-10.577M29.456 7.228c13.667 0 24.785 11.119 24.785 24.785q-.001.825-.056 1.65a13.2 13.2 0 0 0-6.173-1.528c-4.331 0-8.173 2.087-10.607 5.299H17.45c-4.152 0-7.971 2.146-10.184 5.592A24.6 24.6 0 0 1 4.67 32.013c0-13.667 11.119-24.785 24.786-24.785m0 49.544c-8.867 0-16.656-4.678-21.038-11.69 1.715-3.439 5.196-5.648 9.032-5.648h18.697a13.2 13.2 0 0 0-1.454 6.021c0 3.728 1.544 7.099 4.021 9.519a24.5 24.5 0 0 1-9.258 1.798m18.555 0c-6.241 0-11.318-5.078-11.318-11.318 0-6.242 5.077-11.319 11.318-11.319S59.33 39.212 59.33 45.454c0 6.241-5.078 11.318-11.319 11.318"/><path d="M52.866 44.454h-3.854V40.6a1 1 0 0 0-2 0v3.854h-3.854a1 1 0 0 0 0 2h3.854v3.854a1 1 0 0 0 2 0v-3.854h3.854a1 1 0 0 0 0-2"/></svg>