<svg xmlns="http://www.w3.org/2000/svg" width="1.5rem" height="1.5rem" viewBox="0 0 64 64"><path d="M29.456 33.379c5.128 0 9.3-4.172 9.3-9.3 0-5.127-4.172-9.299-9.3-9.299s-9.3 4.171-9.3 9.299 4.172 9.3 9.3 9.3m0-16.599c4.025 0 7.3 3.274 7.3 7.299s-3.275 7.3-7.3 7.3-7.3-3.275-7.3-7.3c0-4.024 3.275-7.299 7.3-7.299"/><path d="M56.052 34.86c.1-.942.163-1.896.163-2.848 0-14.77-12.004-26.785-26.759-26.785-14.77 0-26.786 12.016-26.786 26.785 0 14.755 12.016 26.76 26.786 26.76 3.83 0 7.517-.803 10.978-2.37a13.28 13.28 0 0 0 7.578 2.37c7.344 0 13.318-5.975 13.318-13.319 0-4.322-2.079-8.158-5.278-10.593M29.456 7.228c13.652 0 24.759 11.119 24.759 24.785q-.001.82-.055 1.638a13.2 13.2 0 0 0-6.148-1.516c-4.339 0-8.189 2.087-10.628 5.299H17.451a12.15 12.15 0 0 0-10.196 5.57A24.6 24.6 0 0 1 4.67 32.013c0-13.667 11.119-24.785 24.786-24.785m0 49.544c-8.876 0-16.673-4.688-21.052-11.712 1.72-3.426 5.204-5.626 9.047-5.626h18.674a13.2 13.2 0 0 0-1.457 6.02c0 3.73 1.549 7.103 4.033 9.523a24.5 24.5 0 0 1-9.245 1.795m18.556 0c-6.255 0-11.344-5.078-11.344-11.319s5.089-11.318 11.344-11.318c6.241 0 11.318 5.078 11.318 11.318 0 6.242-5.077 11.319-11.318 11.319"/><path d="M52.865 44.453h-9.708a1 1 0 1 0 0 2h9.708a1 1 0 1 0 0-2"/></svg>