<svg xmlns="http://www.w3.org/2000/svg" width="1.5rem" height="1.5rem" viewBox="0 0 64 64"><path d="m58.67 27.872-9.439-8.051a3.47 3.47 0 0 0-3.726-.518c-1.236.561-1.995 1.674-2.058 3h-.725V16.67c0-3.318-2.712-6.018-6.045-6.018h-6.682V7.401a3.9 3.9 0 0 0-1.69-3.247 3.91 3.91 0 0 0-3.638-.531L7.809 9.517c-2.459.842-4.049 3.071-4.049 5.68v33.591c0 2.592 1.585 4.831 4.043 5.706l16.879 5.901c.438.146.884.22 1.324.22.823 0 1.618-.261 2.299-.755 1.091-.79 1.691-1.953 1.691-3.276V53.36h6.682c3.333 0 6.045-2.699 6.045-6.017v-7.05h.725c.063 1.325.821 2.438 2.046 2.995.477.224.977.337 1.484.337.821 0 1.601-.293 2.253-.85l9.429-8.041c1.034-.856 1.581-2.044 1.581-3.436-.001-1.391-.548-2.579-1.571-3.426M27.996 56.583c0 .684-.291 1.241-.864 1.657-.534.387-1.188.467-1.804.263l-16.86-5.895c-1.67-.595-2.708-2.059-2.708-3.82V15.197c0-1.74 1.059-3.227 2.703-3.79l16.877-5.9q.333-.121.662-.121c.395 0 .775.13 1.149.401.545.375.845.949.845 1.614zm12.727-9.241c0 2.215-1.814 4.017-4.045 4.017h-6.682V12.653h6.682c2.23 0 4.045 1.802 4.045 4.018v5.633h-4.471c-1.88 0-3.41 1.517-3.41 3.381V36.91c0 1.864 1.53 3.381 3.41 3.381h4.471zm16.65-14.14-9.439 8.05c-.463.395-1.029.488-1.602.219-.573-.261-.889-.743-.889-1.357v-.822a1 1 0 0 0-1-1h-8.191c-.777 0-1.41-.62-1.41-1.381V25.685c0-.762.633-1.381 1.41-1.381h8.191a1 1 0 0 0 1-1v-.822c0-.606.323-1.101.899-1.362.544-.255 1.128-.17 1.591.224l9.45 8.06c.576.477.856 1.097.856 1.894.001.797-.279 1.417-.866 1.904"/><path d="M23.354 26.641a1 1 0 0 0-1 1v8.73a1 1 0 1 0 2 0v-8.73a1 1 0 0 0-1-1"/></svg>