<svg xmlns="http://www.w3.org/2000/svg" width="1.5rem" height="1.5rem" viewBox="0 0 64 64"><path d="M57.871 17.035c-2.014-1.254-4.379-1.386-6.491-.364l-11.104 5.353c-.106-5.446-4.574-9.847-10.061-9.847h-17.15c-5.553 0-10.07 4.505-10.07 10.043v19.53c0 5.553 4.518 10.071 10.07 10.071h17.15c5.48 0 9.943-4.403 10.06-9.856L51.379 47.3c.94.456 1.931.682 2.919.682 1.231 0 2.459-.352 3.579-1.05 1.988-1.259 3.129-3.333 3.129-5.691V22.73c0-2.357-1.141-4.432-3.135-5.695M38.285 41.751c0 4.451-3.62 8.071-8.07 8.071h-17.15c-4.45 0-8.07-3.621-8.07-8.071v-19.53c0-4.435 3.62-8.043 8.07-8.043h17.15c4.45 0 8.07 3.608 8.07 8.043zm20.721-.51c0 1.683-.781 3.104-2.193 3.998-1.438.898-3.058.989-4.565.26l-11.962-5.747V24.241l11.965-5.769c1.506-.729 3.125-.636 4.557.256 1.418.898 2.199 2.319 2.199 4.002v18.511z"/><path d="M14.256 17.763a4.094 4.094 0 0 0-4.09 4.09c0 2.271 1.835 4.118 4.09 4.118s4.09-1.847 4.09-4.118a4.094 4.094 0 0 0-4.09-4.09m0 6.208c-1.152 0-2.09-.95-2.09-2.118 0-1.152.938-2.09 2.09-2.09s2.09.938 2.09 2.09c0 1.168-.938 2.118-2.09 2.118"/></svg>