<svg height="512" viewBox="0 0 60 60" width="512" xmlns="http://www.w3.org/2000/svg"><g id="022---Voice-Mailbox"><path id="Shape" d="m57 0h-29c-8.7 0-11 7.85-11 12v18h-13c-2.209139 0-4 1.790861-4 4v22c0 2.209139 1.790861 4 4 4h34c2.209139 0 4-1.790861 4-4v-3h15c1.6568542 0 3-1.3431458 3-3v-47c0-1.65685425-1.3431458-3-3-3zm-29 2h21.53c-3.073 2.319-4.26 6.178-4.484 9h-25.984c.258-2.538 1.63-9 8.938-9zm12 54c0 1.1045695-.8954305 2-2 2h-34c-1.1045695 0-2-.8954305-2-2v-22c0-1.1045695.8954305-2 2-2h34c1.1045695 0 2 .8954305 2 2zm5-5h-3v-17c0-2.209139-1.790861-4-4-4h-19v-17h26zm13-1c0 .5522847-.4477153 1-1 1h-10v-39c0-.408.1-10 9-10h1c.5522847 0 1 .44771525 1 1z"/><path id="Shape" d="m23 9h19c.5522847 0 1-.44771525 1-1s-.4477153-1-1-1h-19c-.5522847 0-1 .44771525-1 1s.4477153 1 1 1z"/><path id="Shape" d="m23 24h18c1.1045695 0 2-.8954305 2-2v-4c0-1.1045695-.8954305-2-2-2h-18c-1.1045695 0-2 .8954305-2 2v4c0 1.1045695.8954305 2 2 2zm0-6h18v4h-18z"/><path id="Shape" d="m55 5c-.5522847 0-1 .44771525-1 1v2c0 .55228475.4477153 1 1 1s1-.44771525 1-1v-2c0-.55228475-.4477153-1-1-1z"/><path id="Shape" d="m55 11c-.5522847 0-1 .4477153-1 1v26c0 .5522847.4477153 1 1 1s1-.4477153 1-1v-26c0-.5522847-.4477153-1-1-1z"/><path id="Shape" d="m30 38c-2.8426066.0036441-5.4007466 1.725968-6.4734632 4.3584013-1.0727165 2.6324332-.4469741 5.6521892 1.5834632 7.6415987h-8.22c2.3875732-2.3409765 2.78417-6.0444836.9464264-8.8379359-1.8377435-2.7934523-5.3957013-3.8953552-8.49060154-2.6295473-3.09490022 1.2658078-4.86091537 4.5452048-4.21436448 7.8258524.6465509 3.2806476 3.52478916 5.6447539 6.86853962 5.6416308h18c3.8659932 0 7-3.1340068 7-7s-3.1340068-7-7-7zm-23 7c0-2.7614237 2.23857625-5 5-5 2.7614237 0 5 2.2385763 5 5s-2.2385763 5-5 5c-2.76005315-.0033061-4.99669388-2.2399468-5-5zm23 5c-2.7614237 0-5-2.2385763-5-5s2.2385763-5 5-5 5 2.2385763 5 5c-.0033061 2.7600532-2.2399468 4.9966939-5 5z"/></g></svg>