<svg id="Layer_1" enable-background="new 0 0 512 512" height="1.5rem" viewBox="0 0 512 512" width="1.5rem" xmlns="http://www.w3.org/2000/svg"><g><path d="m424.699 0h-337.398c-30.42 0-55.168 24.747-55.168 55.166v401.667c0 30.419 24.748 55.167 55.168 55.167h337.398c30.42 0 55.168-24.748 55.168-55.167v-401.667c0-30.419-24.748-55.166-55.168-55.166zm25.168 55.166v73.367h-259.201v-98.533h234.033c13.878 0 25.168 11.289 25.168 25.166zm-362.566-25.166h73.365v98.533h-98.533v-73.367c0-13.877 11.29-25.166 25.168-25.166zm337.398 452h-337.398c-13.877 0-25.168-11.29-25.168-25.167v-298.3h387.734v298.3c0 13.877-11.29 25.167-25.168 25.167z"/><path d="m261.46 89.87c2.79 2.8 6.66 4.399 10.61 4.399 3.94 0 7.81-1.6 10.6-4.399 2.79-2.79 4.4-6.65 4.4-10.601s-1.61-7.819-4.4-10.609-6.65-4.391-10.6-4.391-7.82 1.601-10.61 4.391-4.39 6.659-4.39 10.609 1.6 7.811 4.39 10.601z"/><path d="m111.4 94.27c3.95 0 7.81-1.6 10.61-4.399 2.79-2.79 4.39-6.65 4.39-10.601s-1.6-7.819-4.39-10.609-6.66-4.391-10.61-4.391-7.82 1.601-10.61 4.391-4.39 6.658-4.39 10.609 1.6 7.811 4.39 10.601c2.8 2.799 6.67 4.399 10.61 4.399z"/><path d="m336.33 94.27c3.95 0 7.82-1.6 10.61-4.399 2.79-2.79 4.39-6.65 4.39-10.601s-1.6-7.819-4.39-10.609-6.65-4.391-10.61-4.391c-3.95 0-7.81 1.601-10.6 4.391s-4.4 6.659-4.4 10.609 1.61 7.811 4.4 10.601c2.79 2.799 6.66 4.399 10.6 4.399z"/><path d="m400.6 94.27c3.95 0 7.81-1.6 10.61-4.399 2.79-2.79 4.39-6.65 4.39-10.601s-1.6-7.819-4.39-10.609-6.66-4.391-10.61-4.391-7.82 1.601-10.61 4.391-4.39 6.659-4.39 10.609 1.6 7.811 4.39 10.601c2.8 2.799 6.66 4.399 10.61 4.399z"/><path d="m384.533 305.267h-1.954c-7.447-63.242-61.369-112.467-126.579-112.467-70.285 0-127.467 57.182-127.467 127.467s57.182 127.466 127.467 127.466c65.21 0 119.132-49.226 126.58-112.467h1.954c8.284 0 15-6.716 15-15s-6.717-14.999-15.001-14.999zm-128.533 112.466c-53.743 0-97.467-43.724-97.467-97.467s43.724-97.466 97.467-97.466 97.467 43.724 97.467 97.467-43.724 97.466-97.467 97.466z"/></g></svg>