<svg xmlns="http://www.w3.org/2000/svg" width="1.5rem" height="1.5rem" viewBox="0 0 512 512"><path d="M507.606 174.806c-33.958-33.958-73.563-60.255-117.717-78.16C347.249 79.355 302.202 70.587 256 70.587c-46.213 0-91.26 8.766-133.891 26.053-44.146 17.901-83.751 44.2-117.717 78.166-5.858 5.858-5.858 15.355 0 21.213l43.816 43.817c5.856 5.858 15.354 5.857 21.213 0C119.259 190 185.52 162.554 256 162.554c70.479 0 136.739 27.446 186.575 77.281a15 15 0 0 0 21.212 0l43.816-43.817c5.862-5.857 5.862-15.354.003-21.212m-54.687 33.475c-54.09-48.944-123.445-75.726-196.917-75.726s-142.829 26.782-196.921 75.726l-22.63-22.63c60.149-54.965 137.539-85.063 219.55-85.063s159.4 30.098 219.548 85.063z"/><path d="M256 194.523c-61.935 0-120.174 24.123-163.97 67.917-5.858 5.858-5.858 15.355 0 21.213l43.816 43.818c5.857 5.857 15.355 5.859 21.213 0 26.428-26.426 61.565-40.979 98.939-40.979 37.375 0 72.514 14.554 98.941 40.98a15 15 0 0 0 21.213-.001l43.814-43.819c5.857-5.858 5.856-15.355-.001-21.212C376.172 218.644 317.94 194.523 256 194.523m109.087 101.589c-30.534-25.65-68.736-39.618-109.088-39.618s-78.553 13.968-109.087 39.618l-22.677-22.678c36.628-31.647 82.868-48.91 131.765-48.91s95.138 17.263 131.764 48.91z"/><path d="M256.001 318.461c-28.834 0-55.943 11.229-76.334 31.617a15 15 0 0 0 0 21.213l65.727 65.728c2.929 2.929 6.768 4.394 10.606 4.394s7.678-1.465 10.606-4.393l65.729-65.727a15 15 0 0 0 0-21.214c-20.39-20.389-47.499-31.618-76.334-31.618M256 405.2l-43.5-43.501c12.754-8.61 27.772-13.238 43.501-13.238s30.748 4.628 43.501 13.238z"/></svg>