<svg xmlns="http://www.w3.org/2000/svg" width="1.5rem" height="1.5rem" viewBox="0 0 64 64"><path d="M54.621 3.008H43.594c-3.443 0-6.244 2.789-6.244 6.216v4.527H14.34c-6.179 0-11.205 5.026-11.205 11.205v24.832c0 6.178 5.026 11.204 11.205 11.204h24.832c6.179 0 11.205-5.026 11.205-11.204V26.523h4.244a6.25 6.25 0 0 0 6.244-6.244V9.224c0-3.428-2.801-6.216-6.244-6.216m-6.244 46.78c0 5.075-4.129 9.204-9.205 9.204H14.34c-5.076 0-9.205-4.129-9.205-9.204V24.956c0-5.076 4.129-9.205 9.205-9.205h23.01v4.528a6.25 6.25 0 0 0 6.244 6.244h4.783zm10.488-29.509a4.25 4.25 0 0 1-4.244 4.244H43.594a4.25 4.25 0 0 1-4.244-4.244V9.224c0-2.325 1.904-4.216 4.244-4.216h11.027c2.34 0 4.244 1.891 4.244 4.216z"/><path d="M33.531 29.625H23.1a1 1 0 1 0 0 2h8.015L16.667 46.047a.999.999 0 1 0 1.412 1.416l14.452-14.428v7.993a1 1 0 1 0 2 0V30.625a1 1 0 0 0-1-1"/></svg>