<svg id="Line" height="1.5rem" viewBox="0 0 64 64" width="1.5rem" xmlns="http://www.w3.org/2000/svg"><g><path d="m54.621 3.008h-11.027c-3.443 0-6.244 2.789-6.244 6.216v4.527h-23.01c-6.178 0-11.205 5.026-11.205 11.205v24.832c0 6.178 5.026 11.204 11.205 11.204h24.832c6.179 0 11.205-5.026 11.205-11.204v-23.265h4.244c3.443 0 6.244-2.801 6.244-6.244v-11.055c0-3.428-2.801-6.216-6.244-6.216zm-6.244 46.78c0 5.075-4.129 9.204-9.205 9.204h-24.832c-5.075 0-9.205-4.129-9.205-9.204v-24.832c0-5.076 4.129-9.205 9.205-9.205h23.01v4.528c0 3.443 2.801 6.244 6.244 6.244h4.783zm10.488-29.509c0 2.34-1.904 4.244-4.244 4.244h-11.027c-2.34 0-4.244-1.904-4.244-4.244v-11.055c0-2.325 1.904-4.216 4.244-4.216h11.027c2.34 0 4.244 1.891 4.244 4.216z"/><path d="m32.825 29.917-14.452 14.427v-8.021c0-.553-.448-1-1-1s-1 .447-1 1v10.432c0 .553.448 1 1 1h10.432c.552 0 1-.447 1-1s-.448-1-1-1h-8.014l14.447-14.422c.392-.39.392-1.023.002-1.414-.391-.392-1.025-.391-1.415-.002z"/></g></svg>