<svg id="Layer_1" enable-background="new 0 0 512 512" height="512" viewBox="0 0 512 512" width="512" xmlns="http://www.w3.org/2000/svg"><g><path d="m111.452 71.05 34.838-34.837 34.835 34.836c2.929 2.929 6.768 4.394 10.607 4.394 3.838 0 7.678-1.465 10.606-4.393 5.858-5.858 5.858-15.355 0-21.213l-45.441-45.443c-2.813-2.813-6.628-4.394-10.606-4.394-3.978 0-7.793 1.581-10.606 4.393l-45.446 45.443c-5.858 5.858-5.858 15.355 0 21.213 5.857 5.858 15.355 5.859 21.213.001z"/><path d="m290.833 71.05c2.813 2.813 6.628 4.394 10.606 4.394s7.794-1.581 10.606-4.394l45.443-45.443c5.858-5.858 5.858-15.355 0-21.213-5.857-5.858-15.355-5.858-21.213 0l-34.836 34.836-34.835-34.836c-5.858-5.857-15.355-5.858-21.213 0s-5.858 15.355 0 21.213z"/><path d="m360.432 109.71h-273.134c-30.418 0-55.166 24.748-55.166 55.167v332.123c0 8.284 6.716 15 15 15h353.465c8.284 0 15-6.716 15-15v-332.123c.001-30.419-24.746-55.167-55.165-55.167zm-298.3 55.167c0-13.877 11.29-25.167 25.166-25.167h121.566v342.29h-146.732zm323.466 317.123h-146.733v-342.29h121.567c13.877 0 25.166 11.29 25.166 25.167z"/><path d="m464.868 293.72c3.949 0 7.81-1.6 10.6-4.39 2.8-2.8 4.4-6.66 4.4-10.61 0-3.94-1.601-7.81-4.4-10.6-2.79-2.8-6.65-4.4-10.6-4.4s-7.82 1.6-10.61 4.4c-2.79 2.79-4.39 6.65-4.39 10.6s1.6 7.82 4.39 10.61 6.66 4.39 10.61 4.39z"/><path d="m464.868 327.99c-3.95 0-7.82 1.6-10.61 4.39s-4.39 6.66-4.39 10.61 1.6 7.82 4.39 10.61 6.66 4.39 10.61 4.39c3.949 0 7.81-1.6 10.6-4.39 2.8-2.8 4.4-6.66 4.4-10.61s-1.601-7.81-4.4-10.61c-2.79-2.79-6.651-4.39-10.6-4.39z"/></g></svg>