<svg id="Layer_1" enable-background="new 0 0 512 512" height="512" viewBox="0 0 512 512" width="512" xmlns="http://www.w3.org/2000/svg"><g><path d="m456.834 48.2h-401.668c-30.419 0-55.166 24.748-55.166 55.166v24.1 64.268 216.899c0 30.419 24.747 55.167 55.166 55.167h401.668c30.419 0 55.166-24.748 55.166-55.167v-216.9-64.268-24.1c0-30.417-24.747-55.165-55.166-55.165zm-401.668 30h401.668c13.877 0 25.166 11.29 25.166 25.166v9.1h-452v-9.1c0-13.876 11.289-25.166 25.166-25.166zm426.834 98.533h-452v-34.268h452zm-25.166 257.067h-401.668c-13.877 0-25.166-11.29-25.166-25.167v-201.9h452v201.899c0 13.878-11.289 25.168-25.166 25.168z"/><path d="m384.533 257.065c-8.284 0-15 6.716-15 15v33.201h-34.268v-33.201c0-8.284-6.716-15-15-15s-15 6.716-15 15v33.201h-68.212c-6.753-27.63-31.706-48.201-61.388-48.201-34.849 0-63.199 28.352-63.199 63.201 0 34.848 28.351 63.199 63.199 63.199 29.681 0 54.635-20.57 61.388-48.199h147.479c8.284 0 15-6.716 15-15v-48.201c.001-8.284-6.715-15-14.999-15zm-208.867 96.401c-18.306 0-33.199-14.893-33.199-33.199 0-18.307 14.894-33.201 33.199-33.201 18.308 0 33.201 14.894 33.201 33.201 0 18.306-14.893 33.199-33.201 33.199z"/></g></svg>