<svg id="Capa_1" enable-background="new 0 0 512 512" height="512" viewBox="0 0 512 512" width="512" xmlns="http://www.w3.org/2000/svg"><g><path d="m138.073 160.102c-8.102 0-14.692 6.591-14.692 14.693v16.065c0 8.102 6.591 14.693 14.692 14.693h84.686c4.143 0 7.5-3.358 7.5-7.5s-3.357-7.5-7.5-7.5h-84.378v-15.451h135.047v15.451h-16.961c-4.143 0-7.5 3.358-7.5 7.5s3.357 7.5 7.5 7.5h17.269c8.102 0 14.692-6.591 14.692-14.693v-16.065c0-8.102-6.591-14.693-14.692-14.693h-9.769v-40.687h8.503c8.799 0 15.958-7.159 15.958-15.958 0-10.275-5.479-19.935-14.297-25.209l-54.653-32.686c-8.372-5.008-18.775-5.008-27.147 0l-54.653 32.686c-8.818 5.274-14.296 14.934-14.296 25.209 0 8.799 7.158 15.958 15.957 15.958h8.503v40.687zm77.186-40.687v40.687h-18.709v-40.687zm33.708 40.687h-18.708v-40.687h18.708zm-110.586-56.644c0-5.028 2.681-9.755 6.995-12.336l54.653-32.686c1.812-1.083 3.843-1.625 5.874-1.625 2.032 0 4.063.542 5.875 1.625l54.653 32.686c4.315 2.581 6.996 7.308 6.996 12.336 0 .528-.43.958-.958.958h-133.131c-.527-.001-.957-.431-.957-.958zm24.46 15.957h18.709v40.687h-18.709z"/><path d="m450.06 217.046h-63.974v-190.731c0-14.51-11.805-26.315-26.315-26.315h-307.734c-14.511 0-26.315 11.805-26.315 26.315v36.849c0 4.142 3.357 7.5 7.5 7.5s7.5-3.358 7.5-7.5v-36.849c0-6.239 5.076-11.315 11.315-11.315h307.734c6.239 0 11.314 5.076 11.314 11.315v190.731h-51.479c-16.905 0-30.658 13.753-30.658 30.658v.795h-134.259c-4.143 0-7.5 3.358-7.5 7.5s3.357 7.5 7.5 7.5h134.259v56.934h-134.259c-4.143 0-7.5 3.358-7.5 7.5s3.357 7.5 7.5 7.5h134.259v29.776c0 9.74 2.636 19.063 7.47 27.158h-141.729c-4.143 0-7.5 3.358-7.5 7.5s3.357 7.5 7.5 7.5h155.099l9.777 7.762c3.244 2.575 7.962 2.033 10.537-1.211s2.033-7.961-1.211-10.537l-10.557-8.381c-9.143-7.259-14.387-18.117-14.387-29.791v-117.504c0-8.634 7.024-15.658 15.658-15.658h130.455c11.7 0 21.219 9.519 21.219 21.219v111.944c0 11.674-5.244 22.532-14.387 29.791l-53.362 42.365c-9.371 7.439-22.459 7.439-31.832 0l-14.696-11.667c-3.243-2.575-7.961-2.033-10.537 1.21-2.575 3.244-2.033 7.962 1.211 10.538l14.696 11.667c2.73 2.167 5.66 3.933 8.715 5.304v31.266c0 6.239-5.075 11.315-11.314 11.315h-307.736c-6.239 0-11.315-5.076-11.315-11.315v-386.2c0-4.142-3.357-7.5-7.5-7.5s-7.5 3.358-7.5 7.5v386.2c0 14.51 11.805 26.315 26.315 26.315h307.734c14.51 0 26.314-11.805 26.314-26.315v-27.753c8.181.396 18.898-2.502 26.77-8.818l53.362-42.365c12.749-10.122 20.061-25.262 20.061-41.539v-111.944c0-19.971-16.248-36.219-36.218-36.219z"/><path d="m377.49 372.799c9.559-.001 19.121-3.64 26.399-10.917l41.587-41.586c8.506-8.506 8.506-22.347 0-30.854-4.121-4.121-9.6-6.39-15.428-6.39-5.827 0-11.306 2.27-15.427 6.39l-37.133 37.132-16.885-16.885c-4.121-4.121-9.6-6.39-15.427-6.39-5.828 0-11.307 2.27-15.428 6.39-8.506 8.506-8.506 22.347 0 30.854l21.34 21.339c7.281 7.279 16.84 10.918 26.402 10.917zm-37.133-52.504c1.287-1.288 2.999-1.997 4.82-1.997 1.82 0 3.532.709 4.819 1.997l18.098 18.096c2.509 2.51 5.846 3.892 9.396 3.892 3.549 0 6.886-1.382 9.396-3.892l38.344-38.343c1.287-1.288 2.999-1.997 4.819-1.997 1.821 0 3.533.709 4.82 1.997 2.658 2.658 2.658 6.983 0 9.641l-41.587 41.586c-4.218 4.218-9.827 6.542-15.792 6.542-5.966 0-11.575-2.323-15.793-6.542l-21.34-21.339c-2.658-2.659-2.658-6.983 0-9.641z"/><path d="m105.702 229.112h-17.704c-9.945 0-18.036 8.091-18.036 18.036v17.705c0 9.945 8.091 18.036 18.036 18.036h17.704c9.945 0 18.036-8.091 18.036-18.036v-17.705c0-9.945-8.091-18.036-18.036-18.036zm3.036 35.741c0 1.674-1.362 3.036-3.036 3.036h-17.704c-1.674 0-3.036-1.362-3.036-3.036v-17.705c0-1.674 1.362-3.036 3.036-3.036h17.704c1.674 0 3.036 1.362 3.036 3.036z"/><path d="m69.962 336.787c0 9.945 8.091 18.036 18.036 18.036h17.704c9.945 0 18.036-8.091 18.036-18.036v-17.705c0-9.945-8.091-18.036-18.036-18.036h-17.704c-9.945 0-18.036 8.091-18.036 18.036zm15-17.705c0-1.674 1.362-3.036 3.036-3.036h17.704c1.674 0 3.036 1.362 3.036 3.036v17.705c0 1.674-1.362 3.036-3.036 3.036h-17.704c-1.674 0-3.036-1.362-3.036-3.036z"/><path d="m69.962 408.72c0 9.945 8.091 18.036 18.036 18.036h17.704c9.945 0 18.036-8.091 18.036-18.036v-17.705c0-9.945-8.091-18.036-18.036-18.036h-17.704c-9.945 0-18.036 8.091-18.036 18.036zm15-17.704c0-1.674 1.362-3.036 3.036-3.036h17.704c1.674 0 3.036 1.362 3.036 3.036v17.705c0 1.674-1.362 3.036-3.036 3.036h-17.704c-1.674 0-3.036-1.362-3.036-3.036z"/></g></svg>