<svg height="512" viewBox="0 0 60 56" width="512" xmlns="http://www.w3.org/2000/svg"><g id="031---Folder-Prefs"><path id="Shape" d="m56 0h-52c-2.209139 0-4 1.790861-4 4v38c0 2.209139 1.790861 4 4 4h11.06c-.5869631 1.1537878-.3676461 2.5539497.544 3.473l1.922 1.927c1.0140081 1.0069681 2.5960206 1.1627882 3.787.373l2.028-1.352c.6073618.3040052 1.2356205.5643315 1.88.779l.479 2.392c.2857202 1.3978432 1.5132628 2.403259 2.94 2.408h2.72c1.4285774-.0053264 2.6567596-1.0137726 2.94-2.414l.479-2.391c.6443443-.2143664 1.2726008-.4743576 1.88-.778l2.03 1.354c1.1908965.7872188 2.7707795.6306501 3.784-.375l1.927-1.922c.9104242-.9204 1.1277312-2.3210022.539-3.474h11.061c2.209139 0 4-1.790861 4-4v-38c0-2.209139-1.790861-4-4-4zm2 4v4h-36c-1.1045695 0-2-.8954305-2-2 0-1.949.136-2.813-.556-4h36.556c1.1045695 0 2 .8954305 2 2zm-54-2h12c1.1045695 0 2 .8954305 2 2 0 1.949-.136 2.813.556 4h-16.556v-4c0-1.1045695.8954305-2 2-2zm22.376 22.518c6.7393152-1.9581862 13.8162916 1.786179 15.9887504 8.4595054s-1.343938 13.8662965-7.9444648 16.2508107c-6.6005269 2.3845142-13.9021496-.9003253-16.4962856-7.4213161-1.3521578-3.4048463-1.2057479-7.2220451.4032416-10.5133157 1.6089894-3.2912705 4.5313511-5.7514016 8.0487584-6.7756843zm1-2.277.287-1.433c.0939714-.4662709.5013781-.803205.977-.808h2.72c.4767393.0009544.8865133.3383168.979.806l.288 1.436c-1.7380831-.3043319-3.5158011-.3046703-5.254-.001zm17.385 12.133 1.431.286c.4673643.0942045.8046165.503248.808.98v2.72c-.0009544.4767393-.3383168.8865133-.806.979l-1.433.287c.3185558-1.7361754.3185558-3.5158246 0-5.252zm-1.656-7.174-.812 1.217c-1.0087643-1.4477758-2.2662242-2.7052357-3.714-3.714l1.215-.811c.3974224-.2637499.9253072-.2128393 1.265.122l1.923 1.923c.3370793.3377351.3885814.8665735.123 1.263zm-25.4 1.217-.805-1.211c-.2641461-.3973233-.2132092-.9254801.122-1.265l1.923-1.923c.3377595-.3312352.8614179-.3804716 1.255-.118l1.217.812c-1.446129 1.0073811-2.7022291 2.2631426-3.71 3.709zm-2.468 11.2-1.431-.286c-.4633028-.0943153-.7985998-.4982526-.806-.971v-2.72c.0009544-.4767393.3383168-.8865133.806-.979l1.433-.287c-.3185558 1.7361754-.3185558 3.5158246 0 5.252zm4.969 10.483c-.3966165.2669526-.9267103.215829-1.265-.122l-1.923-1.923c-.3312352-.3377595-.3804716-.8614179-.118-1.255l.811-1.216c1.0088937 1.4477223 2.2667346 2.7048861 3.715 3.713zm11.154 3.9h-2.72c-.4767393-.0009544-.8865133-.3383168-.979-.806l-.287-1.433c1.7361754.3185558 3.5158246.3185558 5.252 0l-.286 1.431c-.0942045.4673643-.503248.8046165-.98.808zm11.622-5.941-1.923 1.923c-.3389604.3344721-.8658743.3857867-1.263.123l-1.217-.812c1.4475446-1.0090404 2.7049596-2.2664554 3.714-3.714l.811 1.215c.2641461.3973233.2132092.9254801-.122 1.265zm15.018-6.059c0 1.1045695-.8954305 2-2 2h-12.356l-.227-.341c.3040052-.6073618.5643315-1.2356205.779-1.88l2.392-.479c1.3994326-.2840677 2.4068682-1.5120365 2.412-2.94v-2.72c-.0053264-1.4285774-1.0137726-2.6567596-2.414-2.94l-2.386-.479c-.2143664-.6443443-.4743576-1.2726008-.778-1.88l1.354-2.03c.787616-1.1907981.6310203-2.7709539-.375-3.784l-1.927-1.927c-1.0141828-1.006597-2.5959217-1.1623902-3.787-.373l-2.016 1.344c-.6075343-.3162256-1.2416299-.5785638-1.895-.784l-.476-2.375c-.2840677-1.3994326-1.5120365-2.4068682-2.94-2.412h-2.72c-1.4285774.0053264-2.6567596 1.0137726-2.94 2.414l-.479 2.391c-.6443443.2143664-1.2726008.4743576-1.88.778l-2.03-1.354c-1.1907981-.787616-2.7709539-.6310203-3.784.375l-1.927 1.922c-1.006597 1.0141828-1.1623902 2.5959217-.373 3.787l1.352 2.028c-.3040052.6073618-.5643315 1.2356205-.779 1.88l-2.392.479c-1.3978432.2857202-2.403259 1.5132628-2.408 2.94v2.72c.0053264 1.4285774 1.0137726 2.6567596 2.414 2.94l2.389.478c.1952171.6549052.4537716 1.2892346.772 1.894l-.219.328h-12.356c-1.1045695 0-2-.8954305-2-2v-32h56z"/><path id="Shape" d="m5 12c-.55228475 0-1 .4477153-1 1v2c0 .5522847.44771525 1 1 1s1-.4477153 1-1v-2c0-.5522847-.44771525-1-1-1z"/><path id="Shape" d="m5 18c-.55228475 0-1 .4477153-1 1v22c0 .5522847.44771525 1 1 1s1-.4477153 1-1v-22c0-.5522847-.44771525-1-1-1z"/><path id="Shape" d="m23 7c.543 0 .565-.151 2.707-2.293.2599566-.25107447.3642126-.62287789.2726972-.97250732-.0915155-.34962944-.3645604-.6226744-.7141899-.71418984-.3496294-.09151544-.7214328.01274058-.9725073.27269716l-2 2c-.2859079.28599425-.3714219.71603662-.216678 1.08965456s.5192821.61725909.923678.61734544z"/><path id="Shape" d="m28 7c.543 0 .565-.151 2.707-2.293.2599566-.25107447.3642126-.62287789.2726972-.97250732-.0915155-.34962944-.3645604-.6226744-.7141899-.71418984-.3496294-.09151544-.7214328.01274058-.9725073.27269716l-2 2c-.2859079.28599425-.3714219.71603662-.216678 1.08965456s.5192821.61725909.923678.61734544z"/><path id="Shape" d="m33 7c.543 0 .565-.151 2.707-2.293.2599566-.25107447.3642126-.62287789.2726972-.97250732-.0915155-.34962944-.3645604-.6226744-.7141899-.71418984-.3496294-.09151544-.7214328.01274058-.9725073.27269716l-2 2c-.2859079.28599425-.3714219.71603662-.216678 1.08965456s.5192821.61725909.923678.61734544z"/><path id="Shape" d="m38 7c.543 0 .565-.151 2.707-2.293.2599566-.25107447.3642126-.62287789.2726972-.97250732-.0915155-.34962944-.3645604-.6226744-.7141899-.71418984-.3496294-.09151544-.7214328.01274058-.9725073.27269716l-2 2c-.2859079.28599425-.3714219.71603662-.216678 1.08965456s.5192821.61725909.923678.61734544z"/><path id="Shape" d="m43 7c.543 0 .565-.151 2.707-2.293.2599566-.25107447.3642126-.62287789.2726972-.97250732-.0915155-.34962944-.3645604-.6226744-.7141899-.71418984-.3496294-.09151544-.7214328.01274058-.9725073.27269716l-2 2c-.2859079.28599425-.3714219.71603662-.216678 1.08965456s.5192821.61725909.923678.61734544z"/><path id="Shape" d="m48 7c.543 0 .565-.151 2.707-2.293.2599566-.25107447.3642126-.62287789.2726972-.97250732-.0915155-.34962944-.3645604-.6226744-.7141899-.71418984-.3496294-.09151544-.7214328.01274058-.9725073.27269716l-2 2c-.2859079.28599425-.3714219.71603662-.216678 1.08965456s.5192821.61725909.923678.61734544z"/><path id="Shape" d="m53 7c.543 0 .565-.151 2.707-2.293.2599566-.25107447.3642126-.62287789.2726972-.97250732-.0915155-.34962944-.3645604-.6226744-.7141899-.71418984-.3496294-.09151544-.7214328.01274058-.9725073.27269716l-2 2c-.2859079.28599425-.3714219.71603662-.216678 1.08965456s.5192821.61725909.923678.61734544z"/><path id="Shape" d="m29 47c0 .5522847.4477153 1 1 1 6.0721626-.0071635 10.9928365-4.9278374 11-11 0-.5522847-.4477153-1-1-1s-1 .4477153-1 1c-.006061 4.9680501-4.0319499 8.993939-9 9-.2652165 0-.5195704.1053568-.7071068.2928932s-.2928932.4418903-.2928932.7071068z"/><path id="Shape" d="m19 37c0 .5522847.4477153 1 1 1s1-.4477153 1-1c.006061-4.9680501 4.0319499-8.993939 9-9 .5522847 0 1-.4477153 1-1s-.4477153-1-1-1c-6.0721626.0071635-10.9928365 4.9278374-11 11z"/><path id="Shape" d="m25 37c0 2.7614237 2.2385763 5 5 5s5-2.2385763 5-5-2.2385763-5-5-5c-2.7600532.0033061-4.9966939 2.2399468-5 5zm8 0c0 1.6568542-1.3431458 3-3 3s-3-1.3431458-3-3 1.3431458-3 3-3 3 1.3431458 3 3z"/></g></svg>