<svg height="512pt" viewBox="0 -16 512.00015 512" width="512pt" xmlns="http://www.w3.org/2000/svg"><path d="m509.445312 249.359375-41.695312-36.148437c6.902344-9.628907 12.222656-20.054688 12.222656-29.324219 0-26.246094-21.355468-47.601563-47.601562-47.601563-13.972656 0-26.558594 6.054688-35.273438 15.675782l-98.984375-85.816407c3.332031-6.3125 5.488281-12.660156 5.488281-18.542969 0-26.246093-21.355468-47.601562-47.601562-47.601562s-47.601562 21.355469-47.601562 47.601562c0 5.914063 2.183593 12.300782 5.542968 18.648438l-98.769531 86.023438c-8.722656-9.800782-21.421875-15.988282-35.542969-15.988282-26.246094 0-47.601562 21.355469-47.601562 47.601563 0 9.433593 5.511718 20.066406 12.59375 29.835937l-42.078125 36.648438c-3.390625 2.949218-3.390625 8.386718 0 11.335937l248.519531 216.457031c2.800781 2.4375 7.09375 2.433594 9.886719-.011718l137.015625-119.890625c3.125-2.730469 3.441406-7.480469.707031-10.605469-2.734375-3.121094-7.484375-3.4375-10.605469-.707031l-22.953125 20.085937-85.5625-97.785156v-48.871094l105.75-58.753906 3.53125 3.0625c-2.601562 5.875-4.058593 12.371094-4.058593 19.199219 0 24.902343 38.363281 58.144531 42.738281 61.851562 2.769531 2.347657 6.953125 2.347657 9.71875 0 2.050781-1.738281 11.574219-9.96875 21.113281-20.789062l34.738281 30.113281-77.226562 67.570312c-2.878907 2.519532-3.386719 6.941407-1.152344 10.046876 2.550781 3.546874 7.757813 4.148437 11.050781 1.265624l83.71875-73.253906c3.382813-2.957031 3.367188-8.390625-.027344-11.332031zm-253.445312-234.328125c17.957031 0 32.566406 14.609375 32.566406 32.570312 0 12.121094-18.339844 33.011719-32.566406 46.082032-8.84375-8.125-19.273438-19.269532-25.90625-29.457032-.144531-.257812-.304688-.507812-.480469-.753906-3.757812-5.917968-6.183593-11.472656-6.183593-15.875 0-17.957031 14.609374-32.566406 32.570312-32.566406zm-4.859375 94.417969c2.769531 2.351562 6.953125 2.351562 9.71875 0 2.632813-2.230469 17.566406-15.15625 29.046875-30.523438l83.304688 72.21875-100.027344 55.574219-94.988282-89.402344 43.96875-38.292968c11.472657 15.324218 26.347657 28.203124 28.976563 30.425781zm-171.511719 41.871093c17.957032 0 32.566406 14.609376 32.566406 32.566407 0 12.125-18.339843 33.015625-32.566406 46.085937-14.226562-13.074218-32.570312-33.964844-32.570312-46.085937 0-17.957031 14.609375-32.566407 32.570312-32.566407zm-25.550781 74.097657c9.394531 10.585937 18.667969 18.605469 20.691406 20.320312 2.765625 2.347657 6.949219 2.347657 9.71875 0 4.375-3.707031 42.738281-36.949219 42.738281-61.851562 0-6.675781-1.386718-13.03125-3.878906-18.800781l43.453125-37.847657 97.714844 91.964844v45.355469h-72.652344c-1.628906 0-3.210937.527344-4.511719 1.5l-84.320312 63.242187-84.113281-73.261719zm201.910156 237.101562-141.363281-123.125 79.746094-59.808593h74.253906l85.175781 97.347656zm176.382813-232.546875c-14.226563-13.074218-32.570313-33.964844-32.570313-46.085937 0-17.957031 14.613281-32.566407 32.570313-32.566407 17.957031 0 32.570312 14.609376 32.570312 32.566407 0 12.121093-18.34375 33.015625-32.570312 46.085937zm0 0"/><path d="m256 71.148438c12.984375 0 23.550781-10.5625 23.550781-23.546876 0-12.988281-10.566406-23.550781-23.550781-23.550781s-23.550781 10.5625-23.550781 23.550781c0 12.984376 10.566406 23.546876 23.550781 23.546876zm0-32.066407c4.695312 0 8.519531 3.820313 8.519531 8.519531 0 4.695313-3.824219 8.515626-8.519531 8.515626s-8.519531-3.820313-8.519531-8.515626c0-4.699218 3.824219-8.519531 8.519531-8.519531zm0 0"/><path d="m432.371094 160.335938c-12.984375 0-23.550782 10.566406-23.550782 23.550781s10.566407 23.550781 23.550782 23.550781 23.550781-10.566406 23.550781-23.550781-10.566406-23.550781-23.550781-23.550781zm0 32.070312c-4.695313 0-8.519532-3.820312-8.519532-8.519531 0-4.695313 3.824219-8.515625 8.519532-8.515625 4.695312 0 8.519531 3.820312 8.519531 8.515625 0 4.699219-3.824219 8.519531-8.519531 8.519531zm0 0"/><path d="m208.398438 368.277344c0 24.898437 38.367187 58.140625 42.742187 61.847656 1.398437 1.191406 3.128906 1.785156 4.859375 1.785156s3.457031-.59375 4.859375-1.785156c4.375-3.707031 42.742187-36.949219 42.742187-61.847656 0-26.25-21.355468-47.601563-47.601562-47.601563s-47.601562 21.351563-47.601562 47.601563zm80.167968 0c0 12.121094-18.339844 33.011718-32.566406 46.082031-14.226562-13.070313-32.570312-33.964844-32.570312-46.082031 0-17.960938 14.609374-32.570313 32.570312-32.570313 17.957031 0 32.566406 14.609375 32.566406 32.570313zm0 0"/><path d="m232.449219 368.277344c0 12.984375 10.566406 23.546875 23.550781 23.546875s23.550781-10.5625 23.550781-23.546875c0-12.988282-10.566406-23.550782-23.550781-23.550782s-23.550781 10.5625-23.550781 23.550782zm32.070312 0c0 4.695312-3.824219 8.515625-8.519531 8.515625s-8.519531-3.820313-8.519531-8.515625c0-4.699219 3.824219-8.519532 8.519531-8.519532s8.519531 3.820313 8.519531 8.519532zm0 0"/><path d="m103.179688 183.886719c0-12.984375-10.566407-23.550781-23.550782-23.550781s-23.550781 10.566406-23.550781 23.550781 10.566406 23.550781 23.550781 23.550781 23.550782-10.566406 23.550782-23.550781zm-32.070313 0c0-4.695313 3.820313-8.515625 8.519531-8.515625 4.695313 0 8.515625 3.820312 8.515625 8.515625 0 4.699219-3.820312 8.519531-8.515625 8.519531-4.699218 0-8.519531-3.824219-8.519531-8.519531zm0 0"/></svg>