<svg height="512" viewBox="0 0 60 60" width="512" xmlns="http://www.w3.org/2000/svg"><path id="Shape" d="m56 10c-.0033061-2.76005315-2.2399468-4.99669388-5-5h-3v-3c0-1.1045695-.8954305-2-2-2h-2c-1.1045695 0-2 .8954305-2 2v3h-11v-3c0-1.1045695-.8954305-2-2-2h-2c-1.1045695 0-2 .8954305-2 2v3h-11v-3c0-1.1045695-.8954305-2-2-2h-2c-1.1045695 0-2 .8954305-2 2v3h-3c-2.76005315.00330612-4.99669388 2.23994685-5 5v45c.00330612 2.7600532 2.23994685 4.9966939 5 5 40.825 0 37.192.014 37.488-.026 14.729.44 22.893-16.768 13.512-27.906zm-21.964 45 8.225-9.6 1.4 12.568c-3.4571899.1705864-6.8642661-.880032-9.625-2.968zm-1.368-22.847 9.023 10.838-9.18 10.709c-2.9103808-2.8390304-4.5384658-6.7412724-4.5088418-10.8069252.0296239-4.0656528 1.7143996-7.943756 4.6658418-10.7400748zm-21.668 14.847c-.5522847 0-1-.4477153-1-1v-4h7v5zm15-19v5h-7v-5zm9.017 0c-2.2663055 1.2094956-4.2272616 2.9194329-5.734 5h-1.283v-5zm16.947 3-8.953 10.45-8.8-10.576c5.2977575-3.8781398 12.5108228-3.8269458 17.753.126zm-25.683 9h-7.281v-5h9.008c-.835 1.5654873-1.4178294 3.2528912-1.727 5zm-16.281-5h7v5h-7zm7-2h-7v-4c0-.5522847.4477153-1 1-1h6zm2 9h7.051c-.1239013 1.6797147.026054 3.3684013.444 5h-7.495zm34.489-9.7c2.6303224 2.5738715 4.2184177 6.0278006 4.46 9.7h-12.775zm-9.489-30.3h2v8h-2zm-17 0h2v8h-2zm-17 0h2v8h-2zm-5 5h3v3c0 1.1045695.8954305 2 2 2h2c1.1045695 0 2-.8954305 2-2v-3h11v3c0 1.1045695.8954305 2 2 2h2c1.1045695 0 2-.8954305 2-2v-3h11v3c0 1.1045695.8954305 2 2 2h2c1.1045695 0 2-.8954305 2-2v-3h3c1.6568542 0 3 1.34314575 3 3v6h-52v-6c0-1.65685425 1.34314575-3 3-3zm0 51c-1.65685425 0-3-1.3431458-3-3v-37h52v12.057l-.014-.008c-3.0631376-2.614598-6.9587264-4.0503561-10.986-4.049h-32c-1.65685425 0-3 1.3431458-3 3v17c0 1.6568542 1.34314575 3 3 3h16.114c1.0184004 2.663311 2.6752505 5.0357829 4.825 6.909.025.021.055.029.082.048.9243905.7858937 1.9300975 1.4707803 3 2.043zm40.648-.249-1.53-13.751h13.831c-.465325 6.8606948-5.5343182 12.5272036-12.301 13.751z"/></svg>