<svg id="Line" height="512" viewBox="0 0 64 64" width="512" xmlns="http://www.w3.org/2000/svg"><g><path d="m29.456 33.392c5.127 0 9.299-4.172 9.299-9.3 0-5.127-4.172-9.299-9.299-9.299s-9.299 4.172-9.299 9.299c-.001 5.128 4.171 9.3 9.299 9.3zm0-16.599c4.025 0 7.299 3.274 7.299 7.299s-3.274 7.3-7.299 7.3-7.299-3.274-7.299-7.3c-.001-4.025 3.274-7.299 7.299-7.299z"/><path d="m56.07 34.862c.102-.95.17-1.906.17-2.863 0-14.769-12.016-26.784-26.785-26.784s-26.785 12.015-26.785 26.784c0 14.77 12.016 26.786 26.785 26.786 3.832 0 7.523-.806 10.989-2.376 2.151 1.494 4.757 2.376 7.567 2.376 7.344 0 13.318-5.986 13.318-13.345.001-4.313-2.07-8.142-5.259-10.578zm-26.614-27.647c13.667 0 24.785 11.118 24.785 24.784 0 .55-.022 1.101-.059 1.649-1.847-.97-3.943-1.526-6.17-1.526-4.342 0-8.194 2.099-10.627 5.324h-19.935c-4.142 0-7.964 2.133-10.194 5.559-1.652-3.318-2.586-7.055-2.586-11.006 0-13.666 11.119-24.784 24.786-24.784zm0 49.57c-8.877 0-16.675-4.694-21.054-11.729 1.736-3.416 5.221-5.61 9.048-5.61h18.684c-.915 1.805-1.441 3.837-1.441 5.994 0 3.737 1.546 7.115 4.024 9.54-2.94 1.197-6.048 1.805-9.261 1.805zm18.555 0c-6.241 0-11.318-5.089-11.318-11.345 0-6.241 5.078-11.318 11.318-11.318s11.319 5.077 11.319 11.318c0 6.256-5.078 11.345-11.319 11.345z"/><path d="m52.889 41.341-6.104 6.104-3.651-3.651c-.391-.391-1.023-.391-1.414 0s-.391 1.023 0 1.414l4.358 4.358c.195.195.451.293.707.293s.512-.098.707-.293l6.812-6.812c.391-.391.391-1.023 0-1.414s-1.024-.39-1.415.001z"/></g></svg>