<svg id="Layer_1" enable-background="new 0 0 512 512" height="512" viewBox="0 0 512 512" width="512" xmlns="http://www.w3.org/2000/svg"><g><path d="m424.699 0h-337.398c-30.42 0-55.168 24.747-55.168 55.166v337.4c0 25.22 17.018 46.524 40.168 53.076v51.358c0 8.284 6.716 15 15 15h64.266c8.284 0 15-6.716 15-15v-49.268h178.867v49.268c0 8.284 6.716 15 15 15h64.266c8.284 0 15-6.716 15-15v-51.357c23.15-6.552 40.168-27.856 40.168-53.076v-337.4c-.001-30.42-24.749-55.167-55.169-55.167zm25.168 55.166v266.166h-178.867v-291.332h153.699c13.878 0 25.168 11.289 25.168 25.166zm-362.566-25.166h153.699v291.332h-178.867v-266.166c0-13.877 11.29-25.166 25.168-25.166zm49.265 452h-34.266v-34.268h34.266zm273.133 0h-34.266v-34.268h34.266zm15-64.268h-64.266-208.867-64.265c-13.878 0-25.168-11.289-25.168-25.166v-41.234h387.734v41.234c0 13.877-11.29 25.166-25.168 25.166z"/><path d="m191.732 206.732c8.284 0 15-6.716 15-15v-32.132c0-8.284-6.716-15-15-15s-15 6.716-15 15v32.133c0 8.284 6.716 14.999 15 14.999z"/><path d="m320.266 206.732c8.284 0 15-6.716 15-15v-32.132c0-8.284-6.716-15-15-15s-15 6.716-15 15v32.133c0 8.284 6.715 14.999 15 14.999z"/></g></svg>